<svg id="Layer_1" xmlns="http://www.w3.org/2000/svg" viewBox="0 0 145.5 145.5"><style>.st0{fill:#56bc7f}.st1{fill:#fff}</style><circle class="st0" cx="72.7" cy="72.7" r="72.7"/><path class="st1" d="M43.4 94.4l-2.1-8.1H27.2L25 94.4H12.1l14.2-43.6h15.6l14.3 43.6H43.4zm-4.5-17.7L37 69.6c-.4-1.6-1-3.6-1.6-6.1-.6-2.5-1-4.3-1.2-5.4-.2 1-.5 2.7-1.1 5-.5 2.3-1.7 6.9-3.5 13.7h9.3zM89.3 81.3c0 2.7-.7 5.1-2 7.2-1.4 2.1-3.3 3.7-5.9 4.9-2.6 1.2-5.6 1.7-9.1 1.7-2.9 0-5.3-.2-7.3-.6s-4-1.1-6.1-2.1V81.9c2.2 1.2 4.6 2 7 2.7 2.4.6 4.6 1 6.6 1 1.7 0 3-.3 3.8-.9.8-.6 1.2-1.4 1.2-2.3 0-.6-.2-1.1-.5-1.6-.3-.4-.8-.9-1.6-1.4s-2.6-1.4-5.8-2.8c-2.8-1.3-5-2.5-6.4-3.7-1.4-1.2-2.5-2.6-3.1-4.2s-1-3.4-1-5.5c0-4 1.5-7.1 4.4-9.3 2.9-2.2 6.9-3.4 12-3.4 4.5 0 9.1 1 13.7 3.1l-3.6 9.1c-4.1-1.9-7.6-2.8-10.5-2.8-1.5 0-2.6.3-3.3.8-.7.5-1 1.2-1 2 0 .9.4 1.6 1.3 2.3.9.7 3.3 1.9 7.2 3.7 3.7 1.7 6.3 3.5 7.8 5.4s2.2 4.2 2.2 7.2zM133.1 94.4h-13.2l-8.6-16.6-3.5 2.1v14.5H96V51h11.8v18.8c.6-1.2 1.8-3 3.6-5.5l9.1-13.3h12.8l-13.7 19.4 13.5 24z"/></svg>