<svg id="Layer_1" xmlns="http://www.w3.org/2000/svg" viewBox="0 0 145.5 145.5"><style>.st0{fill:#747dbb}.st1{fill:#fff}</style><circle class="st0" cx="72.7" cy="72.7" r="72.7"/><path class="st1" d="M46.6 81.9c0 2.9-.7 5.5-2.2 7.7-1.5 2.2-3.6 4-6.3 5.2-2.8 1.2-6 1.9-9.7 1.9-3.1 0-5.7-.2-7.8-.7-2.1-.4-4.3-1.2-6.6-2.3V82.5c2.4 1.2 4.9 2.2 7.5 2.9s5 1 7.1 1c1.9 0 3.2-.3 4.1-1 .9-.6 1.3-1.4 1.3-2.4 0-.6-.2-1.2-.5-1.7-.4-.5-.9-1-1.7-1.5-.8-.5-2.8-1.5-6.2-3-3-1.4-5.3-2.7-6.8-4-1.5-1.3-2.6-2.8-3.4-4.5-.7-1.7-1.1-3.7-1.1-6 0-4.3 1.6-7.6 4.7-10s7.4-3.6 12.9-3.6c4.8 0 9.7 1.1 14.8 3.3l-3.9 9.7c-4.4-2-8.1-3-11.3-3-1.6 0-2.8.3-3.6.9-.7.6-1.1 1.3-1.1 2.1 0 .9.5 1.7 1.4 2.5s3.5 2 7.7 4c4 1.8 6.8 3.7 8.4 5.8 1.5 2.1 2.3 4.7 2.3 7.9zM93.8 96.1H81.1V77H66.5v19H53.8V49.4h12.7v17.3h14.6V49.4h12.7v46.7zM131.5 96.1h-27.7V49.4h27.7v10.1h-15.1v7.3h14V77h-14v8.8h15.1v10.3z"/></svg>