<?xml version="1.0" encoding="utf-8"?>
<!-- Generator: Adobe Illustrator 21.0.2, SVG Export Plug-In . SVG Version: 6.00 Build 0)  -->
<svg version="1.1" id="Layer_1" xmlns="http://www.w3.org/2000/svg" xmlns:xlink="http://www.w3.org/1999/xlink" x="0px" y="0px"
	 viewBox="0 0 215 385" style="enable-background:new 0 0 215 385;" xml:space="preserve">
<style type="text/css">
	.st0{fill:#8B335B;}
	.st1{fill:#AB3A58;}
	.st2{fill:#C44057;}
	.st3{fill:#E54859;}
	.st4{fill:#512C57;}
</style>
<g>
	<g>
		<g>
			<path class="st0" d="M183.7,224.4l-1.4,2.5c-5.7,10.3-12.8,20.5-20.9,30.4l-0.8,1c-0.5,0.6-1,1.1-1.4,1.7l-0.1,0.1
				c-0.1,0.1-0.2,0.2-0.2,0.2l-0.1,0.1c-1.1,1.2-2.2,2.5-3.2,3.8l-0.3,0.3l-1.9,0.5c-2.6,0.6-5,1.2-7.3,1.7c-2.5,0.6-5,1.1-7.4,1.6
				c-10,2-19.3,2.9-28.3,2.9c-6.3,0-12.5-0.5-18.8-1.4c-10.7-1.6-21.1-4.2-33.2-7.4l-0.5-0.2l-0.3-0.3c-1.5-1.7-2.8-3.2-4-4.7
				l-0.3-0.3c-8.5-10.3-15.7-20.9-21.5-31.6l-1.4-2.6l2.9,0.4c21.8,3.1,41.6,5.1,60.5,6c6.1,0.3,12.3,0.4,19.1,0.2
				c6.9,0.2,13.1,0.2,19.2-0.2c15.6-0.8,31.5-2.2,48.9-4.4L183.7,224.4z"/>
		</g>
		<g>
			<path class="st1" d="M199.8,179.6l-0.4,2c-1.1,6-2.8,12-4.8,18l-0.2,0.7c-0.2,0.4-0.2,0.8-0.4,1.2c-1.5,4.2-3.3,8.7-5.4,13.1
				c-1.9,4-4,8.2-6.3,12.3l-0.4,0.6l-0.8,0.1c-17.4,2.3-33.5,3.7-49.1,4.5c-3.9,0.2-7.7,0.3-11.8,0.3c-2.4,0-4.9,0-7.5-0.1
				c-6.8,0.2-13.1,0.2-19.3-0.2c-19-0.9-38.9-2.9-60.7-6l-0.7-0.1l-0.4-0.6c-2-3.6-3.8-7.1-5.4-10.7c-2-4.5-3.9-9-5.4-13.1
				c-0.4-1.1-0.8-2.1-1.1-3.2c0-0.1-0.1-0.2-0.1-0.2c-2-6-3.6-12.2-4.6-18.2l-0.4-2l2,0.3c28.3,4.6,53.4,7.3,76.8,8.5
				c6.1,0.3,12.3,0.4,19.1,0.2c6.9,0.2,13.1,0.2,19.2-0.2c20.4-1,41.9-3.2,65.8-6.7L199.8,179.6z"/>
		</g>
		<g>
			<path class="st2" d="M201.7,158.6c0,1.6,0,3-0.1,4.3c-0.2,6.1-1,12.4-2.2,18.7l-0.2,1l-1,0.2c-23.9,3.6-45.6,5.8-66.1,6.8
				c-3.9,0.2-7.7,0.3-11.8,0.3c-2.4,0-4.9,0-7.5-0.1c-6.8,0.2-13.1,0.2-19.3-0.2c-23.6-1.1-48.8-3.9-77.2-8.5l-1-0.2l-0.2-1
				c-1.1-5.7-1.7-11.4-1.9-17c-0.1-1.3-0.1-2.6-0.1-4.3c0-1.2,0-2.5,0.1-3.8c0.1-2.8,0.2-5.4,0.5-7.9l0.1-0.6
				c0.2-1.7,0.4-3.6,0.7-5.6c0.3-1.8,0.6-3.8,1-5.7l0.3-1.4l1.4,0.2c28.1,4.5,53.1,7.3,76.5,8.4c6,0.3,12.3,0.4,19.1,0.2
				c6.9,0.2,13.1,0.2,19.2-0.2c20.5-1,42.1-3.2,66-6.8l1.4-0.2l0.2,1.4c0.3,1.5,0.5,2.8,0.7,4c0.2,1.7,0.5,3.6,0.8,5.8
				c0,0.2,0,0.3,0.1,0.4c0.2,2.5,0.4,5.2,0.5,7.9C201.6,156,201.7,157.3,201.7,158.6z"/>
		</g>
		<g>
			<path class="st3" d="M199.9,138.1l-1.5,0.2c-24,3.6-45.7,5.8-66.3,6.8c-3.9,0.2-7.7,0.3-11.8,0.3c-2.4,0-4.9,0-7.5-0.1
				c-6.8,0.2-13.1,0.2-19.3-0.2c-23.4-1.1-48.5-3.9-76.8-8.5l-1.5-0.2l0.3-1.4c2.3-11.8,6.5-23.7,12.3-35.4c0.7-1.4,1.4-2.6,2-3.9
				l1.2-2.3l1.1,0.2c24,5.7,86.8,17.1,150.8,0.7l1.1-0.3l0.5,1c0.3,0.5,0.5,1.1,0.8,1.6c0.5,1,1.1,2,1.5,3c6,12.2,10.3,24.6,12.6,37
				L199.9,138.1z"/>
		</g>
	</g>
	<g>
		<path class="st4" d="M209.4,154.6c-0.1-2.9-0.3-5.8-0.5-8.5c0-0.1,0-0.1,0-0.2s0-0.1,0-0.2c-0.2-2.4-0.5-4.4-0.8-6.3
			c-0.2-1.4-0.5-2.6-0.7-4c-2.4-13.2-6.9-26.4-13.4-39.4c-0.5-1.1-1.1-2.1-1.6-3.1c-0.5-1-1.1-2-1.5-2.9c-1.2-2.2-2.5-4.5-3.9-6.7
			C171.3,57.6,147.2,32,115.5,7.2c-2.3-1.7-5-2.7-7.9-2.8h-0.2c-2.9,0.1-5.5,1-7.8,2.7C68.3,31.4,44.5,56.6,28.8,82
			c-1.6,2.6-3.2,5.3-4.8,8.2l-1,1.8c-0.8,1.4-1.5,2.8-2.1,4.2c-6.2,12.4-10.6,25-13,37.6c-0.4,2-0.7,3.9-1,5.8c-0.3,2-0.5,4-0.8,5.9
			l-0.1,0.5c0,0.1,0,0.1,0,0.2c-0.2,2.7-0.5,5.5-0.5,8.5c-0.2,1.4-0.2,2.7-0.2,4.1c0,1.7,0,3.2,0.1,4.6c0.2,4.9,0.7,9.8,1.4,14.8
			c1.1,7.6,2.9,15.1,5.4,22.7c0,0.1,0.1,0.2,0.1,0.2c0.3,1.1,0.7,2.1,1.1,3.2c1.6,4.4,3.5,9.1,5.7,13.8c0.8,1.7,1.6,3.3,2.4,5
			c6.6,13.1,15.2,26.2,25.5,38.9l0.2,0.2c0.1,0.1,0.2,0.2,0.2,0.2l0.1,0.1c3.2,3.9,6.6,7.8,10.2,11.6c3.2,3.5,6.6,7,10.1,10.3
			c6.1,5.9,12.5,11.6,18.9,16.8l-10,8.8l-28.6,24.9l-33.9,29.6c-2,1.7-2.9,4.3-2.4,7c0.5,2.6,2.2,4.8,4.7,5.7
			c6.1,2.3,13.1,3.5,20.5,3.5c20.6,0,44.4-8.8,61.8-23.9c3.5-3.1,6.3-5.9,8.7-8.5c2.4,2.9,5.3,5.7,8.5,8.5
			c23.6,20.6,59.1,29.5,82.3,20.5c2.5-1,4.2-3.1,4.7-5.7c0.5-2.6-0.5-5.2-2.5-7l-32.6-28.5l-29-25.3l-10.8-9.4
			c6.4-5.3,12.8-11,18.9-16.8c3.6-3.5,7-7,10.1-10.3c2.6-2.8,5.1-5.7,7.6-8.5c0.2-0.2,0.2-0.3,0.4-0.5c0.5-0.6,1.1-1.2,1.6-1.9
			l0.8-0.9c10-12.2,18.4-24.9,25-37.6c1.1-2.3,2.3-4.5,3.3-6.7c2.1-4.7,4.1-9.3,5.7-13.7c0.2-0.5,0.3-0.9,0.5-1.4l0.2-0.6
			c2.5-7.5,4.4-14.9,5.7-22.4c0.9-5.6,1.5-11.2,1.7-16.6c0.1-1.4,0.1-2.9,0.1-4.6C209.4,157.2,209.4,155.8,209.4,154.6z M87.5,50.9
			c10,0,18.1,8.1,18.1,18.1S97.5,87,87.5,87S69.5,78.9,69.5,69C69.5,59,77.5,50.9,87.5,50.9z M200.1,162.9
			c-0.2,6.1-0.9,12.2-2.1,18.5c-1.1,5.9-2.7,11.9-4.8,17.8l-0.2,0.7c-0.2,0.4-0.2,0.8-0.4,1.2c-1.5,4.2-3.3,8.6-5.4,13
			c-1.9,4.1-4,8.2-6.3,12.2c-5.7,10.2-12.7,20.3-20.8,30.1l-0.7,0.8c-0.5,0.6-1.1,1.2-1.5,1.8l-0.1,0.1c-0.1,0.1-0.2,0.2-0.2,0.2
			c-0.1,0-0.1,0.1-0.1,0.1c-0.5,0.5-0.9,1-1.3,1.5c-16,4.1-32.6,8.2-49.3,8.1c-16-0.1-31.4-3.6-48.3-7.9c-0.1-0.1-0.1-0.1-0.2-0.2
			c-1.4-1.6-2.6-3.1-3.9-4.7l-0.2-0.2c-0.1-0.1-0.1-0.1-0.1-0.2C46,245.7,38.8,235.2,33,224.6c-2-3.6-3.7-7-5.4-10.6
			c-2-4.5-3.9-8.9-5.4-13c-0.4-1.1-0.8-2.1-1.1-3.2c0-0.1-0.1-0.2-0.1-0.3c-2-6-3.5-12-4.5-18c-1-5.7-1.6-11.3-1.8-16.8
			c-0.1-1.2-0.1-2.6-0.1-4.2c0-1.2,0-2.5,0.1-3.7c0.1-2.7,0.2-5.4,0.5-7.9l0.1-0.5c0-0.1,0-0.1,0-0.2c0.2-1.7,0.4-3.6,0.7-5.5
			c0.3-1.9,0.6-3.8,1-5.7c2.3-11.7,6.3-23.4,12.2-35c0.7-1.4,1.4-2.6,2-3.9l0.4,0.1c14.9,3.6,44.6,9.3,80.5,9.3
			c22.3,0,46.9-2.3,71.8-8.6l0.3-0.1c0.1,0.1,0.1,0.2,0.2,0.2c0.5,1,1,2,1.5,2.9c6,12.1,10.2,24.3,12.5,36.6c0.2,1.4,0.5,2.6,0.7,4
			c0.3,1.7,0.5,3.6,0.8,5.7c0,0.2,0,0.3,0.1,0.5c0.2,2.5,0.4,5.1,0.5,7.8c0.1,1.1,0.1,2.5,0.1,3.8
			C200.2,160.2,200.2,161.6,200.1,162.9z"/>
	</g>
</g>
</svg>
