<?xml version="1.0" encoding="utf-8"?>
<!-- Generator: Adobe Illustrator 21.0.2, SVG Export Plug-In . SVG Version: 6.00 Build 0)  -->
<svg version="1.1" id="Layer_1" xmlns="http://www.w3.org/2000/svg" xmlns:xlink="http://www.w3.org/1999/xlink" x="0px" y="0px"
	 viewBox="0 0 320 320" style="enable-background:new 0 0 320 320;" xml:space="preserve">
<style type="text/css">
	.st0{fill:none;}
	.st1{fill:#AB3A58;}
	.st2{fill:#C44057;}
	.st3{fill:#E54859;}
	.st4{fill:#8B335B;}
</style>
<g>
	<path class="st0" d="M139.5,114.4c0.1,0.2,0.3,0.5,0.4,0.7C139.8,114.9,139.7,114.7,139.5,114.4c-1-1.7-2-3.4-3-5.2
		c-0.3-0.4-0.5-0.9-0.8-1.3c0.3,0.4,0.5,0.9,0.8,1.3C137.5,111,138.5,112.7,139.5,114.4z"/>
	<path class="st0" d="M188.2,171.3c-1-0.7-2.1-1.3-3.1-2c-2.9-1.9-5.6-4-8.3-6.1c2.6,2.1,5.4,4.1,8.3,6.1
		C186.2,170,187.2,170.7,188.2,171.3z"/>
	<path class="st1" d="M210.3,184.2c-1.7-1-2.4-3.1-4.1-4.1c-1.1-0.6-2-0.4-3.1-1c-0.6-0.4-1.4-0.7-2-1c-0.5-0.3-0.5-0.7-1-1
		c-1.2-0.7-3.9-2.3-5.1-3.1c-1.7-1-2.4-1-4.1-2c-0.7-0.4-1.4-0.6-2-1c-1-0.7-2-2.4-3.1-3.1c-2.9-1.9-3.5-4-6.1-6.1
		c-7.1-5.6-12.8-10.8-18.4-18.4c-6.8-9.2-14.8-18.9-20.4-28.6c-0.1-0.2,0.1,0.2,0,0c-1-1.7-2.1-3.4-3.1-5.1c-0.3-0.4,0.3-2.6,0-3.1
		c-0.1-0.2,0.1,0.2,0,0c-5.8-9.9-14.7-19.4-22.5-28.5c0,0,0,0,0,0c0,0,0,0,0,0c-9.6,20.2-14.1,41.9-16,61.1c0.8,1.3,2,4.9,2.7,6.1
		c0.4,0.6,0.7,4.5,1,5.1c1,1.7,0,2.4,1,4.1c5.6,9.6,10.6,20.4,17.3,29.6c7.5,10.1,13.2,16.5,23.5,23.5c1.6,1.1,4.5,2,6.1,3.1
		c1.7,1,1.4,0,3.1,1c1.7,1,6.5,3.1,8.2,4.1c1.7,1,4.4,1.1,6.1,2c1.7,1,3.4,1.1,5.1,2c1.1,0.6,3.7,0,4.8,0.6
		c19.5-1.7,41.8-6.2,62.7-15.9c-8-6.3-16.1-12.4-24.6-17.3C214.7,186.3,212,185.2,210.3,184.2z"/>
	<path class="st2" d="M284.9,171c-9.3-12.3-22.2-23.3-34.8-30.6c-1.5-0.9-2.5,0.9-4.1,0c-1.5-0.9-4.6-2.2-6.1-3.1
		c-1.5-0.9-2.5-2.1-4.1-3.1c-1.5-0.9-2.5-1.1-4.1-2c-1.5-0.9-2.6-3.1-4.1-4.1c-1.5-1-0.5-2.1-2-3.1c-9.5-6.4-18.6-12.1-25.5-21.4
		c-6.2-8.4-13.2-16.6-18.4-25.5c-0.9-1.5-1.1-5.6-2-7.1c-0.3-0.6,0.3,0.6,0,0c-7.4-12.7-16.7-26.8-29.6-35.7c-0.2-0.1-1,0-1.2-0.2
		c-0.1-0.1-0.1-0.1-0.2-0.1c-0.8,0.7-1.2,0.9-1.8,1.5c-3.5,3-6.8,6.1-9.9,9.5c-9.1,9.8-16.1,20.8-21.6,32.2
		c7.8,9.1,14.2,19.3,20,29.2c0.1,0.2,0.2,0.4,0.3,0.6c0.3,0.4,0.5,0.9,0.8,1.3c1,1.7,2,3.4,3,5.2c0.1,0.2,0.3,0.5,0.4,0.7
		c5.6,9.6,11.2,19.5,18,28.7c5.6,7.5,11.9,13.8,18.9,19.5c2.7,2.1,5.4,4.1,8.3,6.1c1,0.7,2,1.3,3.1,2c0.7,0.4,1.3,0.9,2,1.3
		c1.7,1.1,3.4,2.1,5.1,3.2c1.2,0.7,2.4,1.5,3.7,2.2c0.5,0.3,1,0.6,1.5,0.9c0.6,0.4,1.2,0.7,1.9,1.1c1.1,0.6,2.2,1.3,3.3,1.9
		c1.7,1,3.4,2,5.2,3c1.7,1,3.4,2,5.1,3c8.5,5,17.1,10.4,25.1,16.8c0,0,0,0,0,0c0,0,0,0,0,0c11.6-5.5,22.8-12.6,32.8-21.8
		C277.8,179.1,281.5,175.1,284.9,171z"/>
	<path class="st2" d="M176.9,163.2c-7.1-5.6-13.4-11.9-18.9-19.5c-6.8-9.2-12.4-19-18-28.7c5.6,9.7,11.2,19.5,18,28.7
		C163.5,151.3,169.8,157.6,176.9,163.2z"/>
	<path class="st2" d="M195.3,175.8c1.2,0.7,2.4,1.5,3.7,2.2C197.7,177.2,196.5,176.5,195.3,175.8c-1.7-1-3.4-2.1-5.1-3.2
		c-0.7-0.4-1.3-0.9-2-1.3c0.7,0.4,1.3,0.9,2,1.3C191.9,173.7,193.6,174.7,195.3,175.8z"/>
	<path class="st2" d="M135.4,107.4c0.1,0.2,0.2,0.4,0.3,0.6C135.7,107.8,135.6,107.6,135.4,107.4c-5.8-9.9-12.3-20.1-20-29.2
		c0,0,0,0,0,0C123.2,87.3,129.7,97.5,135.4,107.4z"/>
	<path class="st3" d="M177,71.5c0.3,0.6,0.7,1.1,1,1.7c0.9,1.5,1.8,3.1,2.7,4.6c5.1,8.9,10.3,17.9,16.5,26.3
		c6.9,9.3,15,16.5,24.4,22.9c1.5,1,3,2,4.5,3c1.5,1,3,1.9,4.6,2.8c1.5,0.9,3.1,1.9,4.6,2.8c1.5,0.9,3.1,1.8,4.6,2.7
		c1.5,0.9,3.1,1.8,4.6,2.7c1.5,0.9,3.1,1.8,4.6,2.7c12.6,7.4,25.7,15.9,35.7,27.2c11.3-13.8,19.7-30.4,25.2-49.7
		C246,74,216.4,23,199,9.6c-19.5,5.5-36.3,13.9-50.3,25.4c0.2,0.2,0.5,0.5,0.7,0.6C161,45.6,169.6,58.9,177,71.5z"/>
	<path class="st3" d="M149.4,35.5c-0.2-0.1-0.5-0.4-0.7-0.6c0.1,0.1,0.1,0.1,0.2,0.1C149.1,35.2,149.3,35.4,149.4,35.5z"/>
	<path class="st4" d="M314.3,13.3c-0.5-4.1-3.8-7.3-7.8-7.8c-42-5.6-77.8-4.2-107.4,4.1c3.8,7,41.9,75.1,111,111.7
		C318.5,91.6,319.9,55.5,314.3,13.3z M267.8,47.6c-7.2,7.2-18.8,7.2-25.9,0c-7.2-7.2-7.2-18.8,0-25.9c7.2-7.2,18.8-7.2,25.9,0
		C275,28.8,275,40.4,267.8,47.6z"/>
	<path class="st4" d="M170.1,215.7c-1.7-1-3.4-2-5-2.9c-1.7-1-3.3-2-5-3c-1.7-1-3.3-2-5-3.1c-1.6-1-3.3-2.1-4.9-3.2
		c-10.3-7-19-14.8-26.5-24.9c-6.8-9.1-12.4-19-17.9-28.6c-1-1.7-1.9-3.4-2.9-5c-0.3-0.6-0.7-1.2-1.1-1.8c-0.7-1.3-1.5-2.5-2.3-3.8
		c-0.6,6.1-1,11.9-1.1,17.3c-0.5,17.4,0.9,33.1,2.3,44.4c0,0,0.1,0.2,0.1,0.3c0,0,0,0,0,0.1l-0.2,0l-0.1,0L7.1,190.5
		c-3.5-0.3-5.9,3.4-4.2,6.5c10.9,19.2,38.6,35.3,66.3,37.4c6.3,0.5,12,0.2,17.2-0.7c-0.9,5.2-1.2,11-0.7,17.2
		c2.1,27.7,18.2,55.4,37.4,66.3c3.1,1.7,6.8-0.7,6.5-4.2l-10.9-94c11.4,1.5,27.1,2.8,44.6,2.3c4.7-0.1,9.8-0.4,15-0.9
		c-1.1-0.6-2.2-1.3-3.3-1.9C173.4,217.7,171.7,216.7,170.1,215.7z"/>
</g>
</svg>
