<?xml version="1.0" encoding="utf-8"?>
<!-- Generator: Adobe Illustrator 21.0.2, SVG Export Plug-In . SVG Version: 6.00 Build 0)  -->
<svg version="1.1" id="Layer_1" xmlns="http://www.w3.org/2000/svg" xmlns:xlink="http://www.w3.org/1999/xlink" x="0px" y="0px"
	 viewBox="0 0 320 320" style="enable-background:new 0 0 320 320;" xml:space="preserve">
<style type="text/css">
	.st0{fill:#AB3A58;}
	.st1{fill:#C44057;}
	.st2{fill:#E54859;}
	.st3{fill:#8B335B;}
</style>
<path class="st0" d="M239.4,203.7c-20.4,9.6-42.3,13.9-61.4,15.6c-1.1-0.6-2.1-1.2-3.2-1.9c-1.7-1-3.3-1.9-5-2.9
	c-1.7-1-3.3-1.9-4.9-2.9c-1.6-1-3.3-1.9-4.9-2.9c-1.6-1-3.2-2-4.9-3s-3.2-2.1-4.8-3.1c-10.1-6.8-18.7-14.5-26-24.4
	c-6.6-9-12.1-18.6-17.6-28c-1-1.6-1.9-3.3-2.9-4.9c-0.3-0.6-0.7-1.2-1-1.8c-0.7-1.2-1.5-2.5-2.2-3.7c0.9-9.4,2.5-19.4,5-29.6
	c2.5-10.1,6-20.4,10.7-30.3c1,1.1,1.9,2.2,2.8,3.4c0.9,1.1,1.8,2.3,2.7,3.5c0.4,0.6,0.9,1.2,1.3,1.8c3,4.1,5.8,8.4,8.4,12.7
	c1.5,2.4,3,4.9,4.4,7.3c0.1,0.2,0.2,0.4,0.3,0.5c0.2,0.4,0.5,0.8,0.7,1.3c1,1.7,2,3.4,2.9,5c0.1,0.2,0.3,0.5,0.4,0.7
	c1.4,2.4,2.7,4.7,4.1,7.1c0.7,1.2,1.4,2.4,2.1,3.6c1.1,1.8,2.1,3.5,3.2,5.3c2.6,4.1,5.3,8.2,8.2,12.1c2.7,3.7,5.7,7.1,8.7,10.2
	c3.1,3.2,6.4,6.1,9.8,8.8c2.6,2.1,5.3,4,8.1,6c1,0.7,2,1.3,3,2c0.3,0.2,0.6,0.4,1,0.6c0.3,0.2,0.6,0.4,1,0.6c0.3,0.2,0.6,0.4,1,0.6
	c1.3,0.9,2.7,1.7,4,2.5c0.6,0.4,1.2,0.7,1.8,1.1c0.6,0.4,1.2,0.7,1.8,1.1c0.5,0.3,1,0.6,1.5,0.9c0.6,0.4,1.2,0.7,1.8,1.1
	c1.1,0.6,2.2,1.3,3.2,1.9c1.7,1,3.4,2,5.1,2.9c1.7,1,3.3,2,5,2.9c2.1,1.2,4.2,2.5,6.2,3.8c2.1,1.3,4.2,2.6,6.2,4
	c1,0.7,2.1,1.4,3.1,2.1c1,0.7,2,1.4,3.1,2.1c0,0,0,0,0,0c1,0.7,2,1.5,3,2.2c0,0,0,0,0,0C237.5,202.2,238.5,202.9,239.4,203.7z"/>
<path class="st1" d="M282.4,170.8c-9.9-11.2-22.7-19.5-35-26.7c-1.5-0.9-3-1.8-4.5-2.6c-1.5-0.9-3-1.8-4.5-2.6
	c-1.5-0.9-3-1.8-4.5-2.7c-1.5-0.9-3-1.8-4.5-2.7c-1.5-0.9-3-1.8-4.5-2.8c-1.5-0.9-3-1.9-4.4-2.9c-9.3-6.3-17.2-13.3-23.9-22.5
	c-6.1-8.2-11.2-17.1-16.2-25.8c-0.9-1.5-1.7-3-2.6-4.5c-0.3-0.5-0.6-1.1-1-1.6c-7.3-12.4-15.7-25.4-27-35.3
	c-0.1-0.1-0.3-0.3-0.5-0.4c-0.1,0-0.1-0.1-0.2-0.1c-0.8,0.7-1.1,0.9-1.8,1.5c-3.4,2.9-6.7,6-9.7,9.3c-8.9,9.6-15.8,20.4-21.1,31.6
	c7.6,8.9,14,18.9,19.6,28.6c0.1,0.2,0.2,0.4,0.3,0.5c0.2,0.4,0.5,0.9,0.7,1.3c1,1.7,2,3.4,2.9,5.1c0.1,0.2,0.3,0.5,0.4,0.7
	c5.5,9.5,11,19.1,17.6,28.1c5.5,7.4,11.6,13.6,18.6,19.1c2.6,2.1,5.3,4,8.1,6c1,0.7,2,1.3,3,2c0.6,0.4,1.3,0.8,1.9,1.3
	c1.6,1.1,3.3,2.1,5,3.1c1.2,0.7,2.4,1.4,3.6,2.1c0.5,0.3,1,0.6,1.5,0.9c0.6,0.4,1.2,0.7,1.8,1.1c1.1,0.6,2.2,1.3,3.2,1.9
	c1.7,1,3.4,2,5.1,2.9c1.7,1,3.3,1.9,5,2.9c8.3,4.9,16.8,10.2,24.6,16.4c0,0,0,0,0,0c0,0,0,0,0,0c11.4-5.3,22.4-12.3,32.1-21.4
	C275.5,178.7,279.1,174.8,282.4,170.8z"/>
<path class="st2" d="M176.6,73.3c0.3,0.5,0.6,1.1,1,1.6c0.9,1.5,1.8,3,2.6,4.5c5,8.7,10.1,17.6,16.2,25.8
	c6.8,9.1,14.7,16.2,23.9,22.5c1.5,1,2.9,1.9,4.4,2.9c1.5,0.9,3,1.9,4.5,2.8c1.5,0.9,3,1.8,4.5,2.7c1.5,0.9,3,1.8,4.5,2.7
	c1.5,0.9,3,1.8,4.5,2.6c1.5,0.9,3,1.7,4.5,2.6c12.3,7.2,25.2,15.5,35,26.7c11.1-13.6,19.3-29.8,24.7-48.7
	C239.3,86.2,202,19.5,198.2,12.6c-19.1,5.4-35.6,13.6-49.3,24.9c0.2,0.1,0.5,0.5,0.7,0.6C161,47.9,169.4,60.9,176.6,73.3z"/>
<path class="st3" d="M311.2,16.2c-0.5-4-3.7-7.1-7.7-7.7c-41.1-5.5-76.3-4.1-105.3,4c3.7,6.9,41.1,73.6,108.8,109.5
	C315.3,93,316.7,57.6,311.2,16.2z M265,49.1c-7,7-18.4,7-25.4,0c-7-7-7-18.4,0-25.4c7-7,18.4-7,25.4,0C272,30.7,272,42.1,265,49.1z"
	/>
<path class="st3" d="M169.9,214.6c-1.6-1-3.3-1.9-4.9-2.9c-1.6-1-3.3-2-4.9-2.9c-1.6-1-3.2-2-4.9-3c-1.6-1-3.2-2.1-4.8-3.1
	c-10.1-6.8-18.7-14.5-26-24.4c-6.6-9-12.1-18.6-17.6-28c-1-1.6-1.9-3.3-2.9-4.9c-0.3-0.6-0.7-1.2-1-1.8c-0.7-1.2-1.5-2.5-2.2-3.7
	c-0.6,6-1,11.6-1.1,17c-0.5,17.1,0.9,32.4,2.2,43.5c0,0,0.1,0.2,0.1,0.3c0,0,0,0,0,0.1l-0.2,0l-0.1,0l-91.4-10.6
	c-3.4-0.3-5.8,3.4-4.1,6.4c10.6,18.8,37.8,34.6,65,36.7c6.1,0.5,11.8,0.2,16.9-0.7c-0.9,5.1-1.2,10.7-0.7,16.9
	c2.1,27.1,17.9,54.3,36.7,65c3,1.7,6.6-0.7,6.4-4.1L119.6,218c11.2,1.4,26.6,2.7,43.7,2.2c4.6-0.1,9.6-0.4,14.7-0.9
	c-1.1-0.6-2.1-1.2-3.2-1.9C173.2,216.5,171.5,215.6,169.9,214.6z"/>
</svg>
