<?xml version="1.0" encoding="utf-8"?>
<!-- Generator: Adobe Illustrator 21.0.2, SVG Export Plug-In . SVG Version: 6.00 Build 0)  -->
<svg version="1.1" id="Layer_1" xmlns="http://www.w3.org/2000/svg" xmlns:xlink="http://www.w3.org/1999/xlink" x="0px" y="0px"
	 viewBox="0 0 485 280" style="enable-background:new 0 0 485 280;" xml:space="preserve">
<style type="text/css">
	.st0{fill:none;}
	.st1{fill:#AB3A58;}
	.st2{fill:#C44057;}
	.st3{fill:#E54859;}
	.st4{fill:#8B335B;}
	.st5{fill:#8B335B;stroke:#8B335B;stroke-width:0.5301;stroke-linecap:round;stroke-linejoin:round;stroke-miterlimit:10;}
</style>
<g>
	<g>
		<path class="st0" d="M374,156.4c0.2,0.1,0.4,0.1,0.6,0.2C374.4,156.5,374.2,156.4,374,156.4c-1.4-0.4-2.9-0.8-4.3-1.1
			c-0.4-0.1-0.7-0.2-1.1-0.3c0.4,0.1,0.7,0.2,1.1,0.3C371.2,155.6,372.6,156,374,156.4z"/>
		<path class="st0" d="M429.5,160.7c-0.9,0.2-1.8,0.4-2.7,0.6c-2.5,0.5-5,0.9-7.5,1.2c2.5-0.3,5-0.7,7.5-1.2
			C427.7,161.1,428.6,160.9,429.5,160.7z"/>
		<path class="st0" d="M441.4,157.8c-0.5,0.1-1,0.3-1.6,0.4c-0.4,0.1-0.8,0.2-1.3,0.3c0.4-0.1,0.8-0.2,1.2-0.3
			C440.3,158.1,440.8,158,441.4,157.8z"/>
		<path class="st1" d="M448.4,156c-1.4,0.4-2.9,0.8-4.3,1.1c-0.9,0.2-1.8,0.5-2.7,0.7c-0.5,0.1-1,0.3-1.6,0.4
			c-0.4,0.1-0.8,0.2-1.2,0.3c-1,0.3-2,0.5-3.1,0.8c-1.4,0.4-2.9,0.7-4.3,1c-0.6,0.1-1.1,0.2-1.7,0.4c-0.9,0.2-1.8,0.4-2.7,0.6
			c-2.5,0.5-5,0.9-7.5,1.2c-6.7,0.8-13.3,0.7-20.2-0.3c-8.4-1.2-16.5-3.5-24.5-5.6c-0.2-0.1-0.4-0.1-0.6-0.2
			c-1.4-0.4-2.9-0.8-4.3-1.1c-0.4-0.1-0.7-0.2-1.1-0.3c-0.2,0-0.3-0.1-0.5-0.1c-8.2-2.2-17-4.1-25.8-4.8c0,0,0,0,0,0c0,0,0,0,0,0
			c5.6,15.7,14.6,29.4,23.7,40.5c1.1,0.3,2.1,0.5,3.2,0.8c0.5,0.1,1,0.3,1.5,0.4c1.4,0.4,2.8,0.7,4.2,1.1c8,2.1,16.1,4.4,24.4,5.6
			c9.2,1.4,17.9,0.9,27-0.9c1.4-0.3,2.8-0.6,4.2-0.9c1.4-0.3,2.8-0.6,4.2-1c1.4-0.3,2.8-0.7,4.2-1.1c1.4-0.4,2.8-0.7,4.2-1.1
			c1.4-0.4,2.8-0.8,4.2-1.1c0.9-0.2,1.8-0.5,2.7-0.7c9.3-11.2,18.7-25.2,24.5-41.2c-7.5,0.9-14.9,2.6-22,4.4
			C451.2,155.2,449.8,155.6,448.4,156z"/>
		<path class="st2" d="M480,109.8c-11.3-0.7-22.6,1.7-33.1,4.5c-1.3,0.3-2.5,0.7-3.8,1c-1.3,0.3-2.6,0.7-3.8,1
			c-1.3,0.3-2.6,0.7-3.9,1c-1.3,0.3-2.6,0.7-3.9,1c-1.3,0.3-2.6,0.6-3.9,0.9c-1.3,0.3-2.6,0.6-3.9,0.8c-8.3,1.6-16.3,2.1-24.8,0.8
			c-7.7-1.1-15.1-3.2-22.5-5.2c-1.3-0.3-2.6-0.7-3.8-1c-0.5-0.1-0.9-0.2-1.4-0.4c-10.5-2.8-22-5.2-33.4-4.4c-0.1,0-0.3,0-0.5,0
			c-0.1,0-0.1,0-0.2,0c-0.1,0.8-0.1,1.1-0.2,1.8c-0.3,3.4-0.4,6.8-0.2,10.2c0.4,9.9,2.4,19.4,5.6,28.2c8.9,0.7,17.6,2.6,25.8,4.8
			c0.2,0,0.3,0.1,0.5,0.1c0.4,0.1,0.7,0.2,1.1,0.3c1.4,0.4,2.9,0.8,4.3,1.1c0.2,0.1,0.4,0.1,0.6,0.2c8,2.1,16.1,4.3,24.5,5.6
			c6.9,1,13.5,1,20.2,0.3c2.5-0.3,5-0.7,7.5-1.2c0.9-0.2,1.8-0.4,2.7-0.6c0.6-0.1,1.1-0.2,1.7-0.4c1.4-0.3,2.9-0.7,4.3-1
			c1-0.2,2-0.5,3.1-0.8c0.4-0.1,0.8-0.2,1.3-0.3c0.5-0.1,1-0.3,1.6-0.4c0.9-0.2,1.8-0.5,2.7-0.7c1.4-0.4,2.9-0.8,4.3-1.1
			c1.4-0.4,2.8-0.8,4.2-1.1c7-1.8,14.5-3.5,22-4.4c0,0,0,0,0,0c0,0,0,0,0,0c3.2-9,5.4-18.6,5.7-28.7
			C480.5,117.8,480.4,113.8,480,109.8z"/>
		<path class="st2" d="M419.3,162.4c-6.7,0.8-13.3,0.7-20.2-0.3c-8.4-1.2-16.5-3.5-24.5-5.6c8,2.1,16.1,4.3,24.5,5.6
			C406,163.2,412.6,163.2,419.3,162.4z"/>
		<path class="st2" d="M435.5,159.3c1-0.2,2-0.5,3.1-0.8C437.5,158.8,436.5,159.1,435.5,159.3c-1.4,0.4-2.9,0.7-4.3,1
			c-0.6,0.1-1.1,0.2-1.7,0.4c0.6-0.1,1.1-0.2,1.7-0.4C432.6,160,434.1,159.7,435.5,159.3z"/>
		<path class="st2" d="M368.2,154.8c0.2,0,0.3,0.1,0.5,0.1C368.5,154.9,368.4,154.9,368.2,154.8c-8.2-2.2-17-4.1-25.8-4.8
			c0,0,0,0,0,0C351.2,150.7,360,152.7,368.2,154.8z"/>
		<path class="st2" d="M452.7,154.8c-1.4,0.4-2.8,0.8-4.2,1.1c-1.4,0.4-2.9,0.8-4.3,1.1c-0.9,0.2-1.8,0.5-2.7,0.7
			c0.9-0.2,1.8-0.5,2.7-0.7c1.4-0.4,2.9-0.8,4.3-1.1C449.8,155.6,451.2,155.2,452.7,154.8c7.1-1.8,14.5-3.5,22-4.4c0,0,0,0,0,0
			C467.1,151.3,459.7,153,452.7,154.8z"/>
		<path class="st3" d="M371.2,114.2c0.5,0.1,0.9,0.2,1.4,0.4c1.3,0.3,2.6,0.7,3.8,1c7.3,2,14.8,4,22.5,5.2
			c8.5,1.3,16.5,0.8,24.8-0.8c1.3-0.3,2.6-0.5,3.9-0.8c1.3-0.3,2.6-0.6,3.9-0.9c1.3-0.3,2.6-0.6,3.9-1c1.3-0.3,2.6-0.7,3.9-1
			c1.3-0.3,2.6-0.7,3.8-1c1.3-0.3,2.5-0.7,3.8-1c10.5-2.7,21.8-5.1,33.1-4.5c-1.3-13.2-5.6-26.3-12.9-39.3
			c-55.5,17-111.2,1.3-116.9-0.4c-7.4,13.1-11.7,26.4-13.1,39.7c0.2,0,0.5,0,0.7,0C349.2,109,360.6,111.5,371.2,114.2z"/>
		<path class="st3" d="M337.8,109.8c-0.1,0-0.5,0-0.7,0c0.1,0,0.1,0,0.2,0C337.5,109.8,337.7,109.8,337.8,109.8z"/>
		<path class="st4" d="M467.1,70.5c-11.2-20-29.3-39.7-54.5-58.9c-2.4-1.8-5.8-1.8-8.2,0c-25,19.1-43.1,38.7-54.3,58.5
			C355.9,71.8,411.7,87.5,467.1,70.5z M392.1,68.3c-7.5,0-13.6-6.1-13.6-13.6s6.1-13.6,13.6-13.6s13.6,6.1,13.6,13.6
			S399.6,68.3,392.1,68.3z"/>
		<path class="st4" d="M443.2,193.5c-1.4,0.4-2.8,0.7-4.2,1.1c-1.4,0.4-2.8,0.7-4.2,1.1c-1.4,0.3-2.8,0.7-4.2,1
			c-1.4,0.3-2.8,0.6-4.2,0.9c-9.1,1.8-17.8,2.2-27,0.9c-8.4-1.2-16.5-3.5-24.4-5.6c-1.4-0.4-2.8-0.7-4.2-1.1c-0.5-0.1-1-0.3-1.5-0.4
			c-1.1-0.3-2.1-0.5-3.2-0.8c2.9,3.5,5.7,6.7,8.5,9.7c8.9,9.4,17.8,16.9,24.5,22.1c0,0,0.2,0.1,0.2,0.1c0,0,0,0,0,0l-0.1,0.1l0,0
			l-54.6,43.3c-2,1.7-1.3,4.9,1.2,5.6c15.8,4.4,38.8-1.7,54.4-15.1c3.5-3,6.4-6.2,8.7-9.4c2.2,3.2,5.1,6.4,8.7,9.4
			c15.6,13.4,38.7,19.5,54.4,15.1c2.5-0.7,3.2-3.9,1.2-5.6l-55-43.6c6.8-5.2,15.7-12.8,24.6-22.2c2.4-2.6,4.9-5.3,7.4-8.3
			c-0.9,0.2-1.8,0.5-2.7,0.7C446,192.8,444.6,193.1,443.2,193.5z"/>
	</g>
	<path class="st5" d="M49.8,117.2V66.4L6.5,5h28.3l27,42L89.3,5h28.3L74.1,66.7v50.5H49.8z"/>
	<path class="st5" d="M188.3,77.1V5h23.9v72.1c0,25.4-20.4,41.7-43.3,41.7c-23.1,0-43.6-16.3-43.6-41.7V5h24.3v72.1
		c0,11.6,9.3,19.2,19.4,19.2C178.9,96.4,188.3,88.7,188.3,77.1z"/>
	<path class="st5" d="M230.4,5h46.1c25.6,0,37,18.4,37,36.8c0,18.6-11.4,36.6-37,36.6h-22.2v38.8h-23.9V5z M254.4,26v31.6h21
		c9.3,0,14.2-8.5,14.2-15.8c0-7-4.6-15.8-13.5-15.8H254.4z"/>
	<path class="st5" d="M86.9,192.1c-6.2-7-14.8-11.4-24.6-11.4c-18.9,0-33.6,16-33.6,35.5c0,19.4,14.7,35.7,33.6,35.7
		c12,0,27-7.5,27.2-19.4H59.4v-19.4H117c0,42-22.5,60.6-54.7,60.6c-32.2,0-57.5-25.9-57.5-57.5c0-31.9,25.2-57.7,57.5-57.7
		c17.3,0,32.4,7.2,42.2,18.4L86.9,192.1z"/>
	<path class="st5" d="M188.4,233.3v-72.1h23.9v72.1c0,25.4-20.4,41.7-43.3,41.7c-23.1,0-43.6-16.3-43.6-41.7v-72.1h24.3v72.1
		c0,11.6,9.3,19.2,19.4,19.2C179,252.5,188.4,244.9,188.4,233.3z"/>
	<path class="st5" d="M230.5,161.2h46.1c25.6,0,37,18.4,37,36.8c0,18.6-11.4,36.6-37,36.6h-22.2v38.8h-23.9V161.2z M254.5,182.2
		v31.6h21c9.3,0,14.2-8.5,14.2-15.8c0-7-4.6-15.8-13.5-15.8H254.5z"/>
</g>
</svg>
