<?xml version="1.0" encoding="utf-8"?>
<!-- Generator: Adobe Illustrator 21.0.2, SVG Export Plug-In . SVG Version: 6.00 Build 0)  -->
<svg version="1.1" id="Layer_1" xmlns="http://www.w3.org/2000/svg" xmlns:xlink="http://www.w3.org/1999/xlink" x="0px" y="0px"
	 viewBox="0 0 370 370" style="enable-background:new 0 0 370 370;" xml:space="preserve">
<style type="text/css">
	.st0{fill:#8B335B;}
	.st1{fill:none;}
	.st2{fill:#AB3A58;}
	.st3{fill:#C44057;}
	.st4{fill:#E54859;}
</style>
<g>
	<g>
		<path class="st0" d="M217.1,197.9c-0.1,0-0.1-0.1-0.2-0.1c-0.1-0.1-0.2-0.1-0.2-0.2c0.1,0,0.1,0.1,0.2,0.1
			C217,197.8,217.1,197.8,217.1,197.9z"/>
		<path class="st0" d="M172.9,45.1c-0.1-0.1-0.3-0.2-0.4-0.3c0,0,0-0.1-0.1-0.1c0,0,0,0,0,0c0,0,0,0,0,0c0,0,0.1,0.1,0.1,0.1
			C172.8,45,172.8,45,172.9,45.1C172.9,45.1,172.9,45.1,172.9,45.1z"/>
		<path class="st0" d="M217.1,197.9c-0.1,0-0.1-0.1-0.2-0.1c-0.1-0.1-0.2-0.1-0.2-0.2c0.1,0,0.1,0.1,0.2,0.1
			C217,197.8,217.1,197.8,217.1,197.9z"/>
		<path class="st1" d="M216.9,197.7c-0.1,0-0.1-0.1-0.2-0.1C216.8,197.7,216.9,197.7,216.9,197.7c0.1,0.1,0.2,0.2,0.3,0.2
			C217.1,197.8,217,197.8,216.9,197.7z"/>
		<path class="st0" d="M217.1,197.9c-0.1-0.1-0.2-0.1-0.3-0.2c-0.1,0-0.1-0.1-0.2-0.1"/>
		<path class="st0" d="M117.1,161.9c-0.7,6.8-1.1,13.3-1.3,19.4c-0.6,19.5,1,37.1,2.5,49.7c-0.1,0.1,0.1,0.2,0.1,0.4
			c0,0,0,0,0.1,0.1l-0.2-0.1h-0.1L13.5,219.2c-4-0.3-6.6,3.8-4.7,7.3c12.2,21.6,43.4,39.7,74.5,42.1c7.1,0.6,13.5,0.2,19.3-0.8
			c-1,5.8-1.4,12.3-0.8,19.3c2.3,31,20.4,62.1,42,74.4c3.5,1.9,7.6-0.8,7.3-4.7l-12.2-105.5c12.8,1.6,30.4,3.1,50.1,2.5
			c5.3-0.2,11-0.5,16.8-1c-0.2-0.1-0.4-0.2-0.6-0.4c0.2,0.1,0.3,0.2,0.5,0.3c21.9-2,46.8-6.9,70.2-17.8l0.1,0c0,0,0.1,0.1,0.1,0.1
			c6.5-3.1,12.9-6.6,19.1-10.7c6.2-4.1,12.1-8.7,17.7-13.9c4.3-4,8.5-8.5,12.3-13.2c0,0,0,0.1,0.1,0.1
			c12.7-15.5,22.1-34.2,28.3-55.7l-0.1-0.1c9.4-33.3,11-73.8,4.7-121.1c-0.6-4.5-4.2-8.2-8.8-8.8c-47.1-6.2-87.3-4.7-120.6,4.6
			c0,0,0,0.1,0.1,0.1c-22.1,6-40.8,15.5-56.5,28.3c0,0,0.1,0.1,0.2,0.2c0,0,0,0,0,0c0,0,0.1,0.1,0.1,0.1c0.1,0.1,0.2,0.1,0.2,0.2
			c0,0,0,0,0,0c-0.1-0.1-0.3-0.2-0.4-0.3c0,0,0-0.1-0.1-0.1l-0.2-0.2c-0.9,0.8-1.3,1.1-2,1.8c-3.9,3.3-7.6,6.9-11.1,10.7
			c-10.1,11-18,23.2-24.1,36c0,0,0,0,0,0c-5.4,11.5-9.3,23.3-12.2,34.9s-4.7,23.1-5.7,33.8 M306.7,61c-8.1,8.1-25.1,8.1-33.1,0
			c-8.1-8.1-8.1-25.1,0-33.1c8.1-8.1,25.1-8.1,33.1,0C314.7,35.9,314.7,52.9,306.7,61z"/>
		<path class="st0" d="M172.9,45.1c-0.1,0-0.1-0.1-0.2-0.1c0,0-0.1,0-0.1-0.1c0,0,0.1,0.1,0.1,0.1C172.8,45,172.8,45,172.9,45.1z"/>
		<polygon class="st0" points="172.9,45.1 172.9,45.1 172.9,45.1 		"/>
		<path class="st0" d="M172.9,45.1c-0.1-0.1-0.3-0.2-0.4-0.3c0,0,0-0.1-0.1-0.1l-0.1-0.1c0,0,0.1,0.1,0.2,0.2c0,0,0,0,0,0
			c0,0,0,0,0.1,0.1C172.7,45,172.8,45,172.9,45.1C172.9,45.1,172.9,45.1,172.9,45.1z"/>
	</g>
	<g>
		<path class="st1" d="M162,133.9c0.1,0.3,0.3,0.6,0.5,0.8C162.4,134.4,162.3,134.1,162,133.9c-1.1-2-2.2-3.9-3.4-5.8
			c-0.3-0.4-0.6-1-0.8-1.4c0.3,0.4,0.6,1,0.8,1.4C159.9,130,160.9,131.9,162,133.9z"/>
		<path class="st1" d="M216.7,197.7c-1.1-0.7-2.3-1.5-3.4-2.3c-3.2-2.2-6.3-4.5-9.3-6.8c3,2.4,6.1,4.7,9.3,6.9
			C214.4,196.2,215.6,196.9,216.7,197.7z"/>
		<path class="st1" d="M232.5,207.4c-0.7-0.4-1.4-0.8-2.1-1.2c-0.6-0.3-1.1-0.7-1.7-1c0.6,0.3,1.1,0.7,1.7,1
			C231.1,206.6,231.8,206.9,232.5,207.4z"/>
		<path class="st2" d="M242,212.9c-2-1.1-3.9-2.2-5.8-3.4c-1.3-0.7-2.5-1.5-3.7-2.2c-0.7-0.4-1.4-0.8-2.1-1.3
			c-0.6-0.3-1.1-0.7-1.7-1c-1.3-0.8-2.8-1.6-4.1-2.4c-1.9-1.2-3.8-2.4-5.7-3.6c-0.8-0.5-1.5-0.9-2.2-1.5c-1.1-0.7-2.3-1.5-3.4-2.3
			c-3.2-2.2-6.3-4.5-9.3-6.9c-7.9-6.4-15-13.4-21.3-21.8c-7.6-10.3-13.9-21.3-20.2-32.2c-0.1-0.3-0.3-0.6-0.5-0.8
			c-1.1-2-2.2-3.9-3.4-5.8c-0.3-0.6-0.6-1-0.8-1.4c-0.1-0.2-0.3-0.4-0.4-0.6C151,114.7,143.7,103.2,135,93l0,0l0,0
			c-10.7,22.9-15.8,47.2-18,68.7c0.8,1.4,1.7,2.8,2.5,4.2c0.4,0.7,0.8,1.3,1.2,2.1c1.1,1.9,2.2,3.7,3.3,5.7
			c6.2,10.7,12.5,21.8,20.1,32.1c8.4,11.4,18.2,20.2,29.8,27.9c1.8,1.2,3.7,2.4,5.5,3.5c1.8,1.1,3.7,2.3,5.6,3.5
			c1.8,1.1,3.7,2.2,5.7,3.4c1.9,1.1,3.7,2.2,5.7,3.3c1.9,1.1,3.7,2.2,5.7,3.3c1.3,0.7,2.4,1.4,3.7,2.1c21.9-2,47-6.9,70.4-17.9
			c-9-7.1-18.7-13.2-28.1-18.8C245.8,215.1,243.9,213.9,242,212.9z"/>
		<path class="st3" d="M325.2,197.3c-11.3-12.7-26-22.3-40.1-30.6c-1.7-1-3.4-2-5.2-3c-1.7-1-3.5-2.1-5.2-3c-1.7-1-3.5-2.1-5.2-3
			s-3.5-2.1-5.2-3.1c-1.8-1.1-3.4-2.1-5.2-3.2c-1.7-1.1-3.3-2.2-5-3.3c-10.6-7.2-19.7-15.3-27.4-25.7c-7-9.4-12.8-19.6-18.5-29.6
			c-1-1.7-2.1-3.5-3-5.2c-0.4-0.6-0.7-1.3-1.1-1.9c-8.3-14.2-17.9-29.1-30.9-40.4c-0.1-0.1-0.4-0.4-0.6-0.5
			c-0.1-0.1-0.1-0.1-0.2-0.2c-0.9,0.8-1.3,1.1-2.1,1.8c-3.9,3.3-7.6,6.9-11.1,10.7C149,68.1,141,80.4,135,93.2
			c8.7,10.3,16,21.6,22.5,32.8c0.1,0.2,0.3,0.4,0.4,0.6c0.3,0.4,0.6,1,0.8,1.4c1.1,2,2.3,3.8,3.4,5.8c0.1,0.3,0.3,0.6,0.5,0.8
			c6.3,10.8,12.6,21.9,20.2,32.1c6.3,8.4,13.3,15.6,21.3,21.8c3,2.4,6.1,4.7,9.3,6.8c1.1,0.7,2.3,1.5,3.4,2.3c0.8,0.5,1.4,1,2.2,1.5
			c1.9,1.2,3.8,2.4,5.7,3.6c1.3,0.8,2.8,1.6,4.1,2.4c0.6,0.3,1.1,0.7,1.7,1c0.7,0.4,1.4,0.8,2.1,1.2c1.3,0.7,2.5,1.5,3.7,2.2
			c2,1.1,3.9,2.2,5.8,3.4c1.9,1.1,3.8,2.3,5.7,3.3c9.5,5.6,19.2,11.7,28.2,18.7l0,0l0,0c13.1-6.2,25.6-14.1,36.8-24.5
			C317.2,206.4,321.4,202,325.2,197.3z"/>
		<path class="st3" d="M203.9,188.6c-7.9-6.4-15-13.4-21.3-21.8c-7.6-10.3-13.9-21.3-20.2-32.1c6.3,10.8,12.6,21.9,20.2,32.2
			C189,175.3,196.1,182.3,203.9,188.6z"/>
		<path class="st3" d="M224.6,202.7c1.4,0.8,2.8,1.6,4.1,2.4C227.4,204.3,226,203.5,224.6,202.7c-1.9-1.2-3.8-2.4-5.7-3.6
			c-0.8-0.5-1.5-0.9-2.2-1.5c0.8,0.5,1.4,1,2.2,1.5C220.8,200.3,222.7,201.5,224.6,202.7z"/>
		<path class="st3" d="M157.5,126c0.1,0.2,0.3,0.4,0.4,0.6C157.7,126.3,157.6,126.2,157.5,126c-6.5-11.2-13.8-22.6-22.4-32.7l0,0
			C143.7,103.4,150.9,114.9,157.5,126z"/>
		<path class="st3" d="M247.7,216.2c-1.9-1.1-3.8-2.3-5.7-3.3c-2-1.1-3.9-2.2-5.8-3.4c-1.3-0.7-2.5-1.5-3.7-2.2
			c1.3,0.7,2.5,1.5,3.7,2.2c2,1.1,3.9,2.2,5.8,3.4C243.9,213.9,245.8,215.1,247.7,216.2c9.5,5.6,19.2,11.7,28.1,18.8l0,0
			C267,227.9,257.3,221.8,247.7,216.2z"/>
		<path class="st4" d="M204.1,85.7c0.4,0.6,0.7,1.3,1.1,1.9c1,1.7,2.1,3.5,3,5.2c5.7,10,11.5,20.2,18.5,29.6
			c7.8,10.5,16.8,18.5,27.4,25.7c1.7,1.1,3.4,2.3,5,3.3c1.7,1.1,3.4,2.1,5.2,3.2c1.8,1.1,3.5,2.1,5.2,3.1c1.7,1,3.5,2.1,5.2,3
			c1.7,1,3.5,2.1,5.2,3c1.7,1,3.4,2,5.2,3c14.1,8.3,28.8,17.8,40.1,30.6c12.7-15.5,22.1-34.2,28.3-55.7
			C276,100.6,233.3,24.2,229,16.3c-22.1,6-40.9,15.5-56.6,28.4c0.2,0.2,0.6,0.5,0.8,0.6C186.1,56.7,195.7,71.5,204.1,85.7z"/>
		<path class="st4" d="M173.1,45.3c-0.1-0.1-0.6-0.5-0.8-0.6c0.1,0.1,0.1,0.1,0.2,0.2C172.7,45,173,45.1,173.1,45.3z"/>
		<path class="st0" d="M353.4,141.5c9.4-33.3,11-73.8,4.7-121.1c-0.6-4.5-4.2-8.2-8.8-8.8c-47.1-6.2-87.3-4.7-120.6,4.6
			C233.1,24.1,275.9,100.5,353.4,141.5z M275.5,59c-8.1-8.1-8.1-21.1,0-29.1c8.1-8.1,21.1-8.1,29.1,0c8.1,8.1,8.1,21.1,0,29.1
			C296.6,67.1,283.6,67.1,275.5,59z"/>
		<path class="st0" d="M196.3,247.5c-1.9-1.1-3.7-2.2-5.7-3.3c-1.8-1.1-3.7-2.2-5.7-3.4c-1.8-1.1-3.7-2.3-5.6-3.5
			c-1.8-1.1-3.7-2.4-5.5-3.5c-11.6-7.8-21.4-16.5-29.8-27.9c-7.6-10.3-13.9-21.4-20.1-32.1c-1.1-1.9-2.2-3.7-3.3-5.7
			c-0.4-0.7-0.8-1.3-1.2-2.1c-0.8-1.4-1.7-2.8-2.5-4.2c-0.7,6.8-1.1,13.3-1.3,19.4c-0.6,19.5,1,37.1,2.5,49.7
			c-0.1,0.1,0.1,0.2,0.1,0.4c0,0,0,0,0.1,0.1l-0.2-0.1h-0.1L13.5,219.2c-4-0.3-6.6,3.8-4.7,7.3c12.2,21.6,43.3,39.7,74.5,42.1
			c7.1,0.6,13.5,0.2,19.3-0.8c-1,5.8-1.4,12.3-0.8,19.3c2.3,31,20.4,62.2,42,74.4c3.5,1.9,7.6-0.8,7.3-4.7l-12.2-105.5
			c12.8,1.6,30.4,3.1,50.1,2.5c5.3-0.2,11-0.5,16.8-1c-1.2-0.8-2.4-1.4-3.7-2.1C200.1,249.7,198.2,248.6,196.3,247.5z"/>
	</g>
</g>
</svg>
