<?xml version="1.0" encoding="utf-8"?>
<!-- Generator: Adobe Illustrator 21.0.2, SVG Export Plug-In . SVG Version: 6.00 Build 0)  -->
<svg version="1.1" id="Layer_1" xmlns="http://www.w3.org/2000/svg" xmlns:xlink="http://www.w3.org/1999/xlink" x="0px" y="0px"
	 viewBox="0 0 400 220" style="enable-background:new 0 0 400 220;" xml:space="preserve">
<style type="text/css">
	.st0{fill:none;}
	.st1{fill:#AB3A58;}
	.st2{fill:#C44057;}
	.st3{fill:#E54859;}
	.st4{fill:#8B335B;}
</style>
<g>
	<path class="st0" d="M177.5,57.8c-0.1,0.3-0.2,0.6-0.2,0.9C177.4,58.4,177.5,58.1,177.5,57.8c0.6-2.2,1.2-4.3,1.7-6.5
		c0.1-0.5,0.3-1.1,0.4-1.6c-0.1,0.5-0.3,1.1-0.4,1.6C178.7,53.5,178.1,55.6,177.5,57.8z"/>
	<path class="st0" d="M171,141.6c-0.3-1.3-0.6-2.7-0.8-4c-0.7-3.8-1.3-7.6-1.8-11.4c0.4,3.8,1,7.6,1.7,11.4
		C170.5,138.9,170.8,140.2,171,141.6z"/>
	<path class="st0" d="M175.4,159.6c-0.2-0.8-0.4-1.6-0.6-2.3c-0.2-0.6-0.3-1.3-0.5-1.9c0.2,0.6,0.3,1.3,0.5,1.9
		C174.9,158,175.2,158.8,175.4,159.6z"/>
	<path class="st1" d="M178.2,170.2c-0.6-2.2-1.2-4.3-1.7-6.5c-0.4-1.4-0.7-2.8-1.1-4.2c-0.2-0.8-0.4-1.6-0.6-2.4
		c-0.2-0.6-0.3-1.3-0.5-1.9c-0.4-1.5-0.8-3.1-1.2-4.6c-0.5-2.2-1-4.4-1.5-6.6c-0.2-0.9-0.4-1.7-0.5-2.6c-0.3-1.3-0.6-2.7-0.8-4
		c-0.7-3.8-1.3-7.6-1.7-11.4c-1.1-10.1-1.1-20.1,0.4-30.5c1.9-12.7,5.2-24.9,8.5-37c0.1-0.3,0.2-0.6,0.2-0.9
		c0.6-2.2,1.2-4.3,1.7-6.5c0.2-0.6,0.3-1.1,0.4-1.6c0.1-0.2,0.1-0.5,0.2-0.7c3.3-12.4,6.2-25.7,7.3-39c0,0,0,0,0,0c0,0,0,0,0,0
		C163.5,18.4,142.7,32,126,45.7c-0.4,1.6-0.8,3.2-1.2,4.8c-0.2,0.8-0.4,1.5-0.6,2.3c-0.6,2.1-1.1,4.2-1.7,6.3
		c-3.2,12-6.6,24.3-8.5,36.9c-2.1,14-1.4,27.1,1.3,40.8c0.4,2.1,0.9,4.3,1.4,6.4c0.5,2.1,1,4.3,1.5,6.4c0.5,2.1,1.1,4.2,1.6,6.4
		c0.6,2.1,1.1,4.2,1.7,6.3c0.6,2.1,1.1,4.2,1.7,6.3c0.4,1.4,0.7,2.7,1.1,4.1c16.9,14.1,38.1,28.3,62.4,37.1
		c-1.3-11.4-3.9-22.6-6.6-33.2C179.3,174.5,178.8,172.3,178.2,170.2z"/>
	<path class="st2" d="M248,218c1-17-2.6-34.1-6.7-50c-0.5-1.9-1-3.8-1.5-5.8c-0.5-1.9-1-3.9-1.6-5.8c-0.5-1.9-1-3.9-1.5-5.8
		c-0.5-1.9-1-3.9-1.5-5.9c-0.5-2-0.9-3.9-1.4-5.9c-0.4-2-0.8-3.9-1.2-5.9c-2.4-12.6-3.1-24.7-1.2-37.6c1.7-11.6,4.8-22.9,7.8-34
		c0.5-1.9,1-3.9,1.5-5.8c0.2-0.7,0.4-1.4,0.6-2.1c4.2-15.9,7.9-33.2,6.7-50.4c0-0.2,0-0.5-0.1-0.8c0-0.1,0-0.2,0-0.3
		c-1.2-0.1-1.7-0.2-2.7-0.2c-5.1-0.4-10.3-0.5-15.4-0.3c-15,0.6-29.3,3.7-42.7,8.5c-1.1,13.4-4,26.6-7.3,39.1
		c-0.1,0.2-0.1,0.5-0.2,0.7c-0.1,0.5-0.3,1.1-0.4,1.6c-0.6,2.2-1.1,4.3-1.7,6.5c-0.1,0.3-0.2,0.6-0.2,0.9c-3.2,12.1-6.6,24.4-8.4,37
		c-1.5,10.4-1.6,20.4-0.4,30.5c0.4,3.8,1,7.6,1.8,11.4c0.3,1.3,0.6,2.7,0.8,4c0.2,0.9,0.3,1.7,0.5,2.6c0.5,2.2,1,4.4,1.5,6.6
		c0.4,1.5,0.8,3.1,1.2,4.6c0.2,0.6,0.3,1.3,0.5,1.9c0.2,0.8,0.4,1.6,0.6,2.3c0.4,1.4,0.7,2.8,1.1,4.2c0.6,2.2,1.2,4.3,1.7,6.5
		c0.6,2.1,1.1,4.3,1.7,6.4c2.8,10.7,5.3,21.9,6.7,33.2c0,0,0,0,0,0c0,0,0,0,0,0c13.6,4.9,28.1,8.1,43.4,8.7
		C235.9,218.8,242,218.6,248,218z"/>
	<path class="st2" d="M168.4,126.1c-1.1-10.1-1.1-20.1,0.4-30.5c1.9-12.7,5.2-24.9,8.4-37c-3.2,12.1-6.6,24.4-8.5,37
		C167.3,106.1,167.3,116.1,168.4,126.1z"/>
	<path class="st2" d="M173.1,150.7c0.4,1.6,0.8,3.1,1.2,4.6C173.9,153.8,173.5,152.2,173.1,150.7c-0.5-2.2-1-4.4-1.5-6.6
		c-0.2-0.9-0.4-1.7-0.5-2.6c0.2,0.9,0.3,1.7,0.5,2.6C172.1,146.3,172.6,148.5,173.1,150.7z"/>
	<path class="st2" d="M179.9,49c-0.1,0.2-0.1,0.5-0.2,0.7C179.8,49.4,179.8,49.2,179.9,49c3.3-12.5,6.2-25.7,7.3-39c0,0,0,0,0,0
		C186.1,23.3,183.1,36.5,179.9,49z"/>
	<path class="st2" d="M179.9,176.6c-0.6-2.1-1.1-4.3-1.7-6.4c-0.6-2.2-1.2-4.3-1.7-6.5c-0.4-1.4-0.7-2.8-1.1-4.2
		c0.4,1.4,0.7,2.8,1.1,4.2c0.6,2.2,1.2,4.3,1.7,6.5C178.8,172.3,179.3,174.5,179.9,176.6c2.8,10.7,5.3,21.9,6.6,33.2c0,0,0,0,0,0
		C185.2,198.5,182.7,187.3,179.9,176.6z"/>
	<path class="st3" d="M241.3,53.5c-0.2,0.7-0.4,1.4-0.6,2.1c-0.5,1.9-1,3.9-1.5,5.8c-3,11.1-6.1,22.4-7.8,34
		c-1.9,12.9-1.2,25,1.2,37.6c0.4,2,0.8,4,1.2,5.9c0.4,2,0.9,3.9,1.4,5.9c0.5,2,1,3.9,1.5,5.9c0.5,1.9,1,3.9,1.5,5.8
		c0.5,1.9,1,3.9,1.6,5.8c0.5,1.9,1,3.8,1.5,5.8c4.1,15.8,7.8,33,6.7,50c19.9-2,39.8-8.5,59.4-19.4c-25.8-83.9-2-168.1,0.6-176.7
		C288.1,10.6,268.1,4,247.9,2c0,0.3,0.1,0.8,0.1,1C249.1,20.2,245.4,37.5,241.3,53.5z"/>
	<path class="st3" d="M248,3c0-0.2-0.1-0.8-0.1-1c0,0.1,0,0.2,0,0.3C247.9,2.5,248,2.8,248,3z"/>
	<path class="st4" d="M307.4,198.5c30.2-16.9,60-44.4,89-82.3c2.8-3.6,2.8-8.8,0-12.4c-28.9-37.7-58.4-65.1-88.5-82
		C305.4,30.4,281.6,114.7,307.4,198.5z M310.7,85.1c0-11.4,9.2-20.6,20.6-20.6c11.4,0,20.6,9.2,20.6,20.6s-9.2,20.6-20.6,20.6
		C319.9,105.7,310.7,96.5,310.7,85.1z"/>
	<path class="st4" d="M121.4,162.4c-0.6-2.1-1.1-4.2-1.7-6.3c-0.5-2.1-1.1-4.2-1.6-6.4c-0.5-2.1-1-4.2-1.5-6.4
		c-0.5-2.1-0.9-4.3-1.4-6.4c-2.7-13.7-3.4-26.8-1.3-40.8c1.9-12.6,5.3-24.9,8.5-36.9c0.6-2.1,1.1-4.2,1.7-6.3
		c0.2-0.8,0.4-1.5,0.6-2.3c0.4-1.6,0.8-3.2,1.2-4.8c-5.3,4.3-10.2,8.6-14.6,12.8C97.1,72,85.8,85.5,77.9,95.5
		c-0.1,0-0.1,0.2-0.2,0.3c0,0,0,0,0,0.1l-0.1-0.2l-0.1-0.1L12.1,13.1c-2.6-3-7.4-2-8.5,1.8C-3,38.8,6.2,73.6,26.5,97.3
		c4.6,5.4,9.4,9.7,14.2,13.1c-4.8,3.4-9.7,7.7-14.2,13.1C6.2,147.1-3,181.9,3.6,205.8c1.1,3.8,5.9,4.8,8.5,1.8l66-83.2
		c7.9,10.2,19.3,23.7,33.6,37.2c3.9,3.6,8.1,7.4,12.6,11.2c-0.3-1.4-0.7-2.7-1.1-4.1C122.5,166.6,122,164.5,121.4,162.4z"/>
</g>
</svg>
