<?xml version="1.0" encoding="utf-8"?>
<!-- Generator: Adobe Illustrator 21.0.2, SVG Export Plug-In . SVG Version: 6.00 Build 0)  -->
<svg version="1.1" id="Layer_1" xmlns="http://www.w3.org/2000/svg" xmlns:xlink="http://www.w3.org/1999/xlink" x="0px" y="0px"
	 viewBox="0 0 480 135" style="enable-background:new 0 0 480 135;" xml:space="preserve">
<style type="text/css">
	.st0{fill:#8B335B;}
	.st1{fill:#C44057;}
	.st2{fill:#E54859;}
</style>
<path class="st0" d="M39.7,98.6V57.1L4.3,7h23.1l22.1,34.3L71.9,7H95L59.5,57.4v41.2H39.7z"/>
<path class="st1" d="M127.1,36.5h18.5v62.1h-18.5v-8.5c-3.3,6.3-10.1,9.8-16.1,9.8c-14,0-24.6-8.6-24.6-26.3V36.5h18.5v33.1
	c0,9.8,6.8,12.4,11,12.4c5.7,0,11.2-3.2,11.2-12.6V36.5z"/>
<path class="st2" d="M175.9,36.5v7.7c3.1-5.7,10.5-9,18.2-9c16,0,30.1,12.6,30.1,32.2c0,19.9-14.1,32.6-30.1,32.6
	c-7.7,0-15.2-3.2-18.2-8.9v38h-18.4V36.5H175.9z M190.7,82.5c7.8,0,14.4-5.9,14.4-14.8c0-9.2-6.5-15-14.4-15
	c-7.7,0-14.4,6.1-14.4,15C176.3,77.1,183.1,82.5,190.7,82.5z"/>
<path class="st0" d="M300.9,33.3c-5.1-5.7-12.1-9.3-20.1-9.3c-15.4,0-27.4,13-27.4,29c0,15.8,12,29.1,27.4,29.1
	c9.8,0,22.1-6.1,22.2-15.8h-24.6V50.5h47.1c0,34.3-18.4,49.5-44.7,49.5S233.9,78.8,233.9,53c0-26.1,20.6-47.1,46.9-47.1
	c14.1,0,26.5,5.9,34.4,15L300.9,33.3z"/>
<path class="st1" d="M377.5,36.5H396v62.1h-18.5v-8.5c-3.3,6.3-10.1,9.8-16.1,9.8c-14,0-24.6-8.6-24.6-26.3V36.5h18.5v33.1
	c0,9.8,6.8,12.4,11,12.4c5.7,0,11.2-3.2,11.2-12.6V36.5z"/>
<path class="st2" d="M426.4,36.5v7.7c3.1-5.7,10.5-9,18.2-9c16,0,30.1,12.6,30.1,32.2c0,19.9-14.1,32.6-30.1,32.6
	c-7.7,0-15.2-3.2-18.2-8.9v38h-18.4V36.5H426.4z M441.2,82.5c7.8,0,14.4-5.9,14.4-14.8c0-9.2-6.5-15-14.4-15
	c-7.7,0-14.4,6.1-14.4,15C426.8,77.1,433.6,82.5,441.2,82.5z"/>
</svg>
