<?xml version="1.0" encoding="utf-8"?>
<!-- Generator: Adobe Illustrator 21.0.2, SVG Export Plug-In . SVG Version: 6.00 Build 0)  -->
<svg version="1.1" id="Layer_1" xmlns="http://www.w3.org/2000/svg" xmlns:xlink="http://www.w3.org/1999/xlink" x="0px" y="0px"
	 viewBox="0 0 400 400" style="enable-background:new 0 0 400 400;" xml:space="preserve">
<style type="text/css">
	.st0{fill:#8B335B;}
	.st1{fill:#C44057;}
	.st2{fill:#E54859;}
</style>
<g>
	<g>
		<path class="st0" d="M76,174.3v-57.7L26.8,46.8h32.2l30.7,47.7l31.1-47.7h32.2l-49.4,70.1v57.3H76z"/>
		<path class="st0" d="M103.5,174.6H76c-0.2,0-0.3-0.1-0.3-0.3v-57.6L26.5,47c-0.1-0.1-0.1-0.2,0-0.3c0.1-0.1,0.2-0.2,0.3-0.2h32.2
			c0.1,0,0.2,0.1,0.3,0.1L89.6,94l30.8-47.3c0.1-0.1,0.1-0.1,0.3-0.1h32.2c0.1,0,0.2,0.1,0.3,0.2c0.1,0.1,0,0.2,0,0.3l-49.3,70v57.2
			C103.8,174.4,103.7,174.6,103.5,174.6z M76.3,174h27v-57c0-0.1,0-0.1,0.1-0.2l49-69.6h-31.4l-31,47.6c-0.1,0.1-0.1,0.1-0.3,0.1h0
			c-0.1,0-0.2-0.1-0.3-0.1L58.8,47.1H27.3l48.9,69.2c0,0.1,0.1,0.1,0.1,0.2V174z"/>
	</g>
	<path class="st1" d="M233.2,128.8V46.8h27.2v81.9c0,28.9-23.1,47.3-49.2,47.3c-26.3,0-49.6-18.5-49.6-47.3V46.8h27.6v81.9
		c0,13.1,10.5,21.8,22,21.8C222.5,150.6,233.2,141.9,233.2,128.8z"/>
	<path class="st2" d="M281,46.8h52.3c29,0,42,20.9,42,41.8c0,21.1-12.9,41.6-42,41.6h-25.2v44H281V46.8z M308.2,70.7v35.9h23.9
		c10.5,0,16.1-9.6,16.1-17.9c0-8-5.2-17.9-15.4-17.9H308.2z"/>
	<g>
		<path class="st0" d="M118,259.3c-7-8-16.8-12.9-27.9-12.9c-21.5,0-38.1,18.1-38.1,40.3c0,22,16.6,40.5,38.1,40.5
			c13.7,0,30.7-8.5,30.9-22H86.8v-22h65.5c0,47.7-25.5,68.8-62.1,68.8c-36.6,0-65.3-29.4-65.3-65.3c0-36.2,28.7-65.5,65.3-65.5
			c19.6,0,36.8,8.1,47.9,20.9L118,259.3z"/>
		<path class="st0" d="M90.1,352.3c-17.7,0-34.3-6.8-46.6-19.3c-12.3-12.3-19-28.8-19-46.3c0-17.7,6.7-34.2,19-46.5
			c12.3-12.4,28.9-19.2,46.6-19.2c19,0,36.5,7.7,48.1,21c0.1,0.1,0.1,0.1,0.1,0.2c0,0.1,0,0.2-0.1,0.2l-20,17.2
			c-0.1,0.1-0.3,0.1-0.4,0c-7.3-8.3-17.2-12.8-27.7-12.8c-10.2,0-19.8,4.2-26.9,11.7c-7,7.5-10.9,17.6-10.9,28.3
			c0,22.2,17,40.2,37.8,40.2c14.2,0,30.2-8.8,30.6-21.4H86.8c-0.2,0-0.3-0.1-0.3-0.3v-22c0-0.2,0.1-0.3,0.3-0.3h65.5
			c0.2,0,0.3,0.1,0.3,0.3c0,23-5.9,40.6-17.4,52.5C124.4,346.7,109.2,352.3,90.1,352.3z M90.1,221.5c-17.6,0-34,6.8-46.2,19.1
			c-12.1,12.2-18.8,28.6-18.8,46.1c0,17.4,6.7,33.7,18.8,45.9c12.2,12.3,28.6,19.1,46.2,19.1c19,0,34-5.5,44.6-16.4
			c11.4-11.7,17.2-29.1,17.3-51.8H87.1v21.4H121c0.1,0,0.2,0,0.2,0.1s0.1,0.1,0.1,0.2c-0.2,13.1-16.6,22.3-31.2,22.3
			c-21.2,0-38.4-18.3-38.4-40.8c0-10.9,3.9-21.1,11.1-28.7C70,250.3,79.7,246,90.1,246c10.6,0,20.5,4.6,28,12.8l19.5-16.8
			C126.1,229,108.8,221.5,90.1,221.5z"/>
	</g>
	<path class="st1" d="M233.3,306.1v-81.9h27.2v81.9c0,28.9-23.1,47.3-49.2,47.3c-26.3,0-49.6-18.5-49.6-47.3v-81.9h27.6v81.9
		c0,13.1,10.5,21.8,22,21.8C222.6,327.9,233.3,319.2,233.3,306.1z"/>
	<path class="st2" d="M281.2,224.2h52.3c29,0,42,20.9,42,41.8c0,21.1-12.9,41.6-42,41.6h-25.2v44h-27.2V224.2z M308.3,248v35.9h23.9
		c10.5,0,16.1-9.6,16.1-17.9c0-8-5.2-17.9-15.4-17.9H308.3z"/>
</g>
</svg>
