<?xml version="1.0" encoding="utf-8"?>
<!-- Generator: Adobe Illustrator 21.0.2, SVG Export Plug-In . SVG Version: 6.00 Build 0)  -->
<svg version="1.1" id="Layer_1" xmlns="http://www.w3.org/2000/svg" xmlns:xlink="http://www.w3.org/1999/xlink" x="0px" y="0px"
	 viewBox="0 0 800 215" style="enable-background:new 0 0 800 215;" xml:space="preserve">
<style type="text/css">
	.st0{fill:#E54859;}
	.st1{fill:#C44057;}
	.st2{fill:#AB3A58;}
</style>
<g>
	<path class="st0" d="M65.8,159.6V90.1L6.6,6.3h38.7l36.9,57.4l37.4-57.4h38.7L98.9,90.6v69H65.8z"/>
	<path class="st1" d="M211.9,55.7h30.9v103.9h-30.9v-14.2c-5.6,10.5-16.9,16.5-26.9,16.5c-23.4,0-41.2-14.5-41.2-44V55.7h30.9v55.4
		c0,16.5,11.3,20.7,18.5,20.7c9.6,0,18.7-5.3,18.7-21.1V55.7z"/>
	<path class="st2" d="M293.7,55.7v12.9c5.1-9.6,17.6-15.1,30.5-15.1c26.7,0,50.3,21.1,50.3,53.8c0,33.4-23.6,54.5-50.3,54.5
		c-12.9,0-25.4-5.3-30.5-14.9v63.6H263V55.7H293.7z M318.3,132.6c13.1,0,24-9.8,24-24.7c0-15.4-10.9-25.1-24-25.1
		c-12.9,0-24,10.2-24,25.1C294.3,123.5,305.7,132.6,318.3,132.6z"/>
	<path class="st0" d="M502.8,50.3c-8.5-9.6-20.2-15.6-33.6-15.6c-25.8,0-45.8,21.8-45.8,48.5c0,26.5,20,48.7,45.8,48.7
		c16.5,0,36.9-10.2,37.2-26.5h-41.2V79h78.8c0,57.4-30.7,82.8-74.7,82.8s-78.5-35.4-78.5-78.5c0-43.6,34.5-78.8,78.5-78.8
		c23.6,0,44.3,9.8,57.6,25.1L502.8,50.3z"/>
	<path class="st1" d="M630.9,55.7h30.9v103.9h-30.9v-14.2c-5.6,10.5-16.9,16.5-26.9,16.5c-23.4,0-41.2-14.5-41.2-44V55.7h30.9v55.4
		c0,16.5,11.3,20.7,18.5,20.7c9.6,0,18.7-5.3,18.7-21.1V55.7z"/>
	<path class="st2" d="M712.7,55.7v12.9c5.1-9.6,17.6-15.1,30.5-15.1c26.7,0,50.3,21.1,50.3,53.8c0,33.4-23.6,54.5-50.3,54.5
		c-12.9,0-25.4-5.3-30.5-14.9v63.6H682V55.7H712.7z M737.3,132.6c13.1,0,24-9.8,24-24.7c0-15.4-10.9-25.1-24-25.1
		c-12.9,0-24,10.2-24,25.1C713.3,123.5,724.7,132.6,737.3,132.6z"/>
</g>
</svg>
