<svg xmlns="http://www.w3.org/2000/svg" viewBox="0 0 108 108"><style>.st0{fill:#5abe87}.st5{fill:#fff}</style><circle class="st0" cx="54" cy="54" r="53.5"/><path class="st5" d="M58.2 47.5h-8.8l-5.5-8.8-5.4 8.8h-8.6l9.3-14.4-8.8-13.8h8.4L44 28l4.9-8.7h8.7l-8.9 14.4 9.5 13.8zM78.1 47.5H61.4V19.3h16.7v6.1H69v4.4h8.4V36H69v5.3h9.1v6.2zM43.5 76.1H37l-4-6.5-4 6.5h-6.3l6.9-10.6-6.4-10.1h6.2l3.7 6.4 3.6-6.4H43L36.5 66l7 10.1zM58.1 76.1H45.8V55.5h12.3V60h-6.7v3.3h6.2v4.5h-6.2v3.9h6.7v4.4zM70.7 76.1l-4.2-14.9h-.1c.2 2.5.3 4.5.3 5.9v9h-4.9V55.5h7.4l4.3 14.7h.1l4.2-14.7h7.4v20.7h-5.1v-9.1-1.6c0-.6.1-2 .2-4.2h-.1L76 76.2h-5.3z"/><g><path class="st5" d="M43.8 95.9H40L37.5 92l-2.4 3.9h-3.8l4.1-6.3-3.9-6.1h3.7l2.2 3.8 2.2-3.8h3.8l-3.9 6.3 4.3 6.1zM49.7 88.1l2.1-4.6h3.6l-4.1 7.6v4.8H48v-4.7l-4.1-7.7h3.7l2.1 4.6zM60.1 91.4v4.5h-3.4V83.5h4.1c3.4 0 5.1 1.2 5.1 3.7 0 1.4-.7 2.5-2.1 3.3l3.6 5.4h-3.8L61 91.4h-.9zm0-2.5h.6c1.2 0 1.8-.5 1.8-1.6 0-.9-.6-1.3-1.7-1.3h-.7v2.9zM76.7 92.2c0 .8-.2 1.5-.6 2-.4.6-1 1.1-1.7 1.4-.7.3-1.6.5-2.6.5-.8 0-1.5-.1-2.1-.2s-1.1-.3-1.7-.6v-3c.6.3 1.3.6 2 .8.7.2 1.3.3 1.9.3.5 0 .9-.1 1.1-.3.2-.2.3-.4.3-.7 0-.2 0-.3-.1-.4-.1-.1-.2-.3-.5-.4-.2-.1-.8-.4-1.7-.8-.8-.4-1.4-.7-1.8-1.1-.4-.3-.7-.7-.9-1.2-.2-.4-.3-1-.3-1.6 0-1.1.4-2 1.2-2.7.8-.6 2-1 3.4-1 1.3 0 2.6.3 3.9.9l-1 2.6c-1.2-.5-2.2-.8-3-.8-.4 0-.8.1-1 .2-.2.2-.3.3-.3.6 0 .2.1.5.4.7.3.2.9.5 2 1.1 1.1.5 1.8 1 2.2 1.5.6.6.9 1.3.9 2.2z"/></g></svg>
