<svg xmlns="http://www.w3.org/2000/svg" viewBox="0 0 108 108"><style>.st4{fill:#e1d147}.st5{fill:#fff}</style><circle class="st4" cx="54" cy="54" r="53.5"/><path class="st5" d="M32.2 70.2l-1.6-6.1H20.1l-1.6 6.1H8.9l10.5-32.4H31l10.7 32.4h-9.5zm-3.4-13.3l-1.4-5.3c-.3-1.2-.7-2.7-1.2-4.6-.5-1.9-.8-3.2-.9-4-.1.8-.4 2-.8 3.7-.4 1.7-1.3 5.1-2.6 10.2h6.9zM66.4 60.4c0 2-.5 3.8-1.5 5.3-1 1.6-2.5 2.8-4.4 3.6s-4.2 1.3-6.7 1.3c-2.2 0-4-.1-5.4-.5-1.5-.3-3-.8-4.6-1.6v-7.8c1.7.9 3.4 1.5 5.2 2 1.8.5 3.4.7 4.9.7 1.3 0 2.2-.2 2.9-.7.6-.4.9-1 .9-1.7 0-.4-.1-.8-.4-1.2-.2-.3-.6-.7-1.2-1-.5-.3-2-1-4.3-2.1-2.1-1-3.7-1.9-4.7-2.8-1-.9-1.8-1.9-2.3-3.1s-.8-2.5-.8-4.1c0-3 1.1-5.3 3.2-7 2.2-1.7 5.1-2.5 8.9-2.5 3.3 0 6.8.8 10.2 2.3l-2.7 6.7c-3-1.4-5.6-2.1-7.8-2.1-1.1 0-2 .2-2.5.6s-.8.9-.8 1.5.3 1.2 1 1.7 2.4 1.4 5.3 2.7c2.8 1.3 4.7 2.6 5.8 4 1.2 1.8 1.8 3.6 1.8 5.8zM98.9 70.2H89l-6.4-12.4-2.6 1.5v10.8h-8.8V37.9H80v14c.4-.9 1.3-2.2 2.7-4.1l6.8-9.9H99L88.9 52.3l10 17.9z"/></svg>
