<svg xmlns="http://www.w3.org/2000/svg" viewBox="0 0 108 108"><style>.st1{fill:#8d5c9a}.st5{fill:#fff}</style><circle class="st1" cx="54" cy="54" r="53.5"/><path class="st5" d="M37.3 39.8c0 1.8-.5 3.4-1.4 4.8-.9 1.4-2.2 2.5-4 3.3-1.7.8-3.8 1.2-6.1 1.2-1.9 0-3.6-.1-4.9-.4s-2.7-.7-4.1-1.4v-7c1.5.8 3.1 1.4 4.7 1.8 1.6.4 3.1.6 4.5.6 1.2 0 2-.2 2.6-.6.5-.4.8-.9.8-1.6 0-.4-.1-.7-.3-1s-.6-.6-1.1-.9c-.5-.3-1.8-.9-3.9-1.9-1.9-.9-3.3-1.7-4.3-2.5s-1.7-1.7-2.1-2.8-.7-2.4-.7-3.8c0-2.7 1-4.8 2.9-6.3S24.6 19 28 19c3 0 6.1.7 9.2 2.1l-2.4 6.1c-2.7-1.2-5.1-1.9-7.1-1.9-1 0-1.8.2-2.2.5s-.7.8-.7 1.3c0 .6.3 1.1.9 1.5s2.2 1.3 4.8 2.5c2.5 1.1 4.3 2.3 5.2 3.6 1.1 1.5 1.6 3.1 1.6 5.1zM66.7 48.6h-7.9V36.7h-9.2v11.9h-7.9V19.5h7.9v10.8h9.2V19.5h7.9v29.1zM90.4 48.6H73V19.5h17.3v6.3h-9.4v4.6h8.7v6.3h-8.7v5.5h9.4v6.4z"/><g><path class="st5" d="M43.2 75.6h-6v-8.9h-6.9v8.9h-6V53.7h6v8.1h6.9v-8.1h6v21.9zM61 75.6H48V53.7h13v4.8h-7.1v3.4h6.6v4.8h-6.6v4.1H61v4.8zM70.7 67.6v8h-5.9V53.7H72c6 0 8.9 2.2 8.9 6.5 0 2.5-1.2 4.5-3.7 5.9l6.4 9.6h-6.7l-4.6-8h-1.6zm0-4.4h1.1c2.1 0 3.1-.9 3.1-2.7 0-1.5-1-2.3-3-2.3h-1.2v5z"/></g><g><path class="st5" d="M40.9 96.1h-4.1v-6.2H32v6.2h-4.1V80.9H32v5.6h4.8v-5.6h4.1v15.2zM53.2 96.1h-9V80.9h9v3.3h-4.9v2.4h4.5v3.3h-4.5v2.9h4.9v3.3zM59.9 90.6v5.5h-4.1V80.9h5c4.1 0 6.2 1.5 6.2 4.5 0 1.8-.9 3.1-2.6 4.1l4.4 6.6h-4.6L61 90.6h-1.1zm0-3.1h.8c1.4 0 2.1-.6 2.1-1.9 0-1-.7-1.6-2.1-1.6h-.8v3.5zM80.1 91.5c0 .9-.2 1.8-.7 2.5-.5.7-1.2 1.3-2.1 1.7-.9.4-2 .6-3.2.6-1 0-1.9-.1-2.5-.2-.7-.1-1.4-.4-2.1-.7v-3.6c.8.4 1.6.7 2.4.9.8.2 1.6.3 2.3.3.6 0 1.1-.1 1.3-.3.3-.2.4-.5.4-.8 0-.2-.1-.4-.2-.5-.1-.2-.3-.3-.5-.5-.3-.2-.9-.5-2-1-1-.4-1.7-.9-2.2-1.3-.5-.4-.9-.9-1.1-1.5-.2-.5-.4-1.2-.4-1.9 0-1.4.5-2.5 1.5-3.3 1-.8 2.4-1.2 4.2-1.2 1.6 0 3.2.4 4.8 1.1L78.8 85c-1.4-.6-2.6-1-3.7-1-.5 0-.9.1-1.2.3-.2.2-.4.4-.4.7 0 .3.2.6.5.8.3.2 1.1.7 2.5 1.3 1.3.6 2.2 1.2 2.7 1.9.6.6.9 1.5.9 2.5z"/></g></svg>
