<svg xmlns="http://www.w3.org/2000/svg" viewBox="0 0 108 108"><style>.st0{fill:#5abe87}.st1{fill:#8d5c9a}.st2{fill:#eb9843}.st3{fill:#d76c87}.st4{fill:#e1d147}.st5{fill:#fff}.st6{fill:#5fbfcc}.st7{fill:#f15f60}</style><circle class="st7" cx="54" cy="54" r="53.5"/><path class="st5" d="M54.6 47.8H32.2V43l12.5-17.7H32.5V19h21.8v4.8L41.8 41.5h12.8v6.3zM75.8 47.8H58.7V19h17.1v6.2h-9.3v4.5h8.6V36h-8.6v5.4h9.3v6.4zM46.8 75.6h-5.7V67h-6.6v8.6h-5.7v-21h5.7v7.8h6.6v-7.8h5.7v21zM51.3 75.6v-21H57v21h-5.7zM67.3 68v7.7h-5.7v-21h6.9c5.7 0 8.6 2.1 8.6 6.2 0 2.4-1.2 4.3-3.6 5.7l6.1 9.2h-6.4L68.7 68h-1.4zm0-4.3h1.1c2 0 3-.9 3-2.6 0-1.4-1-2.2-2.9-2.2h-1.1v4.8z"/><g><path class="st5" d="M44.1 95.8h-3.7v-5.6h-4.3v5.6h-3.7V82.2h3.7v5.1h4.3v-5.1h3.7v13.6zM47.1 95.8V82.2h3.7v13.6h-3.7zM57.4 90.9v5h-3.7V82.2h4.5c3.7 0 5.6 1.3 5.6 4 0 1.6-.8 2.8-2.3 3.7l4 5.9h-4.2l-2.9-5h-1zm0-2.8h.7c1.3 0 1.9-.6 1.9-1.7 0-.9-.6-1.4-1.9-1.4h-.7v3.1zM75.6 91.7c0 .8-.2 1.6-.6 2.3-.4.7-1 1.2-1.9 1.5-.8.4-1.8.5-2.8.5-.9 0-1.7-.1-2.3-.2-.6-.1-1.3-.3-1.9-.7v-3.3c.7.4 1.4.6 2.2.8.8.2 1.5.3 2.1.3.5 0 .9-.1 1.2-.3.3-.2.4-.4.4-.7 0-.2-.1-.3-.2-.5-.1-.1-.3-.3-.5-.4l-1.8-.9c-.9-.4-1.6-.8-2-1.2-.4-.4-.8-.8-1-1.3-.2-.5-.3-1.1-.3-1.7 0-1.3.5-2.2 1.4-2.9.9-.7 2.2-1.1 3.8-1.1 1.4 0 2.9.3 4.3 1l-1.1 2.8c-1.3-.6-2.4-.9-3.3-.9-.5 0-.8.1-1 .3-.2.2-.3.4-.3.6 0 .3.1.5.4.7.3.2 1 .6 2.3 1.2 1.2.5 2 1.1 2.4 1.7.2.7.5 1.5.5 2.4z"/></g></svg>