<?xml version="1.0" encoding="utf-8"?>
<!-- Generator: Adobe Illustrator 23.0.3, SVG Export Plug-In . SVG Version: 6.00 Build 0)  -->
<svg version="1.1" id="Layer_1" xmlns="http://www.w3.org/2000/svg" xmlns:xlink="http://www.w3.org/1999/xlink" x="0px" y="0px"
	 viewBox="0 0 680 300" style="enable-background:new 0 0 680 300;" xml:space="preserve">
<style type="text/css">
	.st0{fill:#502E56;}
</style>
<path class="st0" d="M2.7,217h30.5c18.1,0,24,9.9,24,19.7c0,8.2-6,15.1-14.8,16.2l0.2,0.2c2-0.3,17.2,3.3,17.2,18.7
	c0,13.9-10.7,21.3-26.5,21.3H2.7 M7.4,251.6h25.8c12.7,0,19.3-6.4,19.3-15.7c0-11-9.2-14.8-19.3-14.8H7.4V251.6z M7.4,289.1h25.8
	c13.4,0,21.9-6,21.9-17.3c0-13-11.8-16.2-21.9-16.2H7.4V289.1z"/>
<path class="st0" d="M109.5,283c0,3.2,0,6.6,3.6,6.6c1,0,2-0.1,3-0.3v3.4c-1.1,0.2-2.2,0.4-3.3,0.4c-6.4,0-7.3-3.5-7.3-8v-2.9h-0.2
	c-2.6,6.5-9.9,12.1-20.4,12.1s-18.3-3.9-18.3-15.5c0-12.8,11.1-15.5,20.2-16.2c18.1-1.3,18.9-2.5,18.9-11.4
	c0-2.5-2.8-10.8-15.2-10.8c-9.8,0-16.3,5.1-16.8,14.6h-4c0.5-12,8-18.1,20.9-18.1c9.6,0,19.2,3,19.2,14.3L109.5,283z M105.5,262
	c-3.2,3.6-11.9,3.2-19.8,4.3c-9.6,1.1-15,4.5-15,12.7c0,6.6,4.8,11.9,14.4,11.9c18.4,0,20.5-15.8,20.5-18.6L105.5,262z"/>
<path class="st0" d="M126.4,238.3h-4v54.8h4v-30c0.4-8.2,2.1-11.6,6.2-15.8c4-4,9.5-5.9,15.1-5.3v-4c-9.9-0.4-18.9,5.3-21,12.5h-0.3
	V238.3z"/>
<path class="st0" d="M153,217h4.1v32.9h0.2c3.1-8.5,11.9-12.9,20.8-12.9c16.1,0,23.8,12.1,23.8,27.4c0,26.1-16.2,30-23.8,30
	c-14.4,0-19.9-10.7-20.8-13.5h-0.2v12.3H153C153.8,293.1,153,217,153,217z M197.8,264.5c0-12.1-6.6-23.9-19.7-23.9
	c-14.3,0-20.9,10.1-20.9,23.9c0,13.4,6,26.4,20.9,26.4C192.4,290.9,197.8,277,197.8,264.5L197.8,264.5z"/>
<path class="st0" d="M251.7,283c0,3.2,0,6.6,3.6,6.6c1,0,2-0.1,3-0.3v3.4c-1.1,0.2-2.2,0.4-3.3,0.4c-6.4,0-7.4-3.5-7.4-8v-2.9h-0.2
	c-2.6,6.5-9.9,12.1-20.4,12.1s-18.3-3.9-18.3-15.5c0-12.8,11.1-15.5,20.1-16.2c18.1-1.3,18.9-2.5,18.9-11.4
	c0-2.5-2.8-10.8-15.2-10.8c-9.8,0-16.3,5.1-16.9,14.6h-4.1c0.5-12,8-18.1,20.9-18.1c9.6,0,19.2,3,19.2,14.3L251.7,283z M247.7,262
	c-3.2,3.6-11.9,3.2-19.8,4.3c-9.6,1.1-15,4.5-15,12.7c0,6.6,4.8,11.9,14.4,11.9c18.4,0,20.5-15.8,20.5-18.6L247.7,262z"/>
<path class="st0" d="M307,281.4h-0.2c-4.5,8.6-11.2,13-21,13c-16.5,0-23.7-13.4-23.7-28.6c0-16.2,7.9-28.8,24.4-28.8
	c9,0,17.4,4.9,20.2,13.5h0.2V217h4v76.1h-4V281.4z M306.9,265.8c0-12.8-6.3-25.3-20.4-25.3c-14.5,0-20.4,12.1-20.4,25.3
	c0,12.9,6.4,25,20.5,25C300.4,290.9,306.8,278.4,306.9,265.8L306.9,265.8z"/>
<path class="st0" d="M346.5,237c16.1,0,25.2,13.1,25.2,28.7s-9.1,28.7-25.2,28.7s-25.2-13.1-25.2-28.7S330.4,237,346.5,237
	 M346.5,290.8c13.8,0,21.1-12,21.1-25.2s-7.4-25.2-21.1-25.2s-21.1,12.1-21.1,25.2C325.4,278.8,332.7,290.9,346.5,290.8L346.5,290.8
	z"/>
<path class="st0" d="M385.2,250.4h0.3c2.1-7.1,11.1-12.9,21-12.5v4c-5.6-0.6-11.2,1.3-15.1,5.3c-4,4.2-5.8,7.6-6.2,15.8v30h-4.1
	v-54.8h4.1V250.4z"/>
<path class="st0" d="M451.2,283c0,3.2,0,6.6,3.6,6.6c1,0,2-0.1,3-0.3v3.4c-1.1,0.2-2.2,0.4-3.3,0.4c-6.4,0-7.4-3.5-7.4-8v-2.9h-0.2
	c-2.6,6.5-9.9,12.1-20.4,12.1s-18.3-3.9-18.3-15.5c0-12.8,11.1-15.5,20.1-16.2c18.1-1.3,18.9-2.5,18.9-11.4
	c0-2.5-2.8-10.8-15.2-10.8c-9.8,0-16.3,5.1-16.8,14.6h-4.1c0.5-12,8-18.1,20.9-18.1c9.6,0,19.2,3,19.2,14.3V283z M447.1,262
	c-3.2,3.6-11.9,3.2-19.8,4.3c-9.6,1.1-15,4.5-15,12.7c0,6.6,4.8,11.9,14.4,11.9c18.5,0,20.5-15.8,20.5-18.6L447.1,262z"/>
<rect x="474.9" y="217" class="st0" width="23.5" height="76.1"/>
<path class="st0" d="M510,293.1h21.1v-29.2c0-8.9,4.8-10.7,8.4-10.7c6.2,0,6.9,4.5,6.9,10.9v29h21.1v-38c0-12.7-9.1-18.8-19-18.8
	c-8.4,0-14.1,2.9-18,8.4h-0.2v-7H510V293.1z"/>
<polygon class="st0" points="579.5,293.1 600.7,293.1 600.7,277.1 604.4,273 615.7,293.1 641.1,293.1 618.2,258.6 638,237.8 
	614.1,237.8 600.7,253.8 600.7,217 579.5,217 "/>
<path class="st0" d="M438.5,150.2c11.4,1.3,13,11.9,13,11.9c1.4,7.4-2.3,12.5-9.4,14.7c-7,3.1-12.1,9.4-13.8,16.9
	c-1.4,7.8,6.4,4.6,6.4,4.6c6.7-3,14.8-18.5,14.8-18.5c5.2-6.2,6.8-3.2,6.8-3.2c1.8,6,4.9,11.9,9.6,16.1c5.1,4.4,12.3,5.5,18.9,5
	c8-0.6,15.6-3.7,21.7-8.9c6.1-4.3,11.8,1.5,11.8,1.5c0.4,0.4,0.4,1.7,0.5,2.2c0.2,1.3,0.6,2.5,1.1,3.6c0.7,1.3,1.9,2.2,3.4,2.4
	c0.9,0.1,1.8-0.2,2.6-0.6c1.3-0.6,2.4-1.6,3-2.9c0.5-1.4,0.3-2.9-0.5-4.2c-0.8-1.2-1.9-2.2-3.3-2.8c-1-0.3-2-0.8-2.9-1.4
	c-1-0.8-1.9-1.8-2.5-2.9c-1.1-1.6-1.7-3.4-1.8-5.3c-0.1-1.8,0.3-3.7,1.3-5.3c3.6-7.1,14.5,0.9,19.2,2.2c-3-8.9,2.2-17.8,2.2-17.8
	c6.7,0.7,14.1,1.5,14.1,1.5c-5.5-5-0.8-6.9-0.8-6.9c11.3-4.2,14.9-5,14.9-5c-3.7,0-7.5-0.2-11.2-0.6c-2.5-0.3-6.5-0.3-8-2.6
	c-1.1-1.7,0.7-2.9,2.1-3.4c3.7-0.7,19.3-4,19.3-4c-13.3-1.5-26.7-3.4-26.7-3.4c-6.7-2.2-2.3-6.8-2.3-6.8c3-2.2,6.3-4.2,9.7-5.7
	c8.1-3,20.5-6.7,20.5-6.7c-21.5,5.2-29.2,3.6-29.2,3.6c-6.1-3.2-0.7-7.8-0.7-7.8c4.4-3.7,10.3-8.4,10.3-8.4
	c-2.7,0.4-5.5,0.7-8.2,0.7c-3-0.7,3-4.4,3-4.4c11-6.6,30.3-21.4,30.3-21.4c-19.2,11.1-38.5,20-38.5,20c-9.6,4.9-12.8,3.3-12.8,3.3
	c-4.4-0.7,0.9-10,0.9-10c7.4-13.3,25.9-43,25.9-43c-22.2,34-34.7,43.6-34.8,43.7c-3.5,2.7-9.8,4.8-13.6,1.6c-3.2-2.7-4.2-9.1-5.1-13
	c-2.2-10.4-3.1-21-3.8-31.6c-0.2-2.9-0.4-5.9-0.5-8.8C489,87,478.5,88,478.5,88c-15.8,4-29.6-15.5-29.6-15.5
	c10.5,24.4,4.8,31.6,4.8,31.6c-8.2,12.6-26.3,9.9-26.3,9.9c11.5,4.5,13.3,14.1,13.3,14.1c2.2,5.9-7.4,13.3-7.4,13.3
	C442.2,141.3,438.5,150.2,438.5,150.2"/>
<path class="st0" d="M412.1,135.1c8.4-1.7,13.1,7,13.8,9.7c2.7,10.5-6.9,13-6.9,13c-8.1,3-18.3,1.3-18.3,1.3
	c-17.1-4.2-80.7,11.1-80.7,11.1c68-20.8,69.1-23.3,69.1-23.3c4-2.1,7.9-4.4,11.6-7C407.1,135.4,412.1,135.1,412.1,135.1"/>
<path class="st0" d="M418.3,190.7c1.2,2.1,1.4,5.2-1.1,6.5c-1.1,0.6-2.5,0.6-3.7,1.1c-1.1,0.5-2,1.2-2.8,2c-2.1,2-4.1,4-6,6.2
	c-2.1,2.7-4.3,5.2-6.7,7.6c-2.4,2.4-5.5,4-8.8,4.6c-1,0.2-2,0-2.9-0.6c-0.6-0.7-0.9-1.6-0.7-2.5c0.2-0.9,0.6-1.7,1.2-2.5
	c4-6.2,9.9-11.6,17-13.2c1.1-0.2,2.1-0.4,3.2-0.8c2.5-1,4.4-3,5.4-5.5c0.3-1,0.8-2,1.4-2.8C415,189.7,417,189.6,418.3,190.7"/>
<path class="st0" d="M582.1,6.6c-4.4,3.7-8.1,12.6-8.1,12.6c-4.5,11.9-6.7,17-6.7,17c0,3,3,0.7,3,0.7c5.2-7.4,8.1-11.9,8.1-11.9
	c3-5.9,6.7-5.9,6.7-5.9c5.9-1.5,5.2-11.1,5.2-11.1C588.4,5.5,584.9,4.9,582.1,6.6"/>
<path class="st0" d="M594.7,137.6c-3.3,0-3.1,2.4-3.1,2.4c-0.1,1.4,1,2.6,2.4,2.7c0,0,0,0,0,0c20.2-0.6,41,0.9,41,0.9
	c2-0.1,3.5-1.6,3.6-3.6c-0.1-4.1-4.6-3.6-4.6-3.6C620.9,137.9,607.8,138.3,594.7,137.6"/>
<path class="st0" d="M648.3,139c-0.7,0.2-1.1,0.9-1.2,1.6c-0.1,1.3,1.6,1.5,1.6,1.5c5.2,0,24.8,0.9,24.8,0.9c2.8,0,4.3-1.5,3.6-3.7
	c-0.4-1.6-2.1-2.5-3.7-2.1C665.2,138.2,648.3,139,648.3,139"/>
</svg>
