<svg id="Layer_1" data-name="Layer 1" xmlns="http://www.w3.org/2000/svg" viewBox="0 0 390.17 123"><title>dcus19</title><path d="M182.92,116.35a21.74,21.74,0,0,0,2.62,1.64,7.21,7.21,0,0,0,3.55,1c1.13,0,1.7-.44,1.7-1.32a1.43,1.43,0,0,0-.48-1.06,7.32,7.32,0,0,0-1.76-1.05c-.85-.4-1.49-.72-1.91-.94a14.48,14.48,0,0,1-1.7-1.12,6.53,6.53,0,0,1-1.62-1.62,9.89,9.89,0,0,1-1.6-5.79,7.75,7.75,0,0,1,2.62-5.93,9.7,9.7,0,0,1,6.85-2.42,21.61,21.61,0,0,1,5.31.62c1.62.42,2.46.95,2.52,1.62v.24a9.86,9.86,0,0,1-.88,3.53,7.63,7.63,0,0,1-1.24,2.38,10.17,10.17,0,0,0-4.57-1.32c-1.35,0-2,.48-2,1.44,0,.59.49,1.11,1.48,1.56l.92.44c.4.18.86.4,1.37.66a16.8,16.8,0,0,1,1.68,1,14.58,14.58,0,0,1,1.94,1.54,6.92,6.92,0,0,1,2.12,5.27,10.29,10.29,0,0,1-2.36,7q-2.36,2.73-7.27,2.8a21.2,21.2,0,0,1-4.33-.4,7.74,7.74,0,0,1-3.38-1.56,3.47,3.47,0,0,1-1.44-2.79,9.34,9.34,0,0,1,.6-3.26A4.88,4.88,0,0,1,182.92,116.35Z" transform="translate(-4.92 -3.5)" fill="#502e56"/><path d="M221.86,126.18c-2.31,0-3.57-.37-3.75-1.12l-1.32-5.15h-6.35l-1.16,5c-.16.83-1.44,1.24-3.83,1.24a13.07,13.07,0,0,1-2.84-.22c-.61-.15-.92-.26-.92-.34l7.07-27c0-.21,1.83-.32,5.47-.32s5.48.11,5.48.32l6.91,27.08c0,.19-.62.33-1.84.44S222.58,126.18,221.86,126.18Zm-10.42-11.34h4.19l-1.8-8.27h-.23Z" transform="translate(-4.92 -3.5)" fill="#502e56"/><path d="M251.14,125.22c0,.56-1.25.84-3.76.84s-3.86-.2-4.07-.6L236.64,113v12.42q0,.72-3.69.72c-2.47,0-3.7-.24-3.7-.72V98.7c0-.4,1.05-.6,3.16-.6a23.55,23.55,0,0,1,2.89.22c1.11.15,1.78.42,2,.82l6.39,12.3V98.9c0-.51,1.24-.76,3.71-.76s3.72.25,3.72.76Z" transform="translate(-4.92 -3.5)" fill="#502e56"/><path d="M262.64,124.26v-24a2.36,2.36,0,0,1,.5-1.58,1.66,1.66,0,0,1,1.3-.58h6.67q6.34,0,9.64,3.2t3.3,10.06q0,14.7-12.54,14.7h-6.83C263.32,126.1,262.64,125.49,262.64,124.26Zm7.67-18.53v11.94a2.77,2.77,0,0,0,.12,1.06c.08.15.32.22.72.22a3.78,3.78,0,0,0,3.33-1.64q1.14-1.64,1.14-5.45t-1.18-5a5.16,5.16,0,0,0-3.73-1.16Z" transform="translate(-4.92 -3.5)" fill="#502e56"/><path d="M289.88,119.23V105H287c-.45,0-.77-.57-1-1.72a12.32,12.32,0,0,1,0-3.43c.18-1.14.5-1.72,1-1.72h13.42c.46,0,.76.58.92,1.72a9.27,9.27,0,0,1,0,3.43c-.16,1.15-.46,1.72-.92,1.72h-2.67v14.22h2.79c.46,0,.78.57,1,1.72a9.27,9.27,0,0,1,0,3.43c-.18,1.15-.5,1.72-1,1.72H287.12c-.45,0-.75-.57-.91-1.72a9.27,9.27,0,0,1,0-3.43c.16-1.15.46-1.72.91-1.72Z" transform="translate(-4.92 -3.5)" fill="#502e56"/><path d="M317.36,109.25c.5,0,.76.93.76,2.79a12.93,12.93,0,0,1-.18,2q-.18,1.14-.66,1.14h-5.07v4h7.35c.45,0,.75.59.91,1.76a10.27,10.27,0,0,1,.12,1.62,13.19,13.19,0,0,1-.24,2.21c-.15.91-.42,1.36-.79,1.36H305.9c-1,0-1.52-.41-1.52-1.24V99.18c0-.69.3-1,.92-1h14.3q.84,0,.84,3.54c0,2.35-.28,3.53-.84,3.53h-7.39v4Z" transform="translate(-4.92 -3.5)" fill="#502e56"/><path d="M338.85,117.75l.08-5.43c0-.37.38-.62,1.16-.74a12.89,12.89,0,0,1,1.91-.18l1.56.12c1,.16,1.52.44,1.52.84l-.16,12.5a10,10,0,0,1-3.22,1.1,25.46,25.46,0,0,1-5.53.54,12.26,12.26,0,0,1-9.34-3.75q-3.57-3.77-3.56-11a14.47,14.47,0,0,1,3.48-10.06q3.47-3.89,9.62-3.88a21.73,21.73,0,0,1,5.05.54,6.16,6.16,0,0,1,3.1,1.46,10.65,10.65,0,0,1,0,1.2,7.81,7.81,0,0,1-.6,2.49,7,7,0,0,1-1.36,2.42c-.5.53-.87.8-1.1.8a1.22,1.22,0,0,1-.72-.3,5.08,5.08,0,0,0-1.49-.64,7.35,7.35,0,0,0-2.16-.34,5.29,5.29,0,0,0-4,1.6q-1.55,1.59-1.54,4.95a7.27,7.27,0,0,0,1.58,5.09,4.78,4.78,0,0,0,3.63,1.74C338.16,118.79,338.85,118.45,338.85,117.75Z" transform="translate(-4.92 -3.5)" fill="#502e56"/><path d="M360.75,126.5a12.1,12.1,0,0,1-9.14-3.67q-3.54-3.67-3.54-10.73t3.58-10.68a12.35,12.35,0,0,1,9.22-3.64,12.14,12.14,0,0,1,9.13,3.58q3.48,3.57,3.48,10.82T369.92,123A12.46,12.46,0,0,1,360.75,126.5Zm0-21a3.88,3.88,0,0,0-3.21,1.76,10.09,10.09,0,0,0-.06,9.8,3.82,3.82,0,0,0,3.25,1.7A3.88,3.88,0,0,0,364,117a8.19,8.19,0,0,0,1.26-4.91,8,8,0,0,0-1.3-4.91A3.9,3.9,0,0,0,360.77,105.45Z" transform="translate(-4.92 -3.5)" fill="#502e56"/><path d="M48.76,30.29H60.52v11.9H48.76Zm-6.82-.13H30.18V47.94A21.46,21.46,0,0,0,25,47.27c-12.17,0-20,7.62-20,19.51,0,12.3,7.48,18.58,21.78,18.72A83.38,83.38,0,0,0,41.94,84ZM30.18,75.87a20.09,20.09,0,0,1-4,.27c-6,0-9.36-3.34-9.36-9.62s3.34-9.89,9.36-9.89a9.54,9.54,0,0,1,3.87.66Z" transform="translate(-4.92 -3.5)" fill="#502e56"/><path d="M48.76,70.93c0,10-.54,13.9-2.28,17.24s-4.14,5.35-9.35,7.75L48,101.13c5.22-2.53,7.62-4.94,9.63-8.55s2.81-8.29,2.81-17.64V48.07H48.62l.14,22.86ZM83,47.27a34.68,34.68,0,0,0-15.5,3.47v9a31,31,0,0,1,13.77-3.48c2.94,0,4,.81,4,2.94V61.7c-14.31,1.21-20.32,5-20.32,13.1,0,7.49,4.41,11,14.17,11a140.12,140.12,0,0,0,16.71-1.2V60.77c0-4.81-.27-7.09-1.21-8.82C93,48.74,89.12,47.27,83,47.27Zm2.94,29.67a26.67,26.67,0,0,1-5.61.54c-3.21,0-4.68-1.07-4.68-3.21,0-3.08,2.54-4.28,10.29-5.08ZM199.66,86C211.42,86,219,78.55,219,66.25c0-11.76-7.22-19.11-18.84-19.11-11.9,0-19.39,7.48-19.39,19.78C180.81,78.68,188,86,199.66,86Zm.4-29.54c4.55,0,7.09,3.74,7.09,10s-2.68,10-7.22,10-7.22-3.61-7.22-10,2.67-10,7.35-10ZM182,49a73.77,73.77,0,0,0-15.24-1.61c-17.11,0-26.87,7.49-26.87,20.59,0,10.56,6.55,17.37,16.71,17.37a15.67,15.67,0,0,0,7.49-1.6V84c0,7.48-3.21,10.42-11,10.42a27.37,27.37,0,0,1-12.57-3.07v10.69a36.67,36.67,0,0,0,12.57,2.27c6.15,0,11.09-1.33,14.7-4A20.24,20.24,0,0,0,169.59,99a14.58,14.58,0,0,0,2.54-3.08c2.54-3.87,3.34-8.55,3.34-18.44V74.27c-.14-1.61-.14-3.21-.14-4.81l-.13-6.29-.13-4.94V57c2.4.26-.54-.27,2.67.26L182,49ZM164.37,74.27v.93A12.15,12.15,0,0,1,160,76c-5.21,0-8-3.21-8-9.09,0-4,1.47-7,4.28-8.56a13.22,13.22,0,0,1,6.82-1.6h1.2v.93l.13,3.75.14,5.34c0,1.61.13,3.21.13,4.41Zm-44.24-27a76.69,76.69,0,0,0-18.31,2.67V85.1h11.76V57.43a17.85,17.85,0,0,1,5.35-.94c4.14,0,5.61,1.61,5.61,6.15V85h11.77V62.24c0-5.75-.81-8.56-3.21-11s-6.95-4-13-4ZM296.3,66.92c0-11.77-7.22-19.12-18.85-19.12-11.89,0-19.38,7.49-19.38,19.79,0,11.76,7.22,19.11,19,19.11s19.25-7.62,19.25-19.78ZM270,67.18c0-6.41,2.67-10,7.35-10s7.08,3.74,7.08,10-2.67,10-7.21,10-7.22-3.48-7.22-10Zm52.66-3.87V85.63h11.76V62.91c0-5.75-.8-8.56-3.21-11s-6.95-4-13-4a76.69,76.69,0,0,0-18.31,2.67V85.76h11.76V58.1a14.44,14.44,0,0,1,5.35-.81c4,0,5.61,1.61,5.61,6ZM371,84.69c1.6-1.73,2.27-3.6,2.27-7.61V61.17h-8.16v15.5c0,3.21-1.06,4.28-3.87,4.28a12.29,12.29,0,0,1-3.74-.67V61.17h-8V85.63a51.16,51.16,0,0,0,12.83,1.74C366.2,87.5,369.28,86.57,371,84.69ZM228.67,81.22C232.41,84.69,239.36,86,244,85.9a22.5,22.5,0,0,0,10.56-2.68V73.87a19.26,19.26,0,0,1-8,2c-4.55,0-11.77-1.74-11.77-9.75s7.22-9.76,11.77-9.76a15.84,15.84,0,0,1,7.75,2.27V49.14a24.47,24.47,0,0,0-10.16-2.27c-4.68,0-11.09,1.33-14.84,5.08a19.27,19.27,0,0,0-6.41,14.17,18.35,18.35,0,0,0,5.75,15.1ZM385.72,70.79c-1.87-.93-1.74-1.87-1.74-1.87s0-1.6,3.21-1.6a17.13,17.13,0,0,1,6.82,1.6V62.77a16,16,0,0,0-8.29-1.47c-9.49.4-9.36,7.49-9.36,7.49a7.42,7.42,0,0,0,1.74,5.34,21.85,21.85,0,0,0,6.68,3.75c1.74.67,2.41,1.47,2.41,1.87s.27,1.74-3.21,1.74a20.14,20.14,0,0,1-7.48-2V85.9a22.55,22.55,0,0,0,11.09,1.33c3.48-.66,7.08-1.73,7.49-7.48.26-5.48-5.35-7.22-9.36-9ZM337.2,76.27h9.36v9.36H337.2V76.27Z" transform="translate(-4.92 -3.5)" fill="#502e56"/><path d="M90.64,34.86H76q-1.55,0-2.16-3a14.14,14.14,0,0,1-.31-2.47,1.69,1.69,0,0,1,.26-1.11q9.88-10.19,9.88-13.84A2.47,2.47,0,0,0,83,12.58,2.82,2.82,0,0,0,81,12a7.57,7.57,0,0,0-2.78.53A8.5,8.5,0,0,0,76,13.64a12.1,12.1,0,0,1-2.38-4.36,4.88,4.88,0,0,1-.22-1.39,3.34,3.34,0,0,1,.22-1.22C73.9,5.91,75,5.19,77,4.51a19,19,0,0,1,6.19-1Q93,3.5,93,12.28a14.24,14.24,0,0,1-2.64,7.87,31.51,31.51,0,0,1-6.18,6.9l8.91-.35c.15,1.56.22,2.91.22,4.05a5.66,5.66,0,0,1-.7,2.92A2.22,2.22,0,0,1,90.64,34.86Z" transform="translate(-4.92 -3.5)" fill="#502e56"/><path d="M108.79,35.3a11.42,11.42,0,0,1-9-4.06q-3.51-4.06-3.51-11.86t3.53-11.8a11.6,11.6,0,0,1,9.11-4,11.36,11.36,0,0,1,9,4q3.43,4,3.44,12t-3.51,11.88A11.58,11.58,0,0,1,108.79,35.3Zm0-23.25A3.37,3.37,0,0,0,105.92,14a10.53,10.53,0,0,0-1.17,5.45,10.59,10.59,0,0,0,1.13,5.4,3.19,3.19,0,0,0,5.82,0,10.71,10.71,0,0,0,1.12-5.42A10.51,10.51,0,0,0,111.66,14,3.39,3.39,0,0,0,108.79,12.05Z" transform="translate(-4.92 -3.5)" fill="#502e56"/><path d="M138.58,34.11c0,.5-1.49.75-4.48.75s-4.47-.25-4.47-.75V12.36l-4.77.05c-.88,0-1.32-1.41-1.32-4.24a13.76,13.76,0,0,1,.29-2.82c.19-.91.52-1.36,1-1.36H136.9a2,2,0,0,1,1.22.33,1,1,0,0,1,.46.81Z" transform="translate(-4.92 -3.5)" fill="#502e56"/><path d="M146.16,27.18a28,28,0,0,0,5,.66,4.76,4.76,0,0,0,3-1.06,4.52,4.52,0,0,0,1.56-3.3,13.92,13.92,0,0,1-3.52.62,9.57,9.57,0,0,1-7.15-2.58q-2.51-2.6-2.51-7.33a10.51,10.51,0,0,1,2.89-7.69,10.54,10.54,0,0,1,7.91-3,9.7,9.7,0,0,1,7.92,3.53q2.88,3.52,2.89,10.41,0,8.6-3.07,13.21A10.23,10.23,0,0,1,152,35.3q-7.48,0-7.49-2.52a14.79,14.79,0,0,1,.53-3.46C145.37,27.89,145.75,27.18,146.16,27.18Zm7.1-15.7a2.68,2.68,0,0,0-2.18.91,3.45,3.45,0,0,0-.77,2.31,3,3,0,0,0,.9,2.27,3.22,3.22,0,0,0,2.32.86,3.85,3.85,0,0,0,2.29-.62,12.14,12.14,0,0,0-.57-4.38A2,2,0,0,0,153.26,11.48Z" transform="translate(-4.92 -3.5)" fill="#502e56"/></svg>