<?xml version="1.0" encoding="utf-8"?>
<!-- Generator: Adobe Illustrator 27.5.0, SVG Export Plug-In . SVG Version: 6.00 Build 0)  -->
<svg version="1.1" id="Layer_1" xmlns="http://www.w3.org/2000/svg" xmlns:xlink="http://www.w3.org/1999/xlink" x="0px" y="0px"
	 viewBox="0 0 772 259" style="enable-background:new 0 0 772 259;" xml:space="preserve">
<style type="text/css">
	.st0{fill:#502E56;}
</style>
<g>
	<path class="st0" d="M56.2,162.3v-5.2c-5.5,4.7-9.8,7.1-18.5,7.1c-9.9,0-20.3-5.1-24.1-9.4c-5-6-7.6-16.6-7.6-25.9
		c0-21,13-35.9,31.6-35.9c7.1,0,12.8,1.7,18.1,5.8L56.2,69h20.7v93.4L56.2,162.3L56.2,162.3z M54.3,116.5c-2.4-4.5-6.8-7.6-13.9-7.6
		c-7.6,0-14,9.8-14,20.4c0,8.6,5.4,17,12.8,17c10.5,0,16.8-6.6,16.8-14.1C56,127.4,56.1,119.8,54.3,116.5z"/>
	<path class="st0" d="M102.7,186.8c-5.6,5.8-17.4,7.5-30,4.3l4.6-17.9c8.5,2.2,11.4,1.6,11.4-9.4L88,97.1l19.5,0.4v71.2
		C107.5,177.1,105,184.3,102.7,186.8L102.7,186.8z M86.5,77.2c0-5.8,5.8-11.5,11.3-11.5c5.5,0,11.8,5.8,11.8,11.5
		c0,5.8-4.7,12.4-11.7,12.4C91.4,89.6,86.5,82.8,86.5,77.2L86.5,77.2z"/>
	<path class="st0" d="M166.6,162.3l-0.5-5.2c-5.1,4.7-9.6,7.6-16.9,7.6c-8.4,0-17.7-3.1-21.3-6.8c-6.5-6.5-9.7-17.7-9.7-29.1
		c0-19,11.7-33.1,30.9-33.1c5.8,0,12.2,1.3,16.9,5.9l0.1-4.5h21.7c0,21.7-0.8,43.5,0,65.2L166.6,162.3L166.6,162.3z M162.8,115.1
		c-3-2.7-8-3.8-12.2-3.8c-9.4,0-13.2,8.1-13.2,17.7c0,9.6,5.1,17.3,13.4,18.2c8.9,1,16.1-8.2,16.1-18.5
		C166.8,122,165.1,117,162.8,115.1L162.8,115.1z"/>
	<path class="st0" d="M217.7,102.3c4.7-4.6,7.9-6.8,21-6.8c10.5,0,20.6,12.4,20.6,25.7v41.1c-6.4-0.3-13.2,0.1-20.4,0.3v-40.3
		c0-8.1-4.5-11.7-7.7-11.7c-8.5,0-13.4,5-13.4,13.4l-0.4,37.7l-19.4,0.7V97.1h19.8V102.3L217.7,102.3z"/>
	<path class="st0" d="M303.1,176.4c7.3-0.9,13.9-4.7,13.9-14.9v-2.1c-5.5,4.3-11.5,5.4-16.8,5.4c-8.1,0-14.8-1.6-20.2-6
		c-7.6-6.3-12.3-16.4-12.3-34.2c0-13.9,14-28.9,29.6-28.9c7.2,0,13.9,2.1,19.3,6.2l0.4-5.9l20.4,1.3v62.7
		c0,19.3-15.6,33.5-28.6,33.8c-20,1-29.6-5.1-35.2-11.8l14.7-11.4C291,174.8,297.3,177.3,303.1,176.4L303.1,176.4z M302,148.5
		c9.4,0,16.5-6.7,16.5-13.9c0-7.2-1-12.3-3.1-15.3c-2.7-4.1-7.9-6.7-13.2-6.7s-8.9,2.9-11.4,6.2c-2.9,3.7-3,8.4-3,11.9
		C287.7,141.2,292.9,148.5,302,148.5z"/>
	<path class="st0" d="M354.5,106c7.1-6.8,16.5-11.4,27.2-11.4c9.6,0,19.6,2.4,25.7,7.1c4.1,3.7,10.4,17.9,10.4,28.3
		c0,19.8-15.7,35.2-36.3,35.2c-6.2,0-15.5-1.4-18.5-3.3c-11.1-6-17.3-18.7-17.3-32.6C345.8,120.7,350.5,110.1,354.5,106z
		 M381.4,148.2c5,0,10.9-2,13-3.9c3.4-2.9,4.5-8.8,4.5-14.4c0-11-7.2-18.2-17.3-18.2c-10.1,0-16,7.2-16,17.8
		C365.5,140.1,371.4,148.2,381.4,148.2z"/>
	<path class="st0" d="M434.7,102c4.7-4.1,16.1-7.6,25.5-7.6c8.5,0,17.4,3.8,22.8,9.8c-3.8,4.1-7.5,7.7-10.2,12.3
		c-5-4.8-7.5-6.2-16.2-5.6c-7.3,0.3-13.1,6.9-13.1,19.1c0,10.1,5.2,16.4,14.7,16.4c6.8,0,9.6-2,15.2-7.6l10.1,9.9
		c-6.7,9.2-14.4,15.1-23.2,15.5c-10.1,0.5-21.9-2.9-26.5-7.1c-6.9-6.2-10.1-17.2-10.1-27C423.7,118.3,427.2,108.2,434.7,102
		L434.7,102z"/>
	<path class="st0" d="M498,106c7.1-6.8,16.5-11.4,27.2-11.4c9.6,0,19.6,2.4,25.7,7.1c4.1,3.7,10.4,17.9,10.4,28.3
		c0,19.8-15.7,35.2-36.3,35.2c-6.2,0-15.5-1.4-18.5-3.3c-11.1-6-17.3-18.7-17.3-32.6C489.2,120.7,493.9,110.1,498,106z M524.8,148.2
		c5,0,10.9-2,13-3.9c3.4-2.9,4.5-8.8,4.5-14.4c0-11-7.2-18.2-17.3-18.2s-16,7.2-16,17.8C509,140.1,514.9,148.2,524.8,148.2z"/>
	<path class="st0" d="M589.3,102.3c4.7-4.6,7.9-6.8,21-6.8c10.5,0,20.6,12.4,20.6,25.7v41.1c-6.4-0.3-13.2,0.1-20.4,0.3v-40.3
		c0-8.1-4.5-11.7-7.7-11.7c-8.5,0-13.4,5-13.4,13.4l-0.4,37.7l-19.4,0.7V97.1h19.8V102.3L589.3,102.3z"/>
	<path class="st0" d="M650.6,142.2c7.6,0,12.4,7.2,11.5,12.2c-1.3,6.5-6.2,10.9-12.8,10.9c-5,0-9.4-5.2-9.4-11.7
		C639.8,149.1,644.2,142.2,650.6,142.2L650.6,142.2z"/>
	<path class="st0" d="M684.8,111.8v29.8c0,6.7,3.4,10.9,9.4,10.9c4.9,0,6.8-4.4,6.8-8.4v-32.5l15.4,0.1v27.5
		c0,17.9-7.5,25.3-23.1,25.3c-8.4,0-14.3-1.7-18.2-5.8c-2.5-2.6-4.9-9.6-4.9-16.1v-30.3L684.8,111.8L684.8,111.8z"/>
	<path class="st0" d="M720.6,153.1l12.3-5.8c3.4,4.4,5.5,5.4,11.1,5.7c2.9,0.1,6.5-2,6.5-5.3c0-4.4-5.4-4.1-11.5-5.7
		c-10.9-2.9-16.1-8-16.1-15.1c0-9.5,8.1-16.4,21.9-16.4c3.2,0,8.9,0.7,12,2c3.6,1.4,6.7,5.2,8,7.8l-10.2,6c-2.6-4-5.7-5.4-9.4-5.4
		c-4.3,0-6.8,3.1-6.8,5.6c0,2.5,2,3.4,9,4.6c14.3,2.9,18.6,7.8,18.6,16.4c0,10.2-7.7,16.8-22.6,16.8
		C734.1,164.4,725.1,161.9,720.6,153.1L720.6,153.1z"/>
	<path class="st0" d="M157.5,27.3c0-4.9-2.6-8.1-7.9-8.4c-4.7-0.2-6.9,2.5-8.1,10.5l-14-2.2c0.7-4.7,3.3-9.8,4.4-11.7
		c3.4-5.4,11-8.6,21-8.6c7,0,18.1,5.9,17.6,21.8c-0.1,4.4-1.5,9.1-13.5,20.2l-8,7.8l22-0.4l-0.5,14.8l-41.7-0.8l0.5-7.5
		c4.7-12.1,14.3-16.9,19.6-22.4C156.8,32.8,157.5,30.2,157.5,27.3L157.5,27.3z"/>
	<path class="st0" d="M179.6,23.2C183.2,15.6,192,7.6,199,7.5c11-0.6,15.5,4.1,18.8,9c2.2,3.4,6.1,13.9,6.1,22.9s-2.7,17.9-6.6,23.8
		c-2.6,3.5-10,8.9-17.3,8.9s-14.5-4.7-17.5-9.1c-3.8-5.8-6.5-14.7-6.5-24C176,32.1,177.2,28.1,179.6,23.2L179.6,23.2z M207.8,50.8
		c1.6-2.8,3.4-7.3,3.4-11.6c0-5.2-1.9-10.8-3.4-13.3c-1.3-2.1-4.8-4.4-7.9-4.4c-3.3,0-5.9,2.7-7.6,6.2c-1.6,3-2.4,7.2-2.4,11.7
		s0.7,8.4,2.1,11.2c1.2,2.7,4.4,5.1,7.9,5.1C203.5,55.7,206.4,53.6,207.8,50.8L207.8,50.8z"/>
	<path class="st0" d="M256.7,27.3c0-4.9-2.6-8.1-7.9-8.4c-4.7-0.2-6.9,2.5-8.1,10.5l-14-2.2c0.7-4.7,3.3-9.8,4.4-11.7
		c3.4-5.4,11-8.6,21-8.6c7,0,18.1,5.9,17.6,21.8c-0.1,4.4-1.5,9.1-13.5,20.2l-8,7.8l22-0.4l-0.5,14.8l-41.7-0.8l0.5-7.5
		c4.7-12.1,14.3-16.9,19.6-22.4C256,32.8,256.7,30.2,256.7,27.3L256.7,27.3z"/>
	<path class="st0" d="M275.2,51.8l12.5-1.9c1,5.8,3.5,8.7,8.7,8.7c2.7,0,5.7-1,6.7-2.1c1.3-1.4,1.9-2.9,1.9-4.9
		c0-6.1-2.9-9.1-13.9-8.3V32.6c9.5,0.3,12.9-1.9,12.9-7.4c0-3.9-3.1-7-6.8-7c-5.1,0-7.4,2-9,9l-9.8-1.2l-2.3-0.9
		c0.8-5.9,3.4-10.4,4.9-12.2c3.4-3.4,9.4-5.9,16.2-5.9c6.8,0,13.3,2.9,16.8,7c1.6,2,3.2,6.6,3.2,11.1c0,2.2-0.6,6.4-1.3,8.3
		c-0.5,1.6-2.2,3.1-4.2,4.4c4.1,3.3,6.4,7.1,6.4,13.5c0,5.8-2.2,12.6-6.2,16.1c-2.7,2.5-9.2,4.4-15.7,4.4
		C282.2,71.9,276,63.3,275.2,51.8L275.2,51.8z"/>
	<path class="st0" d="M402.7,218.8c0,18.8-14.5,31.4-34.8,31.4H349v-63h19C393.4,187.2,402.7,199.9,402.7,218.8L402.7,218.8z
		 M390.2,215.5c0-10.9-7.1-16.8-17.3-17l-7.4-0.2v37.2l8-0.6C383.8,234.5,390.2,227.8,390.2,215.5L390.2,215.5z"/>
	<path class="st0" d="M409.4,227c0-12.7,0-27.4,0.8-39.7c5.7,0.6,11.2,0.8,17.7,0.7l-0.4,30.1c-0.4,16.8,3.9,19.6,10.4,19.6
		c7.1,0,10.8-2.7,10.6-12.4c-0.3-12.7-0.3-25.5-1-38.2l14.6-0.3V227c0,7-1.1,12-3.2,14.7C454.7,247.1,445,252,436,252
		s-17.3-3.4-21.5-8.8C411.4,239.4,409.4,234.1,409.4,227z"/>
	<path class="st0" d="M517.8,206.1c0,8.6-3.4,12.5-9.7,15.8l16,24.1l-14.1,4.2l-17.5-25.4h-7v25.4h-15.3v-63h24.9
		C509.2,187.2,517.8,193.5,517.8,206.1L517.8,206.1z M502.1,205.4c0-6.2-3.8-8.4-9.6-7.5l-8.1,0.4v15.6l7.6-0.1
		C498.6,213.4,502.1,210.7,502.1,205.4L502.1,205.4z"/>
	<path class="st0" d="M545.1,210.5H566l0.9-23.2h14.8c0.6,20.7,0.8,41.7,0.6,63l-14.7,0.3l-1.8-29l-20.2,0.4l0.8,28.3h-17l1-63h13.8
		L545.1,210.5z"/>
	<path class="st0" d="M627.6,186.8l18.7,63.4h-12.5l-4.9-12.7h-19.8l-5.5,12.7h-18.2c8.3-21.7,17-42.7,26.5-63L627.6,186.8
		L627.6,186.8z M619.5,206.6l-7.5,20.6l13.8-0.3L619.5,206.6z"/>
	<path class="st0" d="M716.4,250.2h-14.9l-1.3-36.6l-12.1,28.9l-7.9-0.3l-15.3-26.3v35.1l-14.4-0.6l0.4-63l12.3-0.1l17.3,33.7
		l19.6-33.6c4.9-0.3,9.7-0.5,14.6-0.4C714.8,207.9,715.5,228.9,716.4,250.2L716.4,250.2z"/>
</g>
</svg>
