<svg viewBox="0 0 230 48" xmlns="http://www.w3.org/2000/svg"><title>devpost</title><path d="M13.634 47.548L0 23.754 13.634 0h202.732L230 23.754l-13.634 23.794H13.634zm13.797-9.346c7.345 0 14.65-4.286 14.65-14.408 0-10.57-6.088-14.448-14.285-14.448H18.83v28.856h8.602zm.203-23.264c6.046 0 8.562 2.938 8.562 8.816 0 5.265-2.76 8.815-8.765 8.815h-2.84V14.938h3.043zm21.02 23.264v-.041h20.533v-5.632H54.375v-6.98h8.238v-5.591h-8.238v-4.98h14.203V9.347H48.654v28.856zm40.781 0L99.661 9.346h-6.29L88.097 26.04a71.006 71.006 0 0 0-1.298 4.735 67.888 67.888 0 0 0-1.34-4.735L80.063 9.346H73.69l10.185 28.856h5.56zM117.8 27.957c5.965 0 10.388-2.775 10.347-9.468 0-6.122-4.463-9.143-9.86-9.143h-12.539v28.856h5.722V27.957h6.33zm.325-13.02c2.515 0 4.18 1.144 4.18 3.674 0 2.53-1.421 3.755-4.1 3.755h-6.695v-7.428h6.615zm27.268 23.714c7.832 0 12.458-6.122 12.458-14.897s-4.626-14.897-12.458-14.897c-7.831 0-12.457 6.122-12.457 14.897s4.626 14.897 12.457 14.897zm0-24.04c4.626 0 6.574 4 6.574 9.143 0 5.142-1.948 9.142-6.574 9.142-4.666 0-6.573-4-6.573-9.142 0-5.143 1.947-9.143 6.573-9.143zm28.284 24.04c7.831 0 11.28-3.714 11.24-9.183 0-6.245-5.032-7.837-9.576-8.898-4.545-1.061-5.763-1.673-5.763-3.469 0-1.306 1.015-2.612 4.099-2.612 2.637 0 4.707 1.102 6.533 2.98l4.139-4.041c-2.719-2.857-6.006-4.53-10.47-4.53-5.68 0-10.266 3.224-10.266 8.448 0 5.673 3.693 7.387 8.968 8.612 5.438 1.224 6.412 2.081 6.412 3.918 0 2.204-1.583 3.142-4.992 3.142-2.759 0-5.315-.938-7.344-3.306l-4.14 3.715c2.192 3.224 6.371 5.224 11.16 5.224zm29.216-23.632h8.278V9.346h-22.237v5.673h8.238v23.183h5.721V15.019z" fill-rule="nonzero" fill="#512C57"/></svg>
