<svg id="Layer_1" xmlns="http://www.w3.org/2000/svg" viewBox="0 0 300 110"><style>.st0{fill:#502e56}</style><path class="st0" d="M135.9 97.5c0-.6.2-1.3.5-2s.6-1.3 1-1.7c1.9 1 3.5 1.5 4.9 1.5.7 0 1.2-.1 1.5-.3.4-.2.5-.5.5-.9 0-.7-.5-1.2-1.6-1.6l-1.9-.7c-2.9-1.1-4.4-2.9-4.4-5.3 0-1.8.6-3.2 1.9-4.3 1.2-1 2.9-1.6 5-1.6 1 0 2.2.1 3.4.4 1.2.3 2.3.6 3.1 1 0 .7-.1 1.4-.4 2.2-.3.8-.7 1.3-1.1 1.7-2-.9-3.6-1.3-4.9-1.3-.5 0-.8.1-1.1.3-.2.2-.4.5-.4.8 0 .6.4 1 1.3 1.3l2.2.8c3.1 1.1 4.7 3 4.7 5.7 0 1.8-.6 3.2-1.9 4.2-1.3 1-3.1 1.6-5.6 1.6-2.4-.1-4.6-.7-6.7-1.8zM168 96.1c-.1.5-.3 1-.7 1.6-.3.6-.7 1-1 1.2-1.7 0-2.9-.7-3.8-1.9-1.5 1.4-3.2 2.1-5 2.1-.9 0-1.7-.1-2.4-.4-.7-.3-1.3-.7-1.7-1.2s-.8-1.1-1.1-1.7c-.2-.6-.4-1.3-.4-2 0-1 .2-1.9.5-2.7.4-.8.9-1.4 1.5-1.9s1.4-.9 2.2-1.1c.8-.3 1.8-.4 2.7-.4h1.4c.4 0 .8 0 1.1.1v-.7c0-1.5-.8-2.3-2.3-2.3-1 0-2.7.4-5.2 1.2-.7-.8-1.2-2.1-1.3-3.9.6-.2 1.2-.4 1.9-.6.7-.2 1.4-.4 2.1-.5.7-.1 1.4-.3 2.2-.3.7-.1 1.3-.1 1.9-.1.8 0 1.6.1 2.4.4.8.2 1.4.6 2 1.1.6.5 1 1.1 1.4 1.9.3.8.5 1.7.5 2.7v7.2c.1 1 .4 1.8 1.1 2.2zm-10.7-2.6c0 1.1.6 1.7 1.9 1.7.7 0 1.4-.3 2.2-1v-2.8c-.5 0-.9 0-1.2-.1h-.7c-1.5-.1-2.2.6-2.2 2.2zM186.3 87v7.2c0 1.6.3 2.7.8 3.5-.9.8-2 1.2-3.2 1.2-1.2 0-2.1-.3-2.5-.8-.4-.6-.7-1.4-.7-2.6V88c0-.8-.1-1.4-.3-1.8s-.6-.6-1.2-.6c-.4 0-.8.1-1.2.3-.4.2-.9.5-1.4.9v11.8c-.4.1-.8.1-1.3.2-.5 0-1 .1-1.4.1s-1 0-1.4-.1c-.5 0-.9-.1-1.3-.2V81l.2-.2h2.1c1.4 0 2.4.7 2.9 2.1 1.6-1.5 3.3-2.2 4.9-2.2 1.6 0 2.9.6 3.8 1.7.8 1.2 1.2 2.7 1.2 4.6zM204.3 80.7c1.1 0 2.2.3 3.3.8v-8.6l.2-.2h2.2c1.1 0 1.9.2 2.4.7.4.5.7 1.4.7 2.6v17.6c0 1.2.3 2.1 1 2.5-.1.5-.3 1-.7 1.6-.3.6-.7 1-1 1.2-1.7 0-3-.7-3.8-2-1.4 1.5-3.1 2.2-5.1 2.2-2 0-3.5-.8-4.6-2.5-1.1-1.6-1.6-3.9-1.6-6.8 0-1.4.2-2.7.5-3.8.4-1.1.9-2.1 1.5-2.9.6-.8 1.4-1.4 2.2-1.9.9-.3 1.8-.5 2.8-.5zm.7 14c1 0 1.8-.5 2.6-1.4v-7.7c-1-.6-1.7-.8-2.3-.8-1.6 0-2.4 1.8-2.4 5.3 0 3.1.7 4.6 2.1 4.6zM223.7 85.1v13.6c-.4.1-.8.1-1.3.2-.5 0-1 .1-1.4.1s-1 0-1.5-.1c-.5 0-.9-.1-1.3-.2V87c0-1.4-.6-2-1.7-2h-.5c-.1-.4-.2-1.1-.2-1.9 0-.8.1-1.4.2-2 .6 0 1.2-.1 1.7-.1s1-.1 1.4-.1h.8c1.2 0 2.1.4 2.8 1.1.6.8 1 1.8 1 3.1zm-6.2-11.2c.7-.4 1.6-.6 2.7-.6s2 .2 2.6.6c.3.6.4 1.3.4 2.1 0 .7-.1 1.4-.4 2.1-.7.4-1.6.5-2.7.5s-2-.2-2.5-.5c-.3-.6-.4-1.3-.4-2.1-.2-.8 0-1.5.3-2.1zM241.6 91.6h-9.2c0 1.1.3 1.9.8 2.4.5.6 1.3.9 2.4.9.6 0 1.2-.1 2-.2.7-.2 1.6-.4 2.6-.8.8.8 1.3 1.9 1.4 3.3-1.9 1.3-4.2 2-6.9 2-1.5 0-2.7-.2-3.7-.7-1-.5-1.8-1.1-2.4-2-.6-.8-1.1-1.9-1.3-3-.3-1.2-.4-2.4-.4-3.8 0-1.3.2-2.5.5-3.7.3-1.1.8-2.1 1.4-2.9.6-.8 1.5-1.5 2.5-1.9 1-.5 2.2-.7 3.5-.7 1.1 0 2.2.2 3.1.6.9.4 1.7.9 2.3 1.6.6.7 1.1 1.4 1.5 2.4.3.9.5 1.9.5 3-.2 1.3-.3 2.5-.6 3.5zm-9.2-3.8h4.6v-.4c0-.9-.2-1.6-.6-2.2-.4-.6-1-.8-1.7-.8s-1.3.3-1.7.8c-.4.5-.6 1.4-.6 2.6zM256.1 82.1c.8-.9 1.9-1.4 3.3-1.4.4.3.7.7 1.1 1.3.3.6.5 1.1.6 1.6-.7.4-1 1.3-1 2.5v9.3c0 2.2-.2 4-.5 5.4-.3 1.4-.9 2.6-1.6 3.4-.7.8-1.6 1.4-2.6 1.7-1.1.3-2.3.5-3.7.5-2.4 0-4.6-.4-6.6-1.2 0-.7.1-1.4.4-2.2.3-.8.6-1.4 1-1.8 1.6.7 3.2 1.1 4.8 1.1 2.4 0 3.6-1.2 3.6-3.6v-1.2c-1.3.9-2.6 1.4-4 1.4-2.1 0-3.7-.8-4.8-2.5-1.1-1.7-1.6-3.9-1.6-6.8 0-1.4.2-2.7.5-3.9.4-1.1.9-2.1 1.5-2.9.6-.8 1.4-1.4 2.2-1.8.8-.4 1.7-.6 2.7-.6 1.8.1 3.4.6 4.7 1.7zm-1.3 11.2v-7.6c-.8-.8-1.6-1.2-2.4-1.2-1.6 0-2.4 1.8-2.4 5.3 0 3.1.7 4.7 2.1 4.7 1 .1 1.9-.3 2.7-1.2zM277.1 82.6c1.7 1.7 2.5 4.1 2.5 7.3a16 16 0 0 1-.5 3.9c-.4 1.2-.9 2.1-1.6 3-.7.8-1.5 1.4-2.6 1.9-1 .4-2.2.7-3.5.7-1.3 0-2.5-.2-3.5-.7-1-.4-1.9-1.1-2.5-1.9-.7-.8-1.2-1.8-1.6-3-.4-1.2-.5-2.4-.5-3.8s.2-2.7.5-3.8c.4-1.1.9-2.1 1.6-3 .7-.8 1.5-1.5 2.5-1.9 1-.4 2.2-.7 3.5-.7 2.3-.1 4.2.6 5.7 2zm-5.7 2c-.5 0-.9.1-1.3.4-.3.2-.6.6-.8 1-.2.4-.3.9-.4 1.5s-.1 1.1-.1 1.8c0 1 0 1.8.1 2.6.1.7.2 1.3.4 1.8s.4.8.7 1.1.7.4 1.3.4c1 0 1.7-.5 2.1-1.4s.5-2.2.5-3.9c0-1.7-.2-3-.5-3.9-.3-.9-1-1.4-2-1.4z"/><g><path class="st0" d="M36.9 24.3h8.8v8.9h-8.8v-8.9zm-5.1-.1H23v13.3a16 16 0 0 0-3.9-.5c-9.1 0-15 5.7-15 14.6 0 9.2 5.6 13.9 16.3 14 3.9 0 7.6-.4 11.4-1.1V24.2zM23 58.4c-1 .2-2 .2-3 .2-4.5 0-7-2.5-7-7.2s2.5-7.4 7-7.4c1 0 2 .1 2.9.5l.1 13.9z"/><path class="st0" d="M36.9 54.7c0 7.5-.4 10.4-1.7 12.9s-3.1 4-7 5.8l8.1 3.9c3.9-1.9 5.7-3.7 7.2-6.4 1.4-2.7 2.1-6.2 2.1-13.2V37.6h-8.8l.1 17.1zM62.5 37c-4 0-8 .8-11.6 2.6v6.7c3.2-1.7 6.7-2.5 10.3-2.6 2.2 0 3 .6 3 2.2v1.9c-10.7.9-15.2 3.7-15.2 9.8 0 5.6 3.3 8.2 10.6 8.2 4.1 0 8.4-.4 12.5-.9V47.1c0-3.6-.2-5.3-.9-6.6-1.2-2.4-4.1-3.5-8.7-3.5zm2.2 22.2c-1.4.3-2.8.4-4.2.4-2.4 0-3.5-.8-3.5-2.4 0-2.3 1.9-3.2 7.7-3.8v5.8zm85.1 6.8c8.8 0 14.5-5.6 14.5-14.8 0-8.8-5.4-14.3-14.1-14.3-8.9 0-14.5 5.6-14.5 14.8 0 8.8 5.4 14.3 14.1 14.3zm.3-22.1c3.4 0 5.3 2.8 5.3 7.5s-2 7.5-5.4 7.5-5.4-2.7-5.4-7.5 2-7.5 5.5-7.5zm-13.5-5.6c-3.8-.8-7.6-1.2-11.4-1.2-12.8 0-20.1 5.6-20.1 15.4 0 7.9 4.9 13 12.5 13 2 .1 3.9-.4 5.6-1.2v.2c0 5.6-2.4 7.8-8.2 7.8-3.3 0-6.5-.8-9.4-2.3v8c3 1.1 6.2 1.7 9.4 1.7 4.6 0 8.3-1 11-3 .5-.3.9-.7 1.3-1 .8-.7 1.3-1.4 1.9-2.3 1.9-2.9 2.5-6.4 2.5-13.8v-2.4c-.1-1.2-.1-2.4-.1-3.6l-.1-4.7-.1-3.7v-.9c1.8.2-.4-.2 2 .2l3.2-6.2zm-13.2 18.9v.7c-1 .4-2.2.6-3.3.6-3.9 0-6-2.4-6-6.8 0-3 1.1-5.2 3.2-6.4 1.5-.8 3.3-1.3 5.1-1.2h.9v.7l.1 2.8.1 4c0 1.2.1 2.4.1 3.3l-.2 2.3zM90.3 37c-4.6.1-9.3.8-13.7 2v26.3h8.8V44.6c1.3-.4 2.6-.7 4-.7 3.1 0 4.2 1.2 4.2 4.6v16.7h8.8v-17c0-4.3-.6-6.4-2.4-8.2-1.8-1.8-5.2-3-9.7-3zm131.8 14.7c0-8.8-5.4-14.3-14.1-14.3-8.9 0-14.5 5.6-14.5 14.8 0 8.8 5.4 14.3 14.2 14.3s14.4-5.7 14.4-14.8zm-19.7.2c0-4.8 2-7.5 5.5-7.5s5.3 2.8 5.3 7.5-2 7.5-5.4 7.5c-3.4 0-5.4-2.6-5.4-7.5zm39.4-2.9v16.7h8.8v-17c0-4.3-.6-6.4-2.4-8.2-1.8-1.8-5.2-3-9.7-3-4.6.1-9.3.8-13.7 2v26.3h8.8V45.1c1.3-.4 2.6-.7 4-.6 3 0 4.2 1.2 4.2 4.5zM278 65c1.2-1.3 1.7-2.7 1.7-5.7V47.4h-6.1V59c0 2.4-.8 3.2-2.9 3.2-.9 0-1.9-.2-2.8-.5V47.4h-6v18.3c3.1.8 6.3 1.3 9.6 1.3 2.9.1 5.2-.6 6.5-2zm-106.5-2.6c2.8 2.6 8 3.6 11.5 3.5 2.7 0 5.5-.7 7.9-2v-7c-1.9.9-4 1.5-6 1.5-3.4 0-8.8-1.3-8.8-7.3s5.4-7.3 8.8-7.3c2.1 0 4 .7 5.8 1.7v-7.1c-2.4-1.1-5-1.7-7.6-1.7-3.5 0-8.3 1-11.1 3.8-3 2.7-4.8 6.6-4.8 10.6-.4 4.2 1.2 8.4 4.3 11.3zM289 54.6c-1.4-.7-1.3-1.4-1.3-1.4s0-1.2 2.4-1.2c1.8 0 3.5.5 5.1 1.2v-4.6c-1.9-.9-4-1.3-6.2-1.1-7.1.3-7 5.6-7 5.6-.2 1.4.4 2.8 1.3 4 1.5 1.2 3.2 2.2 5 2.8 1.3.5 1.8 1.1 1.8 1.4s.2 1.3-2.4 1.3c-2-.1-3.9-.7-5.6-1.5v4.8c2.6 1 5.6 1.4 8.3 1 2.6-.5 5.3-1.3 5.6-5.6.2-4.1-4-5.4-7-6.7zm-36.3 4.1h7v7h-7v-7z"/></g><g><path class="st0" d="M70.4 19.1c0 1.3-.2 2.3-.6 3s-1.2 1-2.3 1h-8.8c-.4-.4-.7-.8-1.1-1.3-.3-.5-.5-1-.5-1.5 0-.8.3-1.6.8-2.4.6-.8 1.4-1.8 2.5-2.8l3.2-2.9c1-.9 1.6-1.9 1.6-2.8 0-.6-.2-1.1-.5-1.5-.4-.4-.9-.6-1.5-.6s-1.2.2-1.6.7c-.4.5-.8 1.1-1 1.8-.3 0-.6 0-.9-.1-.3-.1-.6-.1-.9-.3-.3-.1-.6-.3-.8-.4l-.6-.6c.2-.7.5-1.4.9-2 .4-.6.9-1.1 1.4-1.6.5-.4 1.2-.8 1.9-1 .7-.2 1.5-.4 2.4-.4.8 0 1.6.1 2.4.4.7.3 1.4.7 1.9 1.2s1 1.1 1.3 1.9c.3.7.5 1.5.5 2.4 0 1.2-.3 2.2-.9 3.1-.6.9-1.5 1.8-2.6 2.8L64.3 17c-1.4 1.1-2.1 1.9-2.4 2.4.8-.1 1.6-.2 2.4-.2.7-.1 1.4-.1 2.1-.1h4zM74.6 5.4c1.3-1.3 2.9-1.9 4.8-1.9s3.5.6 4.8 1.9c.8.9 1.4 2 1.7 3.3.3 1.3.4 2.9.4 4.7s-.1 3.4-.4 4.7c-.3 1.3-.8 2.4-1.7 3.3-1.3 1.3-2.9 1.9-4.8 1.9s-3.5-.6-4.8-1.9c-.8-.9-1.4-2-1.7-3.3-.3-1.3-.4-2.9-.4-4.7s.1-3.4.4-4.7c.3-1.2.8-2.3 1.7-3.3zm3.1 13.4c.3.7.9 1.1 1.7 1.1.5 0 .8-.1 1.1-.3.3-.2.5-.6.7-1.1.2-.5.3-1.2.3-2 .1-.8.1-1.8.1-3.1s0-2.2-.1-3.1c-.1-.8-.2-1.5-.3-2-.2-.5-.4-.9-.7-1.1-.3-.2-.7-.3-1.1-.3-.5 0-.8.1-1.1.3-.3.2-.5.6-.7 1.1-.2.5-.3 1.2-.3 2-.1.8-.1 1.8-.1 3.1-.1 2.7.1 4.5.5 5.4zM93.6 19.3v-6c0-.3 0-.9.1-1.7.1-.8.1-1.4.1-1.7-1 1.1-2.3 2-3.9 2.7-.5-.2-.9-.5-1.2-1-.4-.5-.6-1-.7-1.6 2.7-1.7 4.7-3.7 5.8-5.9.7-.1 1.4-.2 2.2-.2.8 0 1.5.1 2.1.2v15.3h3.6c.2.6.2 1.2.2 1.9s-.1 1.3-.2 1.9H89.4c-.2-.6-.2-1.3-.2-1.9s.1-1.3.2-1.8h2.4l1.8-.2zM103.5 18.1c0-2 1.1-3.6 3.2-4.9-1.8-1.2-2.7-2.7-2.7-4.5 0-.7.2-1.4.5-2.1.3-.6.8-1.2 1.4-1.6.6-.5 1.3-.8 2.1-1.1.8-.3 1.7-.4 2.6-.4 1 0 1.8.1 2.6.4.8.3 1.5.6 2 1.1.6.5 1 1 1.3 1.7.3.6.5 1.4.5 2.1 0 1.6-.9 2.9-2.7 3.9 1.1.7 2 1.4 2.5 2.3.5.9.8 1.8.8 2.9 0 .8-.2 1.6-.6 2.3-.4.7-.9 1.3-1.5 1.7-.7.5-1.4.8-2.3 1.1-.9.3-1.8.4-2.9.4-1 0-2-.1-2.8-.4-.8-.2-1.5-.6-2.1-1-.6-.4-1-1-1.4-1.7-.4-.6-.5-1.3-.5-2.2zm6.9-3.2l-.7-.3c-1.1.9-1.6 2-1.6 3.2 0 .7.2 1.3.7 1.7s1 .7 1.8.7c.7 0 1.3-.2 1.7-.7.4-.4.6-1 .6-1.7 0-1.2-.9-2.2-2.5-2.9zm-2-6.2c0 .6.2 1 .6 1.4.4.4 1 .7 1.8 1.1l.4.1c.9-.7 1.4-1.5 1.4-2.5 0-.6-.2-1.1-.6-1.5-.4-.4-.9-.6-1.5-.6s-1.1.2-1.5.6c-.4.4-.6.9-.6 1.4z"/></g></svg>