<?xml version="1.0" encoding="utf-8"?>
<!-- Generator: Adobe Illustrator 22.0.1, SVG Export Plug-In . SVG Version: 6.00 Build 0)  -->
<svg version="1.1" id="Layer_1" xmlns="http://www.w3.org/2000/svg" xmlns:xlink="http://www.w3.org/1999/xlink" x="0px" y="0px"
	 viewBox="0 0 300 110" style="enable-background:new 0 0 300 110;" xml:space="preserve">
<style type="text/css">
	.st0{fill:#502E56;}
</style>
<g>
	<path class="st0" d="M135.9,97.5c0-0.6,0.2-1.3,0.5-2c0.3-0.7,0.6-1.3,1-1.7c1.9,1,3.5,1.5,4.9,1.5c0.7,0,1.2-0.1,1.5-0.3
		c0.4-0.2,0.5-0.5,0.5-0.9c0-0.7-0.5-1.2-1.6-1.6l-1.9-0.7c-2.9-1.1-4.4-2.9-4.4-5.3c0-1.8,0.6-3.2,1.9-4.3c1.2-1,2.9-1.6,5-1.6
		c1,0,2.2,0.1,3.4,0.4c1.2,0.3,2.3,0.6,3.1,1c0,0.7-0.1,1.4-0.4,2.2c-0.3,0.8-0.7,1.3-1.1,1.7c-2-0.9-3.6-1.3-4.9-1.3
		c-0.5,0-0.8,0.1-1.1,0.3c-0.2,0.2-0.4,0.5-0.4,0.8c0,0.6,0.4,1,1.3,1.3l2.2,0.8c3.1,1.1,4.7,3,4.7,5.7c0,1.8-0.6,3.2-1.9,4.2
		c-1.3,1-3.1,1.6-5.6,1.6C140.2,99.2,138,98.6,135.9,97.5z"/>
	<path class="st0" d="M168,96.1c-0.1,0.5-0.3,1-0.7,1.6c-0.3,0.6-0.7,1-1,1.2c-1.7,0-2.9-0.7-3.8-1.9c-1.5,1.4-3.2,2.1-5,2.1
		c-0.9,0-1.7-0.1-2.4-0.4c-0.7-0.3-1.3-0.7-1.7-1.2s-0.8-1.1-1.1-1.7c-0.2-0.6-0.4-1.3-0.4-2c0-1,0.2-1.9,0.5-2.7
		c0.4-0.8,0.9-1.4,1.5-1.9c0.6-0.5,1.4-0.9,2.2-1.1c0.8-0.3,1.8-0.4,2.7-0.4c0.5,0,1,0,1.4,0c0.4,0,0.8,0,1.1,0.1v-0.7
		c0-1.5-0.8-2.3-2.3-2.3c-1,0-2.7,0.4-5.2,1.2c-0.7-0.8-1.2-2.1-1.3-3.9c0.6-0.2,1.2-0.4,1.9-0.6c0.7-0.2,1.4-0.4,2.1-0.5
		c0.7-0.1,1.4-0.3,2.2-0.3c0.7-0.1,1.3-0.1,1.9-0.1c0.8,0,1.6,0.1,2.4,0.4c0.8,0.2,1.4,0.6,2,1.1c0.6,0.5,1,1.1,1.4,1.9
		c0.3,0.8,0.5,1.7,0.5,2.7v7.2C167,94.9,167.3,95.7,168,96.1z M157.3,93.5c0,1.1,0.6,1.7,1.9,1.7c0.7,0,1.4-0.3,2.2-1v-2.8
		c-0.5,0-0.9,0-1.2-0.1c-0.3,0-0.6,0-0.7,0C158,91.2,157.3,91.9,157.3,93.5z"/>
	<path class="st0" d="M186.3,87v7.2c0,1.6,0.3,2.7,0.8,3.5c-0.9,0.8-2,1.2-3.2,1.2c-1.2,0-2.1-0.3-2.5-0.8c-0.4-0.6-0.7-1.4-0.7-2.6
		V88c0-0.8-0.1-1.4-0.3-1.8s-0.6-0.6-1.2-0.6c-0.4,0-0.8,0.1-1.2,0.3c-0.4,0.2-0.9,0.5-1.4,0.9v11.8c-0.4,0.1-0.8,0.1-1.3,0.2
		c-0.5,0-1,0.1-1.4,0.1s-1,0-1.4-0.1c-0.5,0-0.9-0.1-1.3-0.2V81l0.2-0.2h2.1c1.4,0,2.4,0.7,2.9,2.1c1.6-1.5,3.3-2.2,4.9-2.2
		c1.6,0,2.9,0.6,3.8,1.7C185.9,83.6,186.3,85.1,186.3,87z"/>
	<path class="st0" d="M204.3,80.7c1.1,0,2.2,0.3,3.3,0.8v-8.6l0.2-0.2h2.2c1.1,0,1.9,0.2,2.4,0.7c0.4,0.5,0.7,1.4,0.7,2.6v17.6
		c0,1.2,0.3,2.1,1,2.5c-0.1,0.5-0.3,1-0.7,1.6c-0.3,0.6-0.7,1-1,1.2c-1.7,0-3-0.7-3.8-2c-1.4,1.5-3.1,2.2-5.1,2.2
		c-2,0-3.5-0.8-4.6-2.5c-1.1-1.6-1.6-3.9-1.6-6.8c0-1.4,0.2-2.7,0.5-3.8c0.4-1.1,0.9-2.1,1.5-2.9c0.6-0.8,1.4-1.4,2.2-1.9
		C202.4,80.9,203.3,80.7,204.3,80.7z M205,94.7c1,0,1.8-0.5,2.6-1.4v-7.7c-1-0.6-1.7-0.8-2.3-0.8c-1.6,0-2.4,1.8-2.4,5.3
		C202.9,93.2,203.6,94.7,205,94.7z"/>
	<path class="st0" d="M223.7,85.1v13.6c-0.4,0.1-0.8,0.1-1.3,0.2c-0.5,0-1,0.1-1.4,0.1s-1,0-1.5-0.1c-0.5,0-0.9-0.1-1.3-0.2V87
		c0-1.4-0.6-2-1.7-2h-0.5c-0.1-0.4-0.2-1.1-0.2-1.9c0-0.8,0.1-1.4,0.2-2c0.6,0,1.2-0.1,1.7-0.1c0.5,0,1-0.1,1.4-0.1h0.8
		c1.2,0,2.1,0.4,2.8,1.1C223.3,82.8,223.7,83.8,223.7,85.1z M217.5,73.9c0.7-0.4,1.6-0.6,2.7-0.6c1.1,0,2,0.2,2.6,0.6
		c0.3,0.6,0.4,1.3,0.4,2.1c0,0.7-0.1,1.4-0.4,2.1c-0.7,0.4-1.6,0.5-2.7,0.5c-1.1,0-2-0.2-2.5-0.5c-0.3-0.6-0.4-1.3-0.4-2.1
		C217,75.2,217.2,74.5,217.5,73.9z"/>
	<path class="st0" d="M241.6,91.6h-9.2c0,1.1,0.3,1.9,0.8,2.4c0.5,0.6,1.3,0.9,2.4,0.9c0.6,0,1.2-0.1,2-0.2c0.7-0.2,1.6-0.4,2.6-0.8
		c0.8,0.8,1.3,1.9,1.4,3.3c-1.9,1.3-4.2,2-6.9,2c-1.5,0-2.7-0.2-3.7-0.7c-1-0.5-1.8-1.1-2.4-2c-0.6-0.8-1.1-1.9-1.3-3
		c-0.3-1.2-0.4-2.4-0.4-3.8c0-1.3,0.2-2.5,0.5-3.7c0.3-1.1,0.8-2.1,1.4-2.9c0.6-0.8,1.5-1.5,2.5-1.9c1-0.5,2.2-0.7,3.5-0.7
		c1.1,0,2.2,0.2,3.1,0.6c0.9,0.4,1.7,0.9,2.3,1.6c0.6,0.7,1.1,1.4,1.5,2.4c0.3,0.9,0.5,1.9,0.5,3C242,89.4,241.9,90.6,241.6,91.6z
		 M232.4,87.8h4.6v-0.4c0-0.9-0.2-1.6-0.6-2.2c-0.4-0.6-1-0.8-1.7-0.8c-0.7,0-1.3,0.3-1.7,0.8C232.6,85.7,232.4,86.6,232.4,87.8z"/>
	<path class="st0" d="M256.1,82.1c0.8-0.9,1.9-1.4,3.3-1.4c0.4,0.3,0.7,0.7,1.1,1.3c0.3,0.6,0.5,1.1,0.6,1.6c-0.7,0.4-1,1.3-1,2.5
		v9.3c0,2.2-0.2,4-0.5,5.4c-0.3,1.4-0.9,2.6-1.6,3.4c-0.7,0.8-1.6,1.4-2.6,1.7c-1.1,0.3-2.3,0.5-3.7,0.5c-2.4,0-4.6-0.4-6.6-1.2
		c0-0.7,0.1-1.4,0.4-2.2c0.3-0.8,0.6-1.4,1-1.8c1.6,0.7,3.2,1.1,4.8,1.1c2.4,0,3.6-1.2,3.6-3.6v-1.2c-1.3,0.9-2.6,1.4-4,1.4
		c-2.1,0-3.7-0.8-4.8-2.5c-1.1-1.7-1.6-3.9-1.6-6.8c0-1.4,0.2-2.7,0.5-3.9c0.4-1.1,0.9-2.1,1.5-2.9c0.6-0.8,1.4-1.4,2.2-1.8
		c0.8-0.4,1.7-0.6,2.7-0.6C253.2,80.5,254.8,81,256.1,82.1z M254.8,93.3v-7.6c-0.8-0.8-1.6-1.2-2.4-1.2c-1.6,0-2.4,1.8-2.4,5.3
		c0,3.1,0.7,4.7,2.1,4.7C253.1,94.6,254,94.2,254.8,93.3z"/>
	<path class="st0" d="M277.1,82.6c1.7,1.7,2.5,4.1,2.5,7.3c0,1.4-0.2,2.7-0.5,3.9c-0.4,1.2-0.9,2.1-1.6,3c-0.7,0.8-1.5,1.4-2.6,1.9
		c-1,0.4-2.2,0.7-3.5,0.7c-1.3,0-2.5-0.2-3.5-0.7c-1-0.4-1.9-1.1-2.5-1.9c-0.7-0.8-1.2-1.8-1.6-3c-0.4-1.2-0.5-2.4-0.5-3.8
		c0-1.4,0.2-2.7,0.5-3.8c0.4-1.1,0.9-2.1,1.6-3c0.7-0.8,1.5-1.5,2.5-1.9c1-0.4,2.2-0.7,3.5-0.7C273.7,80.5,275.6,81.2,277.1,82.6z
		 M271.4,84.6c-0.5,0-0.9,0.1-1.3,0.4c-0.3,0.2-0.6,0.6-0.8,1c-0.2,0.4-0.3,0.9-0.4,1.5s-0.1,1.1-0.1,1.8c0,1,0,1.8,0.1,2.6
		c0.1,0.7,0.2,1.3,0.4,1.8c0.2,0.5,0.4,0.8,0.7,1.1s0.7,0.4,1.3,0.4c1,0,1.7-0.5,2.1-1.4s0.5-2.2,0.5-3.9c0-1.7-0.2-3-0.5-3.9
		C273.1,85.1,272.4,84.6,271.4,84.6z"/>
</g>
<g>
	<g>
		<path class="st0" d="M36.9,24.3h8.8v8.9h-8.8V24.3z M31.8,24.2H23v13.3c-1.2-0.3-2.5-0.5-3.9-0.5C10,37,4.1,42.7,4.1,51.6
			c0,9.2,5.6,13.9,16.3,14c3.9,0,7.6-0.4,11.4-1.1V24.2z M23,58.4c-1,0.2-2,0.2-3,0.2c-4.5,0-7-2.5-7-7.2s2.5-7.4,7-7.4
			c1,0,2,0.1,2.9,0.5L23,58.4z"/>
		<path class="st0" d="M36.9,54.7c0,7.5-0.4,10.4-1.7,12.9s-3.1,4-7,5.8l8.1,3.9c3.9-1.9,5.7-3.7,7.2-6.4c1.4-2.7,2.1-6.2,2.1-13.2
			V37.6h-8.8L36.9,54.7L36.9,54.7z M62.5,37c-4,0-8,0.8-11.6,2.6v6.7c3.2-1.7,6.7-2.5,10.3-2.6c2.2,0,3,0.6,3,2.2v1.9
			c-10.7,0.9-15.2,3.7-15.2,9.8c0,5.6,3.3,8.2,10.6,8.2c4.1,0,8.4-0.4,12.5-0.9V47.1c0-3.6-0.2-5.3-0.9-6.6C70,38.1,67.1,37,62.5,37
			z M64.7,59.2c-1.4,0.3-2.8,0.4-4.2,0.4c-2.4,0-3.5-0.8-3.5-2.4c0-2.3,1.9-3.2,7.7-3.8V59.2z M149.8,66c8.8,0,14.5-5.6,14.5-14.8
			c0-8.8-5.4-14.3-14.1-14.3c-8.9,0-14.5,5.6-14.5,14.8C135.7,60.5,141.1,66,149.8,66z M150.1,43.9c3.4,0,5.3,2.8,5.3,7.5
			s-2,7.5-5.4,7.5s-5.4-2.7-5.4-7.5S146.6,43.9,150.1,43.9L150.1,43.9z M136.6,38.3c-3.8-0.8-7.6-1.2-11.4-1.2
			c-12.8,0-20.1,5.6-20.1,15.4c0,7.9,4.9,13,12.5,13c2,0.1,3.9-0.4,5.6-1.2v0.2c0,5.6-2.4,7.8-8.2,7.8c-3.3,0-6.5-0.8-9.4-2.3v8
			c3,1.1,6.2,1.7,9.4,1.7c4.6,0,8.3-1,11-3c0.5-0.3,0.9-0.7,1.3-1c0.8-0.7,1.3-1.4,1.9-2.3c1.9-2.9,2.5-6.4,2.5-13.8v-2.4
			c-0.1-1.2-0.1-2.4-0.1-3.6l-0.1-4.7l-0.1-3.7v-0.9c1.8,0.2-0.4-0.2,2,0.2L136.6,38.3L136.6,38.3z M123.4,57.2v0.7
			c-1,0.4-2.2,0.6-3.3,0.6c-3.9,0-6-2.4-6-6.8c0-3,1.1-5.2,3.2-6.4c1.5-0.8,3.3-1.3,5.1-1.2h0.9v0.7l0.1,2.8l0.1,4
			c0,1.2,0.1,2.4,0.1,3.3L123.4,57.2z M90.3,37c-4.6,0.1-9.3,0.8-13.7,2v26.3h8.8V44.6c1.3-0.4,2.6-0.7,4-0.7c3.1,0,4.2,1.2,4.2,4.6
			v16.7h8.8v-17c0-4.3-0.6-6.4-2.4-8.2C98.2,38.2,94.8,37,90.3,37L90.3,37z M222.1,51.7c0-8.8-5.4-14.3-14.1-14.3
			c-8.9,0-14.5,5.6-14.5,14.8c0,8.8,5.4,14.3,14.2,14.3S222.1,60.8,222.1,51.7L222.1,51.7z M202.4,51.9c0-4.8,2-7.5,5.5-7.5
			s5.3,2.8,5.3,7.5s-2,7.5-5.4,7.5C204.4,59.4,202.4,56.8,202.4,51.9L202.4,51.9z M241.8,49v16.7h8.8v-17c0-4.3-0.6-6.4-2.4-8.2
			c-1.8-1.8-5.2-3-9.7-3c-4.6,0.1-9.3,0.8-13.7,2v26.3h8.8V45.1c1.3-0.4,2.6-0.7,4-0.6C240.6,44.5,241.8,45.7,241.8,49L241.8,49z
			 M278,65c1.2-1.3,1.7-2.7,1.7-5.7V47.4h-6.1V59c0,2.4-0.8,3.2-2.9,3.2c-0.9,0-1.9-0.2-2.8-0.5V47.4h-6v18.3
			c3.1,0.8,6.3,1.3,9.6,1.3C274.4,67.1,276.7,66.4,278,65z M171.5,62.4c2.8,2.6,8,3.6,11.5,3.5c2.7,0,5.5-0.7,7.9-2v-7
			c-1.9,0.9-4,1.5-6,1.5c-3.4,0-8.8-1.3-8.8-7.3s5.4-7.3,8.8-7.3c2.1,0,4,0.7,5.8,1.7v-7.1c-2.4-1.1-5-1.7-7.6-1.7
			c-3.5,0-8.3,1-11.1,3.8c-3,2.7-4.8,6.6-4.8,10.6C166.8,55.3,168.4,59.5,171.5,62.4L171.5,62.4z M289,54.6
			c-1.4-0.7-1.3-1.4-1.3-1.4s0-1.2,2.4-1.2c1.8,0,3.5,0.5,5.1,1.2v-4.6c-1.9-0.9-4-1.3-6.2-1.1c-7.1,0.3-7,5.6-7,5.6
			c-0.2,1.4,0.4,2.8,1.3,4c1.5,1.2,3.2,2.2,5,2.8c1.3,0.5,1.8,1.1,1.8,1.4s0.2,1.3-2.4,1.3c-2-0.1-3.9-0.7-5.6-1.5v4.8
			c2.6,1,5.6,1.4,8.3,1c2.6-0.5,5.3-1.3,5.6-5.6C296.2,57.2,292,55.9,289,54.6L289,54.6z M252.7,58.7h7v7h-7V58.7z"/>
	</g>
</g>
<g>
	<path class="st0" d="M70.4,19.1c0,1.3-0.2,2.3-0.6,3s-1.2,1-2.3,1h-8.8c-0.4-0.4-0.7-0.8-1.1-1.3c-0.3-0.5-0.5-1-0.5-1.5
		c0-0.8,0.3-1.6,0.8-2.4c0.6-0.8,1.4-1.8,2.5-2.8l3.2-2.9c1-0.9,1.6-1.9,1.6-2.8c0-0.6-0.2-1.1-0.5-1.5c-0.4-0.4-0.9-0.6-1.5-0.6
		c-0.6,0-1.2,0.2-1.6,0.7c-0.4,0.5-0.8,1.1-1,1.8c-0.3,0-0.6,0-0.9-0.1c-0.3-0.1-0.6-0.1-0.9-0.3c-0.3-0.1-0.6-0.3-0.8-0.4
		c-0.2-0.2-0.4-0.4-0.6-0.6c0.2-0.7,0.5-1.4,0.9-2c0.4-0.6,0.9-1.1,1.4-1.6c0.5-0.4,1.2-0.8,1.9-1c0.7-0.2,1.5-0.4,2.4-0.4
		c0.8,0,1.6,0.1,2.4,0.4c0.7,0.3,1.4,0.7,1.9,1.2c0.5,0.5,1,1.1,1.3,1.9c0.3,0.7,0.5,1.5,0.5,2.4c0,1.2-0.3,2.2-0.9,3.1
		c-0.6,0.9-1.5,1.8-2.6,2.8L64.3,17c-1.4,1.1-2.1,1.9-2.4,2.4c0.8-0.1,1.6-0.2,2.4-0.2c0.7-0.1,1.4-0.1,2.1-0.1H70.4z"/>
	<path class="st0" d="M74.6,5.4c1.3-1.3,2.9-1.9,4.8-1.9c1.9,0,3.5,0.6,4.8,1.9c0.8,0.9,1.4,2,1.7,3.3c0.3,1.3,0.4,2.9,0.4,4.7
		s-0.1,3.4-0.4,4.7c-0.3,1.3-0.8,2.4-1.7,3.3c-1.3,1.3-2.9,1.9-4.8,1.9c-1.9,0-3.5-0.6-4.8-1.9c-0.8-0.9-1.4-2-1.7-3.3
		c-0.3-1.3-0.4-2.9-0.4-4.7s0.1-3.4,0.4-4.7C73.2,7.5,73.7,6.4,74.6,5.4z M77.7,18.8c0.3,0.7,0.9,1.1,1.7,1.1c0.5,0,0.8-0.1,1.1-0.3
		c0.3-0.2,0.5-0.6,0.7-1.1c0.2-0.5,0.3-1.2,0.3-2c0.1-0.8,0.1-1.8,0.1-3.1s0-2.2-0.1-3.1c-0.1-0.8-0.2-1.5-0.3-2
		c-0.2-0.5-0.4-0.9-0.7-1.1c-0.3-0.2-0.7-0.3-1.1-0.3c-0.5,0-0.8,0.1-1.1,0.3c-0.3,0.2-0.5,0.6-0.7,1.1c-0.2,0.5-0.3,1.2-0.3,2
		c-0.1,0.8-0.1,1.8-0.1,3.1C77.1,16.1,77.3,17.9,77.7,18.8z"/>
	<path class="st0" d="M93.6,19.3l0-2.2v-3.8c0-0.3,0-0.9,0.1-1.7c0.1-0.8,0.1-1.4,0.1-1.7c-1,1.1-2.3,2-3.9,2.7
		c-0.5-0.2-0.9-0.5-1.2-1c-0.4-0.5-0.6-1-0.7-1.6c2.7-1.7,4.7-3.7,5.8-5.9c0.7-0.1,1.4-0.2,2.2-0.2c0.8,0,1.5,0.1,2.1,0.2v13.1
		l0,2.2l2,0h1.6c0.2,0.6,0.2,1.2,0.2,1.9c0,0.7-0.1,1.3-0.2,1.9H89.4c-0.2-0.6-0.2-1.3-0.2-1.9s0.1-1.3,0.2-1.8h2.4L93.6,19.3z"/>
	<path class="st0" d="M103.5,18.1c0-2,1.1-3.6,3.2-4.9c-1.8-1.2-2.7-2.7-2.7-4.5c0-0.7,0.2-1.4,0.5-2.1c0.3-0.6,0.8-1.2,1.4-1.6
		c0.6-0.5,1.3-0.8,2.1-1.1c0.8-0.3,1.7-0.4,2.6-0.4c1,0,1.8,0.1,2.6,0.4c0.8,0.3,1.5,0.6,2,1.1c0.6,0.5,1,1,1.3,1.7
		c0.3,0.6,0.5,1.4,0.5,2.1c0,1.6-0.9,2.9-2.7,3.9c1.1,0.7,2,1.4,2.5,2.3c0.5,0.9,0.8,1.8,0.8,2.9c0,0.8-0.2,1.6-0.6,2.3
		c-0.4,0.7-0.9,1.3-1.5,1.7c-0.7,0.5-1.4,0.8-2.3,1.1c-0.9,0.3-1.8,0.4-2.9,0.4c-1,0-2-0.1-2.8-0.4c-0.8-0.2-1.5-0.6-2.1-1
		c-0.6-0.4-1-1-1.4-1.7C103.6,19.7,103.5,19,103.5,18.1z M110.4,14.9l-0.7-0.3c-1.1,0.9-1.6,2-1.6,3.2c0,0.7,0.2,1.3,0.7,1.7
		s1,0.7,1.8,0.7c0.7,0,1.3-0.2,1.7-0.7c0.4-0.4,0.6-1,0.6-1.7C112.9,16.6,112,15.6,110.4,14.9z M108.4,8.7c0,0.6,0.2,1,0.6,1.4
		c0.4,0.4,1,0.7,1.8,1.1l0.4,0.1c0.9-0.7,1.4-1.5,1.4-2.5c0-0.6-0.2-1.1-0.6-1.5c-0.4-0.4-0.9-0.6-1.5-0.6c-0.6,0-1.1,0.2-1.5,0.6
		C108.6,7.7,108.4,8.2,108.4,8.7z"/>
</g>
</svg>
