<svg viewBox="0 0 147 108" xmlns="http://www.w3.org/2000/svg"><path d="M37 38.544H7.681c.487 2.03 1.623 4.725 3.3 6.393 2.056 2.03 4.598 3.058 7.762 3.058 4.328 0 7.33-2.03 9.17-5.67l.324-.779h7.898l-.514 1.723c-1.245 3.392-3.3 6.366-6.086 8.479C26.75 53.916 23.098 55 18.743 55c-5.517 0-10.115-1.918-13.604-5.67C1.73 45.687 0 41.045 0 35.541c0-5.56 1.677-10.258 4.895-13.843C8.33 17.918 12.901 16 18.365 16c5.517 0 10.17 1.918 13.604 5.726 3.219 3.642 5.031 8.34 5.031 13.9v2.918zM43 0h8v54h-8zm51 17.02v37.29h-8.31v-3.723C83.256 53.483 79.466 55 74.703 55c-5.333 0-9.555-1.958-12.911-5.71C58.516 45.623 57 40.935 57 35.5c0-5.434 1.732-10.067 4.953-13.79C65.31 17.957 69.451 16 75 16c4.52 0 8.256 1.517 10.692 4.44v-3.364H94v-.055zM28.195 94.77H36l-.432 1.023c-1.107 3.737-3.214 6.588-6.212 8.83-3.16 2.298-6.94 3.377-11.207 3.377-5.402 0-9.858-1.965-13.207-5.73C1.674 98.644 0 93.94 0 88.486c0-5.508 1.674-10.158 4.942-13.784C8.345 70.938 12.802 69 18.15 69c4.32 0 8.048 1.135 11.207 3.488 3.025 2.297 5.132 5.452 6.212 9.161L36 83.227h-7.805l-.243-.83c-.73-1.855-1.863-3.432-3.403-4.623-1.54-1.19-3.268-1.771-5.32-1.771-2.053 0-3.835.304-5.267.94a9.972 9.972 0 0 0-3.537 2.658c-2.107 2.353-3.16 5.342-3.16 8.83 0 3.543 1 6.421 3.106 8.83 2.16 2.463 5.023 3.625 8.804 3.625 1.998 0 3.727-.525 5.32-1.716 1.567-1.135 2.674-2.352 3.403-4.207l.297-.194zM80 88.5c0 5.54-1.69 10.22-4.932 13.794C71.581 106.061 67.058 108 61.5 108c-5.504 0-10.081-1.911-13.568-5.706C44.689 98.721 43 94.04 43 88.5c0-5.54 1.69-10.22 4.932-13.794C51.419 70.939 55.942 69 61.5 69c5.504 0 10.081 1.911 13.568 5.706C78.338 78.335 80 82.96 80 88.5zm40-2.872V108h-6.898V85.793c0-3.023-.927-5.36-2.618-7.119-1.636-1.759-3.762-2.583-6.434-2.583-2.7 0-4.99.88-6.871 2.666-1.881 1.841-2.809 4.177-2.809 7.063V108H86V69.302h8.37v4.095c.955-.879 1.936-1.704 3-2.446 2.017-1.264 4.362-1.951 6.898-1.951 2.454 0 4.69.33 6.434 1.072 1.827.742 3.3 1.841 4.69 3.27 3.136 3.134 4.608 7.229 4.608 12.286zm19.18-18.011v1.757H147v6.424h-7.82V108h-7.335V75.798H126v-6.424h5.845v-2.142c0-4.282 1.002-7.686 3.545-9.883 2.49-2.141 5.656-3.349 10.013-3.349h1.57v7.44h-1.867c-2.22 0-3.6.521-4.71 1.51-.92.878-1.217 2.525-1.217 4.667z" fill="#512C57"/></svg>