<svg viewBox="0 0 276 33" xmlns="http://www.w3.org/2000/svg"><title>tutsplus</title><g fill-rule="nonzero" fill="#512C57"><path d="M23.015 3.23c-.903-.487-3.492-.185-6.602.752-5.443 3.62-10.037 8.956-10.357 17.523-.059.204-.595-.028-.702-.091-1.47-2.743-2.052-5.63-.824-9.795.228-.37-.52-.827-.654-.697-.27.263-1.392 1.427-2.138 2.687-3.696 6.242-1.28 14.24 5.189 17.74 6.466 3.506 14.632 1.245 18.232-5.051 4.165-7.267.298-21.739-2.144-23.067M45.973 7C38.456 7 33 12.49 33 20.05 33 27.675 38.442 33 46.234 33c3.936 0 7.052-1.208 9.53-3.697.74-.785.82-1.542.82-1.831 0-1.233-.933-2.129-2.219-2.129-.648 0-1.19.24-1.812.806-1.403 1.284-3.252 2.596-6.319 2.596-4.265 0-7.734-3.145-7.952-7.184h16.976c1.845 0 2.742-.848 2.742-2.592 0-.513 0-.884-.105-1.614C56.98 10.87 52.525 7 45.973 7zm0 4.048c4.076 0 6.69 2.552 6.852 6.67H38.287c.382-3.812 3.662-6.67 7.686-6.67zM74.356 7c-3.502 0-6.968 1.948-8.322 4.653V9.982c0-2.59-2.075-2.722-2.491-2.722-1.229 0-2.543.715-2.543 2.722v20.192C61 32.864 63.208 33 63.651 33c.442 0 2.652-.136 2.652-2.826V19.35c0-4.71 2.759-8 6.708-8 3.826 0 5.686 2.429 5.686 7.426v11.398c0 2.69 2.21 2.826 2.653 2.826.442 0 2.65-.136 2.65-2.826V17.163C84 12.25 81.466 7 74.356 7M107.407 7c-1.223 0-2.11.7-2.639 2.073l-7.241 17.83-7.187-17.83C89.777 7.678 88.897 7 87.647 7 86.188 7 85 8.114 85 9.485c0 .34.04.78.332 1.467l8.322 19.24C94.647 32.512 96.28 33 97.472 33c1.194 0 2.827-.487 3.82-2.807l8.377-19.347c.287-.68.331-1.177.331-1.413C110 8.047 108.884 7 107.407 7M121.623 7c-3.267 0-6.31.907-8.567 2.551-.765.527-1.138 1.183-1.138 2.007 0 1.137.87 2.029 1.985 2.029.481 0 1.02-.192 1.515-.537 1.94-1.289 3.764-1.89 5.738-1.89 3.776 0 5.944 1.914 5.944 5.252v.553c-8.478.008-17.1 1.03-17.1 8.378 0 5.289 4.537 7.657 9.032 7.657 3.58 0 6.44-1.413 8.274-4.09v1.287c0 1.917 1.292 2.596 2.4 2.596.233 0 2.294-.073 2.294-2.596V16.722C132 10.634 128.119 7 121.623 7zm4.402 13.712h1.075v1.172c0 4.288-2.74 7.059-6.98 7.059-1.151 0-4.907-.267-4.907-3.704 0-4.059 6.17-4.527 10.812-4.527zM145.652 11.805c2.235 0 2.348-1.756 2.348-2.108 0-1.045-.617-2.16-2.348-2.16h-4.597V2.84C141.055.744 139.71 0 138.553 0 138.128 0 136 .136 136 2.841v22.295c0 5.145 2.513 7.864 7.269 7.864 1.23 0 2.43-.22 3.213-.588.9-.453 1.415-1.198 1.415-2.043 0-1.192-.856-2.058-2.038-2.058-.227 0-.552.058-.909.162-.438.11-.734.153-1.058.153-1.935 0-2.837-1.276-2.837-4.015V11.805h4.597M163.474 7C155.666 7 150 12.446 150 19.947c0 3.653 1.372 6.983 3.863 9.374 2.473 2.373 5.885 3.679 9.61 3.679C171.186 33 177 27.39 177 19.947 177 12.446 171.31 7 163.474 7zm0 21.694c-5.356 0-8.155-4.4-8.155-8.747 0-5.973 4.226-8.692 8.155-8.692 3.927 0 8.154 2.72 8.154 8.692 0 6.01-4.227 8.747-8.154 8.747zM193.885 30.045c-2.53.351-3.957.257-4.637-.71-.486-.694-.733-1.84-.733-3.406V9.349h4.925a.782.782 0 0 0 .793-.77V7.361a.782.782 0 0 0-.793-.772h-4.925V.77a.782.782 0 0 0-.794-.77h-1.278a.782.782 0 0 0-.794.77v5.82h-3.856a.783.783 0 0 0-.793.77V8.58c0 .426.356.77.793.77h3.856v16.742c.017 2.32.467 3.998 1.376 5.132.945 1.18 2.477 1.777 4.555 1.777 1.345 0 2.294-.103 2.898-.317a.768.768 0 0 0 .51-.857l-.21-1.151c-.073-.41-.475-.684-.893-.63M215.239 7h-1.226a.76.76 0 0 0-.761.76v16.836c-.36 1.878-1.159 3.258-2.44 4.22-1.3.974-3.035 1.468-5.159 1.468-1.955 0-3.386-.557-4.372-1.702-1.005-1.166-1.527-2.95-1.556-5.293V7.759a.76.76 0 0 0-.76-.759h-1.204a.76.76 0 0 0-.761.76v15.492c.032 3.102.772 5.519 2.2 7.184 1.46 1.702 3.645 2.564 6.498 2.564 2.22 0 4.094-.426 5.57-1.266a8.938 8.938 0 0 0 1.984-1.515v1.578c0 .42.34.759.76.759h1.227a.76.76 0 0 0 .761-.758V7.758a.76.76 0 0 0-.761-.759M231.885 30.045c-2.532.352-3.959.256-4.638-.71-.485-.693-.732-1.84-.732-3.406V9.349h4.924a.783.783 0 0 0 .794-.77V7.361a.783.783 0 0 0-.794-.772h-4.924V.77a.783.783 0 0 0-.795-.77h-1.277a.783.783 0 0 0-.795.77v5.82h-3.855a.782.782 0 0 0-.793.77V8.58c0 .426.355.77.793.77h3.855v16.742c.019 2.32.469 3.998 1.376 5.132.945 1.18 2.478 1.777 4.556 1.777 1.344 0 2.293-.103 2.897-.317a.768.768 0 0 0 .511-.857l-.21-1.151c-.073-.41-.472-.684-.893-.63M252.107 22.194c-.588-.985-1.532-1.838-2.803-2.536-1.212-.665-2.863-1.246-4.909-1.729-1.927-.453-3.402-.927-4.386-1.407-.923-.45-1.586-.943-1.97-1.466-.356-.487-.537-1.205-.537-2.134 0-1.16.503-2.106 1.541-2.896 1.093-.83 2.626-1.252 4.556-1.252 2.012 0 3.65.501 4.872 1.488 1.186.958 1.761 2.11 1.761 3.522 0 .428.34.775.76.775h1.224c.42 0 .76-.347.76-.775 0-2.386-.891-4.312-2.65-5.723C248.623 6.694 246.36 6 243.6 6c-2.55 0-4.665.642-6.285 1.907-1.681 1.312-2.535 3.015-2.535 5.06 0 2.013.681 3.628 2.024 4.798 1.283 1.114 3.44 1.99 6.595 2.674 4.628.997 6.879 2.738 6.879 5.323 0 1.203-.56 2.213-1.711 3.088-1.202.914-2.812 1.377-4.787 1.377-2.179 0-3.911-.44-5.15-1.305-1.183-.828-1.807-1.954-1.91-3.441a.768.768 0 0 0-.758-.721h-1.201c-.42 0-.76.347-.76.774 0 2.216.94 4.048 2.79 5.443 1.78 1.343 4.132 2.023 6.989 2.023 2.677 0 4.889-.647 6.574-1.921 1.756-1.329 2.647-3.11 2.647-5.295 0-1.393-.3-2.6-.893-3.59M275.062 18.136h-6.834v-7.2a.937.937 0 0 0-.938-.936h-.888a.937.937 0 0 0-.937.937v7.199h-6.528a.936.936 0 0 0-.937.936v.872c0 .517.418.937.937.937h6.528v7.182c0 .517.419.937.937.937h.888c.519 0 .938-.42.938-.937v-7.182h6.834c.519 0 .938-.42.938-.937v-.872a.937.937 0 0 0-.938-.936"/></g></svg>
