<?xml version="1.0" encoding="utf-8"?>
<!-- Generator: Adobe Illustrator 22.1.0, SVG Export Plug-In . SVG Version: 6.00 Build 0)  -->
<svg version="1.1" id="Layer_1" xmlns="http://www.w3.org/2000/svg" xmlns:xlink="http://www.w3.org/1999/xlink" x="0px" y="0px"
	 viewBox="0 0 625 380" style="enable-background:new 0 0 625 380;" xml:space="preserve">
<style type="text/css">
	.st0{fill:#512C57;}
</style>
<g>
	<path class="st0" d="M115.9,375.8V312h19.6c5.6,0,10.6,1.3,15.1,3.8c4.4,2.5,7.9,6.1,10.4,10.8c2.5,4.7,3.7,10,3.7,15.9v2.9
		c0,5.9-1.2,11.2-3.7,15.8c-2.4,4.6-5.9,8.2-10.3,10.7c-4.4,2.5-9.5,3.8-15,3.9H115.9z M129,322.6v42.6h6.4c5.1,0,9.1-1.7,11.8-5
		s4.1-8.2,4.2-14.4v-3.4c0-6.5-1.3-11.4-4-14.8c-2.7-3.3-6.6-5-11.8-5H129z"/>
	<path class="st0" d="M195.2,376.7c-7,0-12.6-2.1-17-6.4c-4.4-4.3-6.6-10-6.6-17.1V352c0-4.8,0.9-9,2.8-12.8
		c1.8-3.8,4.5-6.6,7.8-8.7c3.4-2,7.2-3,11.6-3c6.5,0,11.6,2,15.3,6.1c3.7,4.1,5.6,9.9,5.6,17.4v5.2h-30.2c0.4,3.1,1.6,5.6,3.7,7.5
		c2.1,1.9,4.7,2.8,7.8,2.8c4.9,0,8.7-1.8,11.4-5.3l6.2,7c-1.9,2.7-4.5,4.8-7.7,6.3C202.8,375.9,199.2,376.7,195.2,376.7z
		 M193.8,337.7c-2.5,0-4.6,0.9-6.1,2.6c-1.6,1.7-2.6,4.1-3,7.3h17.6v-1c-0.1-2.8-0.8-5-2.3-6.5C198.6,338.5,196.5,337.7,193.8,337.7
		z"/>
	<path class="st0" d="M233.6,328.4l0.4,5.5c3.4-4.2,7.9-6.4,13.6-6.4c5,0,8.8,1.5,11.2,4.4c2.5,3,3.7,7.4,3.8,13.2v30.7H250v-30.4
		c0-2.7-0.6-4.7-1.8-5.9c-1.2-1.2-3.1-1.8-5.8-1.8c-3.6,0-6.2,1.5-8,4.6v33.5h-12.7v-47.4H233.6z"/>
	<path class="st0" d="M290,360.3l8.8-32h13.2l-16,47.4h-12.1l-16-47.4h13.2L290,360.3z"/>
	<path class="st0" d="M338.9,376.7c-7,0-12.6-2.1-17-6.4c-4.4-4.3-6.6-10-6.6-17.1V352c0-4.8,0.9-9,2.8-12.8
		c1.8-3.8,4.5-6.6,7.8-8.7c3.4-2,7.2-3,11.6-3c6.5,0,11.6,2,15.3,6.1c3.7,4.1,5.6,9.9,5.6,17.4v5.2h-30.2c0.4,3.1,1.6,5.6,3.7,7.5
		c2.1,1.9,4.7,2.8,7.8,2.8c4.9,0,8.7-1.8,11.4-5.3l6.2,7c-1.9,2.7-4.5,4.8-7.7,6.3C346.4,375.9,342.8,376.7,338.9,376.7z
		 M337.4,337.7c-2.5,0-4.6,0.9-6.1,2.6c-1.6,1.7-2.6,4.1-3,7.3h17.6v-1c-0.1-2.8-0.8-5-2.3-6.5C342.2,338.5,340.1,337.7,337.4,337.7
		z"/>
	<path class="st0" d="M392.2,340.2c-1.7-0.2-3.2-0.4-4.6-0.4c-4.8,0-7.9,1.6-9.4,4.9v31h-12.7v-47.4h12l0.4,5.7
		c2.5-4.4,6.1-6.5,10.6-6.5c1.4,0,2.7,0.2,3.9,0.6L392.2,340.2z"/>
	<path class="st0" d="M463.9,375.8h-43.8v-8.7l20.7-22c2.8-3.1,4.9-5.8,6.3-8.1c1.4-2.3,2-4.5,2-6.6c0-2.8-0.7-5.1-2.1-6.7
		c-1.4-1.6-3.5-2.4-6.1-2.4c-2.9,0-5.1,1-6.8,3c-1.7,2-2.5,4.6-2.5,7.8h-12.7c0-3.9,0.9-7.4,2.8-10.7c1.9-3.2,4.5-5.7,7.9-7.6
		c3.4-1.8,7.2-2.7,11.5-2.7c6.6,0,11.7,1.6,15.3,4.7c3.6,3.2,5.5,7.6,5.5,13.4c0,3.2-0.8,6.4-2.5,9.6s-4.4,7.1-8.4,11.4l-14.5,15.3
		h27.5V375.8z"/>
	<path class="st0" d="M514.7,349.4c0,8.8-1.8,15.6-5.5,20.3s-9,7-16,7c-7,0-12.3-2.3-16-6.9c-3.7-4.6-5.6-11.2-5.7-19.7v-11.8
		c0-8.9,1.9-15.7,5.5-20.3c3.7-4.6,9-6.9,16-6.9c7,0,12.3,2.3,16,6.9c3.7,4.6,5.6,11.1,5.7,19.7V349.4z M502,336.5
		c0-5.3-0.7-9.2-2.2-11.6c-1.4-2.4-3.7-3.6-6.8-3.6c-3,0-5.2,1.2-6.6,3.4c-1.4,2.3-2.2,5.9-2.3,10.8v15.5c0,5.2,0.7,9.1,2.1,11.6
		c1.4,2.5,3.7,3.8,6.8,3.8c3.1,0,5.3-1.2,6.7-3.6c1.4-2.4,2.1-6.1,2.1-11.1V336.5z"/>
	<path class="st0" d="M554,375.8h-12.7v-48.9l-15.1,4.7v-10.2l26.4-9.5h1.4V375.8z"/>
	<path class="st0" d="M618.2,319l-24.7,56.8h-13.4l24.7-53.6h-31.7V312h45.1V319z"/>
</g>
<g>
	<path class="st0" d="M78.2,260.1c0-5.6-2-9.9-5.9-13c-3.9-3-11.1-6.1-21.4-9.2c-10.3-3.1-18.5-6.5-24.6-10.3
		c-11.6-7.3-17.5-16.8-17.5-28.6c0-10.3,4.2-18.8,12.6-25.4c8.4-6.7,19.3-10,32.7-10c8.9,0,16.8,1.6,23.8,4.9
		c7,3.3,12.4,7.9,16.4,14c4,6,6,12.8,6,20.1H78.2c0-6.6-2.1-11.8-6.3-15.5c-4.2-3.7-10.2-5.6-17.9-5.6c-7.2,0-12.9,1.5-16.9,4.6
		c-4,3.1-6,7.4-6,12.9c0,4.7,2.2,8.5,6.5,11.7s11.5,6.1,21.4,9.1c9.9,2.9,17.9,6.3,23.9,10.1c6,3.8,10.4,8.1,13.2,13
		c2.8,4.9,4.2,10.6,4.2,17.1c0,10.6-4.1,19.1-12.2,25.4c-8.2,6.3-19.2,9.4-33.2,9.4c-9.2,0-17.7-1.7-25.5-5.1
		c-7.7-3.4-13.8-8.1-18.1-14.2c-4.3-6-6.4-13-6.4-21h22.2c0,7.2,2.4,12.9,7.2,16.8c4.8,4,11.7,6,20.6,6c7.7,0,13.5-1.6,17.4-4.7
		C76.3,269.3,78.2,265.2,78.2,260.1z"/>
	<path class="st0" d="M175.3,283.7c-6.3,7.4-15.1,11-26.7,11c-10.3,0-18.1-3-23.4-9c-5.3-6-7.9-14.7-7.9-26.1v-61.5h21.3v61.2
		c0,12,5,18.1,15,18.1c10.3,0,17.3-3.7,21-11.1v-68.1h21.3v94.9h-20.1L175.3,283.7z"/>
	<path class="st0" d="M237.7,198.1l0.6,9.9c6.7-7.8,15.8-11.7,27.4-11.7c12.7,0,21.4,4.9,26,14.6c6.9-9.7,16.6-14.6,29.1-14.6
		c10.5,0,18.3,2.9,23.4,8.7c5.1,5.8,7.7,14.3,7.9,25.6v62.4h-21.3v-61.7c0-6-1.3-10.4-3.9-13.2c-2.6-2.8-7-4.2-13.1-4.2
		c-4.9,0-8.8,1.3-11.9,3.9c-3.1,2.6-5.2,6-6.4,10.2l0.1,65.1h-21.3v-62.4c-0.3-11.2-6-16.8-17.1-16.8c-8.5,0-14.6,3.5-18.2,10.4
		v68.8h-21.3v-94.9H237.7z"/>
	<path class="st0" d="M393.9,198.1l0.6,9.9c6.7-7.8,15.8-11.7,27.4-11.7c12.7,0,21.4,4.9,26,14.6c6.9-9.7,16.6-14.6,29.1-14.6
		c10.5,0,18.3,2.9,23.4,8.7c5.1,5.8,7.7,14.3,7.9,25.6v62.4H487v-61.7c0-6-1.3-10.4-3.9-13.2c-2.6-2.8-7-4.2-13.1-4.2
		c-4.9,0-8.8,1.3-11.9,3.9c-3.1,2.6-5.2,6-6.4,10.2l0.1,65.1h-21.3v-62.4c-0.3-11.2-6-16.8-17.1-16.8c-8.5,0-14.6,3.5-18.2,10.4
		v68.8h-21.3v-94.9H393.9z"/>
	<path class="st0" d="M530.2,173.3c0-3.3,1-6,3.1-8.2c2.1-2.2,5-3.3,8.9-3.3s6.8,1.1,8.9,3.3c2.1,2.2,3.2,4.9,3.2,8.2
		c0,3.2-1.1,5.9-3.2,8.1c-2.1,2.1-5.1,3.2-8.9,3.2s-6.8-1.1-8.9-3.2C531.2,179.3,530.2,176.6,530.2,173.3z M552.8,292.9h-21.3v-94.9
		h21.3V292.9z"/>
	<path class="st0" d="M602.7,175v23.1h16.8v15.8h-16.8v53c0,3.6,0.7,6.2,2.1,7.9c1.4,1.6,4,2.4,7.7,2.4c2.5,0,4.9-0.3,7.5-0.9v16.5
		c-4.9,1.3-9.5,2-14,2c-16.4,0-24.6-9-24.6-27.1v-53.8h-15.6v-15.8h15.6V175H602.7z"/>
</g>
<g>
	<g>
		<path class="st0" d="M289.9,148.8l8.6-18.8c9,5.1,18.1,8.1,29.8,8.1c17.1,0,25.2-8.2,25.2-24v-4.3c-7.4,8.9-15.5,14.3-28.8,14.3
			c-20.6,0-39.2-15-39.2-41.1v-0.3c0-26.3,18.9-41.1,39.2-41.1c13.7,0,21.7,5.8,28.5,13.2V43.2h25v68.3c0,15.8-3.8,27.3-11.2,34.7
			c-8.2,8.2-20.9,11.8-38,11.8C314.5,158,301.1,154.7,289.9,148.8z M353.4,83v-0.3c0-12-9.4-20.4-21.6-20.4
			c-12.2,0-21.4,8.4-21.4,20.4V83c0,12.2,9.2,20.4,21.4,20.4C344,103.4,353.4,95,353.4,83z"/>
		<path class="st0" d="M384.2,87.4v-0.3c0-29.4,19.2-45.6,40.1-45.6c13.3,0,21.6,6.1,27.5,13.2V11.3h25v120.1h-25v-12.7
			c-6.1,8.2-14.5,14.3-27.5,14.3C403.8,133,384.2,116.9,384.2,87.4z M452.1,87.4v-0.3c0-14.6-9.7-24.3-21.4-24.3
			c-11.7,0-21.6,9.5-21.6,24.3v0.3c0,14.6,9.9,24.3,21.6,24.3C442.4,111.8,452.1,102.1,452.1,87.4z"/>
		<path class="st0" d="M488.8,11.3h26.3v22.2h-26.3V11.3z M489.5,43.2h25v88.2h-25V43.2z"/>
	</g>
	<path class="st0" d="M589.7,103.9c0,0-22.4-34-22.6-70.9C566.9,2.1,600.6-4.6,610,12.6c10.6,19.5-5,36.3-11.3,47.8
		C591.1,74.3,589.7,103.9,589.7,103.9"/>
	<path class="st0" d="M597.3,146.9c0,0-7.9-8.8-19.4-15.5c-9-5.3-20.3-8.3-30.5-11.1c-25.9-7.1-11.9-51.9,22-27.2
		C585.4,104.6,591.6,127.4,597.3,146.9"/>
	<path class="st0" d="M606,139.3c-7.6-10.6-15.6-35.2-2.5-41.2c15-7,18.5,11.7,11.5,17.4C607.7,121.4,606,139.3,606,139.3"/>
</g>
</svg>
