<?xml version="1.0" encoding="utf-8"?>
<!-- Generator: Adobe Illustrator 22.1.0, SVG Export Plug-In . SVG Version: 6.00 Build 0)  -->
<svg version="1.1" id="Layer_1" xmlns="http://www.w3.org/2000/svg" xmlns:xlink="http://www.w3.org/1999/xlink" x="0px" y="0px"
	 viewBox="0 0 280 180" style="enable-background:new 0 0 280 180;" xml:space="preserve">
<style type="text/css">
	.st0{fill:#512C57;}
</style>
<g>
	<g>
		<path class="st0" d="M98.1,143.1c-1.2,0.5,0.4,1.7-0.7,2.5s-2.2,1.7-3.4,2.7c-1.1,1-2.3,2-3.5,3.1s-2.5,2.2-4,3.2
			c-1.4,1.1-3,2.1-4.6,3c-1.7,1-3.5,1.8-5.5,2.5s-4.2,1.3-6.7,1.7c-2.4,0.4-5.1,0.6-8,0.6c-3.3,0-6.2-0.7-8.8-2s-4.8-3.1-6.7-5.4
			c-1.8-2.2-3.2-4.8-4.2-7.8s-1.5-6.1-1.4-9.3c0-2.2,0.3-4.6,0.8-7.1s1.2-5.1,2.1-7.7c0.9-2.6,2-5.3,3.4-7.9
			c1.3-2.6,2.8-5.1,4.5-7.5s3.5-4.6,5.5-6.7c2-2,4.1-3.8,6.4-5.3c2.2-1.5,4.6-2.7,7.1-3.5s5.1-1.3,7.7-1.2c1.7,0,3.5,0.3,5.3,1
			c1.8,0.6,3.4,1.6,4.8,2.9c1.4,1.3,2.6,2.9,3.4,4.9c0.9,2,1.3,4.3,1.3,6.9c0,1.8-0.3,3.6-0.9,5.4c-0.6,1.8-1.4,3.6-2.4,5.2
			c-1,1.7-2.2,3.2-3.5,4.7s-2.8,2.7-4.3,3.8s-3.2,1.9-4.8,2.5c-1.7,0.6-3.3,0.9-5,0.9c-2.2,0-3.8-0.3-4.9-0.9
			c-1.1-0.6-1.6-1.5-1.6-2.6c0-0.2,0-0.4,0-0.7s0-0.5,0-0.8c0-0.4,0-0.9,0.1-1.4s0.2-0.9,0.3-1.3c0.1-0.4,0.4-0.7,0.6-0.9
			c0.3-0.2,0.7-0.4,1.1-0.4c0.3,0,0.5,0,0.8,0.1c0.2,0.1,0.5,0.2,0.7,0.3c0.3,0.1,0.6,0.2,1,0.3s0.8,0.1,1.4,0.1
			c1.5,0,3.1-0.3,4.7-1s3-1.6,4.3-2.8s2.3-2.7,3.1-4.4c0.8-1.7,1.2-3.6,1.3-5.6c0-1.1-0.1-2.1-0.4-3.1s-0.7-1.8-1.4-2.6
			c-0.6-0.7-1.5-1.3-2.5-1.8S78.3,99,76.9,99c-1.7,0-3.4,0.4-5.1,1.1c-1.7,0.7-3.2,1.8-4.8,3.1c-1.5,1.3-3,2.8-4.4,4.6
			s-2.6,3.7-3.8,5.7s-2.2,4.1-3.2,6.3c-0.9,2.2-1.7,4.4-2.4,6.6c-0.7,2.2-1.2,4.3-1.5,6.4c-0.4,2.1-0.6,4-0.6,5.7
			c0,2.5,0.3,4.6,0.9,6.5c0.6,1.8,1.5,3.4,2.6,4.6c1.1,1.2,2.5,2.2,4.1,2.8s3.5,0.9,5.5,0.9c2.6,0,4.9-0.3,7.1-0.9
			c2.2-0.6,4.3-1.4,6.3-2.5c2-1,3.9-2.2,5.8-3.5s3.8-2.6,5.6-3.9s3.8-2.5,5.7-3.7c1.9-1.2,2.3-2.5,4.5-3.3L98.1,143.1z"/>
		<path class="st0" d="M116,128.9c0.7,1.4,1.2,2.9,1.5,4.4c0.3,1.6,0.5,3,0.5,4.5c0,1.4-0.2,2.9-0.5,4.3c-0.3,1.4-0.8,2.8-1.4,4.2
			c-0.6,1.3-1.3,2.6-2.2,3.8c-0.9,1.2-1.8,2.2-2.9,3c-1.1,0.9-2.3,1.5-3.6,2c-1.3,0.5-2.7,0.7-4.2,0.7c-2.1,0-3.9-0.5-5.4-1.4
			s-2.7-2.2-3.7-3.7s-1.6-3.2-2.1-5.1c-0.4-1.9-0.6-3.8-0.6-5.7c0-2.6,0.4-5.1,1.2-7.4c0.8-2.3,2-4.3,3.5-6c1.5-1.7,3.3-3,5.5-4
			s4.6-1.4,7.2-1.4c2.3,0,4.4,0.4,6.4,1.1c2,0.7,3.9,1.7,5.6,2.9s3.4,2.6,4.8,4.1c1.5,1.6,2.9,3.2,4.2,4.8l-0.7,5.1
			c-0.6-0.9-1.5-1.8-2.6-2.8s-2.3-2-3.5-3s-2.4-1.9-3.6-2.8c-1.2-0.9-2.2-1.6-3.1-2.2L116,128.9z M104.6,148.9
			c0.7-0.1,1.4-0.3,1.9-0.8c1.1-0.9,1.9-2.3,2.5-3.6s1.1-2.7,1.4-4.2c0.4-1.5,0.5-3,0.6-4.4c0-1.1-0.1-2.1-0.2-3.1
			c-0.2-1-0.4-1.8-0.7-2.5c-0.3-0.7-0.8-1.3-1.3-1.7s-1.2-0.6-1.9-0.6c-1,0-1.9,0.4-2.8,1.2s-1.7,1.9-2.4,3.2
			c-0.7,1.3-1.2,2.8-1.6,4.3c-0.4,1.6-0.6,3.1-0.6,4.6c0,1,0.1,2,0.3,2.9c0.2,0.9,0.5,1.7,0.9,2.3c0.4,0.7,0.9,1.2,1.6,1.6
			C103,148.7,103.8,148.9,104.6,148.9z"/>
		<path class="st0" d="M122.9,157.3c0-0.1,0-0.9,0.1-2.2s0.2-3.1,0.4-5.4s0.4-4.8,0.7-7.7c0.3-2.9,0.7-6,1.2-9.3s1.1-6.6,1.7-10
			c0.7-3.4,1.4-6.8,2.4-10c0.9-3.2,1.9-6.3,3.1-9.2c1.2-2.9,2.4-5.4,3.9-7.5c1.4-2.1,3-3.8,4.8-5.1c1.7-1.2,3.6-1.9,5.7-1.8
			c0.8,0,1.7,0.2,2.6,0.5c0.9,0.3,1.7,0.8,2.5,1.4c0.7,0.7,1.4,1.5,1.8,2.6c0.5,1.1,0.7,2.4,0.7,4c0,1.4-0.2,3.1-0.7,4.9
			c-0.5,1.8-1.1,3.8-1.9,5.9c-0.8,2.1-1.8,4.3-2.9,6.5c-1.1,2.3-2.3,4.5-3.6,6.7s-2.7,4.4-4.1,6.6c-1.4,2.2-2.9,4.2-4.4,6.1
			l-0.1,0.6c0.5-0.2,0.8-0.4,1.1-0.5c0.2-0.1,0.5-0.1,0.8-0.1s0.6,0,0.8,0.1s0.4,0.1,0.5,0.2c0.2,0.1,0.3,0.1,0.5,0.2
			s0.4,0.1,0.6,0.1c2.4,0,4.5-0.2,6.3-0.8s3.4-1.2,4.6-1.9c1.5-0.8,2.8-1.7,3.8-2.8l-0.9,8.8c-1.6,0.9-3.3,1.5-5,2s-3.3,0.8-4.8,1
			c-1.7,0.3-3.4,0.4-5.1,0.5c0.9,1.6,1.6,3.3,2.3,5c0.6,1.5,1.1,3.1,1.6,4.9c1.1,4.3,0.6,8.5-0.4,12.8c-0.3,1.2-0.6,2.5-1.1,3.7
			c-0.4,1.2-1,2.5-1.6,3.6c-0.6,1.2-1.3,2.2-2.1,3.1s-1.7,1.6-2.8,2.2c-1.1,0.5-2.2,0.8-3.6,0.8c-1.3,0-2.5-0.3-3.5-0.9
			c-1-0.6-1.8-1.4-2.5-2.5c-0.7-1-1.3-2.2-1.7-3.6c-0.5-1.4-0.8-2.8-1.1-4.3c-0.3-1.5-0.4-3.1-0.5-4.6
			C123,160.3,122.9,158.8,122.9,157.3z M132.7,140.1c-0.1,0-0.2,0.3-0.3,0.8s-0.2,1.2-0.4,2.1c-0.1,0.9-0.2,1.8-0.3,2.9
			c-0.1,1.1-0.2,2.1-0.3,3.1s-0.1,2-0.2,2.9c-0.1,0.9-0.1,1.6-0.1,2.1c0,3.5,0,6.4,0.1,8.5s0.3,3.7,0.5,4.8c0.1,0.7,0.2,1.4,0.6,2
			c0.2,0.3,0.4,0.5,0.7,0.6c0.2,0.1,0.4,0,0.6,0c0.7-0.1,1.3-0.7,1.7-1.3c0.5-0.8,0.8-1.7,1-2.7c0.3-1.1,0.4-2.4,0.5-3.8
			s0.1-2.7,0.2-3.9c0-0.8-0.1-1.9-0.2-3.1c-0.1-1.2-0.3-2.5-0.5-3.8s-0.5-2.7-0.8-4s-0.6-2.5-0.9-3.6c-0.3-1-0.6-1.9-1-2.6
			C133.3,140.4,133,140.1,132.7,140.1z M141.8,100.7c-1.4,3.5-2.5,6.5-3.4,9.1c-0.8,2.6-1.4,5-1.9,7c-0.4,2-0.7,3.8-0.9,5.4
			c-0.2,1.6-0.4,3-0.5,4.3c1.5-2.8,3-5.5,4.5-8.1c1.5-2.7,2.9-5.2,4.1-7.4c1.2-2.3,2.2-4.3,3-6.1s1.4-3.8,1-5.8
			c-0.1-0.6-0.3-1.2-0.8-1.6c-0.4-0.3-0.9-0.4-1.3-0.4c-0.9,0-1.7,0.5-2.3,1.1C142.5,99,142.2,99.8,141.8,100.7z"/>
		<path class="st0" d="M149,157.5c0-0.1,0-0.9,0.1-2.2s0.2-3.1,0.4-5.4c0.2-2.2,0.4-4.8,0.7-7.7s0.7-6,1.2-9.3s1.1-6.6,1.7-10
			c0.7-3.4,1.4-6.8,2.4-10c0.9-3.2,1.9-6.3,3.1-9.2c1.2-2.9,2.4-5.4,3.9-7.5c1.4-2.1,3-3.8,4.8-5.1c1.7-1.2,3.6-1.9,5.7-1.8
			c0.8,0,1.7,0.2,2.6,0.5c0.9,0.3,1.7,0.8,2.5,1.4c0.7,0.7,1.4,1.5,1.8,2.6c0.5,1.1,0.7,2.4,0.7,4c0,1.4-0.2,3.1-0.7,4.9
			c-0.5,1.8-1.1,3.8-1.9,5.9c-0.8,2.1-1.8,4.3-2.9,6.5c-1.1,2.3-2.3,4.5-3.6,6.7s-2.7,4.4-4.1,6.6c-1.4,2.2-2.9,4.2-4.4,6.1
			l-0.1,0.6c0.5-0.2,0.8-0.4,1.1-0.5c0.2-0.1,0.5-0.1,0.8-0.1s0.6,0,0.8,0.1s0.4,0.1,0.5,0.2c0.2,0.1,0.3,0.1,0.5,0.2
			c0.2,0.1,0.4,0.1,0.6,0.1c2.4,0,4.5-0.2,6.3-0.8s3.4-1.2,4.6-1.9c1.5-0.8,2.8-1.7,3.8-2.8l-0.9,8.8c-1.6,0.9-3.3,1.5-5,2
			s-3.3,0.8-4.8,1c-1.7,0.3-3.4,0.4-5.1,0.5c0.9,1.6,1.6,3.3,2.3,5c0.6,1.5,1.1,3.1,1.6,4.9c1.4,5.5,0.4,11.3-1.4,16.5
			c-0.4,1.2-1,2.5-1.6,3.6c-0.6,1.2-1.3,2.2-2.1,3.1s-1.7,1.6-2.8,2.2c-1.1,0.5-2.2,0.8-3.6,0.8c-1.3,0-2.5-0.3-3.5-0.9
			s-1.8-1.4-2.5-2.5c-0.7-1-1.3-2.2-1.7-3.6c-0.5-1.4-0.8-2.8-1.1-4.3s-0.4-3.1-0.5-4.6C149.1,160.5,149,159,149,157.5z
			 M158.8,140.3c-0.1,0-0.2,0.3-0.3,0.8s-0.2,1.2-0.4,2.1c-0.1,0.9-0.2,1.8-0.3,2.9c-0.1,1.1-0.2,2.1-0.3,3.1s-0.1,2-0.2,2.9
			c-0.1,0.9-0.1,1.6-0.1,2.1c0,3.5,0,6.4,0.1,8.5s0.1,4.5,0.9,6.5c0.1,0.3,0.3,0.6,0.6,0.8c0.2,0.1,0.5,0.2,0.8,0.1
			c0.7-0.1,1.2-0.7,1.6-1.2c1.2-1.8,1.5-4.3,1.6-6.5c0.1-1.4,0.1-2.7,0.2-3.9c0-0.8-0.1-1.9-0.2-3.1c-0.1-1.2-0.3-2.5-0.5-3.8
			s-0.5-2.7-0.8-4s-0.6-2.5-0.9-3.6c-0.3-1-0.6-1.9-1-2.6C159.4,140.6,159.1,140.3,158.8,140.3z M167.9,100.9
			c-1.4,3.5-2.5,6.5-3.4,9.1c-0.8,2.6-1.4,5-1.9,7c-0.4,2-0.7,3.8-0.9,5.4c-0.2,1.6-0.4,3-0.5,4.3c1.5-2.8,3-5.5,4.5-8.1
			c1.5-2.7,2.9-5.2,4.1-7.4c1.2-2.3,2.2-4.3,3-6.1s1.5-3.9,1-5.9c-0.2-0.6-0.5-1.2-1-1.6c-0.5-0.3-1.1-0.3-1.6-0.2
			C169.4,97.9,168.5,99.4,167.9,100.9z"/>
		<path class="st0" d="M189.5,156.5c-2.3,0-4.2-0.4-5.9-1.3c-1.7-0.8-3.1-1.9-4.2-3.3c-1.1-1.4-2-3-2.5-4.8
			c-0.6-1.8-0.8-3.7-0.8-5.7c0-1.3,0.2-2.8,0.4-4.3c0.3-1.5,0.7-3,1.2-4.4s1.2-2.8,2.1-4.1c0.8-1.3,1.8-2.5,2.9-3.4
			c1.1-1,2.3-1.8,3.7-2.4c1.4-0.6,2.9-0.9,4.5-0.8c1.3,0,2.6,0.2,3.8,0.7c1.2,0.4,2.2,1.1,3,1.8c0.8,0.8,1.5,1.7,2,2.9
			c0.5,1.1,0.7,2.4,0.7,3.7c0,1.5-0.4,3-1.1,4.5c-0.7,1.5-1.8,2.9-3.1,4.2s-2.9,2.5-4.7,3.5s-3.8,1.8-5.9,2.4
			c0.7,1.4,1.6,2.6,3.2,3.1c1.8,0.6,3.8,0,5.6-0.5s3.5-1.3,5.1-2.2c1.5-0.9,3-1.8,4.3-2.8c1.4-1,2.5-2,3.5-2.9l4.6,4.9
			c-2.1,2.2-4.4,4.1-6.8,5.8c-1,0.7-2.2,1.4-3.4,2.1c-1.2,0.7-2.5,1.3-3.8,1.8s-2.7,1-4.1,1.3C192.4,156.3,191,156.5,189.5,156.5z
			 M184.9,139.5c0.9,0,1.8-0.2,2.8-0.6c1-0.4,2-1,2.9-1.7c2-1.6,3.8-3.8,2.9-6.5c-0.7-2.1-2.7-2.2-4.4-1.3c-0.7,0.4-1.4,0.9-1.9,1.5
			s-0.9,1.3-1.2,2.1s-0.5,1.6-0.7,2.4c-0.2,0.8-0.3,1.6-0.3,2.3S184.9,138.9,184.9,139.5z"/>
		<path class="st0" d="M218,156.7c-2.3,0-4.2-0.4-5.9-1.3c-1.7-0.8-3.1-1.9-4.2-3.3s-2-3-2.5-4.8c-0.6-1.8-0.8-3.7-0.8-5.7
			c0-1.3,0.2-2.8,0.4-4.3c0.3-1.5,0.7-3,1.2-4.4s1.2-2.8,2.1-4.1c0.8-1.3,1.8-2.5,2.9-3.4c1.1-1,2.3-1.8,3.7-2.4
			c1.4-0.6,2.9-0.9,4.5-0.8c1.3,0,2.6,0.2,3.8,0.7s2.2,1.1,3,1.8c0.8,0.8,1.5,1.7,2,2.9c0.5,1.1,0.7,2.4,0.7,3.7
			c0,1.5-0.4,3-1.1,4.5c-0.7,1.5-1.8,2.9-3.1,4.2s-2.9,2.5-4.7,3.5s-3.8,1.8-5.9,2.4c0.8,1.5,1.8,2.8,3.6,3.2
			c1.9,0.4,3.8-0.2,5.5-0.8c1.9-0.7,3.8-1.5,5.6-2.6c1.2-0.7,2.3-1.5,3.4-2.3c0.6-0.4,1.1-0.8,1.6-1.2c1.1-0.9,2.7-0.8,3.7,0.2
			l1.2,1.2c0.9,1,0.9,2.5-0.1,3.5c-1.6,1.5-3.3,2.8-5,4c-1,0.7-2.2,1.4-3.4,2.1c-1.2,0.7-2.5,1.3-3.8,1.8s-2.7,1-4.1,1.3
			C220.8,156.5,219.4,156.7,218,156.7z M213.3,139.7c2.8-0.2,5.4-1.8,7.3-3.8c1-1.1,1.7-2.7,1.5-4.2c-0.2-1.7-1.4-3-3.2-2.7
			c-2.7,0.5-4.3,3-5,5.5C213.4,136.2,213.3,137.9,213.3,139.7z"/>
	</g>
</g>
<g>
	<g>
		<path class="st0" d="M43.4,10.6c-1-0.4-2.1-0.7-3.3-0.9c-1.2-0.2-2.7-0.3-4.4-0.3c-2.4,0-4.8,0.5-7.2,1.4
			c-2.3,0.9-4.4,2.4-6.2,4.4c-1.8,2-3.3,4.7-4.3,7.9c-1.1,3.3-1.6,7.3-1.6,12c0,4.3,0.5,8,1.5,11.2s2.4,5.9,4.1,8
			c1.8,2.1,3.9,3.7,6.3,4.8c2.5,1.1,5.2,1.6,8.3,1.6c1.5,0,3-0.1,4.3-0.4s2.6-0.6,3.7-1.1v-8.9h6.6v12l0.1,0.2
			c-1.8,1.4-4,2.5-6.7,3.4s-6,1.4-10,1.4c-3.7,0-7.2-0.6-10.4-1.9c-3.2-1.3-5.9-3.2-8.2-5.8s-4.1-5.9-5.4-10s-1.9-8.9-2-14.4
			c0-5.8,0.7-10.7,2.1-14.8c1.4-4.1,3.3-7.4,5.7-10s5.2-4.5,8.5-5.7c3.2-1.2,6.7-1.8,10.3-1.8c2,0,3.8,0.1,5.2,0.2
			c1.5,0.1,2.8,0.3,3.9,0.6c1.1,0.3,2.1,0.6,3,1s1.7,0.9,2.5,1.4h0.1v14h-6.6L43.4,10.6z"/>
		<path class="st0" d="M61.2,43.8c0-7.2,1.8-12.8,5.5-17s9-6.3,16-6.3c3.7,0,6.9,0.6,9.6,1.8c2.7,1.2,4.9,2.8,6.7,4.9
			c1.8,2.1,3.1,4.5,4,7.4c0.9,2.8,1.3,5.9,1.3,9.1c0,3.6-0.5,6.8-1.4,9.6c-0.9,2.9-2.3,5.3-4.2,7.3c-1.8,2-4.1,3.6-6.8,4.7
			c-2.7,1.1-5.8,1.7-9.2,1.7c-3.7,0-6.9-0.6-9.6-1.8s-5-2.8-6.8-4.9s-3.1-4.5-4-7.4C61.7,50.1,61.2,47,61.2,43.8z M68.6,43.7
			c0,2.1,0.3,4.1,0.8,6.2s1.3,3.9,2.5,5.6c1.1,1.7,2.6,3,4.4,4s4,1.5,6.6,1.5c4.7,0,8.3-1.5,10.7-4.4c2.4-2.9,3.6-7.3,3.5-12.9
			c0-2.1-0.3-4.2-0.8-6.3c-0.5-2-1.3-3.9-2.5-5.5c-1.2-1.7-2.6-3-4.4-4s-4-1.5-6.6-1.5c-4.7,0-8.3,1.5-10.6,4.4
			C69.8,33.7,68.6,38,68.6,43.7z"/>
		<path class="st0" d="M140.3,3.5h14.5l0.2,47c0,0.5,0,1.2,0.1,2s0.1,1.6,0.2,2.5c0.1,0.9,0.2,1.8,0.3,2.6c0.1,0.9,0.2,1.6,0.4,2.3
			h6v5.8h-11.9l-0.9-6.8h-0.4c-1.3,2.3-3.2,4.1-5.8,5.7c-2.6,1.5-5.5,2.3-8.9,2.3c-6.7,0-11.6-1.8-14.8-5.6
			c-3.2-3.8-4.8-9.6-4.8-17.5c0-3.7,0.5-7,1.6-9.9s2.6-5.3,4.5-7.2c2-1.9,4.3-3.4,7.1-4.4c2.8-1,5.9-1.5,9.3-1.5
			c1.2,0,2.3,0,3.3,0.1s1.9,0.1,2.7,0.3c0.8,0.1,1.6,0.3,2.4,0.5c0.7,0.2,1.6,0.4,2.4,0.7V9.8h-7.5V3.5z M135.2,60.9
			c3.6,0,6.4-1,8.5-2.8c2.1-1.9,3.5-4.7,4.2-8.4l-0.1-20.6c-1.3-0.9-2.8-1.5-4.4-1.9c-1.6-0.4-3.8-0.6-6.4-0.6
			c-4.7,0-8.4,1.4-11.1,4.2c-2.7,2.8-4.1,7.1-4,13c0,2.4,0.2,4.7,0.7,6.8s1.2,3.9,2.2,5.5c1,1.5,2.4,2.7,4.1,3.6
			C130.6,60.4,132.7,60.9,135.2,60.9z"/>
		<path class="st0" d="M209.9,59.9c-1.1,1-2.3,1.8-3.8,2.7c-1.5,0.8-3,1.6-4.7,2.1c-1.7,0.6-3.5,1.1-5.4,1.4
			c-1.9,0.3-3.7,0.5-5.6,0.5c-3.6,0-6.7-0.5-9.4-1.6s-5-2.7-6.9-4.7c-1.8-2-3.2-4.5-4.2-7.3s-1.4-6-1.5-9.6c0-3.7,0.5-7.1,1.5-10
			s2.5-5.3,4.5-7.3c1.9-2,4.3-3.5,7.1-4.5s5.9-1.6,9.3-1.6c2.5,0,4.9,0.3,7.4,1c2.4,0.6,4.6,1.9,6.5,3.7c1.9,1.8,3.3,4.3,4.3,7.5
			s1.4,7.3,1.1,12.3l-34.3,0.1c0,5.3,1.5,9.3,4.3,11.9c2.9,2.6,6.7,3.9,11.5,3.9c1.6,0,3.2-0.2,4.7-0.6c1.6-0.4,3.1-0.9,4.5-1.4
			s2.7-1.1,3.8-1.8s1.9-1.3,2.5-1.8L209.9,59.9z M191.1,25.9c-1.9,0-3.8,0.2-5.5,0.6s-3.3,1.1-4.6,2.1s-2.4,2.3-3.3,3.8
			c-0.9,1.6-1.4,3.5-1.6,5.8l27.6-0.1c-0.3-3.9-1.6-6.9-3.8-9.1C197.6,27,194.7,25.9,191.1,25.9z"/>
	</g>
	<g>
		<path class="st0" d="M244.5,40.3c-0.4-0.8-0.8-1.7-1.3-2.7c-0.4-1-0.9-2.1-1.2-3.3c-0.4-1.1-0.7-2.3-1-3.4s-0.4-2.2-0.4-3.3
			c0-1.8,0.4-3.5,1.1-5.1c0.8-1.6,1.8-3.1,3.1-4.3c1.3-1.2,2.8-2.2,4.5-3c1.7-0.7,3.5-1.1,5.4-1.1c1.6,0,3.1,0.2,4.4,0.7
			s2.5,1.2,3.5,2.1s1.7,1.9,2.2,3.1s0.8,2.5,0.8,3.9c0,1.2-0.2,2.5-0.6,3.9c-0.4,1.3-1.1,2.7-2,4.1c-0.9,1.4-2.2,2.8-3.6,4.2
			c-1.5,1.4-3.3,2.7-5.4,4c0.3,0.5,0.7,1.3,1.3,2.3s1.3,2.1,2.1,3.3s1.6,2.5,2.4,3.9c0.8,1.3,1.6,2.6,2.3,3.9c0.5-0.3,0.8-0.7,1.1-1
			c0.3-0.3,0.5-0.7,0.6-1.1c0.1-0.3,0.2-0.7,0.2-1.1s0-0.7,0-1.1c0-0.8-0.1-1.5-0.3-2.1s-0.5-1.2-0.8-1.7c-0.4-0.6-0.8-1.2-1.3-1.8
			s-1.1-1.4-1.6-2.4c0,0,0.1-0.1,0.2-0.2s0.2-0.2,0.4-0.4s0.3-0.2,0.4-0.3s0.2-0.1,0.3-0.1c0.3,0,0.8,0.1,1.4,0.4s1.3,0.7,2,1.1
			c0.7,0.5,1.5,1.1,2.2,1.8c0.8,0.7,1.5,1.5,2.1,2.3c0.6,0.9,1.1,1.8,1.5,2.8s0.6,2,0.6,3.1c0,1.3-0.4,2.7-1.1,4.2
			c-0.7,1.4-2,2.9-3.7,4.3c0.1,0,0.3,0.1,0.7,0.4c0.4,0.3,0.8,0.6,1.3,1s1,0.8,1.5,1.2s0.9,0.7,1.1,0.9c0.3,0.3,0.5,0.8,0.5,1.3
			s-0.1,1-0.4,1.6s-0.7,1.1-1.1,1.6s-1,0.9-1.5,1.2s-1.1,0.5-1.6,0.5s-1-0.2-1.3-0.5c-0.3-0.2-0.7-0.6-1.2-1.2
			c-0.5-0.6-1.1-1.1-1.6-1.7c-0.5-0.6-1-1.1-1.4-1.6c-0.4-0.4-0.6-0.7-0.6-0.7c-1,0.8-2.2,1.5-3.5,2.1c-1.2,0.5-2.5,1-4.2,1.4
			c-1.6,0.4-3.4,0.7-5.5,0.7c-2.7,0-5-0.3-7-0.9c-2-0.6-3.7-1.4-5.1-2.4c-1.4-1-2.4-2.2-3.1-3.6c-0.7-1.4-1-2.8-1-4.4
			c0-1.4,0.3-2.8,0.8-4.3c0.6-1.5,1.4-2.9,2.5-4.4s2.5-2.9,4.2-4.3C240.3,42.8,242.3,41.5,244.5,40.3z M247.6,61.8
			c1.4,0,2.8-0.2,4.2-0.7s2.6-1.1,3.8-1.9c-0.9-1.1-1.8-2.1-2.5-3.1c-0.7-0.9-1.4-1.9-2.1-2.9c-0.7-1-1.4-2.1-2.2-3.4
			c-0.7-1.2-1.6-2.7-2.6-4.5c-1.1,0.8-2,1.6-2.8,2.5s-1.5,1.8-2.1,2.7c-0.6,0.9-1,1.8-1.3,2.7s-0.4,1.8-0.4,2.6s0.2,1.6,0.5,2.3
			s0.8,1.3,1.5,1.9s1.5,0.9,2.5,1.2C245,61.7,246.2,61.8,247.6,61.8z M255.1,21.2c-0.5,0-1,0.1-1.5,0.4c-0.6,0.3-1.1,0.7-1.6,1.2
			s-0.9,1.1-1.2,1.9c-0.3,0.7-0.5,1.5-0.5,2.3c0,0.7,0.1,1.6,0.3,2.6s0.4,2,0.7,2.9c0.3,0.9,0.5,1.7,0.7,2.4c0.2,0.6,0.3,1,0.4,1
			c1.1-1,2.1-1.9,2.9-2.8c0.9-0.9,1.6-1.8,2.2-2.7c0.6-0.9,1.1-1.8,1.4-2.7c0.3-0.9,0.5-1.9,0.5-2.9c0-0.5-0.1-1-0.2-1.5
			c-0.1-0.4-0.4-0.8-0.7-1.1c-0.3-0.3-0.8-0.5-1.3-0.7S255.9,21.2,255.1,21.2z"/>
	</g>
</g>
</svg>
