<svg id="Layer_1" xmlns="http://www.w3.org/2000/svg" viewBox="0 0 625 380"><style>.st0{fill:#512c57}</style><path class="st0" d="M115.9 375.8V312h19.6c5.6 0 10.6 1.3 15.1 3.8 4.4 2.5 7.9 6.1 10.4 10.8 2.5 4.7 3.7 10 3.7 15.9v2.9c0 5.9-1.2 11.2-3.7 15.8-2.4 4.6-5.9 8.2-10.3 10.7s-9.5 3.8-15 3.9h-19.8zm13.1-53.2v42.6h6.4c5.1 0 9.1-1.7 11.8-5s4.1-8.2 4.2-14.4v-3.4c0-6.5-1.3-11.4-4-14.8-2.7-3.3-6.6-5-11.8-5H129zM195.2 376.7c-7 0-12.6-2.1-17-6.4-4.4-4.3-6.6-10-6.6-17.1V352c0-4.8.9-9 2.8-12.8 1.8-3.8 4.5-6.6 7.8-8.7 3.4-2 7.2-3 11.6-3 6.5 0 11.6 2 15.3 6.1 3.7 4.1 5.6 9.9 5.6 17.4v5.2h-30.2c.4 3.1 1.6 5.6 3.7 7.5 2.1 1.9 4.7 2.8 7.8 2.8 4.9 0 8.7-1.8 11.4-5.3l6.2 7c-1.9 2.7-4.5 4.8-7.7 6.3-3.1 1.4-6.7 2.2-10.7 2.2zm-1.4-39c-2.5 0-4.6.9-6.1 2.6-1.6 1.7-2.6 4.1-3 7.3h17.6v-1c-.1-2.8-.8-5-2.3-6.5-1.4-1.6-3.5-2.4-6.2-2.4zM233.6 328.4l.4 5.5c3.4-4.2 7.9-6.4 13.6-6.4 5 0 8.8 1.5 11.2 4.4 2.5 3 3.7 7.4 3.8 13.2v30.7H250v-30.4c0-2.7-.6-4.7-1.8-5.9-1.2-1.2-3.1-1.8-5.8-1.8-3.6 0-6.2 1.5-8 4.6v33.5h-12.7v-47.4h11.9zM290 360.3l8.8-32H312l-16 47.4h-12.1l-16-47.4h13.2l8.9 32zM338.9 376.7c-7 0-12.6-2.1-17-6.4-4.4-4.3-6.6-10-6.6-17.1V352c0-4.8.9-9 2.8-12.8 1.8-3.8 4.5-6.6 7.8-8.7 3.4-2 7.2-3 11.6-3 6.5 0 11.6 2 15.3 6.1 3.7 4.1 5.6 9.9 5.6 17.4v5.2h-30.2c.4 3.1 1.6 5.6 3.7 7.5 2.1 1.9 4.7 2.8 7.8 2.8 4.9 0 8.7-1.8 11.4-5.3l6.2 7c-1.9 2.7-4.5 4.8-7.7 6.3-3.2 1.4-6.8 2.2-10.7 2.2zm-1.5-39c-2.5 0-4.6.9-6.1 2.6-1.6 1.7-2.6 4.1-3 7.3h17.6v-1c-.1-2.8-.8-5-2.3-6.5-1.4-1.6-3.5-2.4-6.2-2.4zM392.2 340.2c-1.7-.2-3.2-.4-4.6-.4-4.8 0-7.9 1.6-9.4 4.9v31h-12.7v-47.4h12l.4 5.7c2.5-4.4 6.1-6.5 10.6-6.5 1.4 0 2.7.2 3.9.6l-.2 12.1zM463.9 375.8h-43.8v-8.7l20.7-22c2.8-3.1 4.9-5.8 6.3-8.1 1.4-2.3 2-4.5 2-6.6 0-2.8-.7-5.1-2.1-6.7-1.4-1.6-3.5-2.4-6.1-2.4-2.9 0-5.1 1-6.8 3-1.7 2-2.5 4.6-2.5 7.8h-12.7c0-3.9.9-7.4 2.8-10.7 1.9-3.2 4.5-5.7 7.9-7.6 3.4-1.8 7.2-2.7 11.5-2.7 6.6 0 11.7 1.6 15.3 4.7 3.6 3.2 5.5 7.6 5.5 13.4 0 3.2-.8 6.4-2.5 9.6s-4.4 7.1-8.4 11.4l-14.5 15.3H464v10.3zM514.7 349.4c0 8.8-1.8 15.6-5.5 20.3s-9 7-16 7-12.3-2.3-16-6.9c-3.7-4.6-5.6-11.2-5.7-19.7v-11.8c0-8.9 1.9-15.7 5.5-20.3 3.7-4.6 9-6.9 16-6.9s12.3 2.3 16 6.9c3.7 4.6 5.6 11.1 5.7 19.7v11.7zM502 336.5c0-5.3-.7-9.2-2.2-11.6-1.4-2.4-3.7-3.6-6.8-3.6-3 0-5.2 1.2-6.6 3.4-1.4 2.3-2.2 5.9-2.3 10.8V351c0 5.2.7 9.1 2.1 11.6 1.4 2.5 3.7 3.8 6.8 3.8 3.1 0 5.3-1.2 6.7-3.6 1.4-2.4 2.1-6.1 2.1-11.1v-15.2zM554 375.8h-12.7v-48.9l-15.1 4.7v-10.2l26.4-9.5h1.4v63.9zM618.2 319l-24.7 56.8h-13.4l24.7-53.6h-31.7V312h45.1v7z"/><g><path class="st0" d="M78.2 260.1c0-5.6-2-9.9-5.9-13-3.9-3-11.1-6.1-21.4-9.2-10.3-3.1-18.5-6.5-24.6-10.3-11.6-7.3-17.5-16.8-17.5-28.6 0-10.3 4.2-18.8 12.6-25.4 8.4-6.7 19.3-10 32.7-10 8.9 0 16.8 1.6 23.8 4.9 7 3.3 12.4 7.9 16.4 14 4 6 6 12.8 6 20.1H78.2c0-6.6-2.1-11.8-6.3-15.5-4.2-3.7-10.2-5.6-17.9-5.6-7.2 0-12.9 1.5-16.9 4.6-4 3.1-6 7.4-6 12.9 0 4.7 2.2 8.5 6.5 11.7s11.5 6.1 21.4 9.1c9.9 2.9 17.9 6.3 23.9 10.1s10.4 8.1 13.2 13c2.8 4.9 4.2 10.6 4.2 17.1 0 10.6-4.1 19.1-12.2 25.4-8.2 6.3-19.2 9.4-33.2 9.4-9.2 0-17.7-1.7-25.5-5.1-7.7-3.4-13.8-8.1-18.1-14.2-4.3-6-6.4-13-6.4-21h22.2c0 7.2 2.4 12.9 7.2 16.8 4.8 4 11.7 6 20.6 6 7.7 0 13.5-1.6 17.4-4.7 4-3.3 5.9-7.4 5.9-12.5zM175.3 283.7c-6.3 7.4-15.1 11-26.7 11-10.3 0-18.1-3-23.4-9-5.3-6-7.9-14.7-7.9-26.1v-61.5h21.3v61.2c0 12 5 18.1 15 18.1 10.3 0 17.3-3.7 21-11.1v-68.1h21.3v94.9h-20.1l-.5-9.4zM237.7 198.1l.6 9.9c6.7-7.8 15.8-11.7 27.4-11.7 12.7 0 21.4 4.9 26 14.6 6.9-9.7 16.6-14.6 29.1-14.6 10.5 0 18.3 2.9 23.4 8.7 5.1 5.8 7.7 14.3 7.9 25.6V293h-21.3v-61.7c0-6-1.3-10.4-3.9-13.2-2.6-2.8-7-4.2-13.1-4.2-4.9 0-8.8 1.3-11.9 3.9-3.1 2.6-5.2 6-6.4 10.2l.1 65.1h-21.3v-62.4c-.3-11.2-6-16.8-17.1-16.8-8.5 0-14.6 3.5-18.2 10.4v68.8h-21.3v-94.9h20zM393.9 198.1l.6 9.9c6.7-7.8 15.8-11.7 27.4-11.7 12.7 0 21.4 4.9 26 14.6 6.9-9.7 16.6-14.6 29.1-14.6 10.5 0 18.3 2.9 23.4 8.7 5.1 5.8 7.7 14.3 7.9 25.6V293H487v-61.7c0-6-1.3-10.4-3.9-13.2-2.6-2.8-7-4.2-13.1-4.2-4.9 0-8.8 1.3-11.9 3.9-3.1 2.6-5.2 6-6.4 10.2l.1 65.1h-21.3v-62.4c-.3-11.2-6-16.8-17.1-16.8-8.5 0-14.6 3.5-18.2 10.4v68.8h-21.3v-94.9h20zM530.2 173.3c0-3.3 1-6 3.1-8.2 2.1-2.2 5-3.3 8.9-3.3s6.8 1.1 8.9 3.3c2.1 2.2 3.2 4.9 3.2 8.2 0 3.2-1.1 5.9-3.2 8.1-2.1 2.1-5.1 3.2-8.9 3.2s-6.8-1.1-8.9-3.2c-2.1-2.1-3.1-4.8-3.1-8.1zm22.6 119.6h-21.3V198h21.3v94.9zM602.7 175v23.1h16.8v15.8h-16.8v53c0 3.6.7 6.2 2.1 7.9 1.4 1.6 4 2.4 7.7 2.4 2.5 0 4.9-.3 7.5-.9v16.5c-4.9 1.3-9.5 2-14 2-16.4 0-24.6-9-24.6-27.1v-53.8h-15.6v-15.8h15.6V175h21.3z"/></g><g><path class="st0" d="M289.9 148.8l8.6-18.8c9 5.1 18.1 8.1 29.8 8.1 17.1 0 25.2-8.2 25.2-24v-4.3c-7.4 8.9-15.5 14.3-28.8 14.3-20.6 0-39.2-15-39.2-41.1v-.3c0-26.3 18.9-41.1 39.2-41.1 13.7 0 21.7 5.8 28.5 13.2V43.2h25v68.3c0 15.8-3.8 27.3-11.2 34.7-8.2 8.2-20.9 11.8-38 11.8-14.5 0-27.9-3.3-39.1-9.2zM353.4 83v-.3c0-12-9.4-20.4-21.6-20.4-12.2 0-21.4 8.4-21.4 20.4v.3c0 12.2 9.2 20.4 21.4 20.4S353.4 95 353.4 83zM384.2 87.4v-.3c0-29.4 19.2-45.6 40.1-45.6 13.3 0 21.6 6.1 27.5 13.2V11.3h25v120.1h-25v-12.7c-6.1 8.2-14.5 14.3-27.5 14.3-20.5 0-40.1-16.1-40.1-45.6zm67.9 0v-.3c0-14.6-9.7-24.3-21.4-24.3s-21.6 9.5-21.6 24.3v.3c0 14.6 9.9 24.3 21.6 24.3 11.7.1 21.4-9.6 21.4-24.3zM488.8 11.3h26.3v22.2h-26.3V11.3zm.7 31.9h25v88.2h-25V43.2zM589.7 103.9s-22.4-34-22.6-70.9c-.2-30.9 33.5-37.6 42.9-20.4 10.6 19.5-5 36.3-11.3 47.8-7.6 13.9-9 43.5-9 43.5M597.3 146.9s-7.9-8.8-19.4-15.5c-9-5.3-20.3-8.3-30.5-11.1-25.9-7.1-11.9-51.9 22-27.2 16 11.5 22.2 34.3 27.9 53.8M606 139.3c-7.6-10.6-15.6-35.2-2.5-41.2 15-7 18.5 11.7 11.5 17.4-7.3 5.9-9 23.8-9 23.8"/></g></svg>