<svg viewBox="0 0 177 108" xmlns="http://www.w3.org/2000/svg"><title>GDI</title><g fill-rule="nonzero" fill="#512C57"><path d="M8.96 70.2l4.11-9.058c4.355 2.473 8.745 3.902 14.354 3.902 8.257 0 12.124-3.972 12.124-11.601v-2.056c-3.554 4.285-7.455 6.898-13.9 6.898-9.93 0-18.883-7.211-18.883-19.823v-.174c.07-12.682 9.162-19.823 18.952-19.823 6.585 0 10.487 2.787 13.727 6.34v-5.54h12.054v32.923c0 7.63-1.812 13.17-5.4 16.758-3.972 3.971-10.069 5.713-18.325 5.713-6.899 0-13.413-1.602-18.813-4.459zm30.623-31.738v-.174c0-5.783-4.53-9.825-10.382-9.825-5.888 0-10.312 4.042-10.312 9.825v.174c0 5.888 4.459 9.824 10.312 9.824s10.382-4.04 10.382-9.824zM54.459 40.622v-.174c0-14.214 9.267-21.983 19.37-21.983 6.41 0 10.382 2.926 13.239 6.34V3.867h12.054v57.937H87.068v-6.097c-2.926 3.972-6.968 6.898-13.239 6.898-9.929-.035-19.37-7.804-19.37-21.983zm32.783 0v-.174c0-7.073-4.668-11.74-10.312-11.74-5.644 0-10.382 4.598-10.382 11.74v.174c0 7.072 4.773 11.74 10.382 11.74s10.312-4.703 10.312-11.74zM104.94 3.867h12.682v10.696H104.94V3.867zm.314 15.399h12.054v42.538h-12.054V19.266zM11.503 97.409c-.453.348-.871.697-1.29.976-.173.104-.382.243-.557.348-.209.104-.383.209-.592.313a2.227 2.227 0 0 1-.557.21c-.174.07-.349.07-.488.07-.105 0-.209-.036-.383-.07a1.512 1.512 0 0 1-.558-.244c-.209-.105-.418-.314-.627-.523a2.818 2.818 0 0 1-.522-.906c-.244.244-.488.453-.732.662a6.558 6.558 0 0 1-.801.558c-.279.174-.558.278-.836.383-.28.104-.558.14-.836.14-.419 0-.767-.07-1.046-.245a2.634 2.634 0 0 1-.731-.662 2.298 2.298 0 0 1-.418-.94 3.832 3.832 0 0 1-.14-1.08c0-.418.035-.802.14-1.22.104-.418.244-.8.453-1.184.209-.383.418-.801.662-1.22.243-.418.557-.8.94-1.15a4.191 4.191 0 0 1 1.22-.766 4.322 4.322 0 0 1 1.323-.313c.035-.801.105-1.498.244-2.125.14-.627.314-1.255.488-1.986.174-.697.383-1.359.662-1.951a8.904 8.904 0 0 1 .906-1.533 4.73 4.73 0 0 1 1.045-1.01c.383-.244.766-.384 1.15-.384.278 0 .522.07.731.244.21.14.383.349.488.593.14.243.209.557.279.87.07.349.07.662.07 1.01v.698c0 .87-.14 1.707-.419 2.473-.244.767-.522 1.533-.766 2.265a19.954 19.954 0 0 1-.906 2.23c-.523 1.114-.871 1.88-1.045 2.264-.035.07-.07.209-.105.313-.035.14-.07.244-.104.418-.035.14-.07.28-.07.453-.035.14-.035.314-.035.453a2.637 2.637 0 0 0 .14.94c.034.14.104.245.209.314.07.07.174.105.313.105.105 0 .244-.035.383-.07a1.7 1.7 0 0 0 .453-.209c.14-.07.314-.174.453-.278.174-.105.314-.21.453-.314.349-.244.697-.523 1.08-.836l.279 1.916zm-6.445-5.47a3.493 3.493 0 0 0-1.08.802c-.314.313-.593.766-.802 1.289-.209.522-.383 1.01-.487 1.393-.105.383-.175.732-.175 1.045 0 .105 0 .21.035.28.035.104.07.173.14.243s.174.14.313.174c.14.035.314.07.523.07.104 0 .209-.035.313-.07.105-.035.21-.104.314-.174a1.06 1.06 0 0 0 .279-.279c.104-.104.174-.209.243-.313a4.08 4.08 0 0 0 .488-.871c-.035-.105-.035-.21-.035-.418 0-.175-.034-.488-.034-.871 0-.384 0-.697-.035-.976v-.697-.522c.035-.035 0-.105 0-.105zm4.39-6.305c.034-.419.07-.767.07-1.046 0-.348-.036-.557-.105-.696-.07-.14-.14-.21-.244-.21-.21 0-.384.14-.558.384-.174.244-.278.557-.383.975-.104.384-.209.836-.314 1.29-.104.452-.209.905-.243 1.358-.07.453-.105.836-.14 1.22-.035.348-.07.592-.07.766-.034.313-.034.592-.07.87 0 .28-.034.558-.034.767v1.15c.348-.836.662-1.637.94-2.474.105-.348.245-.696.35-1.08.104-.383.243-.766.347-1.114.105-.384.21-.732.28-1.115.069-.384.139-.732.173-1.045z"/><path d="M15.718 92.218a5.6 5.6 0 0 1 .418 1.15c.105.383.14.836.14 1.358 0 .349-.035.732-.105 1.115-.07.384-.209.732-.348 1.08-.14.349-.349.662-.558.976-.209.313-.487.557-.766.801a4.702 4.702 0 0 1-.906.523c-.348.139-.697.209-1.08.209-.557 0-1.01-.105-1.393-.349a3.03 3.03 0 0 1-.941-.94 4.806 4.806 0 0 1-.557-1.29 6.993 6.993 0 0 1-.175-1.463c0-.8.105-1.533.314-2.09.209-.592.488-1.115.87-1.533a4.72 4.72 0 0 1 1.394-1.045 4.606 4.606 0 0 1 1.847-.383c.592 0 1.15.104 1.637.278a5.54 5.54 0 0 1 1.429.732c.453.314.87.697 1.254 1.15.383.453.732.906 1.08 1.324l-.174 1.324a10.466 10.466 0 0 0-.662-.732c-.279-.244-.592-.558-.906-.871a6.401 6.401 0 0 0-.94-.801c-.314-.21-.558-.418-.802-.558l-.07.035zm-2.856 5.365c.209 0 .418-.104.627-.313a2.66 2.66 0 0 0 .522-.802c.14-.313.279-.731.349-1.184a5.45 5.45 0 0 0 .139-1.22c0-.278-.035-.557-.07-.8a1.665 1.665 0 0 0-.209-.628 1.024 1.024 0 0 0-.348-.418.832.832 0 0 0-.488-.174c-.244 0-.488.104-.731.313-.244.21-.419.488-.593.837a5.281 5.281 0 0 0-.418 1.114c-.104.418-.14.871-.14 1.394 0 .244.036.488.07.732.035.243.14.418.244.592a1.2 1.2 0 0 0 .418.418c.175.07.384.14.628.14z"/><path d="M17.042 97.409c0-.418.035-.87.07-1.428.035-.523.104-1.115.174-1.777.07-.627.174-1.22.244-1.742.104-.523.174-.94.279-1.324a1.51 1.51 0 0 1 .383-.697c.209-.174.453-.278.801-.278.349 0 .558.104.697.313.14.21.209.488.209.801 0 .105 0 .21-.035.384-.035.174-.035.313-.07.522-.034.174-.07.383-.104.592-.035.21-.07.419-.105.697-.034.244-.034.453-.07.593-.034.139-.034.209-.034.243h.174c.035-.07.105-.174.174-.313.07-.14.175-.383.279-.662a5.13 5.13 0 0 1 .348-.767c.105-.209.244-.418.349-.627.104-.209.209-.383.279-.522.07-.14.139-.279.209-.349.209-.348.418-.557.661-.696.244-.14.523-.175.837-.175.313 0 .557.14.731.384.174.244.279.627.279 1.08 0 .07 0 .174-.035.348s-.07.348-.104.557c-.035.21-.105.523-.14.871-.035.349-.104.662-.14.941l-.104.836c-.034.279-.034.523-.034.767 0 .383.034.696.139.94.104.244.244.384.453.384.07 0 .174-.035.313-.07.21-.07.349-.14.384-.21l.418-.313c.034 0 .209-.104.627-.383a430.4 430.4 0 0 0 1.776-1.15v2.09l-.452.35c-.035.034-.314.208-.871.487-.802.418-1.29.662-1.464.766-.487.21-.766.349-.905.383-.314.105-.628.14-.976.14s-.627-.244-.87-.732c-.245-.488-.35-1.22-.35-2.16 0-.383.036-.766.07-1.184.035-.418.105-.906.175-1.394h-.14l-2.438 4.808c-.14.244-.28.418-.419.522-.139.105-.348.14-.522.14-.244 0-.453-.07-.627-.174a.935.935 0 0 1-.349-.453 2.702 2.702 0 0 1-.174-.627c.035-.244 0-.488 0-.732M26.344 87.445v-.418c0-.174.035-.383.035-.592 0-.21.035-.453.035-.662.035-.244.035-.488.07-.697.034-.522.104-1.115.139-1.742a.8.8 0 0 1 .14-.488c.104-.139.208-.278.348-.383.139-.104.313-.174.487-.244.175-.07.384-.07.558-.07.174 0 .313.036.453.07.139.035.278.105.383.175.104.07.209.174.279.313.07.14.104.279.104.453 0 .07 0 .14-.035.244 0 .07-.035.174-.07.244-.104.313-.174.627-.313.975-.104.349-.209.697-.348 1.045a8.602 8.602 0 0 1-.349 1.01c-.104.314-.209.593-.278.802-.105.314-.244.523-.453.662-.21.14-.384.209-.593.209a.627.627 0 0 1-.522-.244c0-.104-.07-.348-.07-.662M39.687 97.27c-.592.348-1.114.662-1.602.905-.453.244-.871.488-1.254.662a5.085 5.085 0 0 1-.976.384c-.279.07-.522.139-.766.139-.453 0-.871-.14-1.22-.418-.348-.279-.662-.697-.905-1.22-.244-.522-.419-1.184-.523-1.95a18.76 18.76 0 0 1-.174-2.578c0-.384 0-.767.035-1.185.034-.418.07-.836.139-1.254-.174-.035-.348-.07-.418-.07-.105-.035-.21-.035-.314-.07-.104-.034-.244-.034-.453-.07a8.242 8.242 0 0 0-.766-.104c-.14-.035-.279-.07-.348-.104a.924.924 0 0 1-.175-.21.646.646 0 0 1-.07-.243v-.21c0-.104.07-.173.175-.208.104-.035.279-.105.453-.105.174-.035.383-.035.627-.035h1.568c.174-.836.383-1.637.627-2.403.244-.767.557-1.464.87-2.09.314-.593.663-1.08 1.046-1.464.383-.383.766-.557 1.184-.557.28 0 .523.07.732.209.209.139.418.348.557.592.14.244.28.522.349.87.07.314.14.663.14 1.046 0 .314-.036.627-.14.94-.07.314-.21.663-.349 1.011-.139.348-.313.697-.522 1.045l-.627 1.045c.07-.035.14-.035.278 0 .14 0 .28.035.453.035H38.433c.174 0 .349 0 .523.035.174 0 .278 0 .383.035.14 0 .209.07.279.209.07.14.07.313.07.488 0 .243-.07.418-.175.557-.14.14-.244.21-.418.21h-3.553c-.175.243-.349.487-.558.73a4.976 4.976 0 0 1-.522.628c-.035.383-.035.766-.07 1.115 0 .174 0 .313-.035.487 0 .175 0 .349-.035.488V95.493c0 .348.035.627.105.836.07.244.14.418.278.557.105.14.28.244.419.314.174.07.348.105.557.105.14 0 .279-.035.488-.105.209-.07.418-.14.627-.244.244-.104.488-.244.731-.383.244-.14.523-.314.767-.488s.488-.348.731-.557c.244-.21.419-.383.628-.593v2.335h.034zm-2.96-11.741v-.209a.646.646 0 0 0-.07-.244c-.035-.07-.07-.14-.14-.174a.656.656 0 0 0-.279-.07c-.174 0-.313.14-.487.418-.175.279-.314.627-.488 1.08-.14.453-.279.906-.418 1.464-.14.522-.244 1.045-.383 1.532.104 0 .174.035.278.035.105 0 .174 0 .279.035.174-.313.383-.662.592-1.01.21-.349.383-.732.558-1.08.174-.349.278-.662.383-.976.104-.348.174-.592.174-.801zM47.387 91.87c.348-.418.662-.767.94-1.01.28-.245.558-.384.871-.384.349 0 .697.07.976.244s.522.383.731.627c.21.279.349.558.453.906.105.348.175.697.175 1.08 0 .313 0 .627-.035.906-.035.278-.07.557-.14.836-.07.279-.139.522-.278.801-.105.279-.28.558-.453.836.209-.14.453-.244.662-.383.244-.14.453-.279.696-.418.244-.14.453-.314.697-.488.244-.174.488-.418.732-.662l.697 1.533c-.349.314-.662.592-1.01.801-.35.244-.697.419-1.046.593-.348.174-.731.313-1.115.453-.383.139-.801.244-1.22.348a2.171 2.171 0 0 1-.417.314 2.778 2.778 0 0 1-.558.278c-.209.105-.905.279-.905.279-.976 0-1.498 0-1.568-.035-.732-.209-1.22-.348-1.394-.488-.348-.243-.696-.452-1.01-.696.035-.488.07-1.08.105-1.707.034-.558.104-1.22.209-2.021.139-1.185.243-2.02.348-2.578.07-.627.14-1.29.209-2.02.105-.558.209-1.29.383-2.126.14-.836.349-1.637.592-2.369.244-.732.523-1.359.837-1.916.313-.558.627-1.01 1.01-1.359.348-.348.766-.522 1.184-.522.453 0 .837.07 1.115.243.279.175.488.384.662.662.14.28.244.593.314.976.035.383.07.766.07 1.184 0 .593-.105 1.185-.314 1.812-.21.627-.523 1.254-.871 1.846-.348.628-.732 1.22-1.185 1.812-.452.592-.87 1.15-1.289 1.672l.14.14zm.836.662c-.21 0-.418.034-.662.139a2.289 2.289 0 0 0-.592.418c-.175.174-.349.453-.488.732-.279.592-.383.94-.314 1.08 0 0-.034.383-.139 1.114-.035.28-.07.523-.07.732-.034.244-.07.488-.07.697.21.07.419.104.628.174a1.5 1.5 0 0 0 .557 0c.21-.035.383-.035.558-.035.209 0 .418-.07.557-.174.174-.14.314-.279.453-.488.14-.209.244-.453.348-.731.105-.279.175-.558.244-.836.07-.28.105-.558.14-.871.034-.28.034-.558.034-.767 0-.14-.034-.313-.034-.453a1.288 1.288 0 0 0-.175-.383c-.104-.105-.209-.209-.383-.244a1.501 1.501 0 0 0-.592-.104zm.906-8.466v-.174a.646.646 0 0 0-.07-.244c-.035-.07-.07-.174-.14-.244a.316.316 0 0 0-.243-.105c-.14 0-.244.105-.383.28-.14.173-.28.417-.384.73-.139.314-.244.663-.383 1.046-.14.383-.244.801-.348 1.22-.105.417-.21.87-.314 1.323-.104.453-.174.871-.279 1.254-.07.383-.174.767-.243 1.08-.07.314-.14.593-.175.802.175-.314.349-.662.558-1.01.209-.35.418-.698.627-1.08l.627-1.15c.209-.384.383-.802.557-1.22.175-.418.314-.836.418-1.254.07-.383.14-.801.175-1.254z"/><path d="M56.305 99.36c-.592 0-1.08-.105-1.498-.314-.418-.209-.8-.487-1.08-.87-.278-.349-.487-.767-.662-1.255a5.366 5.366 0 0 1-.209-1.498c0-.348.07-.731.21-1.22.139-.487.278-.905.418-1.253.139-.349.313-.697.522-1.045.21-.349.453-.628.732-.871.278-.244.592-.453.94-.593.349-.14.732-.209 1.15-.209.348 0 .662.07.976.174.313.105.557.28.766.453.209.21.383.453.523.732.139.279.174.592.174.94 0 .384-.14.802-.383 1.255a5.215 5.215 0 0 1-.871 1.184 4.958 4.958 0 0 1-1.185.871 7.065 7.065 0 0 1-1.498.593c.104.174.174.313.279.418.104.104.174.209.278.243.105.07.175.105.28.14.104.035.208.035.313.035.383 0 .766-.07 1.184-.21.418-.139.801-.313 1.185-.557a12.01 12.01 0 0 0 1.115-.697 6.41 6.41 0 0 0 .87-.731l1.185 1.22a11.94 11.94 0 0 1-1.742 1.532c-.279.174-.557.383-.87.558a8.49 8.49 0 0 1-.976.487c-.349.14-.697.244-1.046.349-.348.104-.731.139-1.08.139m-1.254-4.425c.21 0 .453-.07.732-.174.279-.104.522-.244.731-.418.21-.174.453-.418.662-.697.21-.313.314-.557.314-.731 0-.279-.035-.488-.14-.662-.104-.174-.243-.279-.383-.279-.278 0-.487.035-.696.14-.175.104-.349.209-.488.383-.14.14-.244.313-.314.522-.07.21-.174.453-.278.732-.105.279-.175.523-.175.732.035.174.035.313.035.452M64.562 95.841c.349-.313.627-.557.836-.731.21-.21.418-.418.662-.697.21-.279.384-.488.523-.662.14-.174.279-.383.453-.592.174-.244.383-.523.627-.836.244-.349.557-.767.975-1.255.07-.104.175-.209.28-.313.104-.105.208-.21.313-.279.104-.07.243-.14.383-.209.14-.07.313-.07.488-.07.313 0 .522.035.696.105.175.07.28.14.349.244.07.104.104.209.14.279 0 .104.034.209.034.278 0 .14-.07.314-.174.488a4.985 4.985 0 0 1-.383.523c-.14.174-.28.313-.419.452-.139.14-.209.244-.209.314 0 .209 0 .383.035.523.035.174.07.313.105.452.035.14.104.314.14.488.034.174.104.383.138.592.035.21.035.523.035.941-.035.383-.035.801-.035 1.185.21-.14.453-.28.732-.418.244-.105.523-.244.801-.384.28-.139.558-.278.871-.453.28-.174.593-.348.871-.592v2.09a9.516 9.516 0 0 1-1.324.802c-.487.244-1.045.488-1.602.662-.558.174-1.115.348-1.672.453a8.993 8.993 0 0 1-1.603.174 4.73 4.73 0 0 1-1.01-.105 2.976 2.976 0 0 1-.836-.313 1.803 1.803 0 0 1-.593-.558 1.822 1.822 0 0 1-.278-.8c-.07.034-.175.034-.244.034h-.523a.374.374 0 0 1-.209-.07c-.07-.035-.104-.104-.14-.209a1.075 1.075 0 0 1-.069-.383c0-.14.035-.279.105-.418.07-.14.174-.244.243-.348.105-.105.21-.175.28-.28.104 0 .173-.034.208-.104zm1.185 1.22c.07 0 .14.034.244.139l.313.314c.105.104.244.209.418.313.14.105.349.14.523.14.244 0 .453-.035.592-.14a.852.852 0 0 0 .383-.313 1.08 1.08 0 0 0 .21-.453c.034-.175.069-.349.069-.558 0-.174 0-.348-.035-.522-.035-.175-.035-.384 0-.662.035-.244.035-.453-.035-.593-.035-.139-.07-.243-.104-.348l-2.578 2.683z"/><path d="M75.85 93.681c.244-.348.523-.696.836-1.115.314-.383.732-.836 1.254-1.358.523-.523.976-.871 1.29-1.115.348-.21.661-.348.94-.348.07 0 .174 0 .244.034.104.035.174.07.279.14.07.07.139.174.209.313.07.14.07.314.07.523 0 .418-.07.836-.175 1.254-.104.418-.348.906-.662 1.463-.313.593-.557 1.08-.662 1.498a5.514 5.514 0 0 0-.174 1.324c0 .244.035.453.105.592.07.14.174.21.278.21.14 0 .314-.035.488-.105.174-.07.348-.14.488-.244.174-.104.313-.209.487-.348.175-.14.314-.244.453-.384.349-.313.662-.696 1.01-1.08l.175 2.474c-.105.07-.244.174-.418.314-.174.104-.349.243-.558.383-.209.14-.418.279-.662.418-.243.14-.487.279-.731.383-.244.105-.488.21-.732.279-.244.07-.488.104-.697.104a1.84 1.84 0 0 1-.905-.244 2.285 2.285 0 0 1-.627-.661c-.175-.28-.28-.558-.384-.871-.07-.314-.139-.628-.139-.906 0-.21.035-.418.07-.662.07-.244.104-.488.209-.732.07-.244.174-.488.278-.731.105-.244.21-.453.28-.628.069-.174.173-.348.208-.452.07-.105.105-.175.14-.21l-.21-.034c-.104.07-.278.244-.522.522-.244.279-.523.627-.836 1.045-.314.419-.627.871-.976 1.429a14.533 14.533 0 0 0-.906 1.602c-.139.28-.243.523-.348.732-.07.21-.174.383-.244.488-.07.14-.174.209-.279.278a.626.626 0 0 1-.383.105.755.755 0 0 1-.487-.174 1.121 1.121 0 0 1-.28-.453 1.688 1.688 0 0 1-.104-.627c-.035-.244-.035-.453-.035-.697v-1.672c0-.697.035-1.463.105-2.3.035-.836.14-1.707.279-2.612.139-.906.278-1.777.383-2.683.14-.871.313-1.742.592-2.543a9.123 9.123 0 0 1 .94-2.125c.384-.593.802-1.08 1.29-1.464a2.911 2.911 0 0 1 1.707-.522c.348 0 .592.035.836.14.21.104.383.243.523.417.139.174.209.383.278.662.035.244.07.523.07.836 0 .453-.07.976-.209 1.533-.14.558-.314 1.15-.523 1.742a25.31 25.31 0 0 1-.731 1.847c-.279.627-.558 1.219-.836 1.811a23.68 23.68 0 0 1-.836 1.638c-.28.522-.523.975-.732 1.358l.209.21zm.801-5.818c.349-.94.627-1.742.802-2.404.174-.662.243-1.114.243-1.428 0-.453-.07-.697-.209-.697-.174 0-.383.279-.696.801-.314.523-.697 1.29-1.115 2.3-.105.348-.21.697-.279 1.045a5.909 5.909 0 0 0-.209 1.08c-.07.348-.104.732-.14 1.08-.034.348-.104.697-.139 1.01-.139.732-.244 1.464-.313 2.16.174-.383.348-.801.557-1.254.21-.453.383-.906.592-1.359.175-.452.384-.87.558-1.254.104-.453.244-.801.348-1.08z"/><path d="M86.058 99.5l.209-1.115a6.057 6.057 0 0 1-1.045.696c-.349.174-.697.279-1.046.279-.313 0-.592-.07-.87-.174a1.779 1.779 0 0 1-.732-.523 2.453 2.453 0 0 1-.523-.836c-.14-.313-.209-.697-.209-1.115 0-.522.035-1.045.105-1.463.07-.453.174-1.01.278-1.672a8.57 8.57 0 0 1 .384-1.568 8.39 8.39 0 0 1 .522-1.15c.14-.278.349-.487.627-.627.28-.14.523-.209.767-.209.209 0 .418.07.557.174a.63.63 0 0 1 .244.523c0 .07 0 .14-.035.209 0 .07-.035.174-.07.244a5.951 5.951 0 0 0-.278 1.01c-.07.383-.174.906-.314 1.568-.139.662-.209 1.184-.313 1.568-.07.383-.105.731-.105 1.01 0 .14 0 .314.035.453.035.14.07.279.105.383.07.105.139.21.209.279.104.07.209.104.348.104.244 0 .418-.104.627-.313a3.707 3.707 0 0 0 .801-1.603c.07-.313.14-.557.175-.731l.731-3.45c.035-.208.14-.383.244-.557.14-.174.279-.313.453-.418.174-.104.348-.209.523-.244.174-.07.348-.07.522-.07a.8.8 0 0 1 .488.14c.14.07.209.209.209.383 0 .07 0 .105-.035.21-.035.173-.07.382-.104.661-.035.279-.105.592-.175.94-.07.35-.139.837-.243 1.499-.105.627-.21 1.15-.28 1.533-.139.906-.313 1.916-.487 2.961.174-.104.383-.244.592-.383.21-.14.453-.349.732-.627.279-.244.557-.593.906-.976.313-.383.697-.87 1.115-1.463l.452 2.055a4.74 4.74 0 0 1-.418.593 4.756 4.756 0 0 1-.592.592c-.313.279-.522.488-.662.557-.035.035-.278.21-.662.523-.14.105-.522.383-1.22.836-.173.105-.278.314-.347.592-.07.28-.14.837-.21 1.638-.034.209-.07.418-.07.522-.034.28-.069.593-.104.837-.035.278-.104.557-.174.905a3.73 3.73 0 0 1-.313.941c-.105.279-.28.557-.453.87-.175.28-.418.524-.627.733-.244.209-.523.348-.837.487-.313.14-.696.174-1.08.174a3.51 3.51 0 0 1-.87-.104 2.323 2.323 0 0 1-.732-.314 1.824 1.824 0 0 1-.558-.592c-.139-.244-.209-.557-.243-.906-.035-.662.139-1.358.522-2.09.244-.418.383-.697.488-.836.104-.174.244-.383.418-.697.209-.279.418-.557.627-.801.418-.488.801-.871 1.08-1.185.21-.209.557-.522.94-.87m.036 2.229c-.419.314-.871.801-1.29 1.498-.418.697-.766 1.359-1.01 2.09-.209.593-.104.906.314.906.14 0 .278-.035.383-.07a.823.823 0 0 0 .314-.208c.104-.105.174-.21.243-.314.07-.105.14-.279.244-.488.07-.209.174-.418.21-.627.069-.209.139-.453.243-.801a2.95 2.95 0 0 0 .14-.592c.034-.21.07-.488.104-.802.07-.313.105-.487.105-.592M96.265 97.723v.174c0 .104-.034.209-.07.313-.034.105-.069.244-.173.384-.07.139-.175.243-.314.383-.14.104-.279.209-.488.278-.209.07-.453.105-.731.105-.244 0-.453-.035-.627-.07-.175-.07-.349-.139-.488-.244a.951.951 0 0 1-.314-.418 1.688 1.688 0 0 1-.104-.627c0-.209.035-.418.104-.592.07-.209.174-.383.314-.523.14-.139.313-.278.522-.348.21-.104.488-.14.767-.14.522 0 .906.105 1.184.35.28.208.418.557.418.975M114.382 97.409c-.453.348-.871.697-1.29.976-.174.104-.383.243-.557.348-.209.104-.383.209-.592.313a1.821 1.821 0 0 1-.558.21c-.174.07-.348.07-.487.07-.105 0-.21-.036-.384-.07a1.512 1.512 0 0 1-.557-.244c-.209-.105-.418-.314-.627-.523a2.818 2.818 0 0 1-.523-.906c-.243.244-.487.453-.731.662a6.558 6.558 0 0 1-.802.558c-.278.174-.557.278-.836.383-.278.104-.557.14-.836.14-.418 0-.766-.07-1.045-.245a2.634 2.634 0 0 1-.732-.662 2.943 2.943 0 0 1-.452-.94 3.832 3.832 0 0 1-.14-1.08c0-.418.035-.802.14-1.22.104-.418.243-.8.452-1.184.21-.383.419-.801.662-1.22.244-.418.558-.8.941-1.15a4.191 4.191 0 0 1 1.22-.766 4.322 4.322 0 0 1 1.323-.313c.035-.801.105-1.498.244-2.125.14-.627.314-1.255.488-1.986.174-.697.418-1.359.662-1.951a8.904 8.904 0 0 1 .906-1.533 4.73 4.73 0 0 1 1.045-1.01c.383-.244.766-.384 1.15-.384.278 0 .522.07.731.244.21.14.383.349.488.593.14.243.209.557.279.87.07.349.07.662.07 1.01v.698c0 .87-.14 1.707-.419 2.473-.244.767-.522 1.533-.766 2.265a19.954 19.954 0 0 1-.906 2.23c-.558 1.114-.871 1.88-1.045 2.264-.035.07-.07.209-.105.313-.035.14-.07.244-.104.418-.035.14-.07.28-.07.453-.035.14-.035.314-.035.453a2.637 2.637 0 0 0 .14.94c.034.14.104.245.209.314.07.07.174.105.313.105.105 0 .244-.035.383-.07a1.7 1.7 0 0 0 .453-.209c.14-.07.314-.174.453-.278.174-.105.314-.21.453-.314.348-.244.697-.523 1.08-.836l.314 1.916zm-6.41-5.47a3.493 3.493 0 0 0-1.08.802c-.314.313-.593.766-.802 1.289-.21.522-.383 1.01-.488 1.393-.104.383-.174.732-.174 1.045 0 .105 0 .21.035.28.035.104.07.173.14.243.069.07.173.14.313.174.14.035.313.07.522.07.105 0 .21-.035.314-.07.104-.035.209-.104.313-.174a1.06 1.06 0 0 0 .28-.279c.104-.104.173-.209.243-.313a4.08 4.08 0 0 0 .488-.871c-.035-.105-.035-.21-.035-.418 0-.175-.035-.488-.035-.871 0-.384 0-.697-.035-.976v-.697-.522-.105zm4.354-6.305c.035-.419.07-.767.07-1.046 0-.348-.035-.557-.105-.696-.07-.14-.14-.21-.244-.21-.209 0-.383.14-.557.384-.174.244-.279.557-.383.975-.105.384-.21.836-.314 1.29-.104.452-.209.905-.244 1.358-.07.453-.104.836-.139 1.22-.035.348-.07.592-.07.766-.035.313-.035.592-.07.87-.034.28-.034.558-.034.767v1.15c.348-.836.662-1.637.94-2.474.105-.348.244-.696.349-1.08.104-.383.244-.766.348-1.114.105-.384.21-.732.279-1.115.104-.384.174-.732.174-1.045z"/><path d="M116.785 99.36c-.592 0-1.08-.105-1.498-.314-.418-.209-.8-.487-1.08-.87-.278-.349-.487-.767-.662-1.255a5.366 5.366 0 0 1-.209-1.498c0-.348.07-.731.21-1.22.139-.487.278-.905.418-1.253.139-.349.313-.697.522-1.045.21-.349.453-.628.732-.871.278-.244.592-.453.94-.593.349-.14.732-.209 1.15-.209.348 0 .662.07.976.174.278.105.557.28.766.453.209.21.383.453.523.732.139.279.174.592.174.94 0 .384-.14.802-.383 1.255a5.215 5.215 0 0 1-.871 1.184 4.958 4.958 0 0 1-1.185.871 7.065 7.065 0 0 1-1.498.593c.104.174.174.313.279.418.104.104.174.209.278.243.105.07.21.105.28.14.104.035.208.035.313.035.383 0 .766-.07 1.184-.21.418-.139.801-.313 1.185-.557a12.01 12.01 0 0 0 1.115-.697 6.41 6.41 0 0 0 .87-.731l1.185 1.22a11.94 11.94 0 0 1-1.742 1.532c-.279.174-.557.383-.87.558a8.49 8.49 0 0 1-.976.487c-.349.14-.697.244-1.046.349-.348.104-.696.139-1.08.139m-1.219-4.425c.21 0 .453-.07.732-.174.278-.104.522-.244.731-.418.21-.174.453-.418.662-.697.21-.313.314-.557.314-.731 0-.279-.035-.488-.14-.662-.104-.174-.243-.279-.383-.279-.278 0-.488.035-.697.14-.174.104-.348.209-.487.383-.14.14-.244.313-.314.522-.07.21-.174.453-.279.732-.104.279-.174.523-.174.732.035.174.035.313.035.452"/><path d="M120.478 96.364c-.034-.453-.034-.871-.07-1.22-.034-.348-.034-.661-.034-.94 0-.279-.035-.523-.035-.767v-.731c0-.836.035-1.394.105-1.777.07-.348.209-.557.418-.592l1.184-.174.105-.035h.104a.5.5 0 0 1 .383.174c.07.14.14.279.14.418l-.174 6.132h.07l2.542-6.167c.035-.07.07-.174.105-.244.07-.07.14-.14.244-.209.104-.07.209-.104.313-.14.105-.034.244-.069.384-.069.348 0 .662.07.87.21a.67.67 0 0 1 .314.557c0 .174-.035.348-.07.487-.034.21-.104.349-.174.523-.174.314-.244.523-.313.592-.279.662-.453 1.045-.488 1.15-.035.104-.07.209-.105.348-.034.105-.07.21-.07.349-.034.14-.034.278-.034.418 0 .14.035.278.07.418a.83.83 0 0 0 .209.383c.104.105.209.21.383.279a1.688 1.688 0 0 0 1.254-.035c.244-.105.488-.21.697-.314.244-.139.522-.313.766-.487v2.194c-.418.244-.836.453-1.254.628-.453.139-.836.243-1.254.243-.349 0-.627-.07-.906-.139a1.798 1.798 0 0 1-.662-.418 2.289 2.289 0 0 1-.418-.592c-.104-.21-.14-.453-.174-.662a9.354 9.354 0 0 1-.627 1.15c-.244.383-.453.731-.697 1.045a5.185 5.185 0 0 1-.732.766c-.243.21-.453.314-.662.314-.383 0-.661-.105-.905-.279a1.357 1.357 0 0 1-.453-.697 3.817 3.817 0 0 1-.21-.906 8.542 8.542 0 0 1-.069-.94l-.07-.244z"/><path d="M131.383 99.36c-.592 0-1.08-.105-1.498-.314-.418-.209-.801-.487-1.08-.87a3.592 3.592 0 0 1-.662-1.255 5.366 5.366 0 0 1-.21-1.498c0-.348.07-.731.21-1.22.14-.487.279-.905.418-1.253.14-.349.313-.697.523-1.045.209-.349.452-.628.731-.871.279-.244.592-.453.94-.593.35-.14.732-.209 1.15-.209.349 0 .662.07.976.174.313.105.557.28.766.453.21.21.384.453.523.732.104.279.174.592.174.94 0 .384-.14.802-.383 1.255a5.215 5.215 0 0 1-.871 1.184 4.958 4.958 0 0 1-1.185.871 7.065 7.065 0 0 1-1.498.593c.105.174.175.313.28.418.104.104.173.209.278.243.104.07.174.105.279.14.104.035.209.035.313.035.383 0 .767-.07 1.185-.21.418-.139.8-.313 1.184-.557a12.01 12.01 0 0 0 1.115-.697 6.41 6.41 0 0 0 .87-.731l1.185 1.22a11.94 11.94 0 0 1-1.742 1.532c-.278.174-.557.383-.87.558-.314.174-.628.348-.976.487-.348.14-.697.244-1.045.349-.349.104-.697.139-1.08.139m-1.22-4.425c.21 0 .453-.07.732-.174.279-.104.523-.244.732-.418.209-.174.453-.418.662-.697.209-.313.313-.557.313-.731 0-.279-.035-.488-.14-.662-.104-.174-.243-.279-.382-.279-.28 0-.488.035-.697.14-.174.104-.349.209-.488.383-.14.14-.244.313-.313.522-.07.21-.175.453-.28.732-.104.279-.173.523-.173.732.035.174.035.313.035.452"/><path d="M137.131 99.36c-.348 0-.627-.14-.94-.418-.28-.279-.523-.662-.732-1.15a7.086 7.086 0 0 1-.488-1.707 12.466 12.466 0 0 1-.174-2.02c0-.593.105-1.429.279-2.44.174-1.01.278-1.532.278-1.532s.14-.523.419-1.533c.278-1.01.557-1.812.8-2.439a15.59 15.59 0 0 1 .872-1.707 8.984 8.984 0 0 1 1.01-1.393 6.511 6.511 0 0 1 1.08-.941c.383-.209.767-.348 1.15-.348.279 0 .522.07.697.174.174.104.348.244.452.418.105.174.175.383.21.592.034.21.07.453.07.697 0 .592-.07 1.184-.21 1.777-.14.592-.313 1.219-.557 1.811-.244.627-.523 1.22-.802 1.847-.313.627-.627 1.22-.975 1.846-.348.592-.662 1.22-1.01 1.777-.349.592-.662 1.15-.941 1.707-.035.07-.07.14-.105.244l-.104.313c-.035.105-.07.244-.105.384-.034.14-.07.244-.07.383v.14c0 .173 0 .313.036.487.034.14.07.279.139.418a.759.759 0 0 0 .174.279c.07.07.105.104.174.104.105 0 .244-.035.418-.07.14-.034.314-.104.488-.208.174-.07.349-.175.523-.28.174-.104.348-.208.522-.347a18.11 18.11 0 0 0 1.255-.906l.8 1.95c-.557.384-1.114.697-1.671 1.011-.244.14-.488.244-.767.383-.244.105-.522.244-.766.314a3.141 3.141 0 0 1-.767.209c-.209.14-.453.174-.662.174m0-7.351c.279-.488.558-1.045.871-1.672.314-.627.592-1.254.871-1.916.279-.662.523-1.324.732-1.986.209-.662.348-1.254.383-1.847v-.453c0-.139-.035-.174-.07-.174-.174 0-.348.105-.557.349-.21.244-.383.557-.592.94-.21.384-.418 1.045-.697 1.951l-.418 1.359s-.07.418-.244 1.254c-.14.836-.244 1.568-.279 2.195"/><path d="M145.562 92.218a5.6 5.6 0 0 1 .418 1.15c.105.383.14.836.14 1.358 0 .349-.035.732-.105 1.115-.07.384-.209.732-.348 1.08-.14.349-.349.662-.558.976a3.336 3.336 0 0 1-.766.801 4.702 4.702 0 0 1-.906.523c-.348.139-.697.209-1.08.209-.557 0-1.01-.105-1.393-.349a3.03 3.03 0 0 1-.941-.94 4.806 4.806 0 0 1-.558-1.29 6.993 6.993 0 0 1-.174-1.463c0-.8.105-1.533.314-2.09.209-.592.488-1.115.87-1.533a4.72 4.72 0 0 1 1.394-1.045 4.606 4.606 0 0 1 1.847-.383c.592 0 1.15.104 1.637.278a5.54 5.54 0 0 1 1.429.732c.452.314.87.697 1.254 1.15.383.453.731.906 1.08 1.324l-.174 1.324a10.466 10.466 0 0 0-.662-.732 20.15 20.15 0 0 1-.906-.871 6.401 6.401 0 0 0-.94-.801c-.314-.21-.558-.418-.802-.558l-.07.035zm-2.857 5.365c.21 0 .419-.104.628-.313a2.66 2.66 0 0 0 .522-.802c.14-.313.279-.731.349-1.184a5.45 5.45 0 0 0 .139-1.22c0-.278-.035-.557-.07-.8a1.665 1.665 0 0 0-.209-.628 1.024 1.024 0 0 0-.348-.418.832.832 0 0 0-.488-.174c-.244 0-.488.104-.732.313-.243.21-.418.488-.592.837a5.281 5.281 0 0 0-.418 1.114c-.104.418-.14.871-.14 1.394 0 .244.036.488.07.732.035.243.14.418.244.592a1.2 1.2 0 0 0 .418.418c.175.07.384.14.627.14z"/><path d="M151.554 97.583c.628 0 1.185-.07 1.708-.174a5.475 5.475 0 0 0 1.393-.488 6.788 6.788 0 0 0 1.115-.696c.348-.28.627-.558.906-.871l.104 2.055c-.209.244-.453.523-.731.732a5.26 5.26 0 0 1-.906.627c-.349.174-.697.313-1.045.453-.384.104-.732.174-1.08.174-.035 0-.105 0-.174-.035-.07 0-.175-.035-.349-.07s-.383-.07-.697-.139c-.313-.07-.696-.14-1.219-.21v.175c0 1.115-.105 2.16-.279 3.066-.209.906-.453 1.707-.766 2.369-.314.662-.697 1.15-1.115 1.498-.418.348-.871.523-1.324.523a1.61 1.61 0 0 1-.87-.244c-.245-.174-.419-.418-.558-.697a3.714 3.714 0 0 1-.314-1.045c-.07-.383-.07-.801-.07-1.254 0-.244.035-.558.105-.871.07-.314.174-.662.314-1.01.139-.35.278-.697.452-1.08.175-.35.349-.732.523-1.08.418-.802.906-1.638 1.428-2.474.07-.453.14-.94.21-1.429.07-.487.174-.975.278-1.428a7 7 0 0 1 .523-1.498c.244-.523.488-.94.731-1.254.28-.314.593-.558.941-.732a3.091 3.091 0 0 1 1.324-.279c.383 0 .732.035 1.045.14.314.104.627.278.871.488.244.243.453.522.592.905.14.349.21.802.21 1.324 0 .558-.07 1.01-.175 1.324a3.559 3.559 0 0 1-.731 1.22c-.28.348-.628.661-1.046.975-.418.313-.87.557-1.428.801l.104.21zm-4.494 5.818c0 .035 0 .14.035.244.035.105.07.21.105.349a.542.542 0 0 0 .209.278c.07.07.174.14.313.14.105 0 .21-.07.244-.175.07-.104.14-.278.174-.452.035-.175.07-.419.105-.662.035-.244.035-.488.035-.732s0-.488.034-.732a4 4 0 0 1 .035-.662c.035-.348.035-.627.035-.836 0-.244 0-.418.035-.592 0-.174 0-.314.035-.453-.105.21-.244.453-.349.697l-.313.836c-.105.279-.174.592-.279.871-.07.279-.14.557-.209.801-.07.244-.104.453-.14.662-.069.21-.104.349-.104.418zm3.31-6.724c.383-.174.697-.383.975-.592.244-.209.488-.453.697-.697.07 0 .279-.278.592-.836.21-.453.349-.801.384-1.045.035-.14.035-.279.07-.453 0-.174 0-.348-.07-.488a.902.902 0 0 0-.244-.383.69.69 0 0 0-.488-.174c-.244 0-.418.07-.592.174-.174.14-.314.279-.453.488-.14.209-.244.453-.314.732-.07.278-.174.627-.313 1.08a8.103 8.103 0 0 0-.21 1.15c0 .313-.034.696-.034 1.044zM165.978 97.374c-.21.21-.488.418-.836.662a5.475 5.475 0 0 1-1.08.627c-.384.21-.767.349-1.185.488-.383.14-.766.209-1.15.209-.313 0-.592-.035-.8-.14-.21-.104-.384-.208-.523-.383-.14-.174-.244-.348-.28-.592a2.717 2.717 0 0 1-.104-.766c0-.384.035-.836.14-1.359.174-1.08.278-1.672.348-1.812.07-.278.244-.836.488-1.742.244-.731.383-1.219.418-1.428.035-.14.104-.313.244-.418.14-.105.278-.209.418-.279.174-.07.313-.14.488-.174.174-.035.313-.035.452-.035.244 0 .418.035.523.14.105.104.14.209.14.383 0 .14-.035.313-.105.592-.07.244-.14.523-.21.836-.069.314-.208.732-.348 1.22-.174.487-.278.94-.313 1.289l-.21 1.045c-.104.348-.139.662-.139.94 0 .28.035.488.105.662.07.175.174.244.383.244.21 0 .453-.07.732-.244.279-.139.557-.348.836-.557.279-.21.557-.453.801-.697.279-.244.488-.418.697-.592v1.881h.07zm-4.146-9.72c0-.14.035-.313.104-.488a2.08 2.08 0 0 1 .314-.522c.14-.174.314-.279.557-.418.244-.105.523-.174.871-.174.21 0 .418.034.627.07.175.034.349.139.488.243.14.105.244.244.349.418.07.174.139.383.139.592 0 .21-.035.419-.105.628-.07.209-.174.383-.313.522-.14.174-.349.279-.558.383-.209.105-.487.14-.8.14-.558 0-.941-.14-1.22-.383-.314-.244-.453-.593-.453-1.01z"/><path d="M172.84 97.27c-.591.348-1.114.662-1.602.905-.453.244-.87.488-1.254.662a5.085 5.085 0 0 1-.975.384c-.279.07-.523.139-.767.139-.453 0-.87-.14-1.22-.418-.348-.279-.661-.697-.905-1.22-.244-.522-.418-1.184-.523-1.95a18.76 18.76 0 0 1-.174-2.578c0-.384 0-.767.035-1.185.035-.418.07-.836.14-1.254a3.36 3.36 0 0 0-.419-.07c-.104-.035-.209-.035-.313-.07-.105-.034-.244-.034-.453-.07a8.242 8.242 0 0 0-.766-.104c-.14-.035-.28-.07-.349-.104-.07-.07-.14-.14-.174-.21a.646.646 0 0 1-.07-.243v-.21c0-.104.07-.173.174-.208.105-.035.28-.105.453-.105.175-.035.384-.035.627-.035h1.568c.174-.836.383-1.637.627-2.403.244-.767.558-1.464.871-2.09.314-.593.662-1.08 1.045-1.464.384-.383.767-.557 1.185-.557.279 0 .523.07.732.209.209.139.418.348.557.592.14.244.279.522.348.87.07.314.14.663.14 1.046 0 .314-.035.627-.14.94-.07.314-.209.663-.348 1.011-.14.348-.314.697-.523 1.045l-.627 1.045c.07-.035.14-.035.279 0 .14 0 .279.035.453.035H171.587c.174 0 .348 0 .522.035.175 0 .279 0 .384.035.139 0 .209.07.278.209.07.14.07.313.07.488 0 .243-.07.418-.174.557-.14.14-.244.21-.418.21h-3.554c-.174.243-.348.487-.557.73a4.976 4.976 0 0 1-.523.628c-.035.383-.035.766-.07 1.115 0 .174 0 .313-.034.487 0 .175 0 .349-.035.488V95.493c0 .348.035.627.104.836.07.244.14.418.279.557.105.14.279.244.418.314.174.07.348.105.557.105.14 0 .28-.035.488-.105.21-.07.418-.14.627-.244.244-.104.488-.244.732-.383.244-.14.523-.314.766-.488.244-.174.488-.348.732-.557.244-.21.453-.383.627-.593v2.335h.035zm-2.96-11.741v-.209a.646.646 0 0 0-.07-.244c-.035-.07-.07-.14-.14-.174a.656.656 0 0 0-.278-.07c-.174 0-.314.14-.488.418-.174.279-.313.627-.488 1.08-.139.453-.278.906-.418 1.464-.139.522-.244 1.045-.383 1.532.105 0 .174.035.279.035.104 0 .174 0 .279.035.174-.313.383-.662.592-1.01.209-.349.383-.732.557-1.08.174-.349.279-.662.383-.976.105-.348.175-.592.175-.801zM176.987 97.723v.174c0 .104-.035.209-.07.313-.035.105-.07.244-.174.384-.07.139-.174.243-.314.383-.139.104-.278.209-.487.278-.21.07-.453.105-.732.105-.244 0-.418-.035-.627-.07-.174-.07-.349-.139-.488-.244a.951.951 0 0 1-.313-.418 1.688 1.688 0 0 1-.105-.627c0-.209.035-.418.105-.592.07-.209.174-.383.313-.523.14-.139.314-.278.523-.348.209-.104.487-.14.766-.14.523 0 .906.105 1.185.35.278.208.418.557.418.975M153.575 48.565s-10.8-16.409-10.904-34.211c-.07-14.911 16.165-18.117 20.694-9.86 5.121 9.407-2.404 17.524-5.435 23.063-3.693 6.724-4.355 21.008-4.355 21.008M157.233 69.26s-3.832-4.251-9.337-7.491c-4.354-2.543-9.824-4.006-14.702-5.365-12.472-3.45-5.748-25.014 10.591-13.134 7.735 5.609 10.696 16.583 13.448 25.99M161.414 65.601c-3.658-5.086-7.525-16.966-1.22-19.893 7.247-3.379 8.92 5.644 5.54 8.397-3.484 2.856-4.32 11.496-4.32 11.496"/></g></svg>
