<svg version="1.1" id="Layer_1" xmlns="http://www.w3.org/2000/svg" xmlns:xlink="http://www.w3.org/1999/xlink" x="0px" y="0px"
	 viewBox="0 0 975 330" style="enable-background:new 0 0 975 330;" xml:space="preserve">
<style type="text/css">
	.st0{fill:#512C57;}
</style>
<g>
	<path class="st0" d="M122,124.92c-5.03,2.81-11.5,5.96-19.94,8.35c-8.52,2.47-19,4.18-32.04,4.18c-20.36,0-37.15-6.31-48.91-17.21
		s-18.49-26.51-18.49-45c0-17.97,6.39-33.74,18.06-45.16S49.4,11.68,70.79,11v-0.09c0.85,0,1.7,0,2.47-0.09h2.39
		c4.43,0,8.27,0.09,11.59,0.34c6.48,0.51,11.76,1.28,16.79,2.13c2.47,0.43,5.2,0.85,8.01,1.19l4.18,39.54H110
		c-2.04-6.73-5.71-13.46-10.31-19S89.38,24.97,83.5,22.92c-3.41-1.02-6.56-1.28-9.63-1.28c-10.65,0-18.06,4.35-22.75,13.21
		s-6.73,22.24-6.73,40.22c0,19.85,3.66,32.81,8.95,40.73S65.52,126.71,72,126.71c9.97,0,15-4.69,15-12.53V97.14L70.03,78.57v-5.11
		H122V124.92z"/>
	<path class="st0" d="M183.09,48.07v3.49l-5.88,14.31l9.88,22.49l10.14-22.67l-6.56-14.14v-3.49h47.72v3.49l-5.79,14.31l0.59,2.21
		l6.9,21.9l10.66-24.02l-6.39-14.4v-3.49h29.99v3.49L263.7,65.88l-32.04,69.53h-11.5l-17.04-55.39l-24.03,55.39h-9.88l-29.23-69.27
		l-9.46-14.57v-3.49h52.57V48.07z"/>
	<path class="st0" d="M359.56,115.04c-5.2,6.56-10.57,12.18-17.21,16.19c-6.65,4-14.57,6.22-25.05,6.22
		c-13.72,0-24.88-4.69-32.55-12.61c-7.66-7.92-12.01-19.09-12.01-32.04c0-13.72,4.86-25.48,13.21-33.74
		c8.35-8.27,20.19-13.12,34.51-13.12c13.21,0,23.43,4.86,30.59,12.78c7.07,7.92,10.82,18.92,10.82,31.44h-51.98v0.34
		c0.94,8.86,4.35,15.93,8.86,20.7c4.52,4.78,10.22,7.33,15.67,7.33c2.47,0,4.78-0.43,6.74-1.19c4-1.62,7.07-3.92,9.29-6.31
		c1.11-1.2,2.04-2.22,2.9-3.07L359.56,115.04L359.56,115.04z M325.73,66.98c-0.43-3.49-0.94-6.13-1.62-7.92
		c-1.36-3.58-3.24-4.09-5.54-4.09c-2.3,0-4.52,1.87-6.13,6.31c-1.7,4.52-2.73,11.59-2.64,21.9l16.45-1.96
		C326.24,75.25,326.07,70.48,325.73,66.98z"/>
	<path class="st0" d="M419.89,135.4h-50.53v-3.58l7.25-14.23V72.6l-7.25-14.06v-3.49l40.9-8.95l2.3,2.22l-1.28,12.44h2.22
		c3.49-3.66,7.92-7.33,13.12-10.14c5.2-2.82,11.25-4.69,17.81-4.69c7.41,0,13.97,2.39,18.75,6.65c4.77,4.26,7.67,10.31,7.67,17.47
		v47.55l7.24,14.23v3.58h-50.53v-3.58l6.39-14.23V75c0-6.48-3.32-10.65-7.84-10.65c-2.39,0-4.94,1.45-7.16,3.24s-4.18,4-5.45,5.45
		v44.56l6.39,14.23V135.4z"/>
	<path class="st0" d="M541.14,15.77v-3.32l43.37-8.95l2.22,2.39l-1.45,18.66v85.04l8.35,16.36v2.9l-40.05,8.61l-4.09-13.55
		c-3.15,3.41-7.16,6.9-12.01,9.37c-4.86,2.47-10.82,4.18-17.89,4.18c-9.97,0-18.15-4.26-23.86-11.67s-8.95-17.72-8.95-29.99
		c0-14.57,4.69-27.01,13.21-35.87c8.44-8.78,20.54-13.97,35.45-13.97c4.86,0,9.12,0.6,12.95,1.87v-21.9L541.14,15.77z M528.7,61.61
		c-2.47,5.03-3.83,13.12-3.83,25.65c0,11.42,1.28,19.68,3.75,24.88s6.31,7.84,11.5,7.84c2.73,0,6.31-1.7,8.27-3.83V67.24
		c-0.68-7.92-2.64-12.53-9.37-12.53C534.67,54.71,531.09,56.58,528.7,61.61z"/>
	<path class="st0" d="M615.7,59.06c8.86-8.18,21.39-13.12,35.45-13.12c14.31,0,26.84,4.94,35.79,13.12
		c8.86,8.18,14.23,19.6,14.23,32.63s-5.37,24.54-14.23,32.72c-8.95,8.18-21.47,13.04-35.79,13.04c-14.23,0-26.67-4.86-35.53-13.04
		s-14.23-19.68-14.23-32.72S606.75,67.24,615.7,59.06z M660.01,121.26c2.04-5.45,3.32-14.49,3.32-28.72s-1.28-23.6-3.41-29.57
		s-5.11-8.27-8.78-8.27c-3.49,0-6.48,2.3-8.52,8.27s-3.24,15.34-3.24,29.57s1.28,23.26,3.41,28.72c2.04,5.45,5.11,7.41,8.52,7.41
		C654.81,128.67,657.88,126.71,660.01,121.26z"/>
	<path class="st0" d="M761.4,135.4h-51.38v-3.58l7.24-14.23V25.91l-7.24-10.05v-3.41l43.37-8.95l2.22,2.39l-1.45,18.66v93.05
		l7.24,14.23L761.4,135.4L761.4,135.4z"/>
	<path class="st0" d="M808.44,150.91c-4.18,9.11-9.54,16.27-14.57,21.39c-5.11,5.11-9.63,8.18-12.1,9.11l-15.59-27.69l1.45-2.81
		c1.28,0.25,3.32,0.51,6.05,0.76c2.73,0.26,5.88,0.51,9.2,0.51c3.83,0,7.84-0.34,11.16-1.36c3.32-1.02,5.88-2.64,7.16-5.28
		l4.94-10.4l-32.89-69.18l-9.29-14.49v-3.41h56.41v3.41l-6.13,14.4l11.16,27.69l12.44-27.69l-7.41-14.4v-3.41h27.95v3.41
		l-10.48,14.4L808.44,150.91z"/>
	<path class="st0" d="M914.18,135.4h-50.53v-3.58l7.25-14.23V72.6l-7.25-14.06v-3.49l40.9-8.95l2.3,2.22l-1.28,12.44h2.22
		c3.49-3.66,7.92-7.33,13.12-10.14c5.2-2.82,11.25-4.69,17.81-4.69c7.41,0,13.97,2.39,18.75,6.65s7.67,10.31,7.67,17.47v47.55
		l7.24,14.23v3.58h-50.53v-3.58l6.39-14.23V75c0-6.48-3.32-10.65-7.84-10.65c-2.39,0-4.94,1.45-7.16,3.24s-4.18,4-5.45,5.45v44.56
		l6.39,14.23V135.4z"/>
	<path class="st0" d="M383.76,201.84v3.41l-7.92,20.19L391,275.71l13.63-36.3l-5.03-14.31l-10.99-19.85v-3.41h64.34v3.41
		l-10.65,20.02l15.34,48.4l17.64-48.23l-12.7-20.19v-3.41h39.79v3.41l-15.51,20.19l-35.45,99.01h-16.96l-24.37-69.36l-25.56,69.36
		h-16.36l-34.76-99.18l-15.51-20.02v-3.41L383.76,201.84L383.76,201.84z"/>
	<path class="st0" d="M576.33,304.09c-5.2,6.56-10.57,12.18-17.21,16.19c-6.65,4-14.57,6.22-25.05,6.22
		c-13.72,0-24.88-4.69-32.55-12.61c-7.66-7.92-12.01-19.09-12.01-32.04c0-13.72,4.86-25.48,13.21-33.74
		c8.35-8.27,20.19-13.12,34.51-13.12c13.21,0,23.43,4.86,30.59,12.78c7.07,7.92,10.82,18.92,10.82,31.44h-51.98v0.34
		c0.94,8.86,4.35,15.93,8.86,20.7c4.52,4.78,10.22,7.33,15.67,7.33c2.47,0,4.78-0.43,6.74-1.19c4-1.62,7.07-3.92,9.29-6.31
		c1.11-1.2,2.04-2.22,2.9-3.07L576.33,304.09L576.33,304.09z M542.5,256.03c-0.43-3.49-0.94-6.13-1.62-7.92
		c-1.36-3.58-3.24-4.09-5.54-4.09s-4.52,1.87-6.13,6.31c-1.7,4.52-2.73,11.59-2.64,21.9l16.45-1.96
		C543.01,264.3,542.84,259.53,542.5,256.03z"/>
	<path class="st0" d="M627.89,243.76c-6.13,0-9.63,1.62-9.63,5.37c0,4.18,2.22,7.41,5.79,10.14s8.61,5.03,14.14,7.67
		c6.48,3.07,13.21,6.39,18.32,11.16c5.11,4.86,8.61,11.08,8.61,19.85c0,9.46-4.94,16.53-12.87,21.3
		c-7.92,4.77-19.09,7.24-31.36,7.24c-5.88,0-12.44-0.77-18.32-1.96s-11.25-2.9-15.25-4.94l5.79-24.88h3.58
		c3.32,4,7.58,8.69,11.84,12.95c4.27,4.26,8.52,8.01,12.01,10.05h2.9c4.26,0,7.41-0.6,9.54-1.79c2.04-1.19,3.07-2.73,3.07-4.6
		c0-3.83-2.39-6.9-6.05-9.54s-8.61-5.03-13.97-7.5c-6.82-3.15-13.55-6.73-18.66-11.59s-8.52-11.08-8.52-19.85
		c0-9.54,4.18-16.53,11.42-21.13c7.16-4.6,17.47-6.73,29.74-6.73c4.69,0,9.88,0.51,15,1.28c5.11,0.77,10.05,1.87,14.14,3.24
		l-4.26,23.01h-3.41c-8.61-9.63-14.83-15.68-20.02-18.66c-0.68,0-1.28,0-1.7-0.09L627.89,243.76L627.89,243.76z"/>
	<path class="st0" d="M720.33,305.11c1.87,1.7,4.52,2.39,7.84,2.39c1.7,0,3.15-0.17,4.43-0.6c2.39-0.69,4.35-1.87,5.96-3.24
		c0.77-0.68,1.62-1.36,2.47-1.96l4.43,7.58c-3.32,4.43-8.18,8.78-14.23,11.93s-13.21,5.28-21.05,5.28c-7.84,0-15.25-2.04-20.71-6.22
		s-8.95-10.57-8.95-19.34v-55.04h-10.4v-5.54l12.78-7.5l28.54-20.28h5.2v24.54h25.39v8.78h-24.71v50.19
		C717.35,300.51,718.46,303.4,720.33,305.11z"/>
	<path class="st0" d="M769.33,248.1c8.86-8.18,21.39-13.12,35.45-13.12c14.31,0,26.84,4.94,35.79,13.12
		c8.86,8.18,14.23,19.6,14.23,32.63s-5.37,24.54-14.23,32.72c-8.95,8.18-21.47,13.04-35.79,13.04c-14.23,0-26.67-4.86-35.53-13.04
		s-14.23-19.68-14.23-32.72S760.38,256.28,769.33,248.1z M813.64,310.31c2.05-5.45,3.32-14.49,3.32-28.72s-1.28-23.6-3.41-29.57
		c-2.13-5.96-5.11-8.27-8.78-8.27c-3.49,0-6.48,2.3-8.52,8.27c-2.04,5.96-3.24,15.34-3.24,29.57s1.28,23.26,3.41,28.72
		c2.04,5.45,5.11,7.41,8.52,7.41C808.44,317.72,811.51,315.76,813.64,310.31z"/>
	<path class="st0" d="M914.18,324.45h-50.53v-3.58l7.25-14.23v-44.99l-7.25-14.06v-3.49l40.9-8.95l2.3,2.22l-1.28,12.44h2.22
		c3.49-3.66,7.92-7.33,13.12-10.14s11.25-4.69,17.81-4.69c7.41,0,13.97,2.39,18.75,6.65c4.77,4.26,7.67,10.31,7.67,17.47v47.55
		l7.24,14.23v3.58h-50.53v-3.58l6.39-14.23v-42.6c0-6.48-3.32-10.65-7.84-10.65c-2.39,0-4.94,1.45-7.16,3.24
		c-2.22,1.79-4.18,4-5.45,5.45v44.56l6.39,14.23V324.45z"/>
</g>
</svg>
