<svg viewBox="0 0 225 108" xmlns="http://www.w3.org/2000/svg"><title>ll_logo_landscape_white</title><g fill="#512C57" fill-rule="evenodd"><path d="M120.066 26.607c0-1.692 1.023-2.578 2.578-2.578s2.578.886 2.578 2.578v21.175c0 1.692-1.023 2.577-2.578 2.577s-2.578-.885-2.578-2.577V26.607zm11.65-2.715a2.68 2.68 0 0 1 2.677 2.676 2.68 2.68 0 0 1-2.677 2.676 2.68 2.68 0 0 1-2.676-2.676 2.68 2.68 0 0 1 2.676-2.676zm-2.578 9.662c0-1.378.571-2.578 2.578-2.578 2.008 0 2.579 1.2 2.579 2.578v14.228c0 1.377-.571 2.577-2.579 2.577-2.007 0-2.578-1.2-2.578-2.577V33.554zm8.798 0c0-1.555.708-2.578 2.322-2.578 1.633 0 2.322 1.023 2.322 2.578v.669h.079c1.456-1.909 3.326-3.247 6.258-3.247 3.11 0 6.495 1.554 6.495 6.77v10.016c0 1.377-.57 2.578-2.578 2.578s-2.578-1.2-2.578-2.578v-8.993c0-2.086-1.024-3.562-3.248-3.562a3.988 3.988 0 0 0-3.916 4.054v8.5c0 1.378-.57 2.579-2.578 2.579s-2.578-1.2-2.578-2.578V33.554zm29.52-2.578c4.31 0 7.518 2.44 7.518 4.84 0 1.477-1.102 2.225-2.4 2.225-2.441 0-1.556-3.031-5.256-3.031-2.007 0-4.369 1.378-4.369 6.041 0 3.208 1.516 5.294 4.35 5.294 3.601 0 2.834-3.326 5.55-3.326 1.299 0 2.145.945 2.145 1.968 0 2.263-2.539 5.372-7.833 5.372-6.357 0-9.348-3.916-9.348-9.327-.04-5.924 3.326-10.056 9.643-10.056zm18.283 0c6.22 0 9.526 4.23 9.526 9.682 0 5.156-2.5 9.701-9.526 9.701s-9.525-4.545-9.525-9.701c0-5.451 3.306-9.682 9.525-9.682zm0 15.566c3.07 0 4.37-2.755 4.37-5.904 0-3.345-1.378-5.864-4.37-5.864-2.991 0-4.369 2.5-4.369 5.864-.02 3.149 1.3 5.904 4.37 5.904zm12.38-19.935c0-1.692 1.023-2.578 2.578-2.578 1.554 0 2.578.886 2.578 2.578v21.175c0 1.692-1.024 2.577-2.578 2.577-1.555 0-2.579-.885-2.579-2.577V26.607zm8.797 6.947c0-1.555.708-2.578 2.322-2.578 1.633 0 2.322 1.023 2.322 2.578v.669h.079c1.456-1.909 3.326-3.247 6.258-3.247 3.11 0 6.495 1.554 6.495 6.77v10.016c0 1.377-.57 2.578-2.578 2.578s-2.578-1.2-2.578-2.578v-8.993c0-2.086-1.024-3.562-3.248-3.562-1.79 0-3.916 1.476-3.916 4.054v8.5c0 1.378-.57 2.579-2.578 2.579s-2.578-1.2-2.578-2.578V33.554zm-86.85 24.244c0-1.692 1.023-2.578 2.578-2.578s2.578.886 2.578 2.578v21.174c0 1.693-1.023 2.578-2.578 2.578s-2.578-.885-2.578-2.578V57.798zm17.555 4.369c6.219 0 9.525 4.23 9.525 9.682 0 5.156-2.5 9.701-9.525 9.701-7.026 0-9.526-4.545-9.526-9.701 0-5.432 3.307-9.682 9.526-9.682zm0 15.585c3.07 0 4.369-2.755 4.369-5.903 0-3.346-1.378-5.865-4.37-5.865-2.99 0-4.368 2.5-4.368 5.865 0 3.148 1.298 5.903 4.369 5.903zm20.86-15.585c6.22 0 9.526 4.23 9.526 9.682 0 5.156-2.5 9.701-9.525 9.701-7.026 0-9.525-4.545-9.525-9.701 0-5.432 3.306-9.682 9.525-9.682zm0 15.585c3.071 0 4.37-2.755 4.37-5.903 0-3.346-1.378-5.865-4.37-5.865-2.99 0-4.368 2.5-4.368 5.865 0 3.148 1.299 5.903 4.369 5.903zm12.104-13.145c0-1.594.748-2.44 2.323-2.44 1.515 0 2.322.846 2.322 2.44v.807h.079c.846-2.185 2.932-3.247 5.432-3.247 4.31 0 8.088 3.148 8.088 9.82 0 4.939-2.5 9.563-7.95 9.563-2.362 0-4.134-.944-5.078-2.617h-.079v6.888c0 1.692-1.023 2.578-2.578 2.578s-2.578-.886-2.578-2.578V64.607h.02zM179.6 66.2c-2.991 0-4.133 2.676-4.133 5.608 0 2.657.984 5.747 4.133 5.727 3.287 0 4.094-3.326 4.094-5.727 0-3.03-1.339-5.53-4.094-5.608z" fill-rule="nonzero"/><path d="M54.275 0C24.685 0 .608 24.117.608 53.756s24.078 53.756 53.667 53.756c29.767 0 53.845-24.117 53.845-53.756S84.042 0 54.275 0zm-2.48 36.363v18.162a7.915 7.915 0 0 1-1.181 3.944c-.276.552-.552.986-.729 1.262-.295.473-9.883 14.159-9.883 14.159l-3.898 5.521c-2.225 3.175-5.315 3.49-8.23 1.46-2.913-2.051-3.68-5.049-1.456-8.243 0 0 7.107-10.195 10.237-14.672.748-1.084 1.28-1.834 1.418-2.03.059-.08.098-.139.138-.198a8.654 8.654 0 0 0 1.772-4.97V30.23c0-3.884 2.342-5.916 5.906-5.916 3.563 0 5.906 2.032 5.906 5.916v6.133zm29.078 44.468c-2.914 2.05-6.005 1.735-8.23-1.46l-3.898-5.52s-9.607-13.686-9.882-14.16c-.178-.276-.434-.71-.729-1.262a7.976 7.976 0 0 1-1.181-3.943V30.17c0-3.885 2.343-5.916 5.906-5.916 3.563 0 5.906 2.031 5.906 5.916V50.72a8.292 8.292 0 0 0 1.772 4.97c.04.059.098.137.138.197.138.197.65.946 1.417 2.03 3.13 4.477 10.238 14.672 10.238 14.672 2.205 3.195 1.457 6.212-1.457 8.243z"/></g></svg>
