<svg id="Layer_1" xmlns="http://www.w3.org/2000/svg" viewBox="0 0 370 125"><style>.st0{fill:#512c57}</style><path class="st0" d="M13 100.4c-1.8 0-2.7-.9-2.7-2.7V23.2c0-.4-.2-.7-.6-.7l-4-.8c-1.7-.3-2.5-1.3-2.5-2.9V7.2c0-1.7 1-2.7 2.8-2.7h27c1.5 0 2.4.5 3 2.2l14.1 42.5c.2.7.7.7.9.1L65.8 6.7c.5-1.5 1.6-2.2 3.1-2.2h19.2c1.8 0 2.7.9 2.7 2.7v90.4c0 1.8-.9 2.7-2.7 2.7H69.4c-1.8 0-2.7-.9-2.7-2.7l.9-45.8c0-.5-.6-.8-.8-.1l-8.9 25.8c-.5 1.4-1.6 2.2-3.1 2.2h-8.5c-1.5 0-2.6-.8-3.1-2.2l-8.8-25.2c-.2-.7-.7-.4-.7.1L35 97.6c.1 1.9-.8 2.7-2.6 2.7l-19.4.1zM119.3 101.1c-12.3 0-20.1-5.7-20.1-23.9 0-17 8.8-23.1 32.2-23.2.4 0 .7-.3.7-.7v-1.2c-.4-8-3.3-10.4-9.6-10.4-3.1 0-8.8.7-12.9 1.4-1.9.3-3-.6-3.2-2.5l-1.1-10.3c-.2-1.8.5-2.7 2-3.1 5.2-1.4 12.7-2.6 19.2-2.6 18.5 0 28.6 4.5 28.6 21.9v30.9c0 2.6.7 4.1 1.9 5.1.7.5 1.4.8 2.3 1 2.3.4 2.8 1 2.7 2.7l-.4 10.8c-.1 1.7-1 2.4-2.7 2.9-1.4.4-3.1.8-7.3.8-5.3 0-12.2-.8-16-7.3-.2-.4-.6-.6-1-.1-2.5 4.3-7.3 7.8-15.3 7.8zm12.8-25.9v-7.6c0-.4-.3-.7-.7-.7-6.5.1-9.9 2.2-9.9 9.5 0 5.4 1.5 7.6 4.8 7.6 4.1-.1 5.8-2.5 5.8-8.8zM169.6 100.4c-1.8 0-2.7-.9-2.7-2.7V42c0-.4-.2-.7-.6-.7l-2.4-.4c-1.6-.2-2.4-1.3-2.4-2.9V27.8c0-1.8.9-2.7 2.7-2.7h21.9c1.6 0 2.6.8 2.8 2.4l.9 6.7c.1.7.4 1 .4.7 1.8-6.5 6.1-10.2 14.5-10.1h1.4c1.6.1 2.5 1.3 2.3 2.9l-1.6 16.9c-.2 1.9-1.3 2.3-3.1 1.9-1.1-.3-2.3-.4-4.1-.4-4.8 0-8.8 3.5-8.8 10.1v41.4c0 1.8-.9 2.7-2.7 2.7l-18.5.1zM238.9 121.8c-26.1 0-31.9-10.6-31.9-17.5 0-5.5 1.9-8.2 5.3-10.2.4-.2.5-.6.2-.9-1.7-2.2-2.6-5.1-2.6-8.2 0-7.8 4.5-12.7 10.7-15.4.5-.2.5-.6.1-.9-6.5-4.2-9.9-11.3-9.9-20.9 0-15.9 10.3-24 28.8-24 2 0 3.8.1 5.7.3 8.2.1 9.8-1.5 9.8-7.8v-2.2c0-1.7 1.3-2.4 2.9-2.4h10.1c1.8 0 2.7.9 2.7 2.7v2.7c0 7-.5 10.9-8.9 12.8-.6.1-.7.5-.3.9 4.1 3.9 6.3 9.6 6.3 17 0 16.6-10.3 25.6-28.5 25.6-2.1 0-4-.1-6-.3-.4 0-.7.1-.8.5-.1.2-.1.5-.1.9 0 1.3.9 1.9 2.5 1.9h12.8c13.4 0 23.7 3.7 23.7 19.9 0 13.8-8.1 25.5-32.6 25.5zm.1-15.5c7.6 0 9-2 9-4.3 0-1.2-.7-2.5-2.9-2.5l-16.6.2c-.4 0-.6.1-.8.4-.3.5-.4 1.1-.4 1.9-.1 2.7 1.6 4.3 11.7 4.3zm5-58.1c0-4-.3-6.6-4.7-6.6-4.5 0-5.2 3.1-5.2 6.6 0 3.9.7 6.7 5.2 6.7 4.6 0 4.7-3.1 4.7-6.7zM301.7 101.5c-13.9 0-23.5-4.9-23.5-24.2V42c0-.4-.2-.7-.6-.7l-2.4-.4c-1.6-.2-2.4-1.3-2.4-2.9V27.8c0-1.8.9-2.7 2.7-2.7h23.9c1.8 0 2.7.9 2.7 2.7v48.9c0 4.4 1.3 6.2 3.3 6.5.3 0 .6.1.9.1 1.7 0 2.8 1 2.7 2.7l-.4 12.3c-.1 1.7-.9 2.7-2.7 2.9-1.7.2-3 .3-4.2.3zM277 11.6c0-6.5.4-8.5 11.3-8.5 10.8 0 11.3 2 11.3 8.5 0 6.6-.5 8.6-11.3 8.6-10.9 0-11.3-2-11.3-8.6zM313.3 63.1c0-32.1 10.9-38.7 27.5-38.7 15.6 0 26.2 6.7 26.2 28.6 0 4.5-.4 9.3-.8 13-.1 1.6-1.1 2.4-2.8 2.4h-26.2c-.4 0-.7.3-.7.7.1 10.8 2.7 14.7 14.7 14.7 3 0 6.2-.7 8.6-1.2 1.8-.4 2.9.1 3.1 2l1.2 11.2c.2 1.6-.4 2.7-2 3.3-4.3 1.4-10.3 2.3-15.8 2.3-20.1.1-33-6.6-33-38.3zm33-8.7c.4 0 .8-.2.8-.7v-2.4c0-6.7-.5-10.1-5-10.1-4.8 0-5.5 3.4-5.7 12.6 0 .4.3.7.7.7h9.1v-.1z"/></svg>