<?xml version="1.0" encoding="utf-8"?>
<!-- Generator: Adobe Illustrator 22.1.0, SVG Export Plug-In . SVG Version: 6.00 Build 0)  -->
<svg version="1.1" id="Layer_1" xmlns="http://www.w3.org/2000/svg" xmlns:xlink="http://www.w3.org/1999/xlink" x="0px" y="0px"
	 viewBox="0 0 370 125" style="enable-background:new 0 0 370 125;" xml:space="preserve">
<style type="text/css">
	.st0{fill:#512C57;}
</style>
<g>
	<path class="st0" d="M13,100.4c-1.8,0-2.7-0.9-2.7-2.7V23.2c0-0.4-0.2-0.7-0.6-0.7l-4-0.8c-1.7-0.3-2.5-1.3-2.5-2.9V7.2
		c0-1.7,1-2.7,2.8-2.7H33c1.5,0,2.4,0.5,3,2.2l14.1,42.5c0.2,0.7,0.7,0.7,0.9,0.1L65.8,6.7c0.5-1.5,1.6-2.2,3.1-2.2h19.2
		c1.8,0,2.7,0.9,2.7,2.7v90.4c0,1.8-0.9,2.7-2.7,2.7H69.4c-1.8,0-2.7-0.9-2.7-2.7l0.9-45.8c0-0.5-0.6-0.8-0.8-0.1l-8.9,25.8
		c-0.5,1.4-1.6,2.2-3.1,2.2h-8.5c-1.5,0-2.6-0.8-3.1-2.2l-8.8-25.2c-0.2-0.7-0.7-0.4-0.7,0.1L35,97.6c0.1,1.9-0.8,2.7-2.6,2.7
		L13,100.4L13,100.4z"/>
	<path class="st0" d="M119.3,101.1c-12.3,0-20.1-5.7-20.1-23.9c0-17,8.8-23.1,32.2-23.2c0.4,0,0.7-0.3,0.7-0.7v-1.2
		c-0.4-8-3.3-10.4-9.6-10.4c-3.1,0-8.8,0.7-12.9,1.4c-1.9,0.3-3-0.6-3.2-2.5l-1.1-10.3c-0.2-1.8,0.5-2.7,2-3.1
		c5.2-1.4,12.7-2.6,19.2-2.6c18.5,0,28.6,4.5,28.6,21.9v30.9c0,2.6,0.7,4.1,1.9,5.1c0.7,0.5,1.4,0.8,2.3,1c2.3,0.4,2.8,1,2.7,2.7
		L161.6,97c-0.1,1.7-1,2.4-2.7,2.9c-1.4,0.4-3.1,0.8-7.3,0.8c-5.3,0-12.2-0.8-16-7.3c-0.2-0.4-0.6-0.6-1-0.1
		C132.1,97.6,127.3,101.1,119.3,101.1L119.3,101.1z M132.1,75.2v-7.6c0-0.4-0.3-0.7-0.7-0.7c-6.5,0.1-9.9,2.2-9.9,9.5
		c0,5.4,1.5,7.6,4.8,7.6C130.4,83.9,132.1,81.5,132.1,75.2z"/>
	<path class="st0" d="M169.6,100.4c-1.8,0-2.7-0.9-2.7-2.7V42c0-0.4-0.2-0.7-0.6-0.7l-2.4-0.4c-1.6-0.2-2.4-1.3-2.4-2.9V27.8
		c0-1.8,0.9-2.7,2.7-2.7h21.9c1.6,0,2.6,0.8,2.8,2.4l0.9,6.7c0.1,0.7,0.4,1,0.4,0.7c1.8-6.5,6.1-10.2,14.5-10.1c0.4,0,0.8,0,1.4,0
		c1.6,0.1,2.5,1.3,2.3,2.9l-1.6,16.9c-0.2,1.9-1.3,2.3-3.1,1.9c-1.1-0.3-2.3-0.4-4.1-0.4c-4.8,0-8.8,3.5-8.8,10.1v41.4
		c0,1.8-0.9,2.7-2.7,2.7L169.6,100.4L169.6,100.4z"/>
	<path class="st0" d="M238.9,121.8c-26.1,0-31.9-10.6-31.9-17.5c0-5.5,1.9-8.2,5.3-10.2c0.4-0.2,0.5-0.6,0.2-0.9
		c-1.7-2.2-2.6-5.1-2.6-8.2c0-7.8,4.5-12.7,10.7-15.4c0.5-0.2,0.5-0.6,0.1-0.9c-6.5-4.2-9.9-11.3-9.9-20.9c0-15.9,10.3-24,28.8-24
		c2,0,3.8,0.1,5.7,0.3c8.2,0.1,9.8-1.5,9.8-7.8v-2.2c0-1.7,1.3-2.4,2.9-2.4h10.1c1.8,0,2.7,0.9,2.7,2.7v2.7c0,7-0.5,10.9-8.9,12.8
		c-0.6,0.1-0.7,0.5-0.3,0.9c4.1,3.9,6.3,9.6,6.3,17c0,16.6-10.3,25.6-28.5,25.6c-2.1,0-4-0.1-6-0.3c-0.4,0-0.7,0.1-0.8,0.5
		c-0.1,0.2-0.1,0.5-0.1,0.9c0,1.3,0.9,1.9,2.5,1.9h12.8c13.4,0,23.7,3.7,23.7,19.9C271.5,110.1,263.4,121.8,238.9,121.8L238.9,121.8
		z M239,106.3c7.6,0,9-2,9-4.3c0-1.2-0.7-2.5-2.9-2.5l-16.6,0.2c-0.4,0-0.6,0.1-0.8,0.4c-0.3,0.5-0.4,1.1-0.4,1.9
		C227.2,104.7,228.9,106.3,239,106.3L239,106.3z M244,48.2c0-4-0.3-6.6-4.7-6.6c-4.5,0-5.2,3.1-5.2,6.6c0,3.9,0.7,6.7,5.2,6.7
		C243.9,54.9,244,51.8,244,48.2z"/>
	<path class="st0" d="M301.7,101.5c-13.9,0-23.5-4.9-23.5-24.2V42c0-0.4-0.2-0.7-0.6-0.7l-2.4-0.4c-1.6-0.2-2.4-1.3-2.4-2.9V27.8
		c0-1.8,0.9-2.7,2.7-2.7h23.9c1.8,0,2.7,0.9,2.7,2.7v48.9c0,4.4,1.3,6.2,3.3,6.5c0.3,0,0.6,0.1,0.9,0.1c1.7,0,2.8,1,2.7,2.7
		l-0.4,12.3c-0.1,1.7-0.9,2.7-2.7,2.9C304.2,101.4,302.9,101.5,301.7,101.5L301.7,101.5z M277,11.6c0-6.5,0.4-8.5,11.3-8.5
		c10.8,0,11.3,2,11.3,8.5c0,6.6-0.5,8.6-11.3,8.6C277.4,20.2,277,18.2,277,11.6z"/>
	<path class="st0" d="M313.3,63.1c0-32.1,10.9-38.7,27.5-38.7c15.6,0,26.2,6.7,26.2,28.6c0,4.5-0.4,9.3-0.8,13
		c-0.1,1.6-1.1,2.4-2.8,2.4h-26.2c-0.4,0-0.7,0.3-0.7,0.7c0.1,10.8,2.7,14.7,14.7,14.7c3,0,6.2-0.7,8.6-1.2c1.8-0.4,2.9,0.1,3.1,2
		l1.2,11.2c0.2,1.6-0.4,2.7-2,3.3c-4.3,1.4-10.3,2.3-15.8,2.3C326.2,101.5,313.3,94.8,313.3,63.1z M346.3,54.4
		c0.4,0,0.8-0.2,0.8-0.7v-2.4c0-6.7-0.5-10.1-5-10.1c-4.8,0-5.5,3.4-5.7,12.6c0,0.4,0.3,0.7,0.7,0.7h9.1V54.4z"/>
</g>
</svg>
