<?xml version="1.0" encoding="utf-8"?>
<!-- Generator: Adobe Illustrator 26.2.1, SVG Export Plug-In . SVG Version: 6.00 Build 0)  -->
<svg version="1.1" id="Layer_1" xmlns="http://www.w3.org/2000/svg" xmlns:xlink="http://www.w3.org/1999/xlink" x="0px" y="0px"
	 viewBox="0 0 800 500" style="enable-background:new 0 0 800 500;" xml:space="preserve">
<style type="text/css">
	.st0{fill-rule:evenodd;clip-rule:evenodd;fill:#502E56;}
	.st1{fill:#502E56;}
</style>
<g>
	<g>
		<path class="st0" d="M188.4,82.3v190.3h-43.5V184l-25.4,56.7H76.1l-25.2-56.4v88.3H7.4V82.3h43.5l47,105.3l47.1-105.3H188.4z"/>
		<path class="st0" d="M75.6,395.9v89.7H61.3v-38.5H22v38.5H7.8v-89.7h14.3v38.6h39.3v-38.6L75.6,395.9L75.6,395.9z M139.9,395.9
			v89.7h-14.2v-89.7H139.9z M281.7,440.8c0,26.1-21,47.2-47.1,47.2s-47.1-21.1-47.1-47.2c0-26.1,21-47.2,47.1-47.2
			c13,0,24.8,5.3,33.3,13.9l-9.5,9.4c-6-6.5-14.4-10.7-23.7-10.7c-18.1,0-32.7,15.6-32.7,34.7c0,19.2,14.6,34.7,32.7,34.7
			c16,0,29.4-12.2,32.3-28.3h-32.5v-12.5h46.5C281.6,436.6,281.7,438.5,281.7,440.8z M397.2,395.9v89.7h-14.4v-38.5h-39.3v38.5
			h-14.4v-89.7h14.4v38.6h39.3v-38.6L397.2,395.9L397.2,395.9z M542.4,395.9h15.2l-26.5,89.7h-14.2l-18.7-65.1l-18.8,65.1h-14.2
			l-26.5-89.7h15.2l18.4,64.9l18.7-64.9h14.1l18.7,65L542.4,395.9z M638.5,395.9l35.4,89.7h-15.5l-8.9-23.2h-36.7l-8.9,23.2h-15.3
			l35.4-89.7H638.5z M617.6,449.9h27.2l-13.5-35.1L617.6,449.9z M775.5,395.9h17.1L757,442.7v42.9h-14.3v-43.1l-35.5-46.7h17.1
			l25.5,33.6L775.5,395.9z"/>
		<path class="st1" d="M429,12c-49.9,0-96.1,22.8-126.6,61.1l9.9,7.9c-7.3,10.1-13.3,21-18.1,32.6l-12.7-5.1
			c4-10,9.1-19.6,14.9-28.6c-41.9,11-72.9,49.2-72.9,94.7c0,45.3,30.6,83.5,72.3,94.6c-6-9.2-11-18.9-15-29.2l12.7-5.1
			c4.7,11.7,10.6,22.7,17.8,32.9l-9.6,7.6c30.7,38.9,77,62.1,127.5,62c89.5,0,162-72.8,162-162.6S518.6,12,429,12z M283.1,194.9
			l-13.6,1.7c-0.8-7.1-1.3-14.3-1.3-21.7c0-7.8,0.6-15.4,1.5-23.1l13.5,1.8c-1,6.9-1.4,14-1.4,21.3
			C281.9,181.7,282.3,188.4,283.1,194.9z M429,323.7c-43.7,0-84.1-19.1-112-51.3c1.3,0,2.7,0,4-0.1c53.9,0,97.5-43.8,97.5-97.8
			S374.8,76.7,321,76.7c-1.3,0-2.6,0-3.9,0.1c27.9-32.2,68.3-51.1,111.8-51.1c81.9,0,148.4,66.8,148.4,149
			C577.4,257,510.9,323.7,429,323.7z"/>
		<path class="st0" d="M789.7,82.3v190.3h-43.5l-70.8-108.1v108.1H632V82.3h43.5l70.8,107.8V82.3H789.7z"/>
	</g>
</g>
</svg>
