<?xml version="1.0" encoding="utf-8"?>
<!-- Generator: Adobe Illustrator 25.0.1, SVG Export Plug-In . SVG Version: 6.00 Build 0)  -->
<svg version="1.1" id="Layer_1" xmlns="http://www.w3.org/2000/svg" xmlns:xlink="http://www.w3.org/1999/xlink" x="0px" y="0px"
	 viewBox="0 0 900 350" style="enable-background:new 0 0 900 350;" xml:space="preserve">
<style type="text/css">
	.st0{fill:#502E56;}
</style>
<g>
	<path class="st0" d="M166.1,146.2c5.8,1.3,10.9-1,13.8-6.5c2.2-5.2,15.4-55.7,25.7-96.8c5.1-19.7,4.2-29.1-4.8-33.3
		c-9.3-4.9-18.3,0.3-36.6,23L151,49.1c-5.1,6.5-8.7,6.1-11.6-1.3c-5.1-12.9-9-25.2-15.1-31.1c-6.7-7.4-16-6.8-22.1,1
		c-8,11.3-23.7,60.8-30.8,85.1c-1,3.9-1.9,7.4-2.2,11.7c-0.6,6.2,3.2,12,8.7,13.6c7.4,1.6,13.2-3.2,15.4-13.9
		c4.2-19.4,14.4-54.4,20.5-54.4c7.4,0,8.7,24.9,11.6,31.7c3.8,11,14.1,12.9,22.1,4.9c2.9-2.3,14.1-19.4,17.3-23.6
		c2.9-3.9,8.7-1.9,7.4,2.9c-7.4,28.5-14.1,47.3-14.4,58.3C157.8,140.7,160,144.6,166.1,146.2L166.1,146.2z"/>
	<path class="st0" d="M294.2,150.1c5.8,1,10.9-2.3,12.5-8.1c3.5-12.9,13.5-102.6,11.9-115.9c-1.6-11.3-11.9-16.2-22.1-10
		c-11.6,7.1-39.1,44-50.4,63.1l-27,45.3c-6.4,10-6.1,17.2,0,21c4.2,2.9,9.6,2.9,13.8,0c2.6-2.3,10.3-14.2,16.4-24
		c2.6-3.9,4.8-5.5,8.3-5.5l20.5,1c4.2,0.3,6.7,3.9,6.4,8.1C284.6,139.1,283.3,148.4,294.2,150.1z M281.1,92.8c-5.5,0-8-0.3-9.3-3.2
		c-3.2-5.8,10.9-26.5,17.3-23.6c2.9,1,2.9,3.6,0.6,19.7C289.1,90.5,285.6,92.8,281.1,92.8z"/>
	<path class="st0" d="M343.4,140c6.7,1.6,11.9-2.9,14.4-12c4.5-15.9,11.9-39.8,19.6-55.7c1.9-3.9,7.1-3.6,8.7,0.6
		c10.3,42.1,10.9,52.4,16.7,60.5c3.5,4.9,8,7.1,12.5,7.1s8.3-2.9,10.3-7.8c3.8-10,6.7-18.8,9.3-26.2c12.5-35.9,16-46.9,28.2-70.9
		c1.3-2.9,2.2-5.5,2.2-7.8c0.3-7.4-6.1-12-10.9-12c-3.2,0-5.5,1-7.7,2.6c-6.1,5.2-13.2,23-19.6,40.8c-4.8,12.9-6.4,19.4-10.6,19.4
		c-3.5,0-4.5-2.3-6.1-7.1l-2.9-12c-2.9-14.6-9-36.9-13.5-42.4c-2.9-3.6-6.7-5.5-10.9-5.2c-13.2,0-22.8,34.6-34.7,68.3
		c-6.7,17.5-14.1,42.7-14.1,47.3C334.4,133.9,338.3,138.7,343.4,140z"/>
	<path class="st0" d="M530.9,150.1c5.8,1,10.9-2.3,12.5-8.1c3.5-12.9,13.5-102.6,11.9-115.9c-1.6-11.3-11.9-16.2-22.1-10
		c-11.6,7.1-39.1,44-50.4,63.1l-27,45.3c-6.4,10-6.1,17.2,0,21c4.2,2.9,9.6,2.9,13.8,0c2.6-2.3,10.3-14.2,16.4-24
		c2.6-3.9,4.8-5.5,8.3-5.5l20.5,1c4.2,0.3,6.7,3.9,6.4,8.1C521.3,139.1,520,148.4,530.9,150.1L530.9,150.1z M517.7,92.8
		c-5.5,0-8-0.3-9.3-3.2c-3.2-5.8,10.9-26.5,17.3-23.6c2.9,1,2.9,3.6,0.6,19.7C525.8,90.5,522.2,92.8,517.7,92.8z"/>
	<path class="st0" d="M605.7,150.4c21.5,1.6,56.5-31.7,66.1-53.1c3.8-8.4-0.6-17.2-9.3-19.1c-4.2-1.3-12.5-1.3-20.2-0.6
		c-10.9,1.6-11.2,13.9-0.6,21.7c-11.6,12.3-18.6,19.1-28.6,25.2c-8.7,4.5-13.2-4.2-10.6-16.5c4.2-24.3,13.8-46.9,28.2-68
		c7.1-9.7,9.3-9.7,16.4,0.3c6.4,7.8,14.1,8.1,18.9,0.6c5.5-7.8,0.6-21.4-5.5-29.5c-6.1-7.4-14.1-10-23.1-7.4
		c-30.8,9.7-66.4,91.6-58.1,123.6C582.3,140.4,592.6,149.1,605.7,150.4L605.7,150.4z"/>
	<path class="st0" d="M702.6,142.6c4.2,0,39.5-3.6,44.6-6.1c4.8-2.6,7.4-7.4,6.4-12c-2.9-14.9-15.1-7.1-35.3-7.1
		c-5.8,0-8.3-2.9-8-8.1c0.6-4.2,1.3-8.7,2.2-12.6c1.6-5.8,3.9-7.4,10.3-7.8c16-1.6,31.8,1.3,31.1-13.9c-1.3-11.3-10.6-10-24.4-11.3
		c-4.5-0.6-6.4-3.9-5.1-7.8c1.3-5.2,2.9-10,4.2-15.5c1.6-6.5,5.1-7.4,11.2-6.8c17.6,2.9,40.4,4.2,38.2-10.7
		c-1-13.3-24.4-13.6-45.9-13.6c-12.5-0.6-18.9,4.5-24.7,19.7c-3.2,7.8-15.1,48.9-18,62.1c-2.2,10.7-4.5,21.4-4.5,32.4
		C685,135.5,690.7,141.7,702.6,142.6z"/>
	<path class="st0" d="M787.1,139.4c14.4,1.6,16-24,18.3-39.2c0.6-4.9,4.8-6.5,9.6-4.2c9,4.5,42,28.5,53.3,39.2
		c10.9,9.1,21.8,6.8,22.1-4.9c0.6-6.5-2.2-11-13.2-19.7c-9.6-7.8-19.6-15.2-29.8-22c-5.5-3.9-5.8-7.8-0.3-11.3
		c10.6-7.1,15.7-8.4,20.9-17.5c10.6-16.8,2.9-35.3-17.3-42.1c-21.8-9.1-48.1-6.5-54.5,16.8c-9.3,35.6-14.1,54.7-17.3,80.9
		C777.8,126.8,775.6,138.1,787.1,139.4L787.1,139.4z M817,58.1c-2.6-3.9-1-8.7,2.9-16.8c3.2-6.5,24.7-4.2,26,4.2
		c0.6,4.9-4.2,8.4-11.9,11.3C825,60.7,819.5,62,817,58.1z"/>
	<path class="st0" d="M21,338.4c5.5-0.6,13.2-5.5,23.8-16.4c6.7-6.8,13.5-13.8,20.2-20.9c4.5-4.2,8.7-3.2,10.6,2.6
		c2.6,8,4.2,13.5,5.8,18c5.1,19,17,28,27.9,16.1c2.6-2.6,11.9-22.2,22.8-45.7c10.3-21.2,21.8-45.4,30.8-62.4
		c5.1-10.6,3.9-17.7-3.2-20.6c-4.8-1.9-9-1-12.5,2.6c-4.8,4.2-31.1,55.4-40.5,75.6c-5.5,9.7-9,3.5-12.5-6.8
		c-2.2-11.6-7.7-19-15.4-19.3c-8.3,0-13.5,5.1-23.8,15.1c-3.9,4.2-6.4,6.1-9.3,3.5c-3.5-3.5,2.9-21.9,11.6-50.2
		c4.5-12.6,2.6-20.6-4.8-22.8c-4.8-1.9-10-0.3-12.8,3.9c-3.9,4.8-21.2,62.8-31.1,104.6C5.2,329.7,10.7,339.1,21,338.4L21,338.4z"/>
	<path class="st0" d="M190.4,338.1c4.2,0,39.5-3.5,44.6-6.1c4.8-2.6,7.4-7.4,6.4-11.9c-2.9-14.8-15.1-7.1-35.3-7.1
		c-5.8,0-8.3-2.9-8-8c0.6-4.2,1.3-8.7,2.2-12.6c1.6-5.8,3.9-7.4,10.3-7.7c16.1-1.6,31.8,1.3,31.1-13.8c-1.3-11.3-10.6-10-24.4-11.3
		c-4.5-0.6-6.4-3.9-5.1-7.7c1.3-5.1,2.9-10,4.2-15.4c1.6-6.4,5.1-7.4,11.2-6.8c17.7,2.9,40.5,4.2,38.2-10.6
		c-1-13.2-24.4-13.5-45.9-13.5c-12.5-0.6-18.9,4.5-24.7,19.6c-3.2,7.7-15.1,48.6-18,61.8c-2.2,10.6-4.5,21.2-4.5,32.2
		C172.7,331,178.5,337.1,190.4,338.1z"/>
	<path class="st0" d="M283.3,338.1c4.2,0,39.5-3.5,44.6-6.1c4.8-2.6,7.4-7.4,6.4-11.9c-2.9-14.8-15.1-7.1-35.3-7.1
		c-5.8,0-8.3-2.9-8-8c0.6-4.2,1.3-8.7,2.2-12.6c1.6-5.8,3.9-7.4,10.3-7.7c16.1-1.6,31.8,1.3,31.1-13.8c-1.3-11.3-10.6-10-24.4-11.3
		c-4.5-0.6-6.4-3.9-5.1-7.7c1.3-5.1,2.9-10,4.2-15.4c1.6-6.4,5.1-7.4,11.2-6.8c17.7,2.9,40.5,4.2,38.2-10.6
		c-1-13.2-24.4-13.5-45.9-13.5c-12.5-0.6-18.9,4.5-24.7,19.6c-3.2,7.7-15.1,48.6-18,61.8c-2.2,10.6-4.5,21.2-4.5,32.2
		C265.7,331,271.4,337.1,283.3,338.1L283.3,338.1z"/>
	<path class="st0" d="M438.6,345.8c4.2-2.3,6.4-6.4,5.8-12.2c-0.6-4.8-3.5-10.3-27.9-49.2c-2.2-3.5-1.6-7.1,1.6-10
		c6.7-6.8,55.2-38.6,55.2-56c-0.3-5.1-2.6-8.7-7.1-10.6c-6.4-2.3-10.3-0.6-16.1,6.8c-3.9,4.8-35,37.3-35.6,36.7
		c-3.2-2.9,11.2-30.3,11.2-35.1c0-5.8-1.9-9.3-6.4-11.3c-4.5-1.9-8-1.3-11.9,1.6c-4.5,3.5-8.7,13.8-16.4,33.1
		c-3.5,7.7,1-2.6-30.2,75c-4.2,11.6-2.2,18.7,5.1,21.6c4.8,1.6,10,0.3,12.8-4.2c3.5-4.8,7.4-16.1,11.9-27c1.6-4.2,6.7-5.1,9.6-1
		l6.4,10.3c10.3,16.7,16.4,26.7,18.9,29.3C429.9,347.1,434.1,347.7,438.6,345.8L438.6,345.8z"/>
	<path class="st0" d="M483.4,337.4c5.8,0.3,35.3-5.8,50.1-10.6c5.5-1.6,8.7-7.1,7.7-12.9c-1.3-9.3-9.6-9.7-19.6-7.7
		c-11.2,2.3-16.4,2.9-18.6,1.6c-4.5-2.3-1.6-9,3.9-24.8c4.8-13.8,12.5-36.7,20.2-59.9c4.2-12.2,1.9-19.3-6.1-21.2
		c-7.7-1.9-12.5,1.9-16.1,13.5c-4.5,13.8-9.3,27.4-14.1,40.9c-11.2,31.9-21.8,60.8-20.9,67.9C471.2,332.6,475.7,337.1,483.4,337.4
		L483.4,337.4z"/>
	<path class="st0" d="M561,297.9c-5.1,14.8-12.5,32.8,1.3,36.4c12.2,4.2,15.7-11.9,24.4-37c7.4-21.6,15.7-41.8,20.6-64
		c2.9-12.9,0.6-20-7.1-21.6c-5.1-1.3-10.6,1.9-13.5,8C584.1,226.4,572.3,269.2,561,297.9L561,297.9z"/>
	<path class="st0" d="M632.7,338.1c4.2,0,39.5-3.5,44.6-6.1c4.8-2.6,7.4-7.4,6.4-11.9c-2.9-14.8-15.1-7.1-35.3-7.1
		c-5.8,0-8.3-2.9-8-8c0.6-4.2,1.3-8.7,2.2-12.6c1.6-5.8,3.9-7.4,10.3-7.7c16.1-1.6,31.8,1.3,31.1-13.8c-1.3-11.3-10.6-10-24.4-11.3
		c-4.5-0.6-6.4-3.9-5.1-7.7c1.3-5.1,2.9-10,4.2-15.4c1.6-6.4,5.1-7.4,11.2-6.8c17.7,2.9,40.5,4.2,38.2-10.6
		c-1-13.2-24.4-13.5-45.9-13.5c-12.5-0.6-18.9,4.5-24.7,19.6c-3.2,7.7-15.1,48.6-18,61.8c-2.2,10.6-4.5,21.2-4.5,32.2
		C615,331,620.8,337.1,632.7,338.1z"/>
	<path class="st0" d="M763.2,343.6c19.6-3.9,34-21.9,32.1-40.5c-2.2-19.6-10.9-34.1-30.2-48.6c-11.2-9-11.2-12.2,2.6-19
		c8.7-4.2,17.7-5.5,26.7-6.8c11.2-2.6,15.4-6.8,14.1-13.8c-1-6.4-5.8-9.7-14.4-9.7c-22.8,0.3-48.2,11.3-59.7,25.7
		c-6.4,9-6.7,17.7-0.3,27.4c3.9,5.8,20.5,18.3,27.6,24.8c14.8,14.8,12.2,35.7-5.5,37.3c-8.7,0.6-15.4-2.6-20.2-9.3
		c-4.2-5.5-9-6.8-14.4-3.9c-5.8,2.9-8.3,9.7-6.4,16.1C718.9,337.1,743.6,347.4,763.2,343.6L763.2,343.6z"/>
</g>
</svg>
