<?xml version="1.0" encoding="utf-8"?>
<!-- Generator: Adobe Illustrator 26.5.0, SVG Export Plug-In . SVG Version: 6.00 Build 0)  -->
<svg version="1.1" id="Layer_1" xmlns="http://www.w3.org/2000/svg" xmlns:xlink="http://www.w3.org/1999/xlink" x="0px" y="0px"
	 viewBox="0 0 409 98" style="enable-background:new 0 0 409 98;" xml:space="preserve">
<style type="text/css">
	.st0{fill:#502E56;}
</style>
<g>
	<path class="st0" d="M17.68,25.04H7.68v9.94h10.01V25.04z"/>
	<path class="st0" d="M29.36,25.04H19.35v9.94h10.01V25.04z"/>
	<path class="st0" d="M41.04,25.04H31.03v9.94h10.01V25.04z"/>
	<path class="st0" d="M76.06,25.04H66.06v9.94h10.01V25.04z"/>
	<path class="st0" d="M17.68,36.64H7.68v9.94h10.01V36.64z"/>
	<path class="st0" d="M29.36,36.64H19.35v9.94h10.01V36.64z"/>
	<path class="st0" d="M41.04,36.64H31.03v9.94h10.01V36.64z"/>
	<path class="st0" d="M52.71,36.64H42.7v9.94h10.01V36.64z"/>
	<path class="st0" d="M76.06,36.64H66.06v9.94h10.01V36.64z"/>
	<path class="st0" d="M87.74,36.64H77.73v9.94h10.01V36.64z"/>
	<path class="st0" d="M17.68,48.24H7.68v9.94h10.01V48.24z"/>
	<path class="st0" d="M29.36,48.24H19.35v9.94h10.01V48.24z"/>
	<path class="st0" d="M52.71,48.24H42.7v9.94h10.01V48.24z"/>
	<path class="st0" d="M64.39,48.24H54.38v9.94h10.01V48.24z"/>
	<path class="st0" d="M76.06,48.24H66.06v9.94h10.01V48.24z"/>
	<path class="st0" d="M87.74,48.24H77.73v9.94h10.01V48.24z"/>
	<path class="st0" d="M17.68,59.84H7.68v9.94h10.01V59.84z"/>
	<path class="st0" d="M29.36,59.84H19.35v9.94h10.01V59.84z"/>
	<path class="st0" d="M64.39,59.84H54.38v9.94h10.01V59.84z"/>
	<path class="st0" d="M76.06,59.84H66.06v9.94h10.01V59.84z"/>
	<path class="st0" d="M87.74,59.84H77.73v9.94h10.01V59.84z"/>
	<path class="st0" d="M107.76,25.04H97.75v9.94h10.01V25.04z"/>
	<path class="st0" d="M119.43,25.04h-10.01v9.94h10.01V25.04z"/>
	<path class="st0" d="M154.46,25.04h-10.01v9.94h10.01V25.04z"/>
	<path class="st0" d="M166.14,25.04h-10.01v9.94h10.01V25.04z"/>
	<path class="st0" d="M107.76,36.64H97.75v9.94h10.01V36.64z"/>
	<path class="st0" d="M119.43,36.64h-10.01v9.94h10.01V36.64z"/>
	<path class="st0" d="M142.78,36.64h-10.01v9.94h10.01V36.64z"/>
	<path class="st0" d="M154.46,36.64h-10.01v9.94h10.01V36.64z"/>
	<path class="st0" d="M166.14,36.64h-10.01v9.94h10.01V36.64z"/>
	<path class="st0" d="M107.76,48.24H97.75v9.94h10.01V48.24z"/>
	<path class="st0" d="M119.43,48.24h-10.01v9.94h10.01V48.24z"/>
	<path class="st0" d="M131.11,48.24H121.1v9.94h10.01V48.24z"/>
	<path class="st0" d="M142.78,48.24h-10.01v9.94h10.01V48.24z"/>
	<path class="st0" d="M154.46,48.24h-10.01v9.94h10.01V48.24z"/>
	<path class="st0" d="M166.14,48.24h-10.01v9.94h10.01V48.24z"/>
	<path class="st0" d="M154.46,59.84h-10.01v9.94h10.01V59.84z"/>
	<path class="st0" d="M166.14,59.84h-10.01v9.94h10.01V59.84z"/>
	<path class="st0" d="M107.76,71.44H97.75v9.94h10.01V71.44z"/>
	<path class="st0" d="M119.43,71.44h-10.01v9.94h10.01V71.44z"/>
	<path class="st0" d="M131.11,71.44H121.1v9.94h10.01V71.44z"/>
	<path class="st0" d="M142.78,71.44h-10.01v9.94h10.01V71.44z"/>
	<path class="st0" d="M154.46,71.44h-10.01v9.94h10.01V71.44z"/>
	<path class="st0" d="M166.14,71.44h-10.01v9.94h10.01V71.44z"/>
	<path class="st0" d="M197.83,1.84h-10.01v9.94h10.01V1.84z"/>
	<path class="st0" d="M186.15,13.44h-10.01v9.94h10.01V13.44z"/>
	<path class="st0" d="M197.83,13.44h-10.01v9.94h10.01V13.44z"/>
	<path class="st0" d="M186.15,25.04h-10.01v9.94h10.01V25.04z"/>
	<path class="st0" d="M197.83,25.04h-10.01v9.94h10.01V25.04z"/>
	<path class="st0" d="M186.15,36.64h-10.01v9.94h10.01V36.64z"/>
	<path class="st0" d="M197.83,36.64h-10.01v9.94h10.01V36.64z"/>
	<path class="st0" d="M186.15,48.24h-10.01v9.94h10.01V48.24z"/>
	<path class="st0" d="M197.83,48.24h-10.01v9.94h10.01V48.24z"/>
	<path class="st0" d="M209.5,48.24H199.5v9.94h10.01V48.24z"/>
	<path class="st0" d="M221.18,48.24h-10.01v9.94h10.01V48.24z"/>
	<path class="st0" d="M197.83,59.84h-10.01v9.94h10.01V59.84z"/>
	<path class="st0" d="M209.5,59.84H199.5v9.94h10.01V59.84z"/>
	<path class="st0" d="M221.18,59.84h-10.01v9.94h10.01V59.84z"/>
	<path class="st0" d="M241.2,25.04h-10.01v9.94h10.01V25.04z"/>
	<path class="st0" d="M252.87,25.04h-10.01v9.94h10.01V25.04z"/>
	<path class="st0" d="M264.55,25.04h-10.01v9.94h10.01V25.04z"/>
	<path class="st0" d="M276.22,25.04h-10.01v9.94h10.01V25.04z"/>
	<path class="st0" d="M287.9,25.04h-10.01v9.94h10.01V25.04z"/>
	<path class="st0" d="M299.58,25.04h-10.01v9.94h10.01V25.04z"/>
	<path class="st0" d="M241.2,36.64h-10.01v9.94h10.01V36.64z"/>
	<path class="st0" d="M252.87,36.64h-10.01v9.94h10.01V36.64z"/>
	<path class="st0" d="M299.58,36.64h-10.01v9.94h10.01V36.64z"/>
	<path class="st0" d="M311.25,36.64h-10.01v9.94h10.01V36.64z"/>
	<path class="st0" d="M241.2,48.24h-10.01v9.94h10.01V48.24z"/>
	<path class="st0" d="M252.87,48.24h-10.01v9.94h10.01V48.24z"/>
	<path class="st0" d="M299.58,48.24h-10.01v9.94h10.01V48.24z"/>
	<path class="st0" d="M311.25,48.24h-10.01v9.94h10.01V48.24z"/>
	<path class="st0" d="M252.87,59.84h-10.01v9.94h10.01V59.84z"/>
	<path class="st0" d="M264.55,59.84h-10.01v9.94h10.01V59.84z"/>
	<path class="st0" d="M276.22,59.84h-10.01v9.94h10.01V59.84z"/>
	<path class="st0" d="M287.9,59.84h-10.01v9.94h10.01V59.84z"/>
	<path class="st0" d="M299.58,59.84h-10.01v9.94h10.01V59.84z"/>
	<path class="st0" d="M311.25,59.84h-10.01v9.94h10.01V59.84z"/>
	<path class="st0" d="M331.27,25.04h-10.01v9.94h10.01V25.04z"/>
	<path class="st0" d="M342.94,25.04h-10.01v9.94h10.01V25.04z"/>
	<path class="st0" d="M354.62,25.04h-10.01v9.94h10.01V25.04z"/>
	<path class="st0" d="M389.65,25.04h-10.01v9.94h10.01V25.04z"/>
	<path class="st0" d="M331.27,36.64h-10.01v9.94h10.01V36.64z"/>
	<path class="st0" d="M342.94,36.64h-10.01v9.94h10.01V36.64z"/>
	<path class="st0" d="M354.62,36.64h-10.01v9.94h10.01V36.64z"/>
	<path class="st0" d="M366.3,36.64h-10.01v9.94h10.01V36.64z"/>
	<path class="st0" d="M389.65,36.64h-10.01v9.94h10.01V36.64z"/>
	<path class="st0" d="M401.32,36.64h-10.01v9.94h10.01V36.64z"/>
	<path class="st0" d="M331.27,48.24h-10.01v9.94h10.01V48.24z"/>
	<path class="st0" d="M342.94,48.24h-10.01v9.94h10.01V48.24z"/>
	<path class="st0" d="M366.3,48.24h-10.01v9.94h10.01V48.24z"/>
	<path class="st0" d="M377.97,48.24h-10.01v9.94h10.01V48.24z"/>
	<path class="st0" d="M389.65,48.24h-10.01v9.94h10.01V48.24z"/>
	<path class="st0" d="M401.32,48.24h-10.01v9.94h10.01V48.24z"/>
	<path class="st0" d="M331.27,59.84h-10.01v9.94h10.01V59.84z"/>
	<path class="st0" d="M342.94,59.84h-10.01v9.94h10.01V59.84z"/>
	<path class="st0" d="M377.97,59.84h-10.01v9.94h10.01V59.84z"/>
	<path class="st0" d="M389.65,59.84h-10.01v9.94h10.01V59.84z"/>
	<path class="st0" d="M401.32,59.84h-10.01v9.94h10.01V59.84z"/>
	<path class="st0" d="M235.57,84.53h-4.38v-2.9h11.92v2.9h-4.37v11.39h-3.16V84.53z"/>
	<path class="st0" d="M247.59,81.63h10.84v2.8h-7.7v2.9h6.78v2.8h-6.78v3h7.81v2.8h-10.95V81.63z"/>
	<path class="st0" d="M262.78,88.81v-0.04c0-4.06,3.08-7.39,7.5-7.39c2.71,0,4.33,0.9,5.67,2.2l-2.02,2.31
		c-1.11-1-2.24-1.61-3.68-1.61c-2.42,0-4.17,2-4.17,4.45v0.04c0,2.45,1.71,4.49,4.17,4.49c1.65,0,2.65-0.65,3.78-1.67l2.01,2.02
		c-1.48,1.57-3.12,2.55-5.9,2.55C265.92,96.16,262.78,92.92,262.78,88.81z"/>
	<path class="st0" d="M280.63,81.63h3.16v5.65h5.84v-5.65h3.16v14.29h-3.16v-5.73h-5.84v5.73h-3.16V81.63z"/>
	<path class="st0" d="M298.31,81.63h2.92l6.74,8.79v-8.79h3.12v14.29h-2.69l-6.96-9.08v9.08h-3.12V81.63z"/>
	<path class="st0" d="M315.96,88.81v-0.04c0-4.06,3.23-7.39,7.66-7.39c4.44,0,7.62,3.28,7.62,7.35v0.04c0,4.06-3.23,7.39-7.66,7.39
		S315.96,92.87,315.96,88.81z M327.94,88.81v-0.04c0-2.45-1.81-4.49-4.36-4.49c-2.55,0-4.31,2-4.31,4.45v0.04
		c0,2.45,1.81,4.49,4.36,4.49S327.94,91.26,327.94,88.81z"/>
	<path class="st0" d="M336.12,81.63h3.16v11.43h7.17v2.86h-10.33V81.63z"/>
	<path class="st0" d="M350.26,88.81v-0.04c0-4.06,3.23-7.39,7.66-7.39c4.44,0,7.62,3.28,7.62,7.35v0.04c0,4.06-3.23,7.39-7.66,7.39
		C353.45,96.16,350.26,92.87,350.26,88.81z M362.24,88.81v-0.04c0-2.45-1.81-4.49-4.36-4.49c-2.55,0-4.31,2-4.31,4.45v0.04
		c0,2.45,1.81,4.49,4.35,4.49C360.47,93.26,362.24,91.26,362.24,88.81z"/>
	<path class="st0" d="M369.79,88.81v-0.04c0-4.06,3.18-7.39,7.54-7.39c2.59,0,4.15,0.69,5.65,1.96l-1.99,2.39
		c-1.11-0.92-2.1-1.45-3.76-1.45c-2.3,0-4.13,2.02-4.13,4.45v0.04c0,2.61,1.81,4.53,4.36,4.53c1.15,0,2.18-0.29,2.98-0.86v-2.04
		h-3.18v-2.71h6.24v6.2c-1.48,1.24-3.51,2.26-6.14,2.26C372.87,96.16,369.79,93.04,369.79,88.81z"/>
	<path class="st0" d="M392.64,90.28l-5.52-8.65h3.69l3.43,5.74l3.49-5.74h3.59l-5.53,8.59v5.7h-3.16V90.28z"/>
</g>
</svg>
