<svg xmlns="http://www.w3.org/2000/svg" viewBox="0 0 490 150"><style type="text/css">
	.st0{fill:#502E56;}
</style><path class="st0" d="M161.8 75c0-10.7-12.7-19.9-32.6-25.5 0.9-3.2 1.6-6.4 2.2-9.4 2.8-15.9 0.3-27.2-7-31.6C117 4 105.9 6.9 93.1 16.8c-3 2.3-6.1 5-9.1 7.9 -3-2.9-6.1-5.6-9.1-7.9C62.1 7 51 4 43.6 8.4c-7.4 4.5-9.9 15.7-7 31.6 0.5 3 1.3 6.2 2.2 9.4C18.9 55.1 6.1 64.3 6.1 75s12.8 19.9 32.6 25.5c-0.9 3.2-1.6 6.4-2.2 9.4 -2.8 15.9-0.3 27.2 7 31.6 2.2 1.4 4.8 2 7.7 2 6.6 0 14.7-3.5 23.6-10.4 3-2.3 6.1-5 9.1-7.9 3 2.9 6.1 5.6 9.1 7.9 8.9 6.9 17 10.4 23.6 10.4 2.9 0 5.5-0.7 7.7-2 7.4-4.5 9.9-15.7 7-31.6 -0.5-3-1.3-6.2-2.2-9.4C149.1 94.9 161.8 85.7 161.8 75L161.8 75zM95.2 19.6c8.2-6.3 15.7-9.7 21.5-9.7 2.2 0 4.2 0.5 5.9 1.5 6 3.6 8 13.9 5.4 28.1 -0.5 2.9-1.2 6-2.1 9.1 -7.5-1.9-15.8-3.3-24.8-4 -4.7-6.4-9.7-12.3-14.7-17.4C89.3 24.3 92.3 21.8 95.2 19.6L95.2 19.6zM57.4 91.2c2.2 3.6 4.5 7.1 6.8 10.5 -7.6-0.8-14.7-2.1-21.1-3.7 1.9-6.1 4.4-12.6 7.4-19.1C52.6 83 54.9 87.1 57.4 91.2zM43.1 52c6.4-1.6 13.6-2.9 21.1-3.7 -2.4 3.4-4.6 6.9-6.8 10.5 -2.5 4.1-4.8 8.2-6.8 12.2C47.5 64.6 45 58.2 43.1 52zM60.3 89.4c-2.9-4.8-5.5-9.6-7.9-14.4 2.4-4.8 5-9.6 7.9-14.4 2.7-4.4 5.5-8.7 8.4-12.7 4.9-0.4 10-0.6 15.3-0.6 5.2 0 10.3 0.2 15.3 0.6 2.9 4 5.7 8.3 8.4 12.7 2.9 4.8 5.5 9.6 7.9 14.4 -2.4 4.8-5 9.6-7.9 14.4 -2.7 4.4-5.5 8.7-8.4 12.7 -4.9 0.4-10 0.6-15.3 0.6 -5.2 0-10.3-0.2-15.3-0.6C65.8 98.1 63 93.8 60.3 89.4zM110.6 91.2c2.5-4.1 4.8-8.2 6.8-12.2 3 6.5 5.5 12.9 7.4 19.1 -6.4 1.6-13.6 2.9-21.1 3.7C106.1 98.3 108.4 94.8 110.6 91.2zM110.6 58.8c-2.2-3.6-4.5-7.1-6.8-10.5 7.6 0.8 14.7 2.1 21.1 3.7 -1.9 6.1-4.4 12.6-7.4 19.1C115.4 67 113.1 62.9 110.6 58.8zM96.5 44.2c-4.1-0.3-8.3-0.4-12.6-0.4 -4.3 0-8.5 0.1-12.5 0.4C75.5 38.9 79.7 34 84 29.6 88.3 34 92.5 38.9 96.5 44.2zM45.4 11.4c1.7-1 3.6-1.5 5.9-1.5 5.8 0 13.3 3.3 21.5 9.7 2.9 2.2 5.8 4.8 8.8 7.6 -5 5.1-10 11-14.7 17.4 -9 0.8-17.3 2.2-24.8 4 -0.9-3.1-1.6-6.2-2.1-9.1C37.4 25.3 39.4 15 45.4 11.4L45.4 11.4zM9.6 75c0-8.9 12-17 30.2-22.1C42 60 45 67.5 48.6 75c-3.7 7.5-6.6 15-8.8 22.1C21.6 92 9.6 83.9 9.6 75zM72.8 130.4c-8.2 6.4-15.7 9.7-21.5 9.7 -2.2 0-4.2-0.5-5.9-1.5 -6-3.6-8-13.9-5.4-28.1 0.5-3 1.2-6 2.1-9.1 7.5 1.9 15.8 3.3 24.8 4 4.7 6.4 9.6 12.3 14.7 17.4C78.6 125.7 75.7 128.2 72.8 130.4L72.8 130.4zM84 120.4c-4.3-4.4-8.5-9.3-12.5-14.6 4.1 0.3 8.3 0.4 12.5 0.4 4.3 0 8.5-0.1 12.6-0.4C92.5 111.1 88.3 116 84 120.4zM122.6 138.6c-6 3.6-16 0.6-27.4-8.2 -2.9-2.2-5.8-4.8-8.7-7.6 5-5.1 9.9-11 14.7-17.4 9-0.8 17.3-2.2 24.8-4 0.9 3.1 1.6 6.2 2.1 9.1 0.7 4.1 1.1 7.8 1.1 11.2C129.1 130.1 126.9 136 122.6 138.6L122.6 138.6zM128.2 97.1C126 90 123 82.6 119.4 75c3.7-7.5 6.6-15 8.8-22.1 18.2 5.1 30.2 13.2 30.2 22.1S146.4 92 128.2 97.1z"/><circle class="st0" cx="84" cy="75" r="12.5"/><path class="st0" d="M237.2 78v0.8h-19l-11.6-23.4h-8.2v23.4h-17.7V9.6h27.9c5.4 0 10.1 0.8 14 2.4 4 1.6 7 4 9.2 7.1s3.3 6.9 3.3 11.4c0 5.3-1 9.5-3 12.6s-5 5.6-8.9 7.5L237.2 78zM198.4 41h10.2c2.9 0 5.1-0.7 6.5-2.2 1.5-1.4 2.2-3.6 2.2-6.3s-0.8-4.8-2.3-6.3 -3.7-2.2-6.5-2.2h-10.2v17H198.4zM262.5 24v12.5h25.7v13.8h-25.7v14.3H293v14.3h-48.2V9.6h48.4V24H262.5zM341.3 67.4h-22.2l-3.5 11.5h-19.1l25.2-69.2h16.9L364 78.9h-19.1L341.3 67.4zM336.9 53l-6.7-21.9L323.4 53H336.9zM419.2 68c-2.4 3.8-5.8 6.7-10.1 8.7 -4.3 2-9.3 3.1-14.9 3.1 -6.2 0-11.5-1.4-16-4.1s-7.8-6.6-10.2-11.8c-2.3-5.1-3.5-11.2-3.5-18.2v-2.9c0-7 1.2-13 3.6-18.2 2.4-5.1 5.8-9.1 10.3-11.9 4.4-2.8 9.5-4.1 15.4-4.1 6 0 11.1 1.1 15.4 3.2s7.6 5.1 10 9c2.4 3.8 3.7 8.2 4.2 13.2h-17.7c0-3.7-1-6.5-2.8-8.2s-4.8-2.6-9-2.6c-2.6 0-4.8 0.6-6.4 1.8 -1.6 1.2-2.8 3.2-3.6 6.1 -0.8 2.8-1.2 6.7-1.2 11.6v3c0 5.1 0.4 9 1.1 11.8s1.9 4.8 3.6 5.9c1.6 1.2 3.9 1.7 6.9 1.7 3.6 0 6.4-0.8 8.4-2.4 1.9-1.6 2.9-4.2 2.9-7.7h17.6C422.9 59.9 421.6 64.2 419.2 68L419.2 68zM483.9 24h-20.6v54.8h-17.8V24h-20.1V9.6h58.5V24zM211.2 134.5c-1.3 2.2-3.1 3.9-5.5 5.1 -2.4 1.2-5.2 1.8-8.6 1.8 -3.4 0-6.3-0.8-8.9-2.5 -2.6-1.7-4.6-4-6-7.1 -1.4-3-2.1-6.6-2.1-10.6v-4.4c0-4 0.7-7.5 2.1-10.6 1.4-3 3.5-5.4 6.1-7.1s5.7-2.5 9.3-2.5c3.2 0 5.9 0.6 8.2 1.8 2.3 1.2 4.1 2.9 5.4 5.1 1.3 2.2 2.1 4.7 2.4 7.7h-5.8c-0.5-3.2-1.5-5.7-3-7.4 -1.6-1.7-3.9-2.5-7.1-2.5 -2.5 0-4.7 0.6-6.4 1.9 -1.8 1.3-3.1 3.1-4 5.4s-1.3 5-1.3 8.1v4.4c0 2.9 0.4 5.6 1.2 7.9 0.8 2.3 2.1 4.2 3.7 5.5 1.7 1.4 3.7 2 6.2 2 2.4 0 4.3-0.4 5.7-1.1 1.5-0.7 2.6-1.8 3.3-3.2s1.3-3.2 1.7-5.4h5.8C213.3 129.8 212.5 132.3 211.2 134.5L211.2 134.5zM252.7 131.6c-1.4 3.1-3.4 5.6-6.1 7.2 -2.6 1.7-5.7 2.5-9.2 2.5 -3.4 0-6.5-0.8-9.1-2.5 -2.7-1.7-4.7-4.1-6.2-7.3s-2.2-6.9-2.2-11.1v-2.8c0-4.3 0.7-8 2.2-11.1 1.5-3.2 3.5-5.6 6.2-7.3 2.6-1.7 5.7-2.5 9.1-2.5 3.5 0 6.6 0.8 9.2 2.5 2.6 1.7 4.7 4.1 6.1 7.3 1.4 3.2 2.1 6.9 2.1 11.1v2.8C254.9 124.8 254.2 128.5 252.7 131.6zM247.7 108.9c-0.9-2.4-2.3-4.2-4-5.4 -1.8-1.2-3.9-1.9-6.3-1.9s-4.4 0.6-6.2 1.9c-1.8 1.2-3.1 3.1-4.1 5.5s-1.4 5.3-1.4 8.7v2.8c0 3.4 0.5 6.3 1.4 8.7 1 2.4 2.3 4.2 4.1 5.5 1.8 1.2 3.8 1.9 6.2 1.9 3.7 0 6.6-1.4 8.7-4.1 2-2.8 3-6.7 3-11.9v-2.8C249.1 114.2 248.7 111.3 247.7 108.9L247.7 108.9zM291.1 140.8l-21.8-33.6v33.6h-5.8V97.4h5.8l21.9 33.7V97.4h5.7v43.4H291.1L291.1 140.8zM312.9 102v14.9H331v4.7h-18.2v19.2H307V97.4h27v4.7L312.9 102 312.9 102zM352.6 140.8v-3.9l14.2-15.8c1.8-2 3.1-3.6 4.1-5 1-1.3 1.6-2.6 2-3.6 0.4-1.1 0.6-2.2 0.6-3.4 0-1.5-0.3-2.8-0.9-4s-1.5-2.1-2.6-2.8c-1.1-0.7-2.5-1-4-1 -2.8 0-5 0.8-6.4 2.4 -1.5 1.6-2.2 3.8-2.2 6.5h-5.6c0-2.5 0.5-4.7 1.6-6.8 1.1-2 2.7-3.6 4.9-4.8 2.1-1.2 4.7-1.8 7.7-1.8 2.7 0 5 0.5 7 1.4 2 1 3.5 2.3 4.5 4.1 1.1 1.8 1.6 3.8 1.6 6.1 0 2.4-0.7 4.8-2.2 7.4 -1.5 2.5-3.4 5.2-6 7.9l-11.6 12.7h21.8v4.5L352.6 140.8 352.6 140.8zM410.7 136.9c-2.3 3-5.7 4.5-10.2 4.5 -4.4 0-7.8-1.5-10.2-4.5 -2.4-3-3.6-7.9-3.6-14.7v-6.7c0-6.8 1.2-11.6 3.5-14.5 2.4-2.9 5.8-4.4 10.2-4.4 4.5 0 7.9 1.5 10.2 4.4 2.3 2.9 3.5 7.7 3.5 14.5v6.7C414.2 129.1 413 134 410.7 136.9zM406.6 104.4c-1.3-2.1-3.4-3.1-6.1-3.1s-4.7 1.1-6.1 3.2 -2 5.5-2 10.3v8.4c0 4.8 0.7 8.2 2.1 10.5 1.4 2.2 3.4 3.3 6.1 3.3s4.8-1.1 6.1-3.3c1.3-2.2 2-5.7 2-10.5v-8.4C408.6 109.9 407.9 106.5 406.6 104.4zM433.9 140.8v-36.9l-11.1 4.1v-5l15.8-5.9h0.9v43.7H433.9L433.9 140.8zM481 122.7c1.3 1.9 2 4 2 6.4 0 2.6-0.6 4.8-1.8 6.7 -1.2 1.9-2.8 3.3-4.9 4.3s-4.4 1.4-7.1 1.4 -5-0.5-7.1-1.4c-2.1-1-3.7-2.4-4.9-4.2 -1.2-1.9-1.8-4.1-1.8-6.7 0-2.4 0.6-4.5 1.9-6.4s3.1-3.3 5.3-4.3c-2-1-3.5-2.3-4.6-4s-1.7-3.6-1.7-5.7c0-2.5 0.5-4.6 1.6-6.4s2.6-3.2 4.6-4.1c1.9-0.9 4.2-1.4 6.6-1.4 2.5 0 4.7 0.5 6.6 1.4s3.4 2.3 4.5 4.1c1.1 1.8 1.6 3.9 1.6 6.4 0 2.1-0.6 4-1.7 5.8 -1.1 1.7-2.7 3-4.7 4C477.9 119.4 479.7 120.8 481 122.7zM475.2 134.8c1.5-1.4 2.2-3.4 2.2-5.9 0-1.6-0.3-3-1-4.3s-1.7-2.2-2.9-2.9c-1.3-0.7-2.7-1-4.3-1 -1.7 0-3.1 0.3-4.3 1 -1.2 0.7-2.2 1.7-2.8 2.9 -0.7 1.2-1 2.7-1 4.3 0 2.5 0.7 4.5 2.2 5.9s3.5 2.1 6 2.1S473.8 136.2 475.2 134.8L475.2 134.8zM465.4 102.2c-1.1 0.6-1.9 1.5-2.6 2.6 -0.6 1.1-0.9 2.5-0.9 4s0.3 2.8 0.9 3.9 1.4 2 2.6 2.6c1.1 0.6 2.4 0.9 3.8 0.9s2.7-0.3 3.8-0.9c1.1-0.6 1.9-1.5 2.5-2.6s0.9-2.4 0.9-3.9c0-1.4-0.3-2.7-0.9-3.9 -0.6-1.1-1.5-2-2.6-2.7 -1.1-0.6-2.3-1-3.8-1C467.8 101.2 466.5 101.5 465.4 102.2L465.4 102.2z"/></svg>
