<?xml version="1.0" encoding="utf-8"?>
<!-- Generator: Adobe Illustrator 24.0.0, SVG Export Plug-In . SVG Version: 6.00 Build 0)  -->
<svg version="1.1" id="Layer_1" xmlns="http://www.w3.org/2000/svg" xmlns:xlink="http://www.w3.org/1999/xlink" x="0px" y="0px"
	 viewBox="0 0 490 150" enable-background="new 0 0 490 150" xml:space="preserve">
<path fill="#502E56" d="M162.06,75c0-10.64-12.7-19.86-32.51-25.44c0.9-3.22,1.62-6.36,2.16-9.39c2.83-15.88,0.35-27.09-7-31.54
	S106.27,7.13,93.49,17c-3.14,2.46-6.15,5.1-9,7.89c-2.89-2.8-5.94-5.43-9.12-7.89C62.59,7.14,51.51,4.17,44.16,8.63
	s-9.84,15.66-7,31.54c0.54,3,1.25,6.17,2.15,9.39C19.51,55.14,6.79,64.36,6.79,75s12.72,19.86,32.52,25.43
	c-0.9,3.23-1.61,6.37-2.15,9.4c-2.84,15.87-0.35,27.08,7,31.54c2.32,1.37,4.98,2.06,7.67,2c6.57,0,14.65-3.52,23.54-10.39
	c3.17-2.46,6.2-5.09,9.07-7.88c2.84,2.8,5.85,5.43,9,7.88c8.9,6.87,17,10.39,23.54,10.39c2.7,0.06,5.36-0.63,7.68-2
	c7.35-4.46,9.83-15.67,7-31.54c-0.54-3-1.26-6.17-2.16-9.4C149.36,94.86,162.06,85.64,162.06,75z M95.59,19.71
	c8.22-6.34,15.69-9.65,21.46-9.65c2.06-0.05,4.09,0.47,5.87,1.51c6,3.62,7.93,13.82,5.4,28c-0.52,2.94-1.23,6-2.1,9.12
	c-8.12-1.99-16.39-3.33-24.73-4c-4.46-6.13-9.35-11.94-14.62-17.38C89.63,24.61,92.54,22.07,95.59,19.71z M57.88,91.11
	c2.19,3.61,4.47,7.11,6.81,10.47c-7.1-0.73-14.13-1.96-21.06-3.67c2.03-6.49,4.49-12.84,7.37-19.01
	C53.13,83,55.42,87.06,57.88,91.11z M43.63,52.11c6.93-1.71,13.96-2.94,21.06-3.67c-2.34,3.36-4.62,6.86-6.81,10.47
	c-2.46,4-4.75,8.14-6.83,12.21c-2.9-6.17-5.38-12.53-7.42-19.03V52.11z M60.82,89.32c-2.89-4.75-5.53-9.55-7.89-14.32
	c2.36-4.76,5-9.57,7.89-14.33c2.69-4.41,5.5-8.67,8.39-12.67c4.93-0.4,10-0.61,15.22-0.61S94.73,47.6,99.66,48
	c2.9,4,5.7,8.27,8.38,12.68c2.9,4.76,5.54,9.57,7.9,14.33c-2.36,4.77-5,9.57-7.9,14.32c-2.68,4.42-5.48,8.67-8.38,12.69
	c-4.93,0.4-10,0.61-15.23,0.61s-10.29-0.21-15.22-0.61C66.32,98,63.51,93.74,60.82,89.32z M111,91.11c2.46-4,4.73-8.13,6.83-12.2
	c2.89,6.16,5.37,12.51,7.41,19c-6.93,1.71-13.96,2.94-21.06,3.67C106.52,98.22,108.79,94.72,111,91.11z M111,58.89
	c-2.2-3.61-4.47-7.11-6.82-10.47c7.1,0.73,14.13,1.96,21.06,3.67c-2.04,6.49-4.52,12.84-7.41,19C115.73,67,113.45,62.94,111,58.89z
	 M97,44.33c-4.07-0.26-8.25-0.39-12.52-0.39s-8.45,0.13-12.52,0.39c3.86-5.12,8.05-10,12.52-14.6C88.95,34.33,93.14,39.21,97,44.33z
	 M46,11.57c1.78-1.04,3.82-1.56,5.88-1.51c5.76,0,13.23,3.31,21.45,9.65c3.03,2.36,5.93,4.9,8.67,7.6
	c-5.28,5.43-10.16,11.23-14.62,17.35c-8.34,0.67-16.62,2.01-24.75,4c-0.86-3.13-1.57-6.18-2.09-9.12C38,25.39,40,15.19,45.94,11.57
	L46,11.57z M10.24,75c0-8.88,12-16.94,30.07-22c2.37,7.55,5.31,14.9,8.79,22c-3.48,7.1-6.42,14.46-8.79,22
	C22.19,92,10.24,83.88,10.24,75z M73.24,130.29c-8.22,6.33-15.69,9.65-21.45,9.65c-2.06,0.05-4.1-0.47-5.88-1.51
	c-6-3.62-7.92-13.82-5.4-28c0.52-3,1.23-6,2.09-9.12c8.13,1.99,16.41,3.33,24.75,4c4.46,6.14,9.36,11.95,14.65,17.39
	c-2.76,2.69-5.68,5.23-8.73,7.59L73.24,130.29z M84.4,120.29c-4.47-4.6-8.66-9.48-12.52-14.6c4.07,0.26,8.25,0.39,12.52,0.39
	s8.47-0.14,12.6-0.41c-3.88,5.12-8.08,10-12.57,14.6L84.4,120.29z M122.89,138.45c-6,3.62-15.92,0.65-27.33-8.14
	c-3.05-2.36-5.96-4.9-8.72-7.59c5.27-5.44,10.16-11.24,14.62-17.36c8.34-0.67,16.61-2.01,24.73-4c0.87,3.13,1.58,6.17,2.1,9.12
	c0.68,3.67,1.04,7.4,1.07,11.14c0.03,8.28-2.18,14.23-6.44,16.81L122.89,138.45z M128.56,97c-2.37-7.54-5.31-14.9-8.79-22
	c3.48-7.1,6.42-14.46,8.79-22c18.12,5.08,30.06,13.14,30.06,22S146.68,91.94,128.56,97z"/>
<circle fill="#502E56" cx="84.43" cy="75" r="12.46"/>
<path fill="#502E56" d="M237.27,78v0.75h-19L206.7,55.47h-8.2v23.32h-17.68v-69h27.82c4.78-0.11,9.53,0.71,14,2.4
	c3.7,1.39,6.89,3.86,9.17,7.08c2.21,3.37,3.33,7.34,3.19,11.37c0,5.33-1,9.51-3,12.53c-2.22,3.24-5.28,5.82-8.84,7.47L237.27,78z
	 M198.5,41.11h10.14c2.88,0,5.05-0.72,6.52-2.15s2.2-3.54,2.2-6.33c0.14-2.33-0.68-4.61-2.27-6.31c-1.77-1.57-4.09-2.37-6.45-2.22
	H198.5V41.11z"/>
<path fill="#502E56" d="M262.44,24.1v12.46h25.64v13.75h-25.64v14.22h30.38v14.26h-48.06v-69H293V24.1H262.44z"/>
<path fill="#502E56" d="M341.05,67.37h-22.18l-3.51,11.42h-19l25.17-69h16.77l25.31,69h-19.05L341.05,67.37z M336.64,53.06
	l-6.73-21.81l-6.68,21.81H336.64z"/>
<path fill="#502E56" d="M418.7,68c-2.48,3.79-5.98,6.8-10.1,8.68c-4.67,2.09-9.76,3.12-14.88,3c-5.61,0.17-11.15-1.24-16-4.07
	c-4.5-2.79-8.04-6.88-10.14-11.74c-2.45-5.74-3.63-11.93-3.48-18.17v-2.83c-0.15-6.24,1.09-12.43,3.62-18.13
	c2.19-4.87,5.76-8.98,10.28-11.83c4.61-2.8,9.93-4.23,15.33-4.12c5.29-0.15,10.54,0.95,15.32,3.21c4.09,2,7.54,5.12,9.93,9
	c2.42,3.99,3.84,8.5,4.15,13.15H405.1c0-3.73-1-6.46-2.75-8.18s-4.81-2.58-9-2.58c-2.25-0.12-4.48,0.5-6.35,1.77
	c-1.83,1.58-3.1,3.71-3.62,6.07c-0.92,3.78-1.32,7.66-1.21,11.54v3c-0.11,3.95,0.26,7.89,1.11,11.75c0.74,2.78,1.94,4.75,3.58,5.9
	c2.06,1.27,4.46,1.87,6.87,1.73c3.63,0,6.42-0.8,8.34-2.41S405,58.54,405,55h17.59C422.52,59.61,421.18,64.11,418.7,68z"/>
<path fill="#502E56" d="M483.21,24.1h-20.57v54.69h-17.73V24.1h-20.05V9.78h58.35V24.1z"/>
<path fill="#502E56" d="M211.3,134.32c-1.3,2.17-3.2,3.92-5.46,5.06c-2.67,1.29-5.61,1.92-8.58,1.83c-3.14,0.06-6.22-0.8-8.87-2.48
	c-2.61-1.72-4.67-4.15-5.95-7c-1.47-3.31-2.19-6.91-2.12-10.53v-4.38c-0.08-3.63,0.65-7.24,2.13-10.56c1.3-2.88,3.42-5.31,6.09-7
	c2.78-1.7,5.99-2.56,9.25-2.48c2.83-0.1,5.65,0.49,8.21,1.71c2.22,1.15,4.07,2.9,5.34,5.06c1.33,2.35,2.13,4.95,2.36,7.64h-5.77
	c-0.46-3.24-1.47-5.68-3-7.34s-3.93-2.48-7.11-2.48c-2.28-0.07-4.53,0.59-6.4,1.9c-1.81,1.36-3.18,3.23-3.94,5.36
	c-0.93,2.59-1.38,5.34-1.32,8.09v4.44c-0.04,2.68,0.37,5.34,1.22,7.88c0.7,2.15,1.99,4.06,3.72,5.51c1.76,1.37,3.96,2.08,6.19,2
	c1.97,0.08,3.93-0.3,5.72-1.12c1.41-0.7,2.57-1.83,3.31-3.22c0.83-1.69,1.38-3.5,1.65-5.36h5.77
	C213.48,129.49,212.64,132.04,211.3,134.32z"/>
<path fill="#502E56" d="M252.71,131.48c-1.26,2.95-3.37,5.46-6.06,7.22c-7.8,5.04-18.2,2.8-23.24-5c-0.47-0.72-0.88-1.48-1.23-2.26
	c-1.54-3.49-2.28-7.28-2.18-11.09v-2.77c-0.09-3.81,0.66-7.6,2.2-11.09c1.31-2.97,3.45-5.49,6.16-7.27c2.72-1.7,5.87-2.58,9.08-2.52
	c3.25-0.07,6.45,0.8,9.21,2.52c2.7,1.77,4.81,4.29,6.08,7.25c1.5,3.51,2.24,7.3,2.15,11.11v2.77
	C254.96,124.17,254.22,127.97,252.71,131.48z M247.71,108.82c-0.75-2.17-2.15-4.07-4-5.43c-1.86-1.26-4.07-1.91-6.32-1.84
	c-2.21-0.05-4.37,0.6-6.19,1.86c-1.87,1.37-3.29,3.26-4.08,5.44c-1.02,2.78-1.5,5.72-1.43,8.68v2.82c-0.07,2.97,0.42,5.93,1.45,8.72
	c0.79,2.18,2.22,4.08,4.09,5.46c1.83,1.26,4,1.91,6.22,1.86c3.39,0.16,6.63-1.39,8.63-4.13c2-2.76,3-6.73,3-11.91v-2.82
	c0.09-2.96-0.37-5.91-1.34-8.71L247.71,108.82z"/>
<path fill="#502E56" d="M291,140.62l-21.75-33.51v33.51h-5.77V97.29h5.77l21.84,33.6v-33.6h5.71v43.33H291z"/>
<path fill="#502E56" d="M312.68,102v14.85h18.13v4.64h-18.13v19.17h-5.77V97.29h26.84V102H312.68z"/>
<path fill="#502E56" d="M352.27,140.55v-3.92l14.19-15.79c1.45-1.59,2.81-3.26,4.07-5c0.82-1.12,1.5-2.34,2-3.63
	c0.38-1.08,0.58-2.22,0.58-3.37c0.02-1.37-0.29-2.72-0.9-3.94c-0.57-1.16-1.47-2.13-2.58-2.8c-1.22-0.69-2.6-1.04-4-1
	c-2.81,0-4.95,0.8-6.42,2.41c-1.55,1.8-2.34,4.12-2.21,6.49h-5.56c-0.03-2.35,0.53-4.67,1.64-6.75c1.11-2.04,2.79-3.71,4.84-4.8
	c4.61-2.24,9.96-2.36,14.66-0.33c1.87,0.88,3.44,2.29,4.52,4.06c1.08,1.84,1.62,3.93,1.58,6.06c-0.06,2.6-0.82,5.14-2.19,7.36
	c-1.68,2.83-3.67,5.47-5.93,7.87L359,136.09h21.71v4.46H352.27z"/>
<path fill="#502E56" d="M410.18,136.7c-2.33,2.96-5.7,4.44-10.13,4.45c-4.43,0.01-7.82-1.48-10.17-4.46
	c-2.37-2.98-3.56-7.85-3.56-14.6v-6.63c0-6.74,1.17-11.56,3.52-14.45c2.35-2.89,5.73-4.34,10.16-4.34c4.44,0,7.83,1.45,10.17,4.34
	c2.34,2.89,3.51,7.71,3.51,14.45v6.63C413.67,128.87,412.51,133.74,410.18,136.7z M406.1,104.27c-2.39-3.37-7.06-4.15-10.43-1.76
	c-0.68,0.48-1.27,1.08-1.76,1.76c-1.33,2.1-2,5.52-2,10.26V123c0,4.74,0.69,8.21,2.08,10.42c1.26,2.14,3.6,3.42,6.09,3.32
	c2.48,0.13,4.82-1.14,6.07-3.29c1.33-2.19,2-5.67,2-10.45v-8.41C408.12,109.8,407.44,106.36,406.1,104.27z"/>
<path fill="#502E56" d="M433.26,140.55v-36.72l-11.06,4.08v-5L438,97h0.86v43.52L433.26,140.55z"/>
<path fill="#502E56" d="M475.59,99.12c2.09,1.67,3.66,3.89,4.54,6.41c0.99,2.77,1.48,5.68,1.45,8.62v2c0.05,4.05-0.47,8.09-1.55,12
	c-1.02,3.53-3.16,6.64-6.1,8.85c-3.03,2.35-7.37,3.53-13,3.52h-0.56V136H461c5.47,0,9.3-1.31,11.49-3.94s3.36-6.14,3.51-10.54
	c-1.16,1.38-2.59,2.52-4.2,3.33c-1.59,0.81-3.35,1.23-5.14,1.22c-2.45,0.08-4.86-0.64-6.87-2.06c-1.85-1.37-3.29-3.23-4.14-5.37
	c-1.88-4.7-1.81-9.96,0.19-14.61c0.97-2.2,2.56-4.07,4.58-5.38c2.19-1.37,4.73-2.07,7.31-2C470.56,96.55,473.33,97.42,475.59,99.12z
	 M472.59,119.87c1.51-1.09,2.7-2.56,3.44-4.26v-2.17c0.05-2.25-0.33-4.49-1.13-6.59c-0.6-1.65-1.64-3.11-3-4.22
	c-1.18-0.93-2.63-1.44-4.13-1.44c-1.53-0.04-3.03,0.42-4.28,1.31c-1.25,0.92-2.21,2.17-2.77,3.61c-0.66,1.66-0.98,3.43-0.95,5.22
	c-0.01,1.71,0.29,3.4,0.88,5c0.53,1.47,1.44,2.78,2.65,3.77c1.21,0.97,2.73,1.48,4.29,1.44c1.81,0,3.57-0.58,5.02-1.67H472.59z"/>
</svg>
