<?xml version="1.0" encoding="utf-8"?>
<!-- Generator: Adobe Illustrator 24.0.0, SVG Export Plug-In . SVG Version: 6.00 Build 0)  -->
<svg version="1.1" id="Layer_1" xmlns="http://www.w3.org/2000/svg" xmlns:xlink="http://www.w3.org/1999/xlink" x="0px" y="0px"
	 viewBox="0 0 500 230" style="enable-background:new 0 0 500 230;" xml:space="preserve">
<style type="text/css">
	.st0{fill:#502E56;}
</style>
<title>color</title>
<path class="st0" d="M132.4,22.5v-12c-5.2,3.2-10.1,6.9-14.7,10.9c-1.7,1.5-3.5,3.1-5.2,4.8c-1.1-1.1-2.3-2.1-3.4-3.1
	C88.8,5.2,69.1-1.7,57.4,5.1C46.1,11.6,42.3,30.6,47.3,56c0.4,2.3,1,4.6,1.5,6.9c-2.7,0.8-5.3,1.6-7.8,2.5c-23.8,8.3-38,21-38,34
	c0,13.5,15.3,27.1,40,35.6c1.8,0.6,3.7,1.2,5.6,1.8c-0.6,2.6-1.2,5.1-1.7,7.5c-4.7,24.8-0.8,43.5,10.5,50c3.2,1.8,6.9,2.7,10.6,2.6
	c11.3,0,25.7-6.9,40.2-19.6c1.4-1.3,2.9-2.6,4.3-4c1.9,1.8,3.8,3.6,5.7,5.2c4.4,3.8,9.1,7.2,14,10.2v-11.9c-2.4-1.7-4.9-3.6-7.5-5.9
	c-1.7-1.5-3.5-3.1-5.2-4.8c4.2-4.6,8.5-9.8,12.7-15.5v-17c-0.1,0-0.2,0-0.2,0c-6.4,0.5-13,0.7-19.8,0.7s-13.3-0.2-19.6-0.6
	c-3.7-5.4-7.2-11-10.6-16.8s-6.4-11.5-9.2-17.3c2.8-5.8,5.9-11.7,9.2-17.4S89,70.9,92.6,65.6c6.5-0.5,13.1-0.8,19.7-0.8
	s13.3,0.3,19.7,0.7h0.3V48.9c-4.3-5.6-8.6-10.9-13-15.6c1.6-1.5,3.2-3,4.8-4.4C127,26.5,129.7,24.4,132.4,22.5z M51.4,127.2
	c-1.7-0.5-3.4-1-5.1-1.6c-16.1-5.5-33.3-16-33.3-26.2c0-6.8,9.7-17.1,31.4-24.7c2.3-0.8,4.7-1.6,7.2-2.3c2.9,9.3,6.4,18.3,10.5,27.1
	C57.8,108.6,54.3,117.8,51.4,127.2L51.4,127.2z M112.4,144.4c4.2,0,8.4-0.1,12.5-0.3c-4,5.5-8.1,10.4-12.2,14.9
	c-4.2-4.6-8.4-9.5-12.5-14.9C104.2,144.3,108.2,144.4,112.4,144.4L112.4,144.4z M87.4,143.4c5.6,8,11.8,15.6,18.4,22.8
	c-1.3,1.2-2.6,2.5-3.9,3.6C89,181,71.3,190.7,62.5,185.6c-5.9-3.4-10-16.9-5.7-39.5c0.4-2.2,0.9-4.6,1.5-6.9
	C67.9,141.2,77.6,142.6,87.4,143.4L87.4,143.4z M73.6,122c2.1,3.6,4.3,7.2,6.5,10.7c-6.8-0.8-13.1-1.8-19.1-3.1
	c1.9-5.9,4.1-12,6.7-18.3C69.6,114.9,71.5,118.5,73.6,122z M73.6,77.2c-2.1,3.6-4,7.1-5.8,10.7c-2.6-6-4.7-12-6.6-17.8
	c5.9-1.3,12.2-2.4,18.7-3.2C77.7,70.2,75.6,73.7,73.6,77.2L73.6,77.2z M87.1,56c-9.6,0.9-19.2,2.3-28.7,4.5c-0.5-2.2-1-4.3-1.4-6.4
	c-4.5-23-0.4-37.1,5.3-40.4c6.1-3.6,21.3,0.2,40.1,16.9c1,0.9,2,1.8,3,2.8C98.8,40.5,92.7,48.1,87.1,56z M124.6,55.1
	c-4-0.2-8.1-0.3-12.3-0.3c-4.1,0-8.2,0.1-12.2,0.3c4-5.3,8.1-10.2,12.3-14.7C116.5,44.9,120.6,49.8,124.6,55.1L124.6,55.1z"/>
<path class="st0" d="M158,91.3V2.5h32.6c7.1,0,13,1.2,17.6,3.6c4.3,2.2,7.9,5.6,10.3,9.8c2.3,4.2,3.5,8.9,3.4,13.6
	c0,5.2-1.4,10.4-4.2,14.8c-2.8,4.5-7.3,7.7-13.2,9.8l18.4,37.1h-18.6l-16.5-35h-13.4v35L158,91.3z M174.2,44.4h15.3
	c5.4,0,9.4-1.3,11.9-3.9c2.5-2.6,3.8-6.1,3.9-10.4c0-4.2-1.2-7.6-3.7-10.1s-6.5-3.8-12.1-3.8h-15.2L174.2,44.4z"/>
<path class="st0" d="M263.4,92.8c-5.9,0.1-11.7-1.3-16.9-4.1c-4.8-2.6-8.8-6.6-11.5-11.4c-2.9-5.2-4.3-11.1-4.2-17
	c-0.1-6,1.3-12,4.1-17.3c2.6-4.9,6.6-9,11.4-11.9c5.2-2.9,11.2-4.4,17.2-4.2c5.7-0.1,11.4,1.3,16.4,4.1c4.7,2.6,8.5,6.4,11.1,11
	c2.7,4.8,4.1,10.2,4,15.7c0,0.9,0,1.9-0.1,2.9c0,1-0.1,2.1-0.2,3.2h-47.8c0.3,4.9,2,8.8,5.1,11.5c3.1,2.8,7.1,4.3,11.2,4.2
	c2.9,0.1,5.8-0.7,8.3-2.2c2.2-1.4,3.9-3.4,5-5.8H293c-1.2,4-3.2,7.7-5.9,10.8c-2.8,3.3-6.2,5.9-10.1,7.7
	C272.7,91.9,268.1,92.9,263.4,92.8z M263.5,40.1c-3.8-0.1-7.5,1.1-10.5,3.4c-3,2.2-5,5.6-5.8,10.2h31.3c-0.1-3.8-1.7-7.4-4.6-9.9
	C271,41.2,267.3,39.9,263.5,40.1z"/>
<path class="st0" d="M330.3,92.8c-5.4,0-9.8-0.9-13.3-2.6c-3.2-1.5-5.9-3.9-7.7-6.9c-1.7-2.9-2.6-6.2-2.5-9.5
	c-0.1-5.6,2.4-10.8,6.8-14.2c4.6-3.6,11.4-5.4,20.5-5.5h16v-1.5c0-4.3-1.2-7.5-3.7-9.5c-2.6-2.1-5.8-3.1-9.1-3c-3-0.1-6,0.7-8.6,2.3
	c-2.4,1.5-4.1,4.1-4.6,6.9h-15.9c0.3-4.3,1.9-8.5,4.6-11.9c2.7-3.4,6.3-6.1,10.3-7.8c4.5-1.9,9.3-2.8,14.2-2.7c9,0,16,2.2,21.2,6.7
	s7.7,10.8,7.7,19v38.6h-13.8L351,81.1c-1.9,3.4-4.5,6.3-7.8,8.4C339.8,91.7,335.6,92.8,330.3,92.8z M334,80.1
	c4.7,0,8.3-1.5,10.8-4.6c2.7-3.2,4.3-7.1,4.9-11.3h-13.8c-4.3,0-7.4,0.8-9.2,2.3c-1.8,1.4-2.8,3.5-2.8,5.8c-0.1,2.3,1,4.4,2.8,5.7
	C328.8,79.5,331.4,80.2,334,80.1z"/>
<path class="st0" d="M412.6,92.8c-5.9,0.1-11.8-1.3-17-4.2c-4.9-2.7-8.9-6.8-11.6-11.6c-2.9-5.2-4.4-11.1-4.2-17.1
	c-0.1-6,1.3-11.9,4.2-17.2c2.7-4.9,6.7-8.9,11.6-11.7c5.2-2.9,11.1-4.3,17-4.2c8,0,14.8,2.1,20.3,6.3c5.5,4.3,9.3,10.4,10.5,17.3
	h-17.1c-0.8-2.9-2.5-5.4-5-7.2c-6.4-4.2-15-3.2-20.2,2.5c-3.1,3.4-4.7,8.1-4.7,14.1s1.6,10.7,4.7,14.1c2.9,3.3,7,5.1,11.4,5.1
	c3.1,0.1,6.2-0.8,8.8-2.5c2.5-1.7,4.3-4.3,5-7.2h17.1c-1.3,6.8-5.1,12.9-10.5,17.1C427.4,90.7,420.6,92.8,412.6,92.8z"/>
<path class="st0" d="M485,91.3c-6.6,0-11.9-1.6-15.9-4.8s-6-8.9-6-17.1V42h-10.8V28.4h10.8l1.9-16.9h14.3v16.9h17V42h-17v27.5
	c0,3,0.7,5.1,2,6.3s3.6,1.7,6.8,1.7h7.8v13.8H485z"/>
<path class="st0" d="M158.9,197.8v-88.7h32.6c7.1,0,12.9,1.2,17.6,3.6c4.3,2.2,7.9,5.6,10.3,9.8c4.9,8.9,4.5,19.8-0.8,28.5
	c-2.8,4.5-7.2,7.7-13.2,9.8l18.4,37.1H205l-16.5-35h-13.4v35H158.9z M175.1,150.9h15.3c5.4,0,9.4-1.3,11.9-3.9
	c2.6-2.8,4-6.6,3.8-10.4c0-4.2-1.2-7.6-3.7-10.1c-2.5-2.5-6.5-3.8-12.1-3.8h-15.2V150.9z"/>
<path class="st0" d="M256.7,199.3c-5.4,0-9.8-0.9-13.3-2.6c-3.2-1.5-5.9-3.9-7.7-6.9c-1.7-2.9-2.6-6.2-2.5-9.5
	c-0.1-5.6,2.4-10.8,6.9-14.2c4.6-3.6,11.4-5.4,20.5-5.4h16v-1.5c0-4.3-1.2-7.5-3.7-9.5c-2.6-2.1-5.8-3.1-9.1-3c-3-0.1-6,0.7-8.6,2.4
	c-2.4,1.5-4.1,4.1-4.6,6.9h-15.9c0.3-4.3,1.9-8.5,4.6-11.9c2.7-3.4,6.3-6.1,10.3-7.8c4.5-1.9,9.3-2.8,14.2-2.7c9,0,16,2.2,21.2,6.7
	s7.7,10.8,7.7,19v38.7h-13.8l-1.5-10.1c-1.9,3.4-4.5,6.3-7.8,8.4C266.3,198.2,262,199.3,256.7,199.3z M260.4,186.6
	c4.7,0,8.3-1.5,10.8-4.6c2.7-3.2,4.4-7.1,4.9-11.3h-13.8c-4.3,0-7.4,0.8-9.3,2.4c-1.8,1.4-2.8,3.5-2.8,5.8c-0.1,2.3,1,4.4,2.8,5.7
	C255.2,186,257.8,186.8,260.4,186.6L260.4,186.6z"/>
<path class="st0" d="M308.2,197.8v-91.3h16.2v91.3H308.2z"/>
<path class="st0" d="M341,197.8v-91.3h16.2v91.3H341z"/>
<path class="st0" d="M381.7,225.7l14.6-32.1h-3.8L368,134.9h17.6l17.6,44.2l18.4-44.2h17.3L399,225.7H381.7z"/>
<path class="st0" d="M450.6,136.7h17.2l-39.9,90.8h-17.2L450.6,136.7z"/>
<path class="st0" d="M479.8,136.7H497l-39.9,90.8h-17.2L479.8,136.7z"/>
<path class="st0" d="M107.7,108.9v5.8H85v-4.9l0.2-0.1c1.9-1.6,3.8-3.2,5.6-4.7c1.7-1.4,3.3-3,4.8-4.6c1.3-1.3,2.4-2.8,3.4-4.4
	c0.7-1.2,1.2-2.6,1.2-4c0-1.1-0.3-2.2-1-3.2c-0.7-0.9-1.9-1.4-3.1-1.3c-1.3-0.1-2.5,0.4-3.3,1.4c-0.8,1-1.2,2.3-1.2,3.6V93H85v-0.5
	c0-2.1,0.5-4.2,1.6-6c1-1.6,2.3-2.8,4-3.7c1.7-0.8,3.7-1.2,5.6-1.2c2.9-0.2,5.7,0.8,7.8,2.8c1.9,1.9,2.9,4.5,2.8,7.2
	c0,1.8-0.4,3.7-1.2,5.3c-0.9,1.7-1.9,3.4-3.2,4.9c-1.3,1.5-2.7,2.9-4.2,4.2c-1.1,1-2.2,2-3.3,2.8L107.7,108.9z"/>
<path class="st0" d="M138.6,89.6c-3.5-7.2-12.1-10.1-19.2-6.7c-0.4,0.2-0.8,0.4-1.2,0.7c-2.2,1.5-3.9,3.6-5,6
	c-2.3,5.6-2.3,11.9,0,17.5c1.1,2.4,2.8,4.5,5,5.9c6.4,4.3,15,2.6,19.3-3.8c0.4-0.7,0.8-1.4,1.2-2.1
	C140.9,101.5,140.9,95.2,138.6,89.6z M125.9,109c-2.2,0-4.2-1-5.4-2.8c-1.5-2.3-2.3-5.1-2.1-7.9c0-3.3,0.7-6,2.1-7.8
	c2.2-3,6.3-3.7,9.3-1.5c0.6,0.4,1.1,0.9,1.5,1.5c1.4,1.9,2.1,4.5,2.1,7.8s-0.7,6-2.1,7.9C130,108,128,109,125.9,109z"/>
</svg>
