<svg id="Layer_1" xmlns="http://www.w3.org/2000/svg" viewBox="0 0 1270 400"><style>.st0{fill:#502e56}</style><path class="st0" d="M531.5 271c9.5 0 17.3-1.9 23.6-5.6 6.2-3.7 11.3-8.6 15.1-14.6s6.5-12.8 8.1-20.5 2.4-15.6 2.4-23.7v-91.2h28.6v91.2c0 12.3-1.4 24-4.3 34.8-2.9 10.9-7.4 20.4-13.7 28.6s-14.3 14.7-24.2 19.4c-9.9 4.7-21.8 7.1-35.6 7.1-14.4 0-26.5-2.5-36.4-7.5s-17.9-11.7-23.9-20c-6.1-8.4-10.5-18-13.2-28.8s-4.1-22.1-4.1-33.7v-91.2h28.4v91.2c0 8.3.8 16.3 2.4 24s4.3 14.5 8.1 20.5 8.9 10.8 15.2 14.4c6.4 3.8 14.2 5.6 23.5 5.6zM718.8 297.9c-10.6 0-20-2.5-28.1-7.6s-14.5-11.7-19.3-19.8v78.8h-27.9V162.8h24.6v23.8c5.1-7.9 11.6-14.3 19.6-19s17.1-7.1 27.2-7.1c9.1 0 17.5 1.9 25.1 5.6 7.6 3.7 14.2 8.7 19.8 15s9.9 13.5 13.1 21.8c3.1 8.3 4.7 17 4.7 26.1 0 9.6-1.4 18.6-4.3 27-2.9 8.4-6.9 15.6-12.2 21.8-5.2 6.2-11.4 11.1-18.6 14.7s-15.1 5.4-23.7 5.4zm-9.1-23.8c5.9 0 11.3-1.3 16.1-3.8s9-5.9 12.4-10.1c3.5-4.2 6.1-9 8-14.4s2.8-11 2.8-16.7c0-6.1-1.1-11.8-3.2-17.2-2.1-5.4-5-10.1-8.6-14.2-3.6-4.1-8-7.3-13.1-9.6-5.1-2.4-10.6-3.5-16.5-3.5-3.5 0-7.3.7-11.2 2-3.9 1.4-7.5 3.2-10.9 5.6-3.4 2.4-6.3 5.1-8.9 8.2-2.5 3.1-4.3 6.5-5.3 10.3v34.7c1.7 4.1 3.9 7.9 6.6 11.4 2.7 3.5 5.7 6.6 9 9.1s6.9 4.6 10.8 6.1c3.9 1.3 7.9 2.1 12 2.1zM804.7 295.4v-180h63.9c14.5 0 27.2 2.4 38.1 7.1 10.9 4.7 20 11.2 27.4 19.3 7.3 8.1 12.9 17.6 16.6 28.5 3.7 10.9 5.6 22.5 5.6 34.8 0 13.7-2.1 26.1-6.2 37.1-4.1 11.1-10 20.5-17.6 28.4s-16.8 13.9-27.6 18.2c-10.8 4.3-22.9 6.5-36.2 6.5l-64 .1zm122.7-90.3c0-9.5-1.3-18.2-3.9-26.1-2.6-7.9-6.5-14.7-11.5-20.4-5.1-5.7-11.2-10.1-18.5-13.3s-15.5-4.8-24.8-4.8h-35.5v129.8h35.5c9.5 0 17.9-1.6 25.2-4.9s13.5-7.9 18.5-13.7 8.7-12.7 11.3-20.7c2.4-8 3.7-16.6 3.7-25.9zM1042.2 297.9c-10.5 0-19.9-1.9-28.3-5.6-8.4-3.7-15.5-8.7-21.4-15-5.9-6.2-10.5-13.6-13.7-21.9-3.2-8.4-4.8-17.1-4.8-26.2 0-9.1 1.6-17.9 4.8-26.2 3.2-8.4 7.8-15.7 13.8-21.9s13.2-11.2 21.5-15c8.4-3.7 17.7-5.6 28-5.6s19.6 1.9 28 5.6c8.4 3.7 15.5 8.7 21.5 15s10.6 13.6 13.8 21.9c3.2 8.4 4.8 17.1 4.8 26.2 0 9.1-1.6 17.9-4.8 26.2-3.2 8.4-7.8 15.7-13.8 21.9-6 6.3-13.2 11.2-21.5 15-8.3 3.7-17.6 5.6-27.9 5.6zm-39.5-68.4c0 6.4 1 12.3 3 17.7s4.8 10.1 8.4 14.1c3.5 4 7.7 7.1 12.5 9.4s10 3.4 15.6 3.4 10.8-1.1 15.6-3.4c4.8-2.3 9-5.4 12.5-9.5s6.3-8.8 8.4-14.2c2-5.4 3-11.3 3-17.7 0-6.2-1-12.1-3-17.6s-4.8-10.3-8.4-14.3c-3.5-4.1-7.7-7.2-12.5-9.5s-10-3.4-15.6-3.4c-5.4 0-10.5 1.2-15.3 3.5-4.8 2.4-9 5.6-12.5 9.6-3.5 4.1-6.4 8.8-8.5 14.3-2.2 5.4-3.2 11.3-3.2 17.6zM1187.7 296.6c-9 0-17.2-1.8-24.6-5.4s-13.8-8.6-19.1-14.8c-5.3-6.2-9.5-13.4-12.4-21.5-3-8.1-4.4-16.6-4.4-25.6 0-9.5 1.5-18.4 4.6-26.7 3-8.4 7.3-15.6 12.7-21.8 5.4-6.2 11.9-11.1 19.4-14.7 7.5-3.6 15.8-5.4 25-5.4 10.6 0 20 2.5 28 7.6s14.7 11.7 19.9 19.8V163h24.6v128.8c0 9.6-1.8 18.2-5.3 25.6s-8.5 13.7-14.8 18.9c-6.3 5.2-13.8 9.1-22.4 11.8-8.6 2.7-17.9 4.1-27.9 4.1-14.7 0-26.9-2.5-36.6-7.5s-17.9-12-24.5-20.9l15.7-14.7c5.1 7.1 11.6 12.5 19.6 16.2s16.6 5.6 25.7 5.6c5.7 0 11.2-.8 16.3-2.3 5.2-1.5 9.7-3.9 13.6-7.1s7-7.3 9.3-12.2c2.3-4.9 3.4-10.7 3.4-17.5v-20.3c-4.7 8.1-11.2 14.4-19.5 18.8-8.5 4.1-17.2 6.3-26.3 6.3zm9.1-22.5c4.2 0 8.3-.7 12.2-2.2 3.9-1.4 7.5-3.4 10.8-5.8s6.1-5.2 8.5-8.4c2.4-3.1 4.1-6.5 5.1-10V213c-1.7-4.2-3.9-8.1-6.6-11.5-2.7-3.5-5.8-6.5-9.3-9s-7.1-4.5-11-6c-3.9-1.4-7.8-2.2-11.7-2.2-6.1 0-11.5 1.3-16.3 3.9-4.8 2.6-8.9 6.1-12.3 10.4-3.4 4.3-6 9.2-7.9 14.6-1.9 5.4-2.8 11-2.8 16.7 0 6.1 1.1 11.8 3.2 17.1s5 10 8.7 13.9c3.7 4 8.1 7.1 13.1 9.5 4.9 2.5 10.4 3.7 16.3 3.7zM151.3 158.9l-.1.1.1-.1c0-.1 0 0 0 0zM146.3 155.9l-.1.1.1-.1c0-.1 0 0 0 0z"/><g><path class="st0" d="M223.9 212.1c-5.8 2.8-13.4-.8-16.9-8.1s-1.6-15.5 4.2-18.3 13.4.8 16.9 8.1c3.5 7.3 1.7 15.5-4.2 18.3z"/><path class="st0" d="M362.4 85.5C331.8 43.2 286.5 15.4 235 7.2S131.9 11.3 89.6 41.9c-42.2 30.6-70.1 75.8-78.3 127.3S15.4 272.3 46 314.5s75.8 70.1 127.3 78.3c10.5 1.7 20.9 2.5 31.3 2.5 40.8 0 80.4-12.8 114.1-37.1 42.2-30.6 70.1-75.8 78.3-127.3 8.3-51.5-4-103.2-34.6-145.4zm-186.3 290c-24.2-3.9-46.9-12.5-67-25.2 6.2-17.1 11.4-41.5 4.5-67.5-11.1-41.9-1.2-80.2-1.1-80.5.3-1.2.4-2.4.2-3.6l-9.3-62.4 13.3 9.4c4.3 3 8.6 6.1 12.9 9.2 8.5 6.1 17.4 12.4 26.3 18.4.1.1.2.1.2.2 1.2.9 4 3 8.4 2.6 2.2-.2 4-.9 5.1-1.5 25.3-10.8 43-11.8 55.9-3.1l4.8 3.3c13.2 9.2 29.6 20.8 49.7 11.1 0 0 8.5-4.1 18.7-8.9l25.1 6.8c.8 8.2.7 16.3-.7 23.8l-.1.6c-2.1 10.4-6.3 22.5-17.8 35.1-.1 0-.3.1-.4.2-23.5 9.7-45-4.4-45.9-5-4-2.7-9.4-1.7-12.2 2.3-2.7 4-1.7 9.5 2.3 12.2.8.5 13.2 8.8 30.6 11-8 4.9-17.4 9.9-28.6 14.7-.2.1-.5.2-.9.4-10.4 4.3-14.6 6-15.7 11.5-.2 1-.2 2-.1 3 2.3 15.6 5.9 60.8-4.7 82l-.3.6c-17.4 2.3-35.3 2.2-53.2-.7zm-18.3-222.3l19-41.8 16.7 37.6c-8.8 1.4-18.4 4.2-29.1 8.7-2.2-1.4-4.4-2.9-6.6-4.5zm221.9 74.9c-7.5 46.9-32.8 88-71.3 115.9-18 13-37.9 22.5-58.8 28 3.5-12.2 5.1-27.9 4.6-47-.2-11.6-1.2-21.8-1.9-27.9 1.1-.5 2.5-1.1 4.3-1.8.6-.2 1-.4 1.3-.5 33.4-14.5 72.9-37 82.2-83.1l.1-.7c1.1-5.6 1.5-11.4 1.5-17.2 0-14.2-2.8-28.6-6-42.4-.1-.6-.4-1.2-.6-1.8-2-4-6.6-6-10.8-4.5-.7.2-1.2.5-1.8.9-3.8 2-32.4 15.7-50.1 24.1-6.8 3.2-12.3 4.2-32-9.6-1.7-1.2-3.3-2.4-5-3.5-6.8-4.6-14.4-7.4-22.9-8.4l-27.6-62c-1.4-3.2-4.5-5.2-8-5.2-3.4 0-6.6 2-8 5.1L143.2 143c-1.1-.8-2.2-1.6-3.4-2.4-4.3-3.1-8.7-6.2-13-9.2l-30.1-21.1c-2.9-2-6.7-2.1-9.7-.3-3 1.8-4.6 5.3-4.1 8.8l12 80.9c-2 8.7-9.5 46.1 1.5 87.7 5.2 19.5 2.1 38.3-2.4 52.5-12.8-10.1-24.2-22-34-35.5-27.8-38.5-39-85.5-31.5-132.3S61.5 83.9 99.9 56c30.6-22.2 66.7-33.8 103.9-33.8 9.5 0 19 .8 28.5 2.3 46.9 7.5 88 32.8 115.9 71.3 27.8 38.4 39 85.4 31.5 132.3z"/></g></svg>