<svg viewBox="0 0 98 94" xmlns="http://www.w3.org/2000/svg"><title>mark</title><g fill-rule="nonzero" fill="#512C57"><path d="M98 35.734v36.077C98 84.05 88.113 94 75.955 94 63.797 94 53.91 84.049 53.91 71.811V22.19c0-2.656-2.238-4.942-4.91-4.942-1.984 0-3.76 1.273-4.52 3.048.676-4.15 4.262-7.347 8.603-7.347 4.791 0 8.717 3.915 8.717 8.766V71.1C61.8 81.136 69.92 89.3 79.9 89.3c9.982 0 18.1-8.164 18.1-18.201V35.734zM43.688 76.042C41.721 86.262 32.766 94 22.045 94 9.887 94 0 84.049 0 71.811V.37h8.167v70.729c0 10.037 8.118 18.201 18.1 18.201 8.278 0 15.275-5.616 17.421-13.258zM18.55 75.24c.897.925 2.14 1.513 3.495 1.513 2.672 0 4.91-2.252 4.91-4.942V22.19C26.955 9.95 36.842 0 49 0c9.557 0 17.71 6.148 20.762 14.723-2.73-6.577-9.193-11.21-16.712-11.21-9.981 0-18.1 8.164-18.1 18.201V71.1c0 4.818-3.892 8.766-8.717 8.766-3.31 0-6.208-1.87-7.683-4.625zm53.22-.89c.871 1.423 2.435 2.403 4.185 2.403 2.672 0 4.91-2.252 4.91-4.942V.37h7.72v70.729c0 4.818-3.894 8.766-8.718 8.766-3.656 0-6.808-2.28-8.097-5.515z"/><path d="M96.833 0v71.422c0 8.57-6.856 15.528-15.303 15.528-8.446 0-15.302-6.957-15.302-15.528V21.813c0-6.352-5.101-11.562-11.395-11.562-6.293 0-11.394 5.176-11.394 11.562v49.609c0 8.57-6.856 15.528-15.303 15.528-8.446 0-15.303-6.957-15.303-15.528V0h3.942v71.422c0 6.352 5.1 11.562 11.394 11.562 6.26 0 11.395-5.176 11.395-11.562V21.813c0-8.57 6.856-15.528 15.302-15.528 8.447 0 15.303 6.957 15.303 15.528v49.609c0 6.352 5.101 11.562 11.395 11.562 6.26 0 11.394-5.176 11.394-11.562V0h3.875z"/></g></svg>
