<svg xmlns="http://www.w3.org/2000/svg" viewBox="0 0 108 108"><style>.st3{fill:#d76c87}.st5{fill:#fff}</style><circle class="st3" cx="54" cy="54" r="53.5"/><path class="st5" d="M24.8 48.3h-6.2V30.4H13v-5.1h17.4v5.1h-5.6v17.9zM53.4 48.3h-6.2V39H40v9.4h-6.2v-23H40v8.5h7.2v-8.5h6.2v22.9zM72.1 48.3H58.4v-23h13.7v5h-7.4v3.6h6.9v5h-6.9v4.3h7.4v5.1zM84.3 33.9l4-8.5H95l-7.6 14v9h-6.3v-8.8l-7.6-14.2h6.8l4 8.5z"/><g><path class="st5" d="M25.9 76.3h-5.3V61h-4.8v-4.3h14.9V61h-4.8v15.3zM50.4 76.3h-5.3v-8h-6.2v8h-5.3V56.7h5.3V64h6.2v-7.3h5.3v19.6zM66.3 76.3H54.7V56.7h11.7V61H60v3h5.9v4.3H60V72h6.4v4.3zM78.3 76.3l-4-14.2h-.1c.2 2.4.3 4.3.3 5.6v8.5h-4.7V56.7h7.1l4.1 14h.1l4-14h7.1v19.7h-4.9v-8.6-1.5c0-.5.1-1.9.2-4h-.1l-4 14.1h-5.1z"/></g><g><path class="st5" d="M31.2 96.3H28V87h-2.9v-2.6h9.1V87h-2.9v9.3zM46.1 96.3h-3.2v-4.9h-3.8v4.9h-3.2v-12h3.2v4.4h3.8v-4.4h3.2v12zM55.8 96.3h-7.1v-12h7.1v2.6h-3.9v1.9h3.6v2.6h-3.6v2.3h3.9v2.6zM57.9 96.3v-12h3.2v12h-3.2zM67 91.9v4.4h-3.2v-12h3.9c3.3 0 4.9 1.2 4.9 3.5 0 1.4-.7 2.5-2 3.2l3.5 5.2h-3.7l-2.5-4.4H67zm0-2.4h.6c1.1 0 1.7-.5 1.7-1.5 0-.8-.6-1.2-1.7-1.2H67v2.7zM82.9 92.7c0 .7-.2 1.4-.6 2-.4.6-.9 1-1.6 1.3-.7.3-1.5.5-2.5.5-.8 0-1.5-.1-2-.2s-1.1-.3-1.7-.6v-2.9c.6.3 1.3.6 1.9.7.7.2 1.3.3 1.8.3s.8-.1 1.1-.2c.2-.2.3-.4.3-.6 0-.2 0-.3-.1-.4l-.4-.4c-.2-.2-.7-.4-1.6-.8-.8-.4-1.4-.7-1.8-1-.4-.3-.7-.7-.9-1.1-.2-.4-.3-.9-.3-1.5 0-1.1.4-2 1.2-2.6.8-.6 1.9-.9 3.3-.9 1.2 0 2.5.3 3.8.9l-1 2.5c-1.1-.5-2.1-.8-2.9-.8-.4 0-.7.1-.9.2-.2.1-.3.3-.3.5s.1.4.4.6c.2.2.9.5 2 1 1 .5 1.7 1 2.1 1.5.5.5.7 1.2.7 2z"/></g></svg>
