<svg xmlns="http://www.w3.org/2000/svg" viewBox="0 0 108 108"><style>.st2{fill:#eb9843}.st5{fill:#fff}</style><circle class="st2" cx="54" cy="54" r="53.5"/><path class="st5" d="M54.7 49h-8.2V36.7h-9.4V49h-8.2V18.9h8.2v11.2h9.4V18.9h8.2V49zM79.1 49H61.2V18.9h17.9v6.5h-9.7v4.7h9v6.5h-9v5.7h9.7V49zM43.4 75.5h-5.8v-8.8h-6.7v8.8H25V54h5.8v8h6.7v-8h5.8v21.5zM48.1 75.5V54h5.8v21.5h-5.8zM67.9 75.5L63.5 60h-.1c.2 2.6.3 4.7.3 6.1v9.3h-5.1V54h7.7l4.5 15.2h.1L75.2 54H83v21.5h-5.3v-9.4-1.6c0-.6.1-2.1.2-4.4h-.1l-4.3 15.4h-5.6z"/><g><path class="st5" d="M50 96.8h-4.3v-6.5h-5v6.5h-4.3v-16h4.3v5.9h5v-5.9H50v16zM53.5 96.8v-16h4.3v16h-4.3zM71.7 92c0 1-.3 1.9-.8 2.6-.5.8-1.2 1.4-2.2 1.8-.9.4-2.1.6-3.3.6-1.1 0-2-.1-2.7-.2-.7-.1-1.5-.4-2.2-.8v-3.8c.8.4 1.7.8 2.6 1 .9.2 1.7.4 2.4.4.6 0 1.1-.1 1.4-.3.3-.2.4-.5.4-.9 0-.2-.1-.4-.2-.6-.1-.2-.3-.3-.6-.5s-1-.5-2.1-1c-1-.5-1.8-.9-2.3-1.4-.5-.4-.9-1-1.2-1.5-.3-.6-.4-1.3-.4-2 0-1.5.5-2.6 1.6-3.4 1.1-.8 2.5-1.2 4.4-1.2 1.7 0 3.3.4 5.1 1.1l-1.3 3.3c-1.5-.7-2.8-1-3.9-1-.6 0-1 .1-1.2.3-.3.2-.4.4-.4.7 0 .3.2.6.5.8.3.2 1.2.7 2.6 1.4 1.4.6 2.3 1.3 2.9 2 .6.6.9 1.5.9 2.6z"/></g></svg>
