<svg xmlns="http://www.w3.org/2000/svg" viewBox="0 0 235 291">
  <g fill="none">
    <path fill="#C44057" d="M0 249.876c68.824 18.547 137.815 36.024 208.225 40.37 8.728.594 17.32.668 25.976.348v-65.24c-8.652.32-17.244.247-25.972-.346-70.41-4.342-139.402-21.802-208.226-40.33v65.198z"/>
    <path fill="#AB3A58" d="M0 195.108c68.824 18.546 137.815 36.024 208.225 40.37 8.728.594 17.32.667 25.976.347v-65.24c-8.652.32-17.244.248-25.972-.346C137.818 165.895 68.824 148.434 0 129.91v65.198z"/>
    <path fill="#8B335B" d="M0 130.48c68.824 18.547 137.815 36.025 208.225 40.37 8.728.595 17.32.67 25.976.35v-65.24c-8.652.32-17.244.246-25.972-.348-70.41-4.34-139.402-21.8-208.226-40.33v65.2z"/>
    <path fill="#512C57" d="M0 65.854c68.824 18.546 137.815 36.024 208.225 40.37 8.728.594 17.32.668 25.976.348v-65.24c-8.652.32-17.244.247-25.972-.346C137.818 36.644 68.824 19.184 0 .656v65.198z"/>
  </g>
</svg>
