<svg xmlns="http://www.w3.org/2000/svg" viewBox="0 0 235 291">
  <g fill="none">
    <path fill="#E54859" d="M235 41.124C166.176 22.577 97.185 5.1 26.775.754 18.047.16 9.455.086.8.406v65.24c8.654-.32 17.246-.247 25.974.346 70.41 4.342 139.402 21.802 208.226 40.33V41.124z"/>
    <path fill="#C44057" d="M235 95.892C166.176 77.346 97.185 59.868 26.775 55.522c-8.728-.594-17.32-.667-25.976-.347v65.24c8.652-.32 17.244-.248 25.972.346 70.41 4.344 139.402 21.805 208.226 40.33V95.894z"/>
    <path fill="#AB3A58" d="M235 160.52c-68.824-18.547-137.815-36.025-208.225-40.37-8.728-.595-17.32-.67-25.976-.35v65.24c8.652-.32 17.244-.246 25.972.348 70.41 4.34 139.402 21.8 208.226 40.33v-65.2z"/>
    <path fill="#8B335B" d="M235 225.146c-68.824-18.546-137.815-36.024-208.225-40.37-8.728-.594-17.32-.668-25.976-.348v65.24c8.652-.32 17.244-.247 25.972.346 70.41 4.342 139.402 21.802 208.226 40.33v-65.198z"/>
  </g>
</svg>
