<svg viewBox="0 0 572 637" fill="none" xmlns="http://www.w3.org/2000/svg">
<path d="M275.588 620.867C272.998 622.014 268.708 619.216 266.579 618.038C264.005 616.615 261.606 614.916 259.069 613.43C255.86 611.54 252.639 609.671 249.409 607.819C243.043 614.375 235.639 619.556 227.726 623.182C230.252 627.997 232.811 634.34 229.485 636.151C226.651 637.695 222.356 632.456 220.206 630.21C219.22 629.186 218.267 628.097 217.33 626.988C207.595 629.674 197.474 630.109 187.83 628.007C191.193 620.787 196.913 604.352 191.241 584.694C195.102 584.36 199 584.216 202.919 584.216C205.938 584.216 208.941 584.397 211.906 584.715C212.786 584.036 213.665 583.351 214.544 582.666C217.335 580.484 220.004 577.947 222.838 575.877C225.179 574.172 229.929 570.021 232.583 572.219C236.544 575.505 230.395 583.749 227.355 587.582C236.555 589.95 244.505 593.114 249.817 595.492C252.862 593.692 255.902 591.882 258.926 590.051C261.436 588.527 263.82 586.802 266.378 585.347C268.491 584.142 272.744 581.291 275.344 582.401C280.016 584.397 271.277 591.834 270.006 593.124C267.305 595.858 264.461 598.449 261.834 601.257C261.813 601.278 261.791 601.305 261.77 601.331C261.68 601.432 261.601 601.549 261.601 601.687C261.601 601.698 261.601 601.714 261.606 601.724C261.601 601.735 261.601 601.745 261.601 601.756C261.606 601.889 261.68 602.006 261.77 602.106C261.791 602.133 261.818 602.154 261.839 602.181C264.503 604.957 267.379 607.516 270.112 610.213C271.399 611.487 280.233 618.818 275.588 620.867Z" fill="#8C0355"/>
<path d="M261.833 601.331C261.728 601.443 261.617 601.57 261.606 601.723C261.601 601.713 261.601 601.697 261.601 601.686C261.601 601.549 261.68 601.432 261.77 601.331H261.833Z" fill="#8C0355"/>
<path d="M261.839 602.106H261.77C261.68 602.005 261.606 601.888 261.601 601.756C261.601 601.745 261.601 601.735 261.606 601.724C261.622 601.873 261.733 602 261.839 602.106Z" fill="#8C0355"/>
<path d="M189.89 584.816C182.507 585.543 175.257 587.009 168.223 589.626C166.375 590.316 149.025 598.003 151.424 601.793C160.443 616.036 172.953 624.413 186.506 627.71C189.768 620.809 195.642 604.437 189.89 584.816Z" fill="#8C0355"/>
<path d="M174.309 607.383C177.826 607.383 180.675 604.527 180.675 601.002C180.675 597.477 177.826 594.621 174.309 594.621C170.792 594.621 167.943 597.477 167.943 601.002C167.943 604.527 170.792 607.383 174.309 607.383Z" fill="white"/>
<path d="M174.309 603.98C175.951 603.98 177.28 602.648 177.28 601.002C177.28 599.357 175.951 598.024 174.309 598.024C172.667 598.024 171.338 599.357 171.338 601.002C171.338 602.648 172.667 603.98 174.309 603.98Z" fill="#8C0355"/>
<path d="M294.119 518.944C296.709 520.091 300.999 517.293 303.128 516.114C305.702 514.692 308.101 512.993 310.638 511.507C313.848 509.617 317.068 507.748 320.298 505.895C326.664 512.451 334.069 517.633 341.981 521.258C339.455 526.073 336.897 532.417 340.223 534.227C343.056 535.772 347.351 530.533 349.502 528.287C350.487 527.263 351.44 526.174 352.378 525.065C362.112 527.751 372.233 528.186 381.877 526.084C378.514 518.864 372.794 502.429 378.467 482.771C374.606 482.436 370.708 482.293 366.789 482.293C363.77 482.293 360.767 482.474 357.801 482.792C356.922 482.113 356.043 481.428 355.163 480.743C352.372 478.561 349.703 476.024 346.869 473.953C344.529 472.249 339.778 468.098 337.124 470.296C333.163 473.582 339.312 481.826 342.352 485.659C333.152 488.026 325.203 491.19 319.891 493.569C316.845 491.769 313.805 489.959 310.781 488.127C308.271 486.604 305.887 484.878 303.329 483.424C301.216 482.219 296.963 479.368 294.363 480.478C289.692 482.474 298.43 489.911 299.702 491.201C302.403 493.935 305.247 496.526 307.874 499.334C307.895 499.355 307.916 499.382 307.937 499.408C308.027 499.509 308.107 499.626 308.107 499.764C308.107 499.774 308.107 499.79 308.101 499.801C308.107 499.812 308.107 499.822 308.107 499.833C308.101 499.966 308.027 500.082 307.937 500.183C307.916 500.21 307.889 500.231 307.868 500.258C305.204 503.034 302.328 505.593 299.596 508.289C298.309 509.564 289.475 516.895 294.119 518.944Z" fill="#006C67"/>
<path d="M307.874 499.408C307.98 499.519 308.091 499.647 308.101 499.8C308.106 499.79 308.106 499.774 308.106 499.763C308.106 499.625 308.027 499.509 307.937 499.408H307.874Z" fill="#006C67"/>
<path d="M307.869 500.182H307.937C308.027 500.082 308.101 499.965 308.106 499.833C308.106 499.822 308.106 499.812 308.101 499.801C308.085 499.949 307.974 500.076 307.869 500.182Z" fill="#006C67"/>
<path d="M379.817 482.893C387.2 483.62 394.451 485.085 401.484 487.703C403.332 488.393 420.683 496.08 418.283 499.87C409.264 514.113 396.754 522.49 383.201 525.787C379.939 518.885 374.065 502.514 379.817 482.893Z" fill="#006C67"/>
<path d="M395.398 505.46C391.882 505.46 389.032 502.604 389.032 499.079C389.032 495.554 391.882 492.698 395.398 492.698C398.915 492.698 401.764 495.554 401.764 499.079C401.764 502.604 398.915 505.46 395.398 505.46Z" fill="white"/>
<path d="M395.398 502.057C393.757 502.057 392.427 500.725 392.427 499.079C392.427 497.433 393.757 496.101 395.398 496.101C397.04 496.101 398.37 497.433 398.37 499.079C398.37 500.725 397.04 502.057 395.398 502.057Z" fill="#006C67"/>
<path d="M560.391 411.275C557.801 412.422 553.512 409.624 551.382 408.446C548.808 407.023 546.409 405.324 543.872 403.838C540.663 401.948 537.443 400.079 534.212 398.227C527.846 404.783 520.442 409.964 512.53 413.59C515.056 418.405 517.614 424.749 514.288 426.559C511.454 428.104 507.159 422.864 505.009 420.619C504.024 419.594 503.071 418.506 502.133 417.396C492.399 420.082 482.278 420.518 472.633 418.415C475.996 411.196 481.716 394.76 476.044 375.102C479.905 374.768 483.803 374.625 487.722 374.625C490.741 374.625 493.744 374.805 496.71 375.124C497.589 374.444 498.468 373.759 499.347 373.075C502.138 370.893 504.808 368.355 507.641 366.285C509.982 364.581 514.733 360.429 517.386 362.627C521.348 365.913 515.199 374.157 512.159 377.99C521.358 380.358 529.308 383.522 534.62 385.9C537.665 384.101 540.705 382.29 543.729 380.459C546.24 378.935 548.623 377.21 551.181 375.755C553.294 374.55 557.547 371.7 560.148 372.809C564.819 374.805 556.08 382.243 554.809 383.533C552.108 386.266 549.264 388.857 546.637 391.665C546.616 391.687 546.595 391.713 546.574 391.74C546.483 391.841 546.404 391.957 546.404 392.095C546.404 392.106 546.404 392.122 546.409 392.132C546.404 392.143 546.404 392.154 546.404 392.164C546.409 392.297 546.483 392.414 546.574 392.515C546.595 392.541 546.621 392.562 546.642 392.589C549.306 395.365 552.182 397.924 554.915 400.621C556.202 401.895 565.036 409.226 560.391 411.275Z" fill="#066FE0"/>
<path d="M546.637 391.74C546.531 391.851 546.42 391.978 546.409 392.132C546.404 392.121 546.404 392.105 546.404 392.095C546.404 391.957 546.483 391.84 546.573 391.74H546.637Z" fill="#066FE0"/>
<path d="M546.642 392.514H546.573C546.483 392.413 546.409 392.297 546.404 392.164C546.404 392.154 546.404 392.143 546.409 392.132C546.425 392.281 546.536 392.408 546.642 392.514Z" fill="#066FE0"/>
<path d="M474.694 375.224C467.311 375.952 460.06 377.417 453.027 380.034C451.178 380.724 433.828 388.411 436.227 392.201C445.247 406.445 457.756 414.822 471.309 418.118C474.572 411.217 480.445 394.845 474.694 375.224Z" fill="#066FE0"/>
<path d="M459.112 397.791C462.629 397.791 465.478 394.935 465.478 391.41C465.478 387.886 462.629 385.03 459.112 385.03C455.596 385.03 452.746 387.886 452.746 391.41C452.746 394.935 455.596 397.791 459.112 397.791Z" fill="white"/>
<path d="M459.112 394.389C460.754 394.389 462.083 393.056 462.083 391.411C462.083 389.765 460.754 388.432 459.112 388.432C457.47 388.432 456.141 389.765 456.141 391.411C456.141 393.056 457.47 394.389 459.112 394.389Z" fill="#066FE0"/>
<path d="M339.776 585.341C318.988 587.884 303.868 595.114 299.122 597.625C298.259 598.082 298.021 599.191 298.598 599.977C307.511 612.171 320.641 621.557 335.226 625.708C338.383 619.555 343.684 605.45 339.776 585.341Z" fill="#066FE0"/>
<path d="M413.652 599.462L413.705 599.08C417.1 597.089 420.935 595.582 423.715 592.71C426.279 590.077 421.909 588.394 419.907 587.783C416.872 586.854 413.605 586.642 410.517 586.828C404.501 587.189 398.913 589.795 393.956 593.177C385.609 588.999 372.379 584.439 354.383 584.439C349.754 584.439 345.321 584.715 341.105 585.187C343.801 599.154 342.101 610.133 340.072 617.092C338.955 620.93 337.647 623.93 336.556 626.08C340.755 627.179 345.061 627.837 349.42 628.007C353.069 628.145 356.686 627.837 360.23 627.157C363.37 628.575 366.691 629.53 370.155 629.737C373.242 629.918 376.51 629.705 379.545 628.771C381.547 628.161 385.916 626.478 383.353 623.845C381.971 622.422 380.334 621.334 378.618 620.357C379.344 619.964 380.064 619.555 380.774 619.141C382.129 618.356 390.328 612.283 396.736 607.176C400.968 609.671 405.597 611.465 410.517 611.762C413.605 611.948 416.872 611.73 419.907 610.796C421.909 610.186 426.279 608.503 423.715 605.87C420.919 602.992 417.063 601.485 413.652 599.467V599.462Z" fill="#066FE0"/>
<path d="M321.636 606.231C325.153 606.231 328.002 603.375 328.002 599.85C328.002 596.325 325.153 593.469 321.636 593.469C318.12 593.469 315.27 596.325 315.27 599.85C315.27 603.375 318.12 606.231 321.636 606.231Z" fill="white"/>
<path d="M321.636 602.828C323.278 602.828 324.607 601.495 324.607 599.85C324.607 598.204 323.278 596.872 321.636 596.872C319.994 596.872 318.665 598.204 318.665 599.85C318.665 601.495 319.994 602.828 321.636 602.828Z" fill="#066FE0"/>
<path d="M289.302 0.902466C310.089 3.4453 325.21 10.6756 329.955 13.1866C330.819 13.6432 331.057 14.7527 330.48 15.5383C321.566 27.7322 308.437 37.1179 293.851 41.2692C290.695 35.1165 285.393 21.0115 289.302 0.902466Z" fill="#066FE0"/>
<path d="M215.425 15.0234L215.372 14.6412C211.978 12.6504 208.143 11.1428 205.363 8.27083C202.799 5.63776 207.169 3.95492 209.171 3.34443C212.205 2.41542 215.473 2.20308 218.561 2.38888C224.577 2.74987 230.165 5.3564 235.122 8.73799C243.469 4.56011 256.699 0 274.695 0C279.324 0 283.757 0.276048 287.973 0.748516C285.277 14.7155 286.977 25.6937 289.005 32.6533C290.123 36.4915 291.431 39.4908 292.522 41.6408C288.322 42.7397 284.016 43.398 279.658 43.5679C276.009 43.7059 272.391 43.398 268.848 42.7185C265.707 44.1359 262.387 45.0914 258.923 45.2985C255.835 45.479 252.568 45.2666 249.533 44.3323C247.531 43.7218 243.162 42.039 245.725 39.4059C247.107 37.9832 248.744 36.8949 250.46 35.9181C249.734 35.5253 249.014 35.1165 248.304 34.7025C246.948 33.9168 238.75 27.8437 232.341 22.7368C228.11 25.2319 223.481 27.0262 218.561 27.3235C215.473 27.5093 212.205 27.2916 209.171 26.3573C207.169 25.7468 202.799 24.064 205.363 21.4309C208.159 18.5536 212.015 17.046 215.425 15.0287V15.0234Z" fill="#066FE0"/>
<path d="M307.441 21.7919C303.925 21.7919 301.075 18.9359 301.075 15.4109C301.075 11.886 303.925 9.02997 307.441 9.02997C310.958 9.02997 313.808 11.886 313.808 15.4109C313.808 18.9359 310.958 21.7919 307.441 21.7919Z" fill="white"/>
<path d="M307.442 18.3891C305.8 18.3891 304.47 17.0566 304.47 15.411C304.47 13.7653 305.8 12.4328 307.442 12.4328C309.083 12.4328 310.413 13.7653 310.413 15.411C310.413 17.0566 309.083 18.3891 307.442 18.3891Z" fill="#066FE0"/>
<path d="M479.98 308.25L465.66 305.155L457.795 303.451C455.766 307.671 453.198 311.583 450.173 315.092C452.218 315.857 454.209 316.743 455.962 318.06C459.007 320.353 454.786 322.779 452.832 323.73C449.861 325.174 446.535 325.917 443.336 326.219C441.249 326.416 439.168 326.347 437.118 326.065C429.211 330.785 419.974 333.497 410.097 333.497C403.54 333.497 397.264 332.292 391.47 330.111C394.357 324.85 399.25 312.799 398.297 292.733H454.167L459.707 286.601L469.547 275.718C470.972 274.136 473.572 274.699 474.223 276.727L478.715 290.71L483.201 304.688C483.852 306.721 482.062 308.696 479.98 308.25Z" fill="#006C67"/>
<path d="M396.968 292.732H360.413C359.476 292.732 358.803 293.63 359.052 294.532C363.437 310.5 375.073 323.453 390.189 329.611C392.937 324.568 397.895 312.555 396.962 292.738L396.968 292.732Z" fill="#006C67"/>
<path d="M382.17 310.41C385.687 310.41 388.536 307.554 388.536 304.029C388.536 300.504 385.687 297.648 382.17 297.648C378.653 297.648 375.804 300.504 375.804 304.029C375.804 307.554 378.653 310.41 382.17 310.41Z" fill="white"/>
<path d="M382.17 307.007C383.812 307.007 385.141 305.675 385.141 304.029C385.141 302.384 383.812 301.051 382.17 301.051C380.528 301.051 379.199 302.384 379.199 304.029C379.199 305.675 380.528 307.007 382.17 307.007Z" fill="#006C67"/>
<path d="M121.786 605.616L107.465 602.521L99.6 600.817C97.5715 605.038 95.0029 608.95 91.9787 612.459C94.0231 613.224 96.0144 614.11 97.7675 615.427C100.813 617.72 96.5917 620.146 94.6374 621.096C91.6663 622.54 88.3403 623.283 85.1413 623.586C83.0546 623.782 80.9732 623.713 78.9236 623.432C71.0164 628.151 61.7798 630.864 51.9024 630.864C45.3457 630.864 39.0697 629.659 33.2757 627.477C36.1621 622.216 41.0558 610.166 40.1025 590.099H95.9721L101.512 583.968L111.352 573.085C112.777 571.503 115.377 572.066 116.029 574.094L120.52 588.077L125.006 602.054C125.657 604.087 123.867 606.062 121.786 605.616Z" fill="#006C67"/>
<path d="M38.773 590.099H2.2186C1.28117 590.099 0.608552 590.996 0.857473 591.899C5.24273 607.867 16.8785 620.82 31.9938 626.978C34.7426 621.935 39.6998 609.922 38.7677 590.105L38.773 590.099Z" fill="#006C67"/>
<path d="M23.9754 607.777C27.4921 607.777 30.3415 604.921 30.3415 601.396C30.3415 597.871 27.4921 595.015 23.9754 595.015C20.4588 595.015 17.6094 597.871 17.6094 601.396C17.6094 604.921 20.4588 607.777 23.9754 607.777Z" fill="white"/>
<path d="M23.9754 604.374C25.6172 604.374 26.9465 603.042 26.9465 601.396C26.9465 599.75 25.6172 598.418 23.9754 598.418C22.3335 598.418 21.0042 599.75 21.0042 601.396C21.0042 603.042 22.3335 604.374 23.9754 604.374Z" fill="#006C67"/>
<path d="M450.394 605.616L464.715 602.521L472.579 600.817C474.608 605.038 477.176 608.95 480.201 612.459C478.156 613.224 476.165 614.11 474.412 615.427C471.367 617.72 475.588 620.146 477.542 621.096C480.513 622.54 483.839 623.283 487.038 623.586C489.125 623.782 491.206 623.713 493.256 623.432C501.163 628.151 510.4 630.864 520.277 630.864C526.834 630.864 533.11 629.659 538.904 627.477C536.017 622.216 531.124 610.166 532.077 590.099H476.207L470.667 583.968L460.827 573.085C459.402 571.503 456.802 572.066 456.151 574.094L451.659 588.077L447.173 602.054C446.522 604.087 448.312 606.062 450.394 605.616Z" fill="#FE692F"/>
<path d="M533.406 590.099H569.961C570.898 590.099 571.571 590.996 571.322 591.899C566.937 607.867 555.301 620.82 540.185 626.978C537.437 621.935 532.48 609.922 533.412 590.105L533.406 590.099Z" fill="#FE692F"/>
<path d="M548.204 607.777C544.687 607.777 541.838 604.921 541.838 601.396C541.838 597.871 544.687 595.015 548.204 595.015C551.721 595.015 554.57 597.871 554.57 601.396C554.57 604.921 551.721 607.777 548.204 607.777Z" fill="white"/>
<path d="M548.204 604.374C546.562 604.374 545.233 603.042 545.233 601.396C545.233 599.75 546.562 598.418 548.204 598.418C549.846 598.418 551.175 599.75 551.175 601.396C551.175 603.042 549.846 604.374 548.204 604.374Z" fill="#FE692F"/>
<path d="M230.356 396.57L244.677 393.475L252.542 391.771C254.57 395.992 257.139 399.904 260.163 403.413C258.119 404.177 256.127 405.064 254.374 406.38C251.329 408.674 255.55 411.1 257.504 412.05C260.475 413.494 263.801 414.237 267 414.54C269.087 414.736 271.169 414.667 273.218 414.386C281.125 419.105 290.362 421.818 300.239 421.818C306.796 421.818 313.072 420.613 318.866 418.431C315.98 413.17 311.086 401.12 312.039 381.053H256.17L250.63 374.922L240.79 364.039C239.365 362.457 236.764 363.02 236.113 365.048L231.622 379.03L227.136 393.008C226.484 395.041 228.275 397.016 230.356 396.57Z" fill="#FE692F"/>
<path d="M313.369 381.053H349.923C350.861 381.053 351.533 381.95 351.284 382.853C346.899 398.821 335.263 411.774 320.148 417.932C317.399 412.889 312.442 400.875 313.374 381.058L313.369 381.053Z" fill="#FE692F"/>
<path d="M328.166 398.731C324.65 398.731 321.8 395.875 321.8 392.35C321.8 388.825 324.65 385.969 328.166 385.969C331.683 385.969 334.532 388.825 334.532 392.35C334.532 395.875 331.683 398.731 328.166 398.731Z" fill="white"/>
<path d="M328.166 395.328C326.525 395.328 325.195 393.995 325.195 392.35C325.195 390.704 326.525 389.372 328.166 389.372C329.808 389.372 331.138 390.704 331.138 392.35C331.138 393.995 329.808 395.328 328.166 395.328Z" fill="#FE692F"/>
<path d="M178.493 483.677C157.706 486.22 142.585 493.451 137.84 495.962C136.977 496.418 136.738 497.528 137.315 498.313C146.229 510.507 159.358 519.893 173.944 524.044C177.101 517.891 182.402 503.786 178.493 483.677Z" fill="#066FE0"/>
<path d="M252.37 497.798L252.423 497.416C255.818 495.425 259.652 493.918 262.433 491.046C264.996 488.413 260.627 486.73 258.625 486.119C255.59 485.19 252.322 484.978 249.235 485.164C243.218 485.525 237.631 488.131 232.673 491.513C224.327 487.335 211.097 482.775 193.1 482.775C188.471 482.775 184.038 483.051 179.823 483.523C182.518 497.49 180.818 508.469 178.79 515.428C177.672 519.266 176.364 522.266 175.273 524.416C179.473 525.515 183.779 526.173 188.138 526.343C191.787 526.481 195.404 526.173 198.947 525.493C202.088 526.911 205.408 527.866 208.872 528.073C211.96 528.254 215.228 528.042 218.262 527.107C220.264 526.497 224.634 524.814 222.07 522.181C220.688 520.758 219.052 519.67 217.336 518.693C218.061 518.3 218.781 517.891 219.491 517.477C220.847 516.692 229.045 510.619 235.454 505.512C239.686 508.007 244.314 509.801 249.235 510.098C252.322 510.284 255.59 510.067 258.625 509.132C260.627 508.522 264.996 506.839 262.433 504.206C259.636 501.329 255.781 499.821 252.37 497.804V497.798Z" fill="#066FE0"/>
<path d="M160.354 504.567C163.87 504.567 166.72 501.711 166.72 498.186C166.72 494.661 163.87 491.805 160.354 491.805C156.837 491.805 153.988 494.661 153.988 498.186C153.988 501.711 156.837 504.567 160.354 504.567Z" fill="white"/>
<path d="M160.354 501.164C161.995 501.164 163.325 499.832 163.325 498.186C163.325 496.54 161.995 495.208 160.354 495.208C158.712 495.208 157.383 496.54 157.383 498.186C157.383 499.832 158.712 501.164 160.354 501.164Z" fill="#066FE0"/>
<path d="M375.971 180.873C375.971 200.067 390.598 215.496 408.484 215.496C426.37 215.496 440.997 200.067 440.997 180.873C440.997 161.679 426.37 146.25 408.484 146.25C390.598 146.25 375.971 161.679 375.971 180.873Z" stroke="#006C67" stroke-width="2.5"/>
<path d="M409.419 217.676C409.125 217.21 408.446 217.21 408.151 217.676L405.778 221.43C405.462 221.929 405.821 222.581 406.412 222.581H411.159C411.75 222.581 412.108 221.929 411.793 221.43L409.419 217.676Z" stroke="#006C67" stroke-width="2.5"/>
<path d="M414.513 292.11C415.469 290.185 416.599 288.301 417.903 286.576C419.642 284.251 422.163 281.484 425.596 282.807C427.769 283.689 428.986 286.215 428.074 288.22C426.813 290.947 423.336 290.827 420.641 291.188C419.207 291.388 417.773 291.589 416.338 291.789C416.164 291.829 414.6 291.95 414.513 292.11Z" stroke="#006C67" stroke-width="2.5" stroke-miterlimit="10"/>
<path d="M408.565 223.981C409.75 230.781 406.196 243.454 411.527 256.435C417.097 269.997 414.496 282.514 414.59 292.599" stroke="#006C67" stroke-width="2.5" stroke-linecap="round"/>
<path d="M414.513 292.11C411.856 292.11 409.124 291.89 406.541 291.083C403.478 290.167 400.119 288.37 400.045 284.74C399.935 280.927 403.588 278.103 407.242 279.02C409.014 279.46 410.453 280.707 411.486 282.137C413.406 284.703 414.144 288.003 414.402 291.157C414.476 291.487 414.476 291.817 414.513 292.11Z" stroke="#006C67" stroke-width="2.5" stroke-miterlimit="10"/>
<path d="M543.577 542.963C530.354 542.963 519.634 532.267 519.634 519.072C519.634 505.878 530.354 495.182 543.577 495.182C556.8 495.182 567.52 505.878 567.52 519.072C567.52 532.267 556.8 542.963 543.577 542.963Z" stroke="#066FE0" stroke-width="2.5" stroke-miterlimit="10" stroke-linecap="round" stroke-linejoin="round"/>
<path d="M543.577 522.805C541.511 522.805 539.836 521.134 539.836 519.072C539.836 517.011 541.511 515.339 543.577 515.339C545.644 515.339 547.319 517.011 547.319 519.072C547.319 521.134 545.644 522.805 543.577 522.805Z" fill="#066FE0" stroke="#066FE0" stroke-width="2.5" stroke-miterlimit="10" stroke-linecap="round" stroke-linejoin="round"/>
<path d="M467.394 542.963C454.171 542.963 443.451 532.267 443.451 519.072C443.451 505.878 454.171 495.182 467.394 495.182C480.618 495.182 491.337 505.878 491.337 519.072C491.337 532.267 480.618 542.963 467.394 542.963Z" stroke="#066FE0" stroke-width="2.5" stroke-miterlimit="10" stroke-linecap="round" stroke-linejoin="round"/>
<path d="M467.395 522.805C465.329 522.805 463.654 521.134 463.654 519.072C463.654 517.011 465.329 515.339 467.395 515.339C469.461 515.339 471.136 517.011 471.136 519.072C471.136 521.134 469.461 522.805 467.395 522.805Z" fill="#066FE0" stroke="#066FE0" stroke-width="2.5" stroke-miterlimit="10" stroke-linecap="round" stroke-linejoin="round"/>
<path d="M467.667 515L484.672 460.635L502.357 455.205" stroke="#066FE0" stroke-width="2.5" stroke-miterlimit="10" stroke-linecap="round" stroke-linejoin="round"/>
<path d="M543.849 519.072L525.484 481.743H478.55L507.798 520.43H543.849" stroke="#066FE0" stroke-width="2.5" stroke-miterlimit="10" stroke-linecap="round" stroke-linejoin="round"/>
<path d="M532.966 466.065L507.799 520.43" stroke="#066FE0" stroke-width="2.5" stroke-miterlimit="10" stroke-linecap="round" stroke-linejoin="round"/>
<path d="M543.849 466.065H519.362" stroke="#066FE0" stroke-width="2.5" stroke-miterlimit="10" stroke-linecap="round" stroke-linejoin="round"/>
<g clip-path="url(#clip0_21_3)">
<path d="M409.98 409.872L418.648 419.104C420.56 421.141 420.461 424.346 418.427 426.256C416.393 428.165 413.188 428.062 411.276 426.025L402.608 416.792" stroke="#8C0355" stroke-width="2.5" stroke-linecap="round" stroke-linejoin="round"/>
<path d="M393.884 375.656C393.441 376.518 392.861 377.297 392.163 377.961C388.601 381.305 382.993 381.124 379.644 377.557C378.995 376.844 378.463 376.03 378.07 375.145C376.351 375.932 374.76 376.978 373.352 378.251C366.233 384.944 365.886 396.152 372.588 403.291L389.919 421.752C391.831 423.788 395.036 423.892 397.07 421.982L415.504 404.676C417.538 402.767 417.637 399.562 415.725 397.525L393.879 375.66L393.884 375.656Z" stroke="#8C0355" stroke-width="2.5" stroke-linecap="round" stroke-linejoin="round"/>
<path d="M381.674 395.9L396.335 411.517" stroke="#8C0355" stroke-width="2.5" stroke-linecap="round" stroke-linejoin="round"/>
<path d="M390.451 387.661L405.111 403.278" stroke="#8C0355" stroke-width="2.5" stroke-linecap="round" stroke-linejoin="round"/>
</g>
<g clip-path="url(#clip1_21_3)">
<path d="M335.912 380.199C336.975 379.979 337.705 379.023 337.627 377.96C336.616 364.47 324.642 354.338 310.887 355.33C298.538 356.219 288.718 365.85 287.806 377.96C287.727 379.023 288.457 379.979 289.52 380.199C297.178 381.523 304.944 382.09 312.716 381.901C320.488 382.09 328.255 381.518 335.912 380.199Z" stroke="#FE692F" stroke-width="2.5" stroke-linecap="round" stroke-linejoin="round"/>
<path d="M288.54 373.594C290.782 374.136 297.897 375.511 312.716 375.511C327.535 375.511 334.65 374.136 336.892 373.594" stroke="#FE692F" stroke-width="2.5" stroke-linecap="round" stroke-linejoin="round"/>
<path d="M312.716 355.279V344.631" stroke="#FE692F" stroke-width="2.5" stroke-linecap="round" stroke-linejoin="round"/>
<path d="M317.063 344.626C317.663 344.626 318.147 344.15 318.147 343.562C318.147 343.47 318.137 343.383 318.111 343.296C317.261 340.373 314.155 338.681 311.173 339.519C309.307 340.04 307.853 341.472 307.321 343.296C307.238 343.613 307.311 343.956 307.519 344.217C307.722 344.477 308.04 344.631 308.379 344.631H317.068L317.063 344.626Z" stroke="#FE692F" stroke-width="2.5" stroke-linecap="round" stroke-linejoin="round"/>
<path d="M307.811 344.585H292.606C290.208 344.585 288.264 342.678 288.264 340.327C288.264 337.975 290.208 336.063 292.606 336.063C298.038 336.063 307.811 344.585 307.811 344.585Z" stroke="#FE692F" stroke-width="2.5" stroke-linecap="round" stroke-linejoin="round"/>
<path d="M317.303 344.544H332.826C335.224 344.544 337.168 346.45 337.168 348.802C337.168 351.153 335.224 353.06 332.826 353.06C327.394 353.06 317.303 344.539 317.303 344.539V344.544Z" stroke="#FE692F" stroke-width="2.5" stroke-linecap="round" stroke-linejoin="round"/>
</g>
<g clip-path="url(#clip2_21_3)">
<path d="M244.844 67.8826L250.457 79.2915L329.052 40.5375L328.992 40.4772L275.992 39.6924L273.879 39.7528L257.52 39.9339L231.201 40.1754L233.555 45.0045" stroke="#066FE0" stroke-width="2.5" stroke-miterlimit="10" stroke-linecap="round" stroke-linejoin="round"/>
<path d="M232.469 71.8667L229.39 45.3667L328.811 40.5979L232.469 71.8667Z" stroke="#066FE0" stroke-width="2.5" stroke-miterlimit="10" stroke-linecap="round" stroke-linejoin="round"/>
<path d="M244.844 67.8827L250.458 79.2915" stroke="#066FE0" stroke-width="2.5" stroke-miterlimit="10" stroke-linecap="round" stroke-linejoin="round"/>
</g>
<path d="M209.35 41.745H180.073" stroke="#066FE0" stroke-width="2.5" stroke-linecap="round"/>
<path d="M209.35 53.8177H168" stroke="#066FE0" stroke-width="2.5" stroke-linecap="round"/>
<path d="M209.35 65.8906H180.073" stroke="#066FE0" stroke-width="2.5" stroke-linecap="round"/>
<g clip-path="url(#clip3_21_3)">
<path d="M182.65 483.28C180.4 469.09 187.91 454.75 198.66 445.87C205.5 440.12 215.49 434.51 224.73 436.76C227.29 437.36 230.14 439.07 231.87 441.39" stroke="#066FE0" stroke-width="2.5" stroke-linecap="round" stroke-linejoin="round"/>
<path d="M209.81 486.37C210.56 485.03 211.19 483.43 212.45 482.48C213.64 481.59 215.17 481.24 216.61 481.03C220.59 480.43 225.55 479.61 224.65 474.23C228.03 475.28 232.16 474.53 234.34 471.77C236.52 469.01 235.54 464.08 232.16 463.03C235.92 460.49 242.61 460.34 244.71 455.71C246.81 451.01 242.68 445.55 238.62 443.54C230.13 439.28 219.08 442.42 211.12 446.38C198.58 452.66 187.99 464.83 186.93 479.17L186.78 483.2" stroke="#066FE0" stroke-width="2.5" stroke-linecap="round" stroke-linejoin="round"/>
</g>
<defs>
<clipPath id="clip0_21_3">
<rect width="50.181" height="85.3696" fill="white" transform="translate(348.983 386.608) rotate(-43.1914)"/>
</clipPath>
<clipPath id="clip1_21_3">
<rect width="52" height="48" fill="white" transform="translate(286.716 335)"/>
</clipPath>
<clipPath id="clip2_21_3">
<rect width="101.654" height="41.5911" fill="white" transform="translate(228.424 38.7266)"/>
</clipPath>
<clipPath id="clip3_21_3">
<rect width="65.54" height="52.62" fill="white" transform="translate(181 435)"/>
</clipPath>
</defs>
</svg>
