<?xml version="1.0" encoding="UTF-8"?>
<svg id="Layer_1" xmlns="http://www.w3.org/2000/svg" xmlns:xlink="http://www.w3.org/1999/xlink" version="1.1" viewBox="0 0 572 637">
  <!-- Generator: Adobe Illustrator 29.0.0, SVG Export Plug-In . SVG Version: 2.1.0 Build 186)  -->
  <defs>
    <style>
      .st0 {
        fill: none;
      }

      .st1 {
        fill: #5388b4;
      }

      .st2 {
        fill: #65013d;
      }

      .st3 {
        fill: #640e3e;
      }

      .st4 {
        fill: #006c67;
      }

      .st5 {
        clip-path: url(#clippath);
      }

      .st6 {
        fill: #ee7674;
      }
    </style>
    <clipPath id="clippath">
      <rect class="st0" x="181.8" y="36.4" width="176.8" height="178" transform="translate(-9.6 227.8) rotate(-45)"/>
    </clipPath>
  </defs>
  <g class="st5">
    <g>
      <path class="st1" d="M271.3,152.8c-8.2,0-15.8-3.2-21.6-8.9-5.8-5.8-8.9-13.4-8.9-21.6s3.2-15.8,8.9-21.6l7.4,7.4c-3.8,3.8-5.9,8.8-5.9,14.2s2.1,10.4,5.9,14.2c3.8,3.8,8.8,5.9,14.2,5.9s10.4-2.1,14.2-5.9c3.8-3.8,5.9-8.8,5.9-14.2s-2.1-10.4-5.9-14.2l7.4-7.4c5.8,5.8,8.9,13.4,8.9,21.6s-3.2,15.8-8.9,21.6c-5.8,5.8-13.4,8.9-21.6,8.9Z"/>
      <path class="st1" d="M271.3,169.9c-12.5,0-24.3-4.9-33.1-13.7-18.3-18.3-18.3-48,0-66.2l7.4,7.4c-14.2,14.2-14.2,37.3,0,51.5,6.9,6.9,16,10.7,25.7,10.7s18.9-3.8,25.7-10.7c6.9-6.9,10.7-16,10.7-25.7s-3.8-18.9-10.7-25.7l7.4-7.4c8.8,8.8,13.7,20.6,13.7,33.1s-4.9,24.3-13.7,33.1c-8.8,8.8-20.6,13.7-33.1,13.7Z"/>
      <path class="st1" d="M271.3,185.6c-16,0-32.1-6.1-44.3-18.3-11.8-11.8-18.3-27.5-18.3-44.3s6.5-32.4,18.3-44.3l7.4,7.4c-9.9,9.9-15.3,22.9-15.3,36.9s5.4,27,15.3,36.9c20.3,20.3,53.4,20.3,73.7,0,20.3-20.3,20.3-53.4,0-73.7l7.4-7.4c24.4,24.4,24.4,64.1,0,88.5-12.2,12.2-28.2,18.3-44.3,18.3Z"/>
      <path class="st1" d="M272.2,200.7c-20.1,0-40.2-7.7-55.6-23-14.8-14.8-23-34.4-23.1-55.3,0-20.9,8-40.4,22.7-55.1l7.4,7.4c-12.7,12.7-19.7,29.7-19.6,47.7,0,18.1,7.2,35.1,20,47.9,26.5,26.5,69.4,26.7,95.6.4,12.7-12.7,19.7-29.7,19.6-47.7,0-18.1-7.2-35.1-20-47.9l7.4-7.4c14.8,14.8,23,34.4,23.1,55.3,0,20.9-8,40.4-22.7,55.1-15.1,15.1-34.9,22.6-54.8,22.6Z"/>
    </g>
  </g>
  <path class="st4" d="M92.1,155.1c-16.8,0-30.5-13.7-30.5-30.5s13.7-30.5,30.5-30.5,30.5,13.7,30.5,30.5-13.7,30.5-30.5,30.5ZM92.1,104.5c-11.1,0-20.1,9-20.1,20.1s9,20.1,20.1,20.1,20.1-9,20.1-20.1-9-20.1-20.1-20.1Z"/>
  <path class="st4" d="M91.6,172c-25.8,0-46.8-21-46.8-46.8s21-46.8,46.8-46.8,46.8,21,46.8,46.8-21,46.8-46.8,46.8ZM91.6,88.8c-20.1,0-36.4,16.3-36.4,36.4s16.3,36.4,36.4,36.4,36.4-16.3,36.4-36.4-16.3-36.4-36.4-36.4Z"/>
  <path class="st4" d="M91.6,187.7c-34.5,0-62.6-28.1-62.6-62.6s28.1-62.6,62.6-62.6,62.6,28.1,62.6,62.6-28.1,62.6-62.6,62.6ZM91.6,73c-28.8,0-52.1,23.4-52.1,52.1s23.4,52.1,52.1,52.1,52.1-23.4,52.1-52.1-23.4-52.1-52.1-52.1Z"/>
  <path class="st4" d="M92.1,203.5c-42.9,0-77.8-35.1-77.8-78.3S49.3,46.8,92.1,46.8s77.8,35.1,77.8,78.3-34.9,78.3-77.8,78.3ZM92.1,57.3c-37.1,0-67.3,30.5-67.3,67.9s30.2,67.9,67.3,67.9,67.3-30.5,67.3-67.9-30.2-67.9-67.3-67.9Z"/>
  <path class="st6" d="M445.4,155.1c-16.8,0-30.5-13.7-30.5-30.5s13.7-30.5,30.5-30.5v10.4c-11.1,0-20.1,9-20.1,20.1s9,20.1,20.1,20.1v10.4Z"/>
  <path class="st6" d="M444.8,172c-25.8,0-46.8-21-46.8-46.8s21-46.8,46.8-46.8v10.4c-20.1,0-36.4,16.3-36.4,36.4s16.3,36.4,36.4,36.4v10.4Z"/>
  <path class="st6" d="M444.8,187.7c-34.5,0-62.6-28.1-62.6-62.6s28.1-62.6,62.6-62.6v10.4c-28.8,0-52.1,23.4-52.1,52.1s23.4,52.1,52.1,52.1v10.4Z"/>
  <path class="st6" d="M445.4,203.5c-42.9,0-77.8-35.1-77.8-78.3s34.9-78.3,77.8-78.3v10.4c-37.1,0-67.3,30.5-67.3,67.9s30.2,67.9,67.3,67.9v10.4Z"/>
  <path class="st3" d="M533.6,161.7h-10.4c0-16.8,13.7-30.5,30.5-30.5v10.4c-11.1,0-20.1,9-20.1,20.1Z"/>
  <path class="st3" d="M516.8,161.1h-10.4c0-25.8,21-46.8,46.8-46.8v10.4c-20.1,0-36.4,16.3-36.4,36.4Z"/>
  <path class="st3" d="M501,161.1h-10.4c0-34.5,28.1-62.6,62.6-62.6v10.4c-28.8,0-52.1,23.4-52.1,52.1Z"/>
  <path class="st3" d="M485.3,161.7h-10.4c0-42.9,35.1-77.8,78.3-77.8v10.4c-37.4,0-67.9,30.2-67.9,67.3Z"/>
  <path class="st6" d="M197.3,277.9c-14.5,0-21.9-7.9-27.9-14.2-5.6-5.9-9.1-9.3-16.5-9.3s-10.9,3.4-16.5,9.3c-6,6.3-13.4,14.2-27.9,14.2s-21.9-7.9-27.9-14.2c-5.6-5.9-9.2-9.3-16.5-9.3s-10.9,3.4-16.5,9.3c-6,6.3-13.4,14.2-27.9,14.2v-15.7c7.4,0,10.9-3.4,16.5-9.3,6-6.3,13.4-14.2,27.9-14.2s21.9,7.9,27.9,14.2c5.6,5.9,9.1,9.3,16.5,9.3s10.9-3.4,16.5-9.3c6-6.3,13.4-14.2,27.9-14.2s21.9,7.9,27.9,14.2c5.6,5.9,9.1,9.3,16.5,9.3v15.7Z"/>
  <path class="st2" d="M374.9,277.9c-14.5,0-21.9-7.9-27.9-14.2-5.6-5.9-9.1-9.3-16.5-9.3s-10.9,3.4-16.5,9.3c-6,6.3-13.4,14.2-27.9,14.2s-21.9-7.9-27.9-14.2c-5.6-5.9-9.2-9.3-16.5-9.3s-10.9,3.4-16.5,9.3c-6,6.3-13.4,14.2-27.9,14.2v-15.7c7.4,0,10.9-3.4,16.5-9.3,6-6.3,13.4-14.2,27.9-14.2s21.9,7.9,27.9,14.2c5.6,5.9,9.1,9.3,16.5,9.3s10.9-3.4,16.5-9.3c6-6.3,13.4-14.2,27.9-14.2s21.9,7.9,27.9,14.2c5.6,5.9,9.1,9.3,16.5,9.3v15.7Z"/>
  <path class="st4" d="M552.5,277.9c-14.5,0-21.9-7.9-27.9-14.2-5.6-5.9-9.1-9.3-16.5-9.3s-10.9,3.4-16.5,9.3c-6,6.3-13.4,14.2-27.9,14.2s-21.9-7.9-27.9-14.2c-5.6-5.9-9.2-9.3-16.5-9.3s-10.9,3.4-16.5,9.3c-6,6.3-13.4,14.2-27.9,14.2v-15.7c7.4,0,10.9-3.4,16.5-9.3,6-6.3,13.4-14.2,27.9-14.2s21.9,7.9,27.9,14.2c5.6,5.9,9.1,9.3,16.5,9.3s10.9-3.4,16.5-9.3c6-6.3,13.4-14.2,27.9-14.2s21.9,7.9,27.9,14.2c5.6,5.9,9.1,9.3,16.5,9.3v15.7Z"/>
  <path class="st6" d="M197.3,320.2c-14.5,0-21.9-7.9-27.9-14.2-5.6-5.9-9.1-9.3-16.5-9.3s-10.9,3.4-16.5,9.3c-6,6.3-13.4,14.2-27.9,14.2s-21.9-7.9-27.9-14.2c-5.6-5.9-9.2-9.3-16.5-9.3s-10.9,3.4-16.5,9.3c-6,6.3-13.4,14.2-27.9,14.2v-15.7c7.4,0,10.9-3.4,16.5-9.3,6-6.3,13.4-14.2,27.9-14.2s21.9,7.9,27.9,14.2c5.6,5.9,9.1,9.3,16.5,9.3s10.9-3.4,16.5-9.3c6-6.3,13.4-14.2,27.9-14.2s21.9,7.9,27.9,14.2c5.6,5.9,9.1,9.3,16.5,9.3v15.7Z"/>
  <path class="st2" d="M374.9,320.2c-14.5,0-21.9-7.9-27.9-14.2-5.6-5.9-9.1-9.3-16.5-9.3s-10.9,3.4-16.5,9.3c-6,6.3-13.4,14.2-27.9,14.2s-21.9-7.9-27.9-14.2c-5.6-5.9-9.2-9.3-16.5-9.3s-10.9,3.4-16.5,9.3c-6,6.3-13.4,14.2-27.9,14.2v-15.7c7.4,0,10.9-3.4,16.5-9.3,6-6.3,13.4-14.2,27.9-14.2s21.9,7.9,27.9,14.2c5.6,5.9,9.1,9.3,16.5,9.3s10.9-3.4,16.5-9.3c6-6.3,13.4-14.2,27.9-14.2s21.9,7.9,27.9,14.2c5.6,5.9,9.1,9.3,16.5,9.3v15.7Z"/>
  <path class="st4" d="M552.5,320.2c-14.5,0-21.9-7.9-27.9-14.2-5.6-5.9-9.1-9.3-16.5-9.3s-10.9,3.4-16.5,9.3c-6,6.3-13.4,14.2-27.9,14.2s-21.9-7.9-27.9-14.2c-5.6-5.9-9.2-9.3-16.5-9.3s-10.9,3.4-16.5,9.3c-6,6.3-13.4,14.2-27.9,14.2v-15.7c7.4,0,10.9-3.4,16.5-9.3,6-6.3,13.4-14.2,27.9-14.2s21.9,7.9,27.9,14.2c5.6,5.9,9.1,9.3,16.5,9.3s10.9-3.4,16.5-9.3c6-6.3,13.4-14.2,27.9-14.2s21.9,7.9,27.9,14.2c5.6,5.9,9.1,9.3,16.5,9.3v15.7Z"/>
  <path class="st6" d="M197.3,362.4c-14.5,0-21.9-7.9-27.9-14.2-5.6-5.9-9.1-9.3-16.5-9.3s-10.9,3.4-16.5,9.3c-6,6.3-13.4,14.2-27.9,14.2s-21.9-7.9-27.9-14.2c-5.6-5.9-9.2-9.3-16.5-9.3s-10.9,3.4-16.5,9.3c-6,6.3-13.4,14.2-27.9,14.2v-15.7c7.4,0,10.9-3.4,16.5-9.3,6-6.3,13.4-14.2,27.9-14.2s21.9,7.9,27.9,14.2c5.6,5.9,9.1,9.3,16.5,9.3s10.9-3.4,16.5-9.3c6-6.3,13.4-14.2,27.9-14.2s21.9,7.9,27.9,14.2c5.6,5.9,9.1,9.3,16.5,9.3v15.7Z"/>
  <path class="st2" d="M374.9,362.4c-14.5,0-21.9-7.9-27.9-14.2-5.6-5.9-9.1-9.3-16.5-9.3s-10.9,3.4-16.5,9.3c-6,6.3-13.4,14.2-27.9,14.2s-21.9-7.9-27.9-14.2c-5.6-5.9-9.2-9.3-16.5-9.3s-10.9,3.4-16.5,9.3c-6,6.3-13.4,14.2-27.9,14.2v-15.7c7.4,0,10.9-3.4,16.5-9.3,6-6.3,13.4-14.2,27.9-14.2s21.9,7.9,27.9,14.2c5.6,5.9,9.1,9.3,16.5,9.3s10.9-3.4,16.5-9.3c6-6.3,13.4-14.2,27.9-14.2s21.9,7.9,27.9,14.2c5.6,5.9,9.1,9.3,16.5,9.3v15.7Z"/>
  <path class="st4" d="M552.5,362.4c-14.5,0-21.9-7.9-27.9-14.2-5.6-5.9-9.1-9.3-16.5-9.3s-10.9,3.4-16.5,9.3c-6,6.3-13.4,14.2-27.9,14.2s-21.9-7.9-27.9-14.2c-5.6-5.9-9.2-9.3-16.5-9.3s-10.9,3.4-16.5,9.3c-6,6.3-13.4,14.2-27.9,14.2v-15.7c7.4,0,10.9-3.4,16.5-9.3,6-6.3,13.4-14.2,27.9-14.2s21.9,7.9,27.9,14.2c5.6,5.9,9.1,9.3,16.5,9.3s10.9-3.4,16.5-9.3c6-6.3,13.4-14.2,27.9-14.2s21.9,7.9,27.9,14.2c5.6,5.9,9.1,9.3,16.5,9.3v15.7Z"/>
  <path class="st6" d="M197.3,404.6c-14.5,0-21.9-7.9-27.9-14.2-5.6-5.9-9.1-9.3-16.5-9.3s-10.9,3.4-16.5,9.3c-6,6.3-13.4,14.2-27.9,14.2s-21.9-7.9-27.9-14.2c-5.6-5.9-9.2-9.3-16.5-9.3s-10.9,3.4-16.5,9.3c-6,6.3-13.4,14.2-27.9,14.2v-15.7c7.4,0,10.9-3.4,16.5-9.3,6-6.3,13.4-14.2,27.9-14.2s21.9,7.9,27.9,14.2c5.6,5.9,9.1,9.3,16.5,9.3s10.9-3.4,16.5-9.3c6-6.3,13.4-14.2,27.9-14.2s21.9,7.9,27.9,14.2c5.6,5.9,9.1,9.3,16.5,9.3v15.7Z"/>
  <path class="st2" d="M374.9,404.6c-14.5,0-21.9-7.9-27.9-14.2-5.6-5.9-9.1-9.3-16.5-9.3s-10.9,3.4-16.5,9.3c-6,6.3-13.4,14.2-27.9,14.2s-21.9-7.9-27.9-14.2c-5.6-5.9-9.2-9.3-16.5-9.3s-10.9,3.4-16.5,9.3c-6,6.3-13.4,14.2-27.9,14.2v-15.7c7.4,0,10.9-3.4,16.5-9.3,6-6.3,13.4-14.2,27.9-14.2s21.9,7.9,27.9,14.2c5.6,5.9,9.1,9.3,16.5,9.3s10.9-3.4,16.5-9.3c6-6.3,13.4-14.2,27.9-14.2s21.9,7.9,27.9,14.2c5.6,5.9,9.1,9.3,16.5,9.3v15.7Z"/>
  <path class="st4" d="M552.5,404.6c-14.5,0-21.9-7.9-27.9-14.2-5.6-5.9-9.1-9.3-16.5-9.3s-10.9,3.4-16.5,9.3c-6,6.3-13.4,14.2-27.9,14.2s-21.9-7.9-27.9-14.2c-5.6-5.9-9.2-9.3-16.5-9.3s-10.9,3.4-16.5,9.3c-6,6.3-13.4,14.2-27.9,14.2v-15.7c7.4,0,10.9-3.4,16.5-9.3,6-6.3,13.4-14.2,27.9-14.2s21.9,7.9,27.9,14.2c5.6,5.9,9.1,9.3,16.5,9.3s10.9-3.4,16.5-9.3c6-6.3,13.4-14.2,27.9-14.2s21.9,7.9,27.9,14.2c5.6,5.9,9.1,9.3,16.5,9.3v15.7Z"/>
  <path class="st6" d="M197.3,443.8c-14.5,0-21.9-7.9-27.9-14.2-5.6-5.9-9.1-9.3-16.5-9.3s-10.9,3.4-16.5,9.3c-6,6.3-13.4,14.2-27.9,14.2s-21.9-7.9-27.9-14.2c-5.6-5.9-9.2-9.3-16.5-9.3s-10.9,3.4-16.5,9.3c-6,6.3-13.4,14.2-27.9,14.2v-15.7c7.4,0,10.9-3.4,16.5-9.3,6-6.3,13.4-14.2,27.9-14.2s21.9,7.9,27.9,14.2c5.6,5.9,9.1,9.3,16.5,9.3s10.9-3.4,16.5-9.3c6-6.3,13.4-14.2,27.9-14.2s21.9,7.9,27.9,14.2c5.6,5.9,9.1,9.3,16.5,9.3v15.7Z"/>
  <path class="st2" d="M374.9,443.8c-14.5,0-21.9-7.9-27.9-14.2-5.6-5.9-9.1-9.3-16.5-9.3s-10.9,3.4-16.5,9.3c-6,6.3-13.4,14.2-27.9,14.2s-21.9-7.9-27.9-14.2c-5.6-5.9-9.2-9.3-16.5-9.3s-10.9,3.4-16.5,9.3c-6,6.3-13.4,14.2-27.9,14.2v-15.7c7.4,0,10.9-3.4,16.5-9.3,6-6.3,13.4-14.2,27.9-14.2s21.9,7.9,27.9,14.2c5.6,5.9,9.1,9.3,16.5,9.3s10.9-3.4,16.5-9.3c6-6.3,13.4-14.2,27.9-14.2s21.9,7.9,27.9,14.2c5.6,5.9,9.1,9.3,16.5,9.3v15.7Z"/>
  <path class="st4" d="M552.5,443.8c-14.5,0-21.9-7.9-27.9-14.2-5.6-5.9-9.1-9.3-16.5-9.3s-10.9,3.4-16.5,9.3c-6,6.3-13.4,14.2-27.9,14.2s-21.9-7.9-27.9-14.2c-5.6-5.9-9.2-9.3-16.5-9.3s-10.9,3.4-16.5,9.3c-6,6.3-13.4,14.2-27.9,14.2v-15.7c7.4,0,10.9-3.4,16.5-9.3,6-6.3,13.4-14.2,27.9-14.2s21.9,7.9,27.9,14.2c5.6,5.9,9.1,9.3,16.5,9.3s10.9-3.4,16.5-9.3c6-6.3,13.4-14.2,27.9-14.2s21.9,7.9,27.9,14.2c5.6,5.9,9.1,9.3,16.5,9.3v15.7Z"/>
  <path class="st3" d="M81.9,627c17.2,0,31.2-14,31.2-31.2s-14-31.2-31.2-31.2-31.2,14-31.2,31.2,14,31.2,31.2,31.2Z"/>
  <path class="st3" d="M39.7,550.2c11.1,0,20.2-9,20.2-20.2s-9-20.2-20.2-20.2-20.2,9-20.2,20.2,9,20.2,20.2,20.2Z"/>
  <path class="st3" d="M98.4,506.5c6.9,0,12.4-5.6,12.4-12.4s-5.6-12.4-12.4-12.4-12.4,5.6-12.4,12.4,5.6,12.4,12.4,12.4Z"/>
  <path class="st4" d="M231.8,627c17.2,0,31.2-14,31.2-31.2s-14-31.2-31.2-31.2-31.2,14-31.2,31.2,14,31.2,31.2,31.2Z"/>
  <path class="st4" d="M189.6,550.2c11.1,0,20.2-9,20.2-20.2s-9-20.2-20.2-20.2-20.2,9-20.2,20.2,9,20.2,20.2,20.2Z"/>
  <path class="st4" d="M248.2,506.5c6.9,0,12.4-5.6,12.4-12.4s-5.6-12.4-12.4-12.4-12.4,5.6-12.4,12.4,5.6,12.4,12.4,12.4Z"/>
  <path class="st6" d="M379.1,627c17.2,0,31.2-14,31.2-31.2s-14-31.2-31.2-31.2-31.2,14-31.2,31.2,14,31.2,31.2,31.2Z"/>
  <path class="st6" d="M336.9,550.2c11.1,0,20.2-9,20.2-20.2s-9-20.2-20.2-20.2-20.2,9-20.2,20.2,9,20.2,20.2,20.2Z"/>
  <path class="st6" d="M395.6,506.5c6.9,0,12.4-5.6,12.4-12.4s-5.6-12.4-12.4-12.4-12.4,5.6-12.4,12.4,5.6,12.4,12.4,12.4Z"/>
  <path class="st1" d="M526.5,627c17.2,0,31.2-14,31.2-31.2s-14-31.2-31.2-31.2-31.2,14-31.2,31.2,14,31.2,31.2,31.2Z"/>
  <path class="st1" d="M484.3,550.2c11.1,0,20.2-9,20.2-20.2s-9-20.2-20.2-20.2-20.2,9-20.2,20.2,9,20.2,20.2,20.2Z"/>
  <path class="st1" d="M542.9,506.5c6.9,0,12.4-5.6,12.4-12.4s-5.6-12.4-12.4-12.4-12.4,5.6-12.4,12.4,5.6,12.4,12.4,12.4Z"/>
</svg>