<?xml version="1.0" encoding="utf-8"?><!DOCTYPE svg PUBLIC "-//W3C//DTD SVG 1.1//EN" "http://www.w3.org/Graphics/SVG/1.1/DTD/svg11.dtd">
<svg xmlns="http://www.w3.org/2000/svg">
  <symbol id="dribbble-icon" viewBox="0 0 24 24">
    <path d="M12 0c-6.628 0-12 5.373-12 12s5.372 12 12 12 12-5.373 12-12-5.372-12-12-12zm9.885 11.441c-2.575-.422-4.943-.445-7.103-.073-.244-.563-.497-1.125-.767-1.68 2.31-1 4.165-2.358 5.548-4.082 1.35 1.594 2.197 3.619 2.322 5.835zm-3.842-7.282c-1.205 1.554-2.868 2.783-4.986 3.68-1.016-1.861-2.178-3.676-3.488-5.438.779-.197 1.591-.314 2.431-.314 2.275 0 4.368.779 6.043 2.072zm-10.516-.993c1.331 1.742 2.511 3.538 3.537 5.381-2.43.715-5.331 1.082-8.684 1.105.692-2.835 2.601-5.193 5.147-6.486zm-5.44 8.834l.013-.256c3.849-.005 7.169-.448 9.95-1.322.233.475.456.952.67 1.432-3.38 1.057-6.165 3.222-8.337 6.48-1.432-1.719-2.296-3.927-2.296-6.334zm3.829 7.81c1.969-3.088 4.482-5.098 7.598-6.027.928 2.42 1.609 4.91 2.043 7.46-3.349 1.291-6.953.666-9.641-1.433zm11.586.43c-.438-2.353-1.08-4.653-1.92-6.897 1.876-.265 3.94-.196 6.199.196-.437 2.786-2.028 5.192-4.279 6.701z"/>
  </symbol>
  <symbol id="vimeo-icon" viewBox="0 0 24 24">
    <path d="M23.5,6.6c-0.1,2.3-1.7,5.3-4.7,9.3C15.7,20,13,22,10.9,22c-1.3,0-2.5-1.2-3.4-3.7c-0.6-2.3-1.2-4.6-1.9-6.9
      C4.9,8.9,4.1,7.7,3.3,7.7C3.2,7.7,2.6,8,1.5,8.8L0.4,7.4c1.1-1,2.3-2,3.4-3c1.5-1.3,2.7-2,3.4-2.1C9,2.1,10.1,3.3,10.6,6
      c0.4,2.8,0.8,4.6,0.9,5.3c0.5,2.4,1.1,3.5,1.7,3.5c0.5,0,1.2-0.8,2.2-2.3c1-1.5,1.5-2.7,1.6-3.5c0.1-1.3-0.4-2-1.6-2
      c-0.6,0-1.1,0.1-1.7,0.4C14.8,3.7,17,1.9,20.2,2C22.6,2.1,23.7,3.6,23.5,6.6z"/>
  </symbol>
  <symbol id="medium-icon" viewBox="0 0 195 195">
    <path d="M0 0v195h195V0H0zm162 46.2l-10.5 10c-.9.7-1.3 1.8-1.2 2.9v73.7c-.2 1.1.3 2.2 1.2 2.9l10.2 10v2.2h-51.4v-2.2l10.6-10.3c1-1 1-1.3 1-2.9V73l-29.4 74.7h-4L54.4 73v50.1c-.3 2.1.4 4.2 1.9 5.7L70 145.6v2.2H31v-2.2l13.8-16.7c1.5-1.5 2.1-3.7 1.8-5.7v-58c.2-1.6-.5-3.2-1.7-4.3L32.7 46.2V44h38l29.4 64.4L125.8 44H162v2.2z"/>
  </symbol>
  <symbol id="mastodon-icon" viewBox="0 0 173.1 185.6">
     <path class="ast0" d="M170.6 61.8c0-39.1-25.6-50.6-25.6-50.6-12.9-5.8-35-8.3-58-8.5h-.6c-23 .2-45.2 2.7-58.1 8.6 0 0-25.6 11.4-25.6 50.6 0 8.9-.2 19.6.1 31 1 38.2 7 75.9 42.3 85.2 16.3 4.3 30.3 5.2 41.5 4.6 20.4-1.2 31.9-7.3 31.9-7.3l-.7-14.8s-14.6 4.6-31 4.1c-16.2-.6-33.4-1.7-36-21.7-.2-1.7-.4-3.6-.4-5.6 0 0 15.9 3.9 36.2 4.9 12.3.6 24-.7 35.7-2.1 22.6-2.7 42.2-16.6 44.6-29.3 4-20.2 3.7-49.1 3.7-49.1zm-30.2 50.3l-18.7.1V66.3c0-9.7-4.1-14.6-12.2-14.6-9 0-13.5 5.8-13.5 17.4v25.1H77.3V69.1c0-11.5-4.5-17.4-13.5-17.4-8.2 0-12.2 4.9-12.2 14.6v46H32.9v-.2h-.1V64.9c0-9.7 2.4-17.4 7.4-23 5.1-5.7 11.7-8.6 20.1-8.6 9.6 0 16.9 3.7 21.6 11.1l4.6 7.8 4.6-7.8c4.8-7.4 12-11.1 21.6-11.1 8.2 0 14.9 2.9 20.1 8.6 4.9 5.6 7.4 13.3 7.4 23v47.2z"/>
 </symbol>
</svg>
