<svg xmlns="http://www.w3.org/2000/svg" viewBox="0 0 515 515"><style type="text/css">
	.st0{fill:#683057;}
	.st1{fill:#FFFFFF;}
	.st2{opacity:0.103;fill:#683057;enable-background:new    ;}
	.st3{fill:none;}
	.st4{fill:none;stroke:#683057;stroke-width:25;stroke-linecap:round;stroke-linejoin:round;stroke-miterlimit:10;}
	.st5{fill:none;stroke:#683057;stroke-width:21;stroke-linecap:round;stroke-linejoin:round;stroke-miterlimit:10;}
	.st6{fill:none;stroke:#683057;stroke-width:21;stroke-linejoin:round;stroke-miterlimit:10;}
</style><path class="st0" d="M326.4 407.9c-6.2 0-11.5-4.8-12-11.1l-11.9-163h-90.3L200.5 393c-0.5 6.6-6.2 11.6-12.8 11.1s-11.6-6.2-11.1-12.8l12.5-170.4c0.5-6.3 5.7-11.1 12-11.1h112.6c6.3 0 11.5 4.9 12 11.1L338.4 395c0.5 6.6-4.5 12.4-11.1 12.8C327 407.9 326.7 407.9 326.4 407.9z"/><path class="st0" d="M307.9 212.7H207.1c-6.6 0-12-5.4-12-12v-75.1c0-6.6 5.4-12 12-12h100.7c6.6 0 12 5.4 12 12v75.1C319.9 207.3 314.5 212.7 307.9 212.7zM219.1 188.7h76.7v-51.1h-76.7L219.1 188.7 219.1 188.7z"/><path class="st0" d="M324.8 235.1H190.2c-5.3 0-9.6-4.3-9.6-9.6v-37.8c0-5.3 4.3-9.6 9.6-9.6h134.6c5.3 0 9.6 4.3 9.6 9.6v37.8C334.4 230.8 330.1 235.1 324.8 235.1z"/><rect x="199.8" y="197.2" class="st1" width="115.4" height="18.6"/><path class="st0" d="M322.2 136.1H192.8c-4 0-7.7-2.5-9-6.3 -1.4-3.8-0.2-8.1 2.9-10.7L251.4 65c3.6-3 8.8-3 12.3 0l64.7 54.1c3.1 2.6 4.3 6.9 2.9 10.7C329.8 133.6 326.2 136.1 322.2 136.1zM219.3 116.9h76.4L257.5 85 219.3 116.9z"/><path class="st2" d="M257.5 509c-67.2 0-130.3-26.2-177.9-73.7S6 324.7 6 257.5 32.1 127.2 79.6 79.6 190.3 6 257.5 6s130.3 26.2 177.9 73.7S509 190.3 509 257.5s-26.2 130.3-73.7 177.9S324.7 509 257.5 509zM257.5 30c-60.8 0-117.9 23.7-160.8 66.6S30 196.7 30 257.5s23.7 117.9 66.6 160.8c43 43 100.1 66.6 160.8 66.6s117.9-23.7 160.8-66.6c43-43 66.6-100.1 66.6-160.8s-23.7-117.9-66.6-160.8C375.4 53.7 318.3 30 257.5 30z"/><circle class="st3" cx="255.5" cy="265.5" r="210.4"/><circle class="st4" cx="257.5" cy="257.5" r="223"/><path class="st5" d="M91.4 401.5c21.3-1.5 41-14.3 53.8-31.2"/><path class="st5" d="M256.7 370.7c-11 14.5-27.1 26.8-45.3 29.8 -24.6 4-47.7-8.1-63.3-26.7 -0.9-1-1.7-2.1-2.5-3.1"/><path class="st5" d="M369 370.7c-11 14.5-27.1 26.8-45.3 29.8 -24.6 4-47.7-8.1-63.3-26.7 -0.9-1-1.7-2.1-2.5-3.1"/><path class="st5" d="M422 401.2c-19.6-1.2-37.5-12.1-50.3-27.3 -0.9-1-1.7-2.1-2.5-3.1"/><line class="st5" x1="207" y1="234" x2="320" y2="359"/><line class="st6" x1="257.5" y1="123" x2="257.5" y2="184"/></svg>
