<svg version="1.1" id="Layer_1" xmlns="http://www.w3.org/2000/svg" x="0" y="0" viewBox="0 0 395 85" xml:space="preserve"><style>.st0{fill:#2D2F2A}</style><path class="st0" d="M67.7 6.9L46.5 42.6v17.7c0 3.3-1.8 5.1-5.1 5.1h-9.9c-3.3 0-5.1-1.8-5.1-5.1V42.1L14.5 20.9c-.7-1.1-1.4-1.6-2.3-1.8-1.2-.3-2.4 0-3.5.6-2.2 1.1-3.1-.2-4.1-3.2L2 8.6c-1.3-3.5.5-4.4 2.3-5.3 3.4-1.6 6.4-2.1 9.6-2.1 8.8 0 13 3.9 17.6 12.7l5.3 10.9 9.7-17.3c2-3.6 4.5-5.1 7.9-5.1h9.3c3.5-.1 6.1 1.1 4 4.5zM123.7 64.7c-3.3 1.6-6.7 2-9.1 2-5.9 0-10.5-2.9-12.5-8.3-2.8 4.8-7.4 8.3-14.6 8.3-12.2 0-20.4-7.9-20.4-19.7V21.4c0-3.2 1.8-5.1 5.1-5.1h9.9c3.2 0 5.1 1.8 5.1 5.1v22.4c0 3.4 1.8 6 5.2 6 3.3 0 5.1-2.4 5.1-5.9V21.4c0-3.2 1.8-5.1 5.1-5.1h9.9c3.2 0 5.1 1.8 5.1 5.1v26.9c0 .9-.1 1.7.9 1.7.7 0 1.5-.5 2.4-.5 1.5.1 2.3 1.1 2.9 3.3l1.9 6.7c1 3.5-.2 4.2-2 5.2zM190.5 41.1c0 14.4-10.3 25.6-24.3 25.6-3.8 0-7.4-1-10.5-2.5v14.7c0 3.3-1.8 5.1-5.1 5.1h-9.9c-3.2 0-5.1-1.7-5.1-5.1V34.1c0-.7-.4-1-.8-1-1 0-2.3.9-3.5.9-.6-.1-1.8-.5-2.4-3.2l-1.7-8.3c-.6-2.8 0-4.2 2.4-5.3 2.1-1.1 5.3-1.7 7.8-1.7 5.1 0 10.2 1.8 12.8 6.2 4.2-3.8 9.7-6.2 15.9-6.2 14 .1 24.4 11.3 24.4 25.6zm-19.7 0c0-5.1-3.4-8.6-8-8.6-4.7 0-8 3.7-8 8.6 0 5 3.3 8.6 8 8.6 4.6.1 8-3.5 8-8.6zM195.8 33.9c0-18.7 14.8-32.7 33.9-32.7 9.7 0 17.7 3.5 23.6 8.9 2.4 2.3 2.5 5.1 0 7.4l-5.7 5.2c-2.5 2.2-4.7 1.8-7.3 0-2.8-1.9-6-3.4-9.9-3.4-7.7 0-14 6.1-14 14.7 0 8.4 6.1 14.5 14.6 14.5 3 0 5.9-.7 8.3-2.4 1.6-1.1 2.9-2.4 3.8-4.3h-7.5c-3.2 0-5.1-1.8-5.1-5.1v-4.1c0-3.2 1.8-5.1 5.1-5.1h23c3.3 0 5.1 1.8 5.1 5.1v1.9c0 9-3.7 17.1-9.9 22.8-5.9 5.7-14.4 9.2-24 9.2-19.4.1-34-13.9-34-32.6zM326.7 64.7c-3.3 1.6-6.7 2-9.1 2-5.9 0-10.5-2.9-12.5-8.3-2.8 4.8-7.4 8.3-14.6 8.3-12.2 0-20.4-7.9-20.4-19.7V21.4c0-3.2 1.8-5.1 5.1-5.1h9.9c3.2 0 5.1 1.8 5.1 5.1v22.4c0 3.4 1.8 6 5.2 6 3.3 0 5.1-2.4 5.1-5.9V21.4c0-3.2 1.8-5.1 5.1-5.1h9.9c3.2 0 5.1 1.8 5.1 5.1v26.9c0 .9-.1 1.7.9 1.7.7 0 1.5-.5 2.4-.5 1.5.1 2.3 1.1 2.9 3.3l1.9 6.7c1 3.5-.3 4.2-2 5.2zM393.5 41.1c0 14.4-10.3 25.6-24.3 25.6-3.8 0-7.4-1-10.5-2.5v14.7c0 3.3-1.8 5.1-5.1 5.1h-9.9c-3.2 0-5.1-1.7-5.1-5.1V34.1c0-.7-.4-1-.8-1-1 0-2.3.9-3.5.9-.6-.1-1.8-.5-2.4-3.2l-1.7-8.3c-.6-2.8 0-4.2 2.4-5.3 2.1-1.1 5.3-1.7 7.8-1.7 5.1 0 10.2 1.8 12.8 6.2 4.2-3.8 9.7-6.2 15.9-6.2 14 .1 24.4 11.3 24.4 25.6zm-19.8 0c0-5.1-3.4-8.6-8-8.6-4.7 0-8 3.7-8 8.6 0 5 3.3 8.6 8 8.6 4.6.1 8-3.5 8-8.6z"/></svg>
