<svg width="1160" height="217" viewBox="0 0 1160 217" fill="none" xmlns="http://www.w3.org/2000/svg">
<rect width="1160" height="217" fill="white"/>
<path d="M335.954 69.6789L368.277 6.771H404.291L351.652 103.215V168.668H319.329V103.215L266.923 6.771H303.631L335.954 69.6789Z" fill="#640E3E"/>
<path d="M432.027 164.201C423.938 159.586 417.704 153.092 413.32 144.706C408.933 136.324 406.744 126.674 406.744 115.753V50.9248H436.902V115.753C436.902 123.908 439.055 130.441 443.364 135.362C447.674 140.285 453.456 142.746 460.71 142.746C467.964 142.746 473.555 140.288 477.942 135.362C482.326 130.441 484.518 123.905 484.518 115.753V50.9248H514.675V115.753C514.675 126.677 512.484 136.327 508.1 144.706C503.713 153.092 497.479 159.586 489.392 164.201C481.303 168.815 471.741 171.121 460.71 171.121C449.678 171.121 440.111 168.815 432.027 164.201Z" fill="#640E3E"/>
<path d="M641.705 56.3371C650.699 61.5808 657.943 68.9089 663.433 78.316C668.922 87.7258 671.667 98.3678 671.667 110.242C671.667 122.116 668.922 132.53 663.433 141.937C657.943 151.347 650.702 158.675 641.705 163.916C632.706 169.157 623.257 171.782 613.345 171.782C605.417 171.782 598.515 170.662 592.647 168.428C586.776 166.195 581.554 162.76 576.982 158.132V215.275H546.564V51.2482H575.839V63.2799C580.564 58.191 585.978 54.4524 592.077 52.0584C598.173 49.6701 605.264 48.4717 613.345 48.4717C623.254 48.4717 632.706 51.0963 641.705 56.3371ZM631.872 133.838C638.121 127.514 641.249 119.649 641.249 110.239C641.249 100.829 638.123 92.736 631.872 86.4093C625.618 80.0854 617.842 76.9235 608.546 76.9235C599.249 76.9235 591.468 80.0854 585.216 86.4093C578.962 92.736 575.839 100.677 575.839 110.239C575.839 119.801 578.962 127.514 585.216 133.838C591.468 140.165 599.243 143.324 608.546 143.324C617.848 143.324 625.62 140.165 631.872 133.838Z" fill="#640E3E"/>
<path d="M771.484 78.9622H858.094V88.179C858.094 104.307 854.617 118.631 847.669 131.147C840.718 143.667 830.978 153.458 818.454 160.523C805.928 167.591 791.569 171.121 775.379 171.121C760.257 171.121 746.282 167.549 733.449 160.409C720.619 153.265 710.384 143.359 702.747 130.688C695.108 118.017 691.291 103.696 691.291 87.7195C691.291 71.7429 695.108 57.422 702.747 44.7511C710.384 32.0801 720.619 22.1742 733.449 15.0306C746.279 7.88971 760.257 4.31787 775.379 4.31787C795.085 4.31787 812.152 9.46692 826.59 19.7538C841.024 30.0463 850.99 43.8686 856.489 61.2235H822.578C817.538 52.9285 811.272 46.3647 803.789 41.5238C796.302 36.6857 786.833 34.2681 775.376 34.2681C765.904 34.2681 757.236 36.6101 749.371 41.2941C741.504 45.9809 735.316 52.3934 730.814 60.5316C726.306 68.6754 724.055 77.7352 724.055 87.7167C724.055 97.6983 726.306 106.764 730.814 114.902C735.316 123.046 741.504 129.455 749.371 134.139C757.236 138.826 765.904 141.165 775.376 141.165C787.749 141.165 798.175 138.325 806.653 132.641C815.131 126.959 820.82 119.048 823.723 108.91H771.482V78.9594L771.484 78.9622Z" fill="#640E3E"/>
<path d="M908.482 164.201C900.208 159.586 893.833 153.092 889.349 144.706C884.863 136.324 882.624 126.674 882.624 115.753V50.9248H913.467V115.753C913.467 123.908 915.669 130.441 920.077 135.362C924.484 140.285 930.397 142.746 937.816 142.746C945.235 142.746 950.954 140.288 955.44 135.362C959.924 130.441 962.165 123.905 962.165 115.753V50.9248H993.009V115.753C993.009 126.677 990.767 136.327 986.283 144.706C981.797 153.092 975.421 159.586 967.151 164.201C958.877 168.815 949.098 171.121 937.816 171.121C926.534 171.121 916.749 168.815 908.482 164.201Z" fill="#640E3E"/>
<path d="M1119.45 56.3371C1128.62 61.5808 1136.01 68.9089 1141.6 78.316C1147.2 87.7258 1150 98.3678 1150 110.242C1150 122.116 1147.2 132.53 1141.6 141.937C1136.01 151.347 1128.62 158.675 1119.45 163.916C1110.28 169.157 1100.64 171.782 1090.53 171.782C1082.45 171.782 1075.41 170.662 1069.43 168.428C1063.45 166.195 1058.12 162.76 1053.46 158.132V215.275H1022.44V51.2482H1052.29V63.2799C1057.11 58.191 1062.63 54.4524 1068.85 52.0584C1075.06 49.6701 1082.3 48.4717 1090.53 48.4717C1100.64 48.4717 1110.28 51.0963 1119.45 56.3371ZM1109.42 133.838C1115.8 127.514 1118.99 119.649 1118.99 110.239C1118.99 100.829 1115.8 92.736 1109.42 86.4093C1103.05 80.0854 1095.12 76.9235 1085.64 76.9235C1076.16 76.9235 1068.23 80.0854 1061.85 86.4093C1055.48 92.736 1052.29 100.677 1052.29 110.239C1052.29 119.801 1055.48 127.514 1061.85 133.838C1068.23 140.165 1076.16 143.324 1085.64 143.324C1095.12 143.324 1103.05 140.165 1109.42 133.838Z" fill="#640E3E"/>
<path d="M249.806 78.8705V94.7166C249.806 100.996 249.171 107.278 247.914 113.386C246.688 119.345 244.857 125.209 242.476 130.811C240.137 136.31 237.245 141.609 233.878 146.568C230.545 151.473 226.72 156.087 222.506 160.278C218.292 164.47 213.654 168.277 208.722 171.59C203.739 174.939 198.409 177.816 192.881 180.142C187.249 182.511 181.354 184.331 175.363 185.551C169.222 186.801 162.909 187.433 156.593 187.433C150.277 187.433 143.964 186.801 137.823 185.551C131.832 184.331 125.937 182.511 120.305 180.142C114.777 177.819 109.45 174.939 104.464 171.59C99.5322 168.275 94.8941 164.47 90.6797 160.278C86.4654 156.087 82.638 151.473 79.3077 146.568C75.9407 141.612 73.0483 136.31 70.7095 130.811C68.3283 125.209 66.498 119.345 65.2721 113.386C64.0151 107.278 63.3796 100.999 63.3796 94.7166H63.3513C63.3513 86.4704 61.7328 78.4799 58.5353 70.9671C56.9987 67.354 55.0977 63.8701 52.8832 60.6081C50.6856 57.3743 48.1632 54.3315 45.3809 51.5669C42.6015 48.8022 39.5424 46.2904 36.2912 44.1074C33.0118 41.9047 29.5092 40.011 25.8767 38.4826C18.3236 35.3049 10.2903 33.6922 2 33.6922V2C8.31308 2 14.629 2.63497 20.7698 3.88243C26.7608 5.10179 32.6559 6.92241 38.2882 9.2909C43.8161 11.6172 49.1433 14.4943 54.1288 17.8433C59.0607 21.1586 63.6987 24.9628 67.9131 29.1547C72.1275 33.3466 75.952 37.96 79.2851 42.8655C79.2879 42.8712 79.2936 42.8768 79.2964 42.8824C79.2993 42.8768 79.3049 42.8712 79.3077 42.8655C82.6408 37.96 86.4654 33.3466 90.6797 29.1547C94.8941 24.9628 99.5322 21.1558 104.464 17.8433C109.447 14.4943 114.777 11.6172 120.305 9.2909C125.937 6.92241 131.832 5.10179 137.823 3.88243C143.964 2.63216 150.277 2 156.593 2V33.6922C148.303 33.6922 140.269 35.3021 132.716 38.4826C129.084 40.011 125.581 41.9018 122.302 44.1074C119.05 46.2932 115.991 48.8022 113.212 51.5669C110.432 54.3315 107.907 57.3743 105.713 60.6081C103.498 63.8701 101.594 67.354 100.058 70.9671C96.8629 78.4799 95.2415 86.4704 95.2415 94.7166C95.2415 102.963 96.8601 110.953 100.058 118.466C101.594 122.079 103.495 125.563 105.713 128.825C107.91 132.059 110.432 135.102 113.212 137.866C115.991 140.631 119.05 143.143 122.302 145.329C125.581 147.531 129.084 149.425 132.716 150.953C140.269 154.131 148.303 155.741 156.593 155.741C164.883 155.741 172.916 154.131 180.47 150.953C184.102 149.425 187.605 147.534 190.884 145.329C194.135 143.143 197.194 140.634 199.974 137.866C202.753 135.102 205.278 132.059 207.476 128.825C209.691 125.563 211.594 122.079 213.131 118.466C214.227 115.884 215.139 113.249 215.862 110.566H156.593V78.8733H249.806V78.8705Z" fill="#640E3E"/>
<path d="M187.433 130.96C187.433 137.002 182.895 141.918 177.319 141.918C171.742 141.918 167.204 137.002 167.204 130.96C167.204 124.919 171.742 120.003 177.319 120.003C182.895 120.003 187.433 124.919 187.433 130.96Z" fill="#640E3E"/>
</svg>
