<?xml version="1.0" encoding="utf-8"?>
<!-- Generator: Adobe Illustrator 23.0.0, SVG Export Plug-In . SVG Version: 6.00 Build 0)  -->
<svg version="1.1" id="Layer_1" xmlns="http://www.w3.org/2000/svg" xmlns:xlink="http://www.w3.org/1999/xlink" x="0px" y="0px"
	 viewBox="0 0 458 651.2" style="enable-background:new 0 0 458 651.2;" xml:space="preserve">
<style type="text/css">
	.st0{fill:#B29FCC;}
	.st1{fill:none;stroke:#29408A;stroke-width:16.92;stroke-linecap:round;stroke-linejoin:round;}
	.st2{fill:#9C83BC;}
	.st3{fill:#29408A;}
	.st4{fill:#E7BBD6;}
	.st5{fill:#E15D97;}
	.st6{fill:#EA73A5;}
	.st7{fill:#2D3D8B;}
	.st8{fill:#2B3F8B;}
	.st9{fill:#FFFFFF;}
	.st10{fill:#C7C6DC;}
	.st11{fill:#E8A2C2;}
	.st12{fill:#E25D98;}
</style>
<title>mail-campaign-logo</title>
<g>
	<path class="st0" d="M17.5,362h423c5.5,0,9.9,4.4,9.9,9.9v261.8c0,5.5-4.4,9.9-9.9,9.9h-423c-5.5,0-9.9-4.4-9.9-9.9V371.9
		C7.6,366.4,12,362,17.5,362z"/>
	<path class="st1" d="M182.6,490"/>
	<path class="st1" d="M10.2,636.7"/>
	<path class="st2" d="M90.7,647.3l202.5-3.2v1.2H444c5.5,0,9.9-4.4,9.9-9.9l0,0l-3-161.2C438.6,600.1,333.5,646.3,90.7,647.3z"/>
	<path class="st3" d="M11.1,646.7c-2.2,0-4.3-1-5.7-2.6c-2.8-3.1-2.5-7.8,0.6-10.6c0,0,0.1-0.1,0.1-0.1l171.1-151.2
		c3.1-2.8,7.9-2.5,10.7,0.6c2.8,3.2,2.5,8-0.6,10.8L16.1,644.8C14.7,646,12.9,646.7,11.1,646.7z"/>
	<path class="st3" d="M446.9,646.7c-1.8,0-3.6-0.7-5-1.9L270.7,493.6c-3.1-2.8-3.4-7.6-0.6-10.8c2.8-3.1,7.6-3.4,10.7-0.6
		l171.1,151.2c3.1,2.7,3.5,7.4,0.8,10.6c0,0-0.1,0.1-0.1,0.1C451.2,645.7,449.1,646.7,446.9,646.7z"/>
	<polygon class="st4" points="21,368.3 442.9,367 230,560.5 20,367 	"/>
	<path class="st3" d="M229,569.3c-5.2,0-10.1-2-13.8-5.6l-205-187.9c-3.1-2.8-3.3-7.6-0.5-10.7c2.9-3.1,7.7-3.3,10.8-0.5l204.9,188
		c1.8,2,4.9,2.1,6.9,0.3c0.1-0.1,0.2-0.2,0.3-0.3l204.3-187.4c2.9-3.1,7.7-3.2,10.7-0.4c3.1,2.9,3.2,7.7,0.4,10.7
		c-0.3,0.3-0.6,0.6-0.9,0.8L242.8,563.7C239.1,567.3,234.2,569.3,229,569.3z"/>
	<path class="st5" d="M199.2,399.5c-8.5,0-16.7,3.5-22.5,9.7c-12.4,13.1-12.4,33.5,0,46.6l50.3,52.7c1,1,2.6,1.1,3.7,0.1
		c0,0,0.1-0.1,0.1-0.1h0.1l50.4-52.6c12.4-13.1,12.4-33.5,0-46.6c-11.7-12.4-31.3-12.9-43.7-1.2c-0.4,0.4-0.8,0.8-1.2,1.2L229,417
		l-7.4-7.8C215.8,403,207.7,399.5,199.2,399.5z"/>
	<path class="st6" d="M28.2,271.3c-10.9-19.2-15.4-42.3-15-64.2c1.6-76.2,77.7-122.2,148.3-109.8c29,5,55.4,20.2,73,44.2
		c14.6,20,24.5,70.2,25.4,94.7l-8.7,86.2l-123.7-23.7"/>
	<path class="st7" d="M251.2,329.9h-1.4l-123.7-23.8c-4.1-0.8-6.7-4.7-6-8.8c0.8-4.1,4.7-6.7,8.8-6l115.6,22.2l7.9-77.5
		c-1-24.3-10.9-72.2-24-90.1c-15.9-21.7-40.1-36.4-68.2-41.3c-36.2-6.3-74.3,3.5-102,26.3c-23.6,19.4-36.9,46.5-37.5,76.4
		c-0.4,22.1,4.5,43.5,14,60.4c2.1,3.6,0.9,8.2-2.7,10.3c-3.6,2.1-8.2,0.9-10.3-2.7c-0.1-0.1-0.1-0.2-0.2-0.3
		c-10.7-19.1-16.4-43.3-15.9-68c0.7-34.3,16-65.5,43-87.7c30.9-25.5,73.6-36.5,114.1-29.4c31.9,5.5,59.5,22.3,77.7,47.2
		c16.4,22.3,26.1,75.4,26.9,98.8v1.1l-8.8,86.2C258.2,327,255,329.9,251.2,329.9L251.2,329.9z"/>
	<path class="st4" d="M94.3,311.7c22-5.2,43.3-13,63.4-23.2c37.4-19.7,68.2-49.8,88.7-86.8c1.3-2.2,5.5-9.6,6.7-11.9
		c-19.7-15-22.5-34.2-14.5-59.8c12.5-40,33.8-58.7,79.3-58.7s60.8,28.9,68.1,62.7c8,36.5-18.5,81.5-62,80
		c5.6,48.5-7.9,96.6-46.9,122.5c-14.2,9.4-30.2,15.1-46.5,18.4c-36.8,7.5-74.8,7.1-111.9,2.2c-17.4-2.3-34.8-5.2-51.7-10
		c-4.3-1.2-46.8-15.4-39.7-22"/>
	<path class="st6" d="M323.5,208.5c5.6,48.5-7.4,102.1-46.4,128c-14.2,9.4-30.2,15.1-46.5,18.4c-36.8,7.5-74.8,7.1-111.9,2.2
		c-17.4-2.3-34.8-5.2-51.7-10c-4.3-1.2-46.8-15.4-39.7-22c1.7-1.6,3.9-2.1,6.1-2.6C33.4,322.5,294.1,409.4,323.5,208.5z"/>
	<path class="st4" d="M285.1,70.5c0,0,9.9-32.1-6.2-50.8"/>
	<path class="st7" d="M285.1,78c-0.7,0-1.5-0.1-2.2-0.3c-4-1.2-6.2-5.4-5-9.3c0,0,0,0,0-0.1c0.1-0.3,8.5-28.5-4.7-43.8
		c-2.5-3.3-1.8-8,1.5-10.5c3-2.2,7.2-1.9,9.9,0.8c18.6,21.6,8.1,56.5,7.6,57.9C291.2,75.8,288.4,78,285.1,78z"/>
	<circle class="st8" cx="279.8" cy="16.9" r="16.9"/>
	<path class="st4" d="M272.3,76.2c0,0-11.3-31.6-35.4-36.9"/>
	<path class="st7" d="M272.3,83.7c-3.1,0-5.9-2-7-4.9c-0.1-0.3-10.3-27.9-30-32.2c-4.1-0.9-6.6-4.9-5.8-9c0.9-4.1,4.9-6.6,9-5.7
		c27.9,6.2,40.4,40.4,40.9,41.8c1.4,3.9-0.6,8.2-4.5,9.6C274.1,83.6,273.2,83.7,272.3,83.7z"/>
	<circle class="st8" cx="235.9" cy="36.5" r="16.9"/>
	<circle class="st8" cx="312.8" cy="123.3" r="28.3"/>
	<path class="st8" d="M312.8,154.3c-17.1,0-31-13.9-31-31s13.9-31,31-31s31,13.9,31,31S329.9,154.3,312.8,154.3L312.8,154.3z
		 M312.8,97.6c-14.2,0-25.7,11.5-25.7,25.7c0,14.2,11.5,25.7,25.7,25.7c14.2,0,25.7-11.5,25.7-25.7S327,97.6,312.8,97.6L312.8,97.6z
		"/>
	<circle class="st9" cx="319.8" cy="114.8" r="13.2"/>
	<circle class="st10" cx="309.5" cy="138.4" r="4.4"/>
	<path class="st7" d="M351.6,183.8c-8.2,0-16.3-2-23.5-5.9c-3.6-2-4.8-6.5-2.8-10.1c0,0,0-0.1,0.1-0.1c2.1-3.6,6.6-4.8,10.2-2.8
		c0.8,0.5,21.3,11.6,39.1-5.9c2.9-2.9,7.7-2.9,10.6,0c2.9,3,2.9,7.7-0.1,10.6C374.4,180.3,362.3,183.8,351.6,183.8z"/>
	<path class="st11" d="M228.7,320.8c-2,0.1-3.8-1.4-4-3.4c-0.1-1.6,0.8-3.1,2.3-3.7c73.2-36.5,73.4-96.7,73.4-97.3
		c-0.1-2,1.6-3.7,3.6-3.8c0,0,0.1,0,0.1,0c2,0.3,3.8,1.6,3.8,3.7s-0.2,65.5-77.6,104.1C229.8,320.7,229.3,320.8,228.7,320.8z"/>
	<path class="st7" d="M169.7,368.2c-17.6,0-35.2-1.3-52.6-3.6c-14.6-2-33.8-4.9-52.8-10.3c-0.4-0.1-42.4-12-45.6-25.3
		c-0.8-3.4,0.3-7,2.9-9.4c3.1-2.9,6.6-3.8,9.7-4.4c9.8-2.3,20-3.8,29.9-5.3s20.7-3,30.7-5.5c23.1-5.6,43.2-13,61.7-22.6
		c36.1-19,65.9-48,85.7-83.7c1.3-2.3,2.4-4.5,3.6-6.6l1-1.9c-8.6-12.7-13.1-28.5-13.1-46c0-44.4,36-80.6,80.3-80.6
		s80.4,36.2,80.4,80.6c0.1,36.6-24.5,68.7-60,78v3c1.5,51.7-17.5,96-50.9,118.1c-13.8,9.2-30.3,15.7-49.1,19.5
		C211.2,366.3,190.5,368.3,169.7,368.2z M39.8,328.7c9.3,4.4,18.8,8.1,28.6,11.2c18.1,5.1,36.6,7.9,50.7,9.8
		c39.8,5.2,76.7,4.5,109.4-2.2c16.9-3.4,31.7-9.2,43.9-17.3c29-19.2,45.5-58.6,44.1-105.4c0-2.1-0.1-4-0.2-6v-1.4
		c-0.4-1.7-0.2-3.5,0.6-5c1-2.2,3-3.7,5.4-4.1c35.7-6,59.9-39.8,53.9-75.5c-5.3-31.8-32.9-55-65.1-54.8c-36,0-65.3,29.5-65.3,65.6
		c0,15.7,4.2,29.5,12.2,40.1l0.3,0.2c1.7,1.9,2.3,4.5,1.7,7v0.3c-0.2,0.7-0.5,1.3-0.8,1.9l-3,5.4c-1.2,2.3-2.4,4.6-3.7,6.9
		c-21.2,38.3-53.2,69.4-92,89.7c-19.5,10.2-40.8,18-65,23.9c-10.7,2.6-21.6,4.2-32.2,5.8C55.6,325.9,47.6,327.1,39.8,328.7z"/>
	<path class="st6" d="M139.7,227.4c-13.2,29.4-55,17.1-61.1-10.7c-2.8-12.7,1.1-26.3,9-36.6c26-33.9,78.8-25.7,103,6.2
		c20.2,26.8,14.3,72.6-4.3,98.4c-3.8,5.2-8.2,9.9-13.3,13.9c-35.9,28.1-85.6,25.5-119.6,1.3c-10.4-7.5-19-17.3-25.2-28.6"/>
	<path class="st12" d="M190.6,186.3c1.7-33.5,14.3,72.6-4.3,98.4c-3.8,5.2-8.2,9.9-13.3,13.9c-35.9,28.1-85.6,25.5-119.6,1.3
		c-10.4-7.5-19-17.3-25.2-28.6C28.2,271.3,180.5,377.4,190.6,186.3z"/>
	<circle class="st12" cx="73.7" cy="278.4" r="7"/>
	<circle class="st12" cx="55.7" cy="254.7" r="7"/>
	<circle class="st12" cx="100.5" cy="289.5" r="7"/>
	<path class="st7" d="M113,326.4c-22.9,0-45.2-7.1-63.9-20.4c-11.4-8.2-20.8-18.7-27.5-31c-1.9-3.7-0.5-8.2,3.1-10.1
		c3.6-1.9,8-0.6,10,2.8c5.7,10.3,13.6,19.2,23.1,26.1c33.6,23.9,79.1,23.5,110.6-1.1c4.5-3.6,8.4-7.8,11.8-12.4
		c16.7-23.1,22.6-65.5,4.4-89.5c-11.7-15.4-31.3-25-51-25.1h-0.2c-16.3,0-30.5,6.8-39.8,19c-7,9.1-9.9,20.4-7.7,30.4
		c2.8,12.8,14.9,20.5,25.5,21.6c5.7,0.6,16-0.3,21.4-12.4c1.7-3.8,6.2-5.5,9.9-3.8c3.8,1.7,5.5,6.2,3.8,9.9
		c-6.7,14.9-20.4,22.7-36.7,21.1c-18.5-1.9-34.7-15.9-38.5-33.3c-3.1-14.2,0.7-30.2,10.4-42.7c12.2-16,30.6-24.9,51.7-24.9h0.2
		c24.3,0.1,48.4,12,62.9,31.1c22.5,29.6,16,79.4-4.1,107.3c-4.2,5.8-9.2,10.9-14.8,15.4C159.1,318.8,136.4,326.5,113,326.4z"/>
	<path class="st11" d="M327.8,445c-2.3,0-4.1-1.8-4.1-4.1c0-1.1,0.5-2.2,1.3-3l81.4-78c1.8-1.4,4.5-1.1,5.9,0.8
		c1.2,1.5,1.2,3.7-0.1,5.2l-81.5,78C329.9,444.6,328.9,445,327.8,445z"/>
	<path class="st3" d="M442.5,651.2h-427C7,651.3,0.1,644.4,0,635.9c0-0.1,0-0.1,0-0.2V366.4c0-6.6,5.4-12,12-12h434.4
		c6.4,0,11.6,5.2,11.6,11.6l0,0v269.7c0.1,8.5-6.8,15.4-15.3,15.5C442.6,651.2,442.6,651.2,442.5,651.2z M15.2,369.6v266.1
		c0,0.2,0.1,0.3,0.3,0.3h427c0.2,0,0.3-0.1,0.3-0.3V369.6H15.2z"/>
</g>
</svg>
