<svg xmlns="http://www.w3.org/2000/svg" id="guppy" viewBox="0 0 280 505">
  <style>
    .st0{fill:#E54759;} .st1{fill:#C24157;} .st2{fill:#AB3B59;} .st3{fill:#8B335C;} .st4{fill:#512C57;}
  </style>
  <path d="M261.7 178.8l-2 .3c-17.8 2.8-35.6 11.1-53.5 13-22.1 2.3-44.3 4-66.5 3.8h-.3c-22.2.1-44.4-1.5-66.5-3.8-17.9-1.8-35.7-10.2-53.5-13l-2-.3.4-1.9c3-15.5 8.5-31.2 16.2-46.5.9-1.8 1.8-3.5 2.7-5.2l1.6-3 1.4.3c18.8 4.3 55.5 11.1 99.8 11.5h.2c44.3-.4 80.9-7.2 99.8-11.5l1.4-.3 1.6 3c.9 1.7 1.8 3.4 2.7 5.2 7.7 15.3 13.2 31 16.2 46.5l.3 1.9z" class="st0"/>
  <path d="M263.7 231.8c0-2.4 0-4.9.3-7.3v-.1c.1-14.4.7-28.9-1.7-43.2 0-.1-.1-.2-.1-.3l-1.9-3.6-1.7.4c-22.4 5.2-65.9 13.4-118.5 14h-.2c-52.6-.5-96.1-8.7-118.5-14l-3.1-.5H18c-.3.5-.7 4.8-.9 5.3-.1 10.9-.3 21.8-.8 32.7v.2c.8 4.9 1.7 9.7 1.8 14.7 0 .1.1.3.1.4 1.3 6.3 2.1 12.7 3.1 19.1 13.2 1.8 26.4 3.5 39.6 4.9 26.2 2.8 52.6 4.8 79 4.6h.4c26.4.2 52.8-1.9 79-4.6 13.4-1.4 26.8-3.1 40.2-5 1.5-5.2 2.8-10.5 3.9-15.9 0-.5.1-1.2.3-1.8z" class="st1"/>
  <path d="M262.4 232.8l-2.9.3c-22.6 5.2-66.6 13.3-119.9 13.9h-.2c-53.2-.5-97.2-8.7-119.9-13.9l-1-.2c1 5.7 1.9 11.4 2.7 17.2.2.2.4.5.6.8 2.8 5 3.4 10.5 5.3 15.8 2 5.7 5 10.9 7 16.5.5.4 1 .9 1.3 1.6.7 1.3 1.1 2.6 1.3 4 .1.1.2.3.3.4 3.3 5.2 6.1 10.8 8.8 16.4.4.3.7.7 1 1.2.3.4.5.8.7 1.2 3.9.4 7.9.9 11.8 1.3 26.5 2.7 53.2 4.8 79.9 4.6h.4c26.7.2 53.4-1.9 79.9-4.6 5.4-.6 10.9-1.2 16.3-1.8 5.3-9.5 10-19.4 14-29.6 5.4-13.7 9.7-27.8 12.9-42.1l-.3-3z" class="st2"/>
  <path d="M244.4 288.5l-1.5.3c-19.4 4.5-57.2 11.5-102.9 11.9h-.2c-45.7-.5-83.4-7.5-102.9-11.9h-.2v.2c.1.1.2.3.3.4 3.3 5.2 6.1 10.8 8.8 16.4.4.3.7.7 1 1.2 3.7 6 7.2 12.1 10.2 18.4l.9 1.2c4.8 6.3 9.3 12.7 13.7 19.2 2.7 2.9 5.2 6 7.4 9.4 20.2 1.9 40.4 3.3 60.7 3.2h.4c19.9.1 39.8-1.2 59.6-3.1 5.3-5.1 10.3-10.5 15-16.2 3.2-4.6 6.6-9 10.1-13.4 7.8-11.3 14.6-23.4 20.3-35.9l-.7-1.3z" class="st3"/>
  <path d="M273.6 202.7c-.1-3.9-.4-7.6-.7-11.1v-.2l-.1-.7c-.3-2.5-.6-5.1-1-7.7-.4-2.6-.8-5.1-1.3-7.6-3.2-16.6-9-33.2-17.1-49.4-.8-1.8-1.8-3.6-2.8-5.5l-1.3-2.4c-2.1-3.8-4.2-7.3-6.2-10.7-20.6-33.4-51.8-66.5-92.9-98.3-3-2.3-6.5-3.5-10.2-3.6-3.8.1-7.2 1.3-10.2 3.6C88.7 40.9 57.5 74 36.9 107.3c-2.1 3.4-4.2 6.9-6.2 10.7l-1.3 2.4c-1 1.9-2 3.7-2.8 5.5-8.1 16.2-13.9 32.8-17.1 49.4-.5 2.6-.9 5-1.3 7.6-.4 2.7-.7 5.3-1 7.7l-.1.7v.2c-.3 3.6-.6 7.3-.7 11.1-.2 1.8-.2 3.5-.2 5.3 0 2.3 0 4.3.1 6.1.2 6.4.9 12.9 1.9 19.4 1.5 9.9 3.9 19.8 7.2 29.8 0 .1.1.2.1.3.4 1.4.9 2.8 1.4 4.2 2.1 5.8 4.5 11.9 7.4 18.2 1 2.2 2.1 4.4 3.2 6.5 8.6 17.3 20 34.5 33.5 51.1l.2.2c.1.1.2.2.2.3l.1.1c4.2 5.2 8.7 10.2 13.4 15.3 2.1 2.3 4.3 4.6 6.5 6.8 2.2 2.3 4.5 4.5 6.7 6.7 8 7.7 16.3 15.2 24.8 22.1l-13.1 11.5-37.5 32.7-44.5 38.9c-2.6 2.3-3.8 5.6-3.2 9.1.6 3.4 2.9 6.2 6.2 7.4 5.1 1.9 10.5 3.3 16.3 3.9 3.4.4 7 .6 10.6.6 5.1 0 10.3-.4 15.6-1.2 1.8-.3 3.5-.6 5.2-.9 21.3-4.2 43.2-14.4 60.3-29.4 4.4-3.9 8.1-7.5 11.1-10.9 3 3.4 6.7 6.9 11.1 10.9 17.1 15 39 25.2 60.3 29.4 1.8.3 3.5.6 5.2.9 5.3.8 10.5 1.2 15.6 1.2 3.6 0 7.2-.2 10.6-.6 5.8-.7 11.3-2 16.3-3.9 3.3-1.2 5.6-4 6.2-7.4.6-3.5-.6-6.9-3.2-9.1l-44.5-38.9-37.5-32.7-13-11.3c8.4-6.9 16.8-14.4 24.8-22.1 2.3-2.2 4.5-4.5 6.7-6.7 2.2-2.3 4.4-4.5 6.5-6.8 4.7-5.1 9.2-10.1 13.4-15.3l.1-.1c0-.1.1-.2.2-.3l.2-.2c13.6-16.7 24.9-33.8 33.5-51.1 1.1-2.2 2.2-4.3 3.2-6.5 2.9-6.3 5.4-12.4 7.4-18.2.5-1.4 1-2.8 1.4-4.2 0-.1.1-.2.1-.3 3.3-9.9 5.7-19.8 7.2-29.8 1-6.5 1.7-13 1.9-19.4.1-1.8.1-3.8.1-6.1.1-1.9.1-3.6-.1-5.4zM114 66.6c13.1 0 23.7 10.6 23.7 23.7S127.1 114 114 114s-23.7-10.6-23.7-23.7 10.6-23.7 23.7-23.7zm26.1 71.9c44.2-.6 80.7-7.7 99.4-12.2l.5-.1c.8 1.6 1.7 3.3 2.6 5.1 7.6 15.2 12.9 30.6 16 46 .5 2.5.9 5 1.3 7.4.4 2.5.7 5 .9 7.2v.2l.1.6c.4 3.3.6 6.7.7 10.3.1 1.6.1 3.3.1 4.8 0 2.1 0 4-.1 5.6-.3 7.2-1.1 14.6-2.4 22-1.4 7.8-3.4 15.8-6 23.6 0 .2-.1.3-.1.4-.4 1.4-.9 2.8-1.4 4.2-2 5.4-4.4 11.2-7 17.1-2.2 4.7-4.5 9.2-7 13.9-7.7 14-17.1 27.8-28.3 41.1 0 .1 0 .1-.1.2l-.2.3c-1.7 2.1-3.4 4.1-5.2 6.2 0 0-2 2.2-5.1 5.5-22.7 2.3-38.5 3.3-58.3 3.2h-.7c-19.9.1-35.7-.9-58.5-3.2-3.1-3.3-5.1-5.5-5.1-5.5-1.8-2.1-3.5-4.1-5.2-6.2l-.2-.3c-.1-.1-.1-.1-.1-.2-11.2-13.3-20.6-27.1-28.3-41.1-2.6-4.7-4.9-9.2-7-13.9-2.7-5.9-5.1-11.7-7-17.1-.5-1.4-1-2.8-1.4-4.2 0-.1-.1-.2-.1-.4-2.6-7.8-4.6-15.8-6-23.6-1.3-7.5-2.1-14.8-2.4-22-.1-1.6-.1-3.5-.1-5.6 0-1.6 0-3.3.1-4.8.1-3.6.3-7 .7-10.3l.1-.6v-.2c.2-2.3.5-4.8.9-7.2.4-2.5.8-5 1.3-7.4 3.1-15.4 8.4-30.8 16-46 .9-1.8 1.8-3.5 2.6-5.1l.5.1c18.7 4.5 55.2 11.5 99.4 12.2" class="st4"/>
</svg>
