<svg width="342" height="357" viewBox="0 0 342 357" fill="none" xmlns="http://www.w3.org/2000/svg">
<path d="M42.5774 258.919L59.276 265.083L61.0629 260.242L49.8429 256.101L51.8791 250.585L61.4105 254.103L63.1697 249.337L53.6383 245.819L55.8131 239.927L66.6953 243.944L68.4822 239.104L52.1213 233.064L42.5774 258.919ZM73.7422 241.045L64.1982 266.9L69.6769 268.923L79.2208 243.068L73.7422 241.045ZM105.295 257.17C104 253.75 101.119 250.81 97.1416 249.342C89.7117 246.599 81.7067 250.381 78.9918 257.736C76.3045 265.016 79.9184 273.129 87.3484 275.872C94.7783 278.615 101.536 276.248 105.11 266.567L91.8258 261.663L90.1774 266.129L97.1196 268.692C96.0709 271.417 91.9814 271.869 89.2045 270.844C84.8516 269.237 82.8596 264.238 84.5079 259.772C86.1702 255.269 90.9049 252.838 95.2578 254.445C97.5093 255.276 99.1241 257.024 99.9544 259.164L105.295 257.17ZM128.321 261.193L124.429 271.737L115.235 268.343L119.128 257.799L113.649 255.777L104.105 281.631L109.584 283.654L113.421 273.259L122.614 276.653L118.777 287.047L124.331 289.097L133.875 263.243L128.321 261.193ZM136.143 269.708L143.123 272.285L135.407 293.186L140.961 295.236L148.677 274.335L155.656 276.911L157.485 271.958L137.972 264.755L136.143 269.708Z" fill="white"/>
<path d="M89.3286 104.741L91.0994 110.016C85.5304 112.544 82.4505 117.911 84.3207 123.481C85.3468 126.538 88.1014 130.495 96.3723 130.296L100.845 130.056C104.626 129.884 105.763 130.983 106.227 132.528C106.922 134.763 105.365 136.821 102.456 137.798C99.2027 138.89 96.8319 137.547 96.0051 135.411L88.7586 137.844C90.6453 143.464 96.1271 146.231 102.751 144.72L104.654 150.389L108.253 149.181L106.349 143.512C111.541 141.166 115.444 136.29 113.49 130.144C112.496 126.858 109.758 122.621 100.731 123.019L96.2581 123.094C92.6408 123.266 91.7496 121.755 91.4517 120.868C90.7731 118.847 92.183 116.838 94.6971 115.994C97.5562 115.034 99.614 116.098 100.375 118.366L107.573 115.949C105.636 110.182 100.435 107.759 94.7146 108.857L92.9272 103.533L89.3286 104.741ZM115.19 113.447C115.935 115.665 117.435 117.191 119.328 118.091C117.064 120.662 116.233 124.232 117.425 127.781C119.493 133.943 126.587 136.773 133.34 134.505C140.094 132.238 144.043 125.701 141.974 119.539C140.799 116.039 137.966 113.644 134.609 112.961C135.642 111.133 135.916 109.012 135.155 106.744C133.484 101.765 127.591 99.2454 122.119 101.082C116.648 102.92 113.519 108.468 115.19 113.447ZM124.21 125.119C123.383 122.654 124.412 119.676 127.912 118.501C131.511 117.292 134.129 119.046 134.957 121.511C135.867 124.222 134.048 127.137 131.189 128.097C128.33 129.057 125.121 127.83 124.21 125.119ZM121.911 111.41C121.382 109.832 122.085 108.005 124.205 107.294C126.324 106.582 127.988 107.614 128.517 109.192C129.063 110.819 128.475 112.662 126.257 113.406C124.039 114.151 122.458 113.036 121.911 111.41ZM144.556 103.588C145.301 105.806 146.801 107.332 148.693 108.232C146.43 110.803 145.599 114.373 146.79 117.922C148.859 124.084 155.953 126.914 162.706 124.646C169.46 122.379 173.409 115.842 171.34 109.68C170.165 106.18 167.331 103.785 163.975 103.102C165.007 101.274 165.282 99.1526 164.521 96.885C162.849 91.9061 156.957 89.3864 151.485 91.2235C146.013 93.0606 142.885 98.6089 144.556 103.588ZM153.576 115.26C152.749 112.795 153.778 109.817 157.278 108.642C160.877 107.433 163.495 109.187 164.323 111.652C165.233 114.363 163.414 117.278 160.555 118.238C157.695 119.198 154.486 117.971 153.576 115.26ZM151.277 101.551C150.748 99.9732 151.451 98.1465 153.57 97.4348C155.69 96.7231 157.353 97.7555 157.883 99.333C158.429 100.96 157.841 102.803 155.623 103.548C153.404 104.292 151.823 103.177 151.277 101.551ZM173.922 93.7288C174.667 95.9471 176.166 97.4732 178.059 98.3735C175.796 100.944 174.965 104.514 176.156 108.063C178.225 114.225 185.318 117.055 192.072 114.787C198.825 112.52 202.774 105.983 200.706 99.8211C199.531 96.3211 196.697 93.9264 193.341 93.243C194.373 91.4155 194.648 89.2936 193.887 87.026C192.215 82.0471 186.323 79.5275 180.851 81.3645C175.379 83.2016 172.25 88.7499 173.922 93.7288ZM182.942 105.401C182.114 102.936 183.144 99.9576 186.644 98.7826C190.242 97.5744 192.861 99.3283 193.688 101.793C194.599 104.504 192.78 107.419 189.92 108.379C187.061 109.339 183.852 108.112 182.942 105.401ZM180.643 91.6917C180.113 90.1143 180.817 88.2875 182.936 87.5758C185.056 86.8642 186.719 87.8966 187.249 89.474C187.795 91.1008 187.207 92.9438 184.988 93.6885C182.77 94.4333 181.189 93.3185 180.643 91.6917Z" fill="white"/>
<path d="M115.879 41.7237L137.883 58.3627L139.37 59.4876L140.596 58.0822L162.354 33.1394L169.886 55.9576L170.664 58.3142L172.802 57.0532L204.118 38.5785L196.965 63.1036L195.974 66.5011L199.396 65.5973L234.128 56.4224L214.202 79.0022L211.385 82.1946L215.641 82.3246L248.106 83.3158L218.32 100.708L214.868 102.724L218.551 104.278L244.052 115.04L208.635 124.234L205.738 124.986L207.542 127.375L222.111 146.675L186.962 145.427L184.869 145.353L184.892 147.447L185.163 172.705L157.227 160.69L155.582 159.983L154.698 161.539L139.671 187.978L124.646 167.674L123.4 165.99L121.776 167.312L94.5007 189.517L94.4724 165.336L94.4689 162.343L91.7049 163.491L57.9146 177.532L71.7555 153.562L73.7543 150.1L69.7855 150.576L35.5386 154.681L60.8283 134.3L64.1435 131.628L59.9706 130.782L30.4561 124.801L63.6884 111.158L66.9623 109.814L64.1219 107.703L43.6188 92.4628L79.7389 88.2972L82.2043 88.0128L81.4025 85.6642L73.6392 62.9236L106.041 69.6835L107.866 70.0643L108.374 68.2697L115.879 41.7237Z" stroke="white" stroke-width="4"/>
<path d="M205.625 285.689C204.997 287.065 203.525 287.978 202.043 288.319C200.133 288.758 197.618 288.352 196.861 286.31L210.193 283.243C210.124 282.766 209.993 282.017 209.885 281.549C208.567 275.818 203.547 272.91 198.363 274.102C193.139 275.304 189.703 279.993 191.021 285.724C192.339 291.454 197.506 294.288 202.729 293.086C205.809 292.378 208.976 290.623 210.181 287.473L205.625 285.689ZM196.159 282.9C196.098 280.493 197.975 279.199 199.496 278.849C201.016 278.499 203.249 278.93 204.033 281.089L196.159 282.9ZM216.844 270.262L211.465 271.499L215.652 289.704L221.032 288.466L216.844 270.262ZM209.212 264.916C209.624 266.71 211.507 267.754 213.339 267.333C215.171 266.911 216.329 265.167 215.917 263.374C215.504 261.581 213.709 260.557 211.877 260.979C210.045 261.4 208.8 263.123 209.212 264.916ZM237.232 275.095C237.841 277.745 236.071 280.041 233.849 280.552C231.549 281.081 229.088 279.841 228.461 277.112C227.869 274.539 229.54 272.349 231.84 271.82C234.101 271.3 236.604 272.366 237.232 275.095ZM230.123 287.73C228.911 288.706 227.462 289.901 226.25 290.878C228.551 293.92 232.501 295.392 236.516 294.468C242.987 292.98 245.938 288.32 244.135 280.484L240.531 264.813L235.268 266.024L235.788 268.285C234.506 266.815 231.982 266.369 229.721 266.889C225.043 267.965 221.49 272.682 222.835 278.529C224.153 284.259 229.41 286.95 234.088 285.874C236.349 285.354 238.464 283.841 238.936 281.968C240.003 285.539 239.527 288.645 235.395 289.595C233.563 290.017 231.132 289.262 230.123 287.73ZM252.927 270.992C252.291 268.224 253.986 266.849 255.701 266.455C257.338 266.078 259.34 266.931 259.887 269.309L262.12 279.015C263.016 278.809 266.642 277.975 267.538 277.769L265.261 267.868C263.997 262.371 260.766 259.748 255.972 260.851C254.256 261.246 251.83 262.83 251.609 265.261L248.677 252.514L243.259 253.761L249.723 281.867L255.142 280.62L252.927 270.992ZM275.205 256.838L273.6 249.86L268.221 251.097L269.826 258.075L266.512 258.837L267.499 263.125L270.812 262.363L274.013 276.28L279.393 275.042L276.192 261.126L280.012 260.247L279.026 255.959L275.205 256.838Z" fill="white"/>
<path d="M248.539 315.497C247.518 316.612 245.835 317.027 244.321 316.894C242.369 316.723 240.101 315.561 240.011 313.385L253.639 314.578C253.72 314.103 253.826 313.35 253.868 312.872C254.381 307.014 250.502 302.699 245.203 302.235C239.863 301.768 235.149 305.17 234.636 311.027C234.123 316.885 238.164 321.174 243.504 321.641C246.652 321.917 250.206 321.224 252.323 318.599L248.539 315.497ZM240.394 309.925C241.078 307.616 243.263 306.964 244.817 307.1C246.371 307.236 248.363 308.334 248.443 310.63L240.394 309.925ZM263.968 304.28L258.469 303.798L256.84 322.407L262.339 322.888L263.968 304.28ZM258.355 296.842C258.195 298.675 259.663 300.249 261.536 300.413C263.409 300.577 265.049 299.275 265.209 297.442C265.37 295.609 263.977 294.081 262.105 293.918C260.232 293.754 258.516 295.009 258.355 296.842ZM281.872 315.162C281.635 317.872 279.243 319.509 276.972 319.311C274.621 319.105 272.662 317.167 272.907 314.377C273.137 311.747 275.402 310.179 277.753 310.385C280.064 310.587 282.117 312.373 281.872 315.162ZM271.215 324.99C269.761 325.546 268.014 326.236 266.56 326.791C267.811 330.394 271.115 333.012 275.219 333.371C281.834 333.95 286.077 330.427 286.778 322.418L288.181 306.399L282.801 305.928L282.599 308.239C281.832 306.445 279.568 305.244 277.257 305.041C272.476 304.623 267.641 308.014 267.118 313.991C266.606 319.849 270.777 324.028 275.559 324.447C277.87 324.649 280.348 323.862 281.375 322.226C281.289 325.952 279.879 328.76 275.655 328.39C273.782 328.227 271.702 326.76 271.215 324.99ZM298.068 316.098C298.316 313.269 300.352 312.483 302.106 312.637C303.779 312.783 305.421 314.212 305.208 316.643L304.34 326.565C305.256 326.645 308.962 326.969 309.878 327.05L310.764 316.928C311.256 311.31 308.992 307.819 304.091 307.39C302.337 307.237 299.541 307.996 298.581 310.24L299.722 297.21L294.183 296.725L291.668 325.456L297.207 325.94L298.068 316.098ZM323.625 309.501L324.249 302.369L318.75 301.887L318.126 309.02L314.739 308.724L314.355 313.107L317.742 313.403L316.497 327.629L321.996 328.11L323.241 313.885L327.146 314.226L327.53 309.843L323.625 309.501Z" fill="white"/>
</svg>
