<svg width="342" height="357" viewBox="0 0 342 357" fill="none" xmlns="http://www.w3.org/2000/svg">
<path d="M88.7153 246.572L83.1992 244.536L77.4922 259.997L74.3433 241.267L69.3149 239.411L59.771 265.266L65.2496 267.288L71.0259 251.64L74.2556 270.613L79.1714 272.427L88.7153 246.572ZM94.7836 248.812L85.2396 274.667L90.7183 276.69L100.262 250.835L94.7836 248.812ZM125.727 260.235L120.211 258.199L114.504 273.659L111.355 254.93L106.327 253.074L96.7829 278.928L102.262 280.951L108.038 265.303L111.268 284.275L116.183 286.09L125.727 260.235ZM122.252 288.33L138.95 294.494L140.737 289.653L129.517 285.511L131.553 279.995L141.085 283.514L142.844 278.748L133.313 275.229L135.487 269.338L146.37 273.355L148.156 268.514L131.796 262.475L122.252 288.33Z" fill="white"/>
<path d="M89.3284 104.741L91.0993 110.016C85.5303 112.544 82.4504 117.911 84.3206 123.481C85.3467 126.538 88.1013 130.495 96.3722 130.296L100.844 130.056C104.626 129.884 105.763 130.983 106.227 132.528C106.922 134.763 105.365 136.821 102.456 137.798C99.2026 138.89 96.8318 137.547 96.005 135.411L88.7585 137.844C90.6452 143.464 96.127 146.231 102.751 144.72L104.654 150.389L108.252 149.181L106.349 143.512C111.54 141.166 115.444 136.29 113.49 130.144C112.496 126.858 109.757 122.621 100.731 123.019L96.258 123.094C92.6407 123.266 91.7495 121.755 91.4516 120.868C90.773 118.847 92.1829 116.838 94.697 115.994C97.5561 115.034 99.6139 116.098 100.375 118.366L107.572 115.949C105.636 110.182 100.435 107.759 94.7145 108.857L92.927 103.533L89.3284 104.741ZM127.051 123.123C131.882 121.501 132.319 118.557 132.333 117.291C133.937 121.579 134.278 127.005 129.545 128.594C128.067 129.09 126.455 128.863 124.938 127.288L119.407 132.217C123.429 136.352 127.572 136.277 131.467 135.134C143.726 131.457 141.215 118.258 137.083 108.565C134.191 101.912 127.838 99.1627 121.725 101.215C114.676 103.582 111.399 109.344 113.485 115.555C115.984 122.999 122.466 124.662 127.051 123.123ZM120.765 113.55C119.987 111.233 121.264 108.665 123.581 107.887C125.898 107.109 128.466 108.386 129.244 110.703C130.022 113.02 128.745 115.588 126.428 116.366C124.111 117.144 121.543 115.867 120.765 113.55ZM155.887 113.442C160.718 111.82 161.155 108.876 161.169 107.609C162.774 111.898 163.114 117.324 158.382 118.912C156.903 119.409 155.291 119.182 153.775 117.607L148.244 122.535C152.265 126.671 156.409 126.596 160.303 125.453C172.562 121.776 170.051 108.577 165.919 98.8839C163.027 92.2304 156.674 89.4815 150.561 91.5337C143.512 93.9004 140.235 99.6628 142.321 105.874C144.82 113.318 151.302 114.981 155.887 113.442ZM149.601 103.869C148.823 101.552 150.1 98.9838 152.417 98.2059C154.734 97.4281 157.302 98.7051 158.08 101.022C158.858 103.339 157.581 105.907 155.264 106.685C152.947 107.463 150.379 106.186 149.601 103.869ZM184.723 103.761C189.554 102.139 189.992 99.1944 190.005 97.9282C191.61 102.217 191.95 107.642 187.218 109.231C185.739 109.728 184.127 109.501 182.611 107.926L177.08 112.854C181.101 116.989 185.245 116.915 189.139 115.772C201.399 112.095 198.887 98.8957 194.755 89.2027C191.863 82.5492 185.51 79.8003 179.397 81.8525C172.348 84.2192 169.072 89.9816 171.157 96.1929C173.656 103.637 180.139 105.3 184.723 103.761ZM178.437 94.1875C177.659 91.8706 178.937 89.3026 181.253 88.5247C183.57 87.7469 186.138 89.024 186.916 91.3409C187.694 93.6578 186.417 96.2258 184.1 97.0036C181.783 97.7815 179.215 96.5044 178.437 94.1875Z" fill="white"/>
<path d="M115.879 41.7237L137.883 58.3627L139.37 59.4876L140.596 58.0822L162.354 33.1394L169.886 55.9576L170.664 58.3142L172.802 57.0532L204.118 38.5785L196.965 63.1036L195.974 66.5011L199.396 65.5973L234.128 56.4224L214.202 79.0022L211.385 82.1946L215.641 82.3246L248.106 83.3158L218.32 100.708L214.868 102.724L218.551 104.278L244.052 115.04L208.635 124.234L205.738 124.986L207.542 127.375L222.111 146.675L186.962 145.427L184.869 145.353L184.892 147.447L185.163 172.705L157.227 160.69L155.582 159.983L154.698 161.539L139.671 187.978L124.646 167.674L123.4 165.99L121.776 167.312L94.5007 189.517L94.4724 165.336L94.4689 162.343L91.7049 163.491L57.9146 177.532L71.7555 153.562L73.7543 150.1L69.7855 150.576L35.5386 154.681L60.8283 134.3L64.1435 131.628L59.9706 130.782L30.4561 124.801L63.6884 111.158L66.9623 109.814L64.1219 107.703L43.6188 92.4628L79.7389 88.2972L82.2043 88.0128L81.4025 85.6642L73.6392 62.9236L106.041 69.6835L107.866 70.0643L108.374 68.2697L115.879 41.7237Z" stroke="white" stroke-width="4"/>
<path d="M197.423 283.758C196.787 280.991 198.014 279.723 199.924 279.284C201.756 278.863 203.36 279.766 203.916 282.183L206.148 291.89C207.006 291.692 210.67 290.85 211.567 290.643L209.065 279.767C207.873 274.583 204.717 272.641 200.624 273.582C198.48 274.075 196.614 275.777 196.061 277.833L195.451 275.182L190.032 276.429L194.22 294.633L199.638 293.387L197.423 283.758ZM217.568 270.095L212.188 271.333L216.376 289.537L221.755 288.3L217.568 270.095ZM209.935 264.75C210.348 266.543 212.23 267.588 214.062 267.167C215.894 266.745 217.053 265.001 216.64 263.208C216.228 261.415 214.433 260.391 212.6 260.812C210.768 261.234 209.523 262.957 209.935 264.75ZM229.934 276.281C229.297 273.513 230.524 272.246 232.435 271.806C234.267 271.385 235.87 272.288 236.426 274.705L238.659 284.412C239.516 284.215 243.181 283.372 244.077 283.165L241.576 272.289C240.383 267.105 237.227 265.163 233.134 266.104C230.99 266.597 229.124 268.299 228.571 270.355L227.961 267.705L222.543 268.951L226.73 287.156L232.149 285.909L229.934 276.281ZM260.291 273.115C259.664 274.491 258.191 275.404 256.71 275.745C254.799 276.184 252.284 275.778 251.527 273.735L264.859 270.669C264.791 270.192 264.659 269.443 264.552 268.975C263.234 263.244 258.214 260.336 253.029 261.528C247.806 262.73 244.369 267.419 245.687 273.15C247.005 278.88 252.172 281.714 257.396 280.512C260.475 279.804 263.643 278.049 264.847 274.899L260.291 273.115ZM250.825 270.326C250.764 267.919 252.642 266.625 254.162 266.275C255.682 265.925 257.916 266.356 258.7 268.515L250.825 270.326Z" fill="white"/>
<path d="M241.332 311.132C241.58 308.303 243.138 307.475 245.09 307.646C246.963 307.81 248.21 309.164 247.994 311.635L247.125 321.557C248.002 321.633 251.747 321.961 252.664 322.041L253.637 310.924C254.101 305.624 251.698 302.804 247.514 302.438C245.322 302.246 243.022 303.289 241.862 305.075L242.099 302.365L236.561 301.88L234.932 320.489L240.471 320.974L241.332 311.132ZM264.707 304.344L259.208 303.863L257.58 322.472L263.078 322.953L264.707 304.344ZM259.095 296.906C258.934 298.739 260.402 300.313 262.275 300.477C264.148 300.641 265.788 299.339 265.948 297.506C266.109 295.673 264.717 294.146 262.844 293.982C260.971 293.818 259.255 295.073 259.095 296.906ZM274.564 314.041C274.812 311.211 276.37 310.384 278.323 310.555C280.195 310.719 281.442 312.073 281.226 314.543L280.357 324.466C281.234 324.542 284.98 324.87 285.896 324.95L286.869 313.833C287.333 308.533 284.93 305.713 280.746 305.347C278.554 305.155 276.255 306.198 275.095 307.984L275.332 305.274L269.793 304.789L268.164 323.398L273.703 323.883L274.564 314.041ZM304.419 320.388C303.398 321.503 301.715 321.918 300.201 321.786C298.249 321.615 295.981 320.453 295.891 318.276L309.519 319.469C309.6 318.995 309.706 318.241 309.748 317.763C310.261 311.905 306.382 307.591 301.083 307.127C295.743 306.659 291.028 310.061 290.516 315.919C290.003 321.776 294.044 326.065 299.384 326.532C302.532 326.808 306.086 326.115 308.203 323.49L304.419 320.388ZM296.274 314.817C296.958 312.508 299.143 311.856 300.697 311.992C302.251 312.128 304.243 313.225 304.323 315.521L296.274 314.817Z" fill="white"/>
</svg>
