<svg xmlns="http://www.w3.org/2000/svg" viewBox="0 0 251 251" xmlns:xlink="http://www.w3.org/1999/xlink">
  <g fill="none" fill-rule="evenodd" transform="translate(12 12)">
    <circle cx="113.5" cy="113.5" r="119.5" stroke="#683057" stroke-opacity=".103" stroke-width="12"/>
    <circle id="a" cx="114" cy="114" r="105"/>
    <circle cx="114" cy="114" r="111" stroke="#683057" stroke-width="12"/>
    <path fill="#683057" fill-rule="nonzero" d="M188.53 185.597c-7.204 0-13.97-2.794-19.066-7.87-1.015-1.012-2.358-1.523-3.69-1.523-1.34 0-2.673.51-3.688 1.522-2.51 2.5-5.423 4.436-8.588 5.773l.022-39.12c8.796-6.64 14.36-17.15 14.372-28.57l-.076-13.76.01-19.75c.012-4.05-1.56-7.85-4.43-10.72-2.87-2.87-6.69-4.45-10.75-4.45-1.778 0-3.46.34-5.063.91l.01-18.72c.012-7.29-5.936-13.23-13.27-13.25-1.08 0-2.117.16-3.132.41-1.26-5.99-6.6-10.5-12.97-10.51-6.43 0-11.8 4.55-13.02 10.59-.99-.24-2.02-.41-3.1-.41-3.57 0-6.88 1.37-9.39 3.86-2.51 2.5-3.9 5.81-3.9 9.35v4.86c-.91-.2-1.85-.33-2.84-.33-7.32 0-13.28 5.92-13.29 13.21l-.05 48.62c0 11.58 5.51 22.04 14.33 28.64l-.02 39.05c-3.13-1.34-6.01-3.25-8.49-5.73-2.04-2.03-5.33-2.03-7.38 0-5.09 5.08-11.86 7.87-19.06 7.87-7.2 0-16.87-3.43-21.96-8.51-2.04-2.03-2.45-1.4-4.49.633-2.04 2.03-2.04 5.314 0 7.35C32.61 192.11 42 196 51.99 196c8.35 0 16.25-2.74 22.752-7.74 6.502 5 14.414 7.74 22.752 7.74 8.348 0 16.25-2.74 22.753-7.74 6.5 5 14.41 7.74 22.75 7.74s16.25-2.74 22.752-7.74c6.5 5 14.41 7.74 22.75 7.74 9.99 0 7.22-10.403.03-10.403zm-64.585-7.87c-1.015-1.012-2.357-1.523-3.688-1.523-1.332 0-2.674.51-3.69 1.522-5.095 5.077-11.862 7.87-19.064 7.87-.044 0-.087-.01-.13-.01l.02-35.802c.83.26 1.66.522 2.51.73.426.108.84.15 1.256.15 2.34 0 4.47-1.586 5.06-3.956.69-2.784-1.02-5.61-3.82-6.296-2.46-.608-4.75-1.565-6.84-2.805-.42-.358-.88-.663-1.4-.87-6.8-4.62-11.11-12.372-11.11-20.983l.05-48.622c0-1.555 1.27-2.816 2.85-2.816 1.56 0 2.81 1.26 2.82 2.816l-.02 27.78c0 2.87 2.33 5.207 5.21 5.207s5.21-2.33 5.21-5.2l.02-27.76v-.04l.01-17.72c0-.75.29-1.47.84-2 .53-.54 1.24-.83 2-.83h.01c1.56 0 2.84 1.27 2.84 2.83l-.04 40.26c0 2.87 2.33 5.21 5.21 5.21 2.52 0 4.62-1.79 5.1-4.15.06-.34.11-.69.11-1.05l.04-50.46c0-1.56 1.27-2.82 2.85-2.82 1.56 0 2.82 1.27 2.82 2.82l-.05 50.45v.01c0 2.51 1.78 4.61 4.16 5.1.34.06.7.11 1.046.11h.01c2.88 0 5.216-2.33 5.216-5.2l.042-40.38c0-1.56 1.28-2.82 2.84-2.82 1.56 0 2.83 1.27 2.83 2.82l-.04 49.26c-7.447 3.19-22.627 11.71-23.118 28.4-.084 2.87 2.186 5.263 5.07 5.35h.153c2.816 0 5.13-2.23 5.22-5.045.42-14.158 19.53-20.203 19.71-20.257 2.21-.66 3.7-2.69 3.71-4.97l.01-19.78c0-1.26.5-2.45 1.4-3.36.89-.89 2.09-1.39 3.37-1.39h.01c1.28 0 2.47.5 3.37 1.39.895.9 1.386 2.09 1.386 3.36l-.01 19.79v.04l.08 13.72c-.01 8.52-4.398 16.36-11.15 20.97-.538.23-1.018.54-1.44.92-1.695.99-3.518 1.79-5.438 2.36l-11.71 2.954c-2.79.706-4.48 3.533-3.77 6.316.6 2.36 2.723 3.925 5.05 3.925.42 0 .85-.05 1.28-.16l11.91-3.01c.302-.09.59-.21.89-.31l-.02 35.79c-7.2-.02-13.97-2.82-19.062-7.898z"/>
  </g>
</svg>
