<svg xmlns="http://www.w3.org/2000/svg" viewBox="0 0 1404 179">
  <path fill="#C44057" d="M0 115.48l.153-4.806c15.112.738 29.95.85 45.094.043 140.89-6.807 277.53-44.412 415.532-70.447 156.183-29.608 307.44-29.778 464.646 0 137.83 26.035 274.642 63.64 415.532 70.447 11.896.51 23.622.68 35.35.34 9.14.29 18.406.333 27.69.02v60.933c-.17 2.257-.336 4.514-.5 6.77-9.006.34-17.844.17-26.85 0-11.728.34-23.454.17-35.35-.34-140.89-6.806-277.7-44.41-415.533-70.446-157.206-29.778-308.463-29.608-464.65 0-138 26.035-274.64 63.64-415.53 70.447-15.31.818-30.306.696-45.588-.065V115.48zM0 .233h1404v125.082C1101.7 91.355 874.232 73.915 721.594 73 568.956 72.084 328.424 86.712 0 116.887V.234z"/>
</svg>
