<svg xmlns="http://www.w3.org/2000/svg" viewBox="0 0 505 485"><style>.st0{fill:#fff}.st1{fill:#e34a5b}.st2{fill:#c24258}.st3{fill:#a93c59}.st4{fill:#89355b}.st5{fill:none;stroke:#502e56;stroke-width:7.3632;stroke-miterlimit:10}.st6{fill:#502e56}</style><path class="st0" d="M129 119h246v169H129z"/><path class="st1" d="M177 76.1l74.9-60.9 73.6 60.2s-15.6 8-31.9 1.3S262 60.4 262 60.4l-18.2-1-15.3 4.8-12.4 8.6-15.3 5.7-23.8-2.4z"/><path class="st2" d="M157.4 92.7c-.3.2-.7.4-1 .6.3-.2.7-.4 1-.6z"/><path class="st2" d="M377.5 114.3l-3.1-.2c-.9 0-1.6-.1-2.2-.1-8 0-10.8 1.8-17.1 5.7-9 5.7-21.2 13.4-43.6 13.4-22.3 0-34.6-7.7-43.6-13.4-6.2-3.9-9.1-5.7-17.1-5.7-8 0-10.8 1.8-17 5.7-9 5.7-21.2 13.4-43.6 13.4-22.3 0-34.6-7.7-43.6-13.4-5-3.2-7.8-4.9-12.9-5.5 3.8-3.7 7.1-8.3 9.8-11.8 1.4-1.8 3.1-3.8 4.8-5.8.4-.5.9-.9 1.3-1.4 1.9-.2 3.8-.7 5.6-1.5.4-.2.7-.3 1.1-.5.4-.2.7-.4 1-.5 3-1.7 5.3-4.1 7.9-6.5 2.9-2.6 5.9-5.2 8.7-8 5.7 3.6 8.6 5.2 16.2 5.2 8 0 10.8-1.8 17-5.7 9-5.7 21.2-13.4 43.6-13.4 22.3 0 34.6 7.7 43.6 13.4 6.2 3.9 9.1 5.7 17 5.7 8 0 10.8-1.8 17.1-5.7l.9-.6c.3.4.6.8.9 1.1 4.5 4.7 9.1 9.7 14 14.4.5.5 1.1 1.1 1.7 1.6.4.4.9.8 1.3 1.2l3 2.7c7.7 6.7 16.1 12.4 25.7 15.4.3.1.6.2.8.2.4.2.6.4.8.6z"/><path class="st2" d="M149.8 95.2c-.4.5-.9 1-1.3 1.4.4-.5.8-.9 1.3-1.4z"/><path class="st3" d="M377.6 118c-4.8 1.8-9.2 4.9-13.4 7.9-6.1 4.4-12.5 8.6-18.4 13.3-5.5 4.4-10.2 9.6-15.3 14.4-.5.4-1 .9-1.4 1.3l-.2.2c-4.7 4.3-9.8 8.2-15.1 11.7-4.4 2.9-9 5.7-12.8 9.4-2.6 2.5-5.1 5.5-6.5 8.8-12.1-2.6-20.1-7.7-26.5-11.7-6.2-3.9-9.1-5.7-17.1-5.7-8 0-10.8 1.8-17 5.7-6.3 3.9-14.2 8.9-26 11.6-.5-3.4-2.8-6.1-6.2-7.7-3-1.3-5.9-2.9-8.7-4.6-2.4-2.5-4.9-4.9-7.4-7.2-.1 0-.1-.1-.2-.2-.8-.7-1.5-1.4-2.3-2-.8-.7-1.5-1.3-2.3-2l-2.1-1.8c-1.7-1.5-3.5-2.9-5.2-4.4-1.3-1.1-2.6-2.1-3.8-3.2-4.3-3.6-7.4-8.3-12-11.4-1.8-1.2-3.9-2.1-5.8-3.1-1.3-1.3-2.5-2.6-3.7-3.8-1.4-1.7-2.9-3.2-4.5-4.6-4.6-4.6-9.4-9.1-15.6-11-.1-.1-.3-.1-.4-.2h2.3c22.3 0 34.6 7.7 43.6 13.4 6.2 3.9 9.1 5.7 17.1 5.7 8 0 10.8-1.8 17-5.7 9-5.7 21.2-13.4 43.6-13.4 22.3 0 34.6 7.7 43.6 13.4 6.2 3.9 9.1 5.7 17 5.7 8 0 10.8-1.8 17.1-5.7 9-5.7 21.2-13.4 43.6-13.4 1.2 0 2.5 0 3.7.1l1.3.2z"/><path class="st4" d="M246.2 210.6c3.5.6 7 .8 10.5 1.4 1.7-.8 3.4-1.1 4.9-1l27.3-24.4s-39.2-28.7-72.7-1.9l26.9 26.1c1-.3 2-.4 3.1-.2z"/><path class="st5" d="M374.9 115.9l-110.4 93.2c-6.9 5.9-17.1 5.9-24 0l-110.4-93.2 111.8-94.4c6.1-5.2 15.1-5.2 21.2 0l111.8 94.4z"/><path class="st6" d="M380.6 291.9H124.4v-176h7.6v168.3h241V115.9h7.6z"/><path transform="rotate(-38.27 171.211 219.674)" class="st6" d="M116.4 215.9H226v7.5H116.4z"/><path transform="rotate(-51.728 332.842 219.682)" class="st6" d="M329.1 164.9h7.5v109.6h-7.5z"/><path class="st6" d="M326.1 73.7c-4 1.2-8.6 2-14.6 2-14.1 0-21-4.4-28.3-9-7.9-5-16.1-10.2-32.4-10.2-16.3 0-24.4 5.2-32.4 10.2-7.3 4.6-14.2 9-28.3 9-5.1 0-9.3-.6-12.9-1.5-1 2.8-3.5 5.1-6.4 6 5.1 1.9 11.2 3.2 19.3 3.2 16.3 0 24.4-5.2 32.4-10.2 7.3-4.6 14.2-9 28.3-9 14.1 0 21 4.4 28.3 9 7.9 5 16.1 10.2 32.4 10.2 8.7 0 15.1-1.5 20.4-3.6-2.8-1-5-3-5.8-6.1zM375 112.3v-.1c-.9 0-1.9-.1-2.9-.1-16.3 0-24.4 5.2-32.4 10.2-7.3 4.6-14.2 9-28.3 9-14.1 0-21-4.4-28.3-9-7.9-5-16.1-10.2-32.4-10.2-16.3 0-24.4 5.2-32.4 10.2-7.3 4.6-14.2 9-28.3 9-14 0-21-4.4-28.3-9-7.9-5-16.1-10.2-32.4-10.2v7.7c14 0 21 4.4 28.3 9 7.9 5 16.1 10.2 32.4 10.2 16.3 0 24.4-5.2 32.4-10.2 7.3-4.6 14.2-9 28.3-9 14.1 0 21 4.4 28.3 9 7.9 5 16.1 10.2 32.4 10.2 16.3 0 24.4-5.2 32.4-10.2 7.3-4.6 14.2-9 28.3-9 1.2 0 2.3 0 3.4.1-1.1-2.4-1.3-5.3-.5-7.6zM296.3 184.4c-5.1-1.7-9-4.2-13-6.7-7.9-5-16.1-10.2-32.4-10.2-16.3 0-24.4 5.2-32.4 10.2-2.8 1.8-5.6 3.5-8.7 5 .6 2.3.3 4.9-1.5 7.5-.5.7-1 1.3-1.5 1.9 6.4-2 11.2-5 15.9-7.9 7.3-4.6 14.2-9 28.3-9 14.1 0 21 4.4 28.3 9 5.2 3.3 10.5 6.6 18.2 8.5-1.7-2.4-2-5.5-1.2-8.3z"/><g><path class="st6" d="M14.4 322.5h48.7v12.4H45.7V387H31.8v-52.1H14.4v-12.4zM100.7 321.7c18.3 0 32.7 14.8 32.7 33.1 0 18.1-14.4 33-32.7 33-18.2 0-32.7-14.9-32.7-33 0-18.3 14.4-33.1 32.7-33.1zm0 52.6c10.7 0 19.1-8.7 19.1-19.5s-8.4-19.6-19.1-19.6-19 8.8-19 19.6 8.3 19.5 19 19.5zM188.2 341c-3.6-4-8.5-6.5-14.1-6.5-10.9 0-19.3 9.2-19.3 20.4 0 11.1 8.4 20.5 19.3 20.5 6.9 0 15.5-4.3 15.6-11.1h-17.3v-11.1h33.1c0 24.1-12.9 34.8-31.4 34.8s-33-14.9-33-33c0-18.3 14.5-33.1 33-33.1 9.9 0 18.6 4.1 24.2 10.6l-10.1 8.5zM215.5 322.5h40.8v12.1h-27.1v14.7H253v11.9h-23.8V375h28v12.1h-41.6v-64.6zM264.5 322.5h48.7v12.4h-17.4V387H282v-52.1h-17.4v-12.4zM373.7 322.5V387h-13.8v-26H337v25.9h-13.7v-64.5H337v26.3h22.9v-26.3h13.8zM388.9 322.5h40.8v12.1h-27.1v14.7h23.8v11.9h-23.8V375h28v12.1H389v-64.6zM490.5 386.9H474l-14.4-22.3h-3.1v22.3h-13.8v-64.5h26.4c14.6 0 21.4 10.6 21.4 21.1 0 9.2-5.1 18.1-16.1 20.5l16.1 22.9zm-34-52.4v18.1h11.6c5.3 0 8.1-4.9 8.1-9.1 0-4-2.6-9.1-7.8-9.1h-11.9zM126.9 416.8h9.3l6.4 52.2h-11.1l-3.6-31.3-12.3 25.3H107l-12.3-25.3-3.6 31.3H79.9l6.4-52.2h9.2l15.8 33.6 15.6-33.6zM175.4 416.2c14.8 0 26.5 12 26.5 26.8 0 14.7-11.7 26.7-26.5 26.7S149 457.7 149 443c-.1-14.8 11.6-26.8 26.4-26.8zm0 42.6c8.6 0 15.5-7 15.5-15.8 0-8.7-6.8-15.8-15.5-15.8-8.6 0-15.4 7.1-15.4 15.8 0 8.8 6.7 15.8 15.4 15.8zM250.3 469h-9.9l-18.2-31.6V469h-11.1v-52.2h10.2l17.9 31.2v-31.2h11.1V469zM258.5 416.8h39.4v10h-14.1V469h-11.2v-42.2h-14.1v-10zM347 416.8V469h-11.2v-21h-18.6v21h-11.1v-52.2h11.1v21.3h18.6v-21.3H347zM359.3 416.8h11.1v42.4H390v9.8h-30.7v-52.2zM404.6 469v-23.6l-20.2-28.6h13.2l12.6 19.5 12.7-19.5h13.2l-20.2 28.7V469h-11.3z"/></g></svg>
