<svg width="236" height="25" viewBox="0 0 236 25" fill="none" xmlns="http://www.w3.org/2000/svg">
<g clip-path="url(#clip0_53_1313)">
<path fill-rule="evenodd" clip-rule="evenodd" d="M-1.6286 3H3.3714C7.23253 3 10.3235 3.73707 12.9858 4.93859C15.4846 6.0663 17.4537 7.54812 18.9822 8.69841C19.0237 8.72962 19.0648 8.76058 19.1057 8.79128C20.7423 10.0223 21.9168 10.884 23.3279 11.5209C24.6433 12.1145 26.3256 12.5742 28.8288 12.5742C31.332 12.5742 33.0143 12.1145 34.3297 11.5209C35.7408 10.884 36.9153 10.0223 38.5519 8.79128C38.5927 8.76057 38.6339 8.72961 38.6754 8.6984C40.2039 7.54811 42.173 6.0663 44.6717 4.93859C47.3341 3.73707 50.425 3 54.2861 3C58.1473 3 61.2383 3.73707 63.9007 4.9386C66.3994 6.06631 68.3685 7.54812 69.8971 8.69842C69.9386 8.72963 69.9797 8.76059 70.0205 8.7913C71.6572 10.0224 72.8317 10.884 74.2428 11.5209C75.5582 12.1146 77.2405 12.5743 79.7438 12.5743C82.2469 12.5743 83.9291 12.1146 85.2444 11.5209C86.6555 10.8841 87.8299 10.0224 89.4666 8.79134L89.5899 8.69855C91.1184 7.54823 93.0875 6.06636 95.5864 4.9386C98.2487 3.73707 101.34 3.00001 105.201 3.00001C109.075 3.00001 112.177 3.73537 114.848 4.93479C117.363 6.06422 119.341 7.54906 120.879 8.70261L120.991 8.78733C122.635 10.0202 123.812 10.8827 125.226 11.5205C126.543 12.1146 128.226 12.5743 130.729 12.5743C133.232 12.5743 134.914 12.1146 136.23 11.5209C137.641 10.884 138.815 10.0224 140.452 8.79134L140.575 8.69844C142.104 7.54816 144.073 6.06634 146.572 4.93863C149.234 3.73709 152.325 3.00001 156.186 3.00001C160.047 3.00001 163.138 3.73708 165.8 4.9386C168.299 6.0663 170.268 7.5481 171.797 8.69839L171.92 8.7913C173.557 10.0224 174.731 10.884 176.143 11.5209C177.458 12.1146 179.14 12.5743 181.644 12.5743C184.158 12.5743 185.848 12.1137 187.17 11.5188C188.587 10.881 189.766 10.0182 191.407 8.78736L191.53 8.69476C193.063 7.54426 195.037 6.06336 197.54 4.9365C200.207 3.73627 203.303 3.00001 207.171 3.00001C211.032 3.00001 214.123 3.73708 216.785 4.9386C219.284 6.06632 221.253 7.54815 222.782 8.69845L222.905 8.79131C224.542 10.0224 225.716 10.884 227.128 11.5209C228.443 12.1146 230.125 12.5743 232.629 12.5743H237.629V22.5743H232.629C228.767 22.5743 225.676 21.8372 223.014 20.6357C220.515 19.508 218.546 18.0261 217.018 16.8758L216.894 16.783C215.257 15.5519 214.083 14.6902 212.672 14.0534C211.356 13.4597 209.674 13 207.171 13C204.657 13 202.966 13.4605 201.645 14.0555C200.227 14.6933 199.048 15.5561 197.408 16.7869L197.284 16.8795C195.751 18.03 193.778 19.5109 191.274 20.6378C188.607 21.838 185.511 22.5743 181.644 22.5743C177.782 22.5743 174.691 21.8372 172.029 20.6357C169.53 19.5079 167.561 18.0261 166.033 16.8758L165.909 16.783C164.272 15.5519 163.098 14.6902 161.687 14.0534C160.371 13.4597 158.689 13 156.186 13C153.683 13 152.001 13.4597 150.685 14.0533C149.274 14.6902 148.1 15.5519 146.463 16.7829L146.34 16.8758C144.811 18.0261 142.842 19.5079 140.343 20.6357C137.681 21.8372 134.59 22.5743 130.729 22.5743C126.867 22.5743 123.777 21.8371 121.114 20.6361C118.622 19.5118 116.654 18.0348 115.125 16.8873L114.991 16.7869C113.353 15.5582 112.171 14.6951 110.751 14.0572C109.424 13.4614 107.726 13 105.201 13C102.698 13 101.015 13.4597 99.6999 14.0534C98.2888 14.6902 97.1143 15.5519 95.4777 16.7829L95.3542 16.8759C93.8257 18.0261 91.8567 19.5079 89.3581 20.6356C86.6958 21.8372 83.6049 22.5743 79.7438 22.5743C75.8827 22.5743 72.7917 21.8372 70.1293 20.6357C67.6305 19.508 65.6614 18.0261 64.1329 16.8758C64.0914 16.8446 64.0503 16.8137 64.0094 16.783C62.3728 15.5519 61.1983 14.6902 59.7871 14.0534C58.4717 13.4597 56.7894 13 54.2861 13C51.7829 13 50.1007 13.4597 48.7853 14.0533C47.3741 14.6902 46.1997 15.5519 44.563 16.7829C44.5222 16.8136 44.4811 16.8446 44.4396 16.8758C42.9111 18.0261 40.942 19.5079 38.4432 20.6356C35.7809 21.8371 32.6899 22.5742 28.8288 22.5742C24.9677 22.5742 21.8767 21.8371 19.2144 20.6356C16.7156 19.5079 14.7465 18.0261 13.218 16.8758C13.1765 16.8446 13.1354 16.8136 13.0945 16.7829C11.4579 15.5519 10.2835 14.6902 8.87231 14.0534C7.55692 13.4597 5.87463 13 3.3714 13H-1.6286V3Z" fill="#5388B4"/>
</g>
<defs>
<clipPath id="clip0_53_1313">
<rect width="236" height="25" fill="white"/>
</clipPath>
</defs>
</svg>
