<svg width="236" height="28" viewBox="0 0 236 28" fill="none" xmlns="http://www.w3.org/2000/svg">
<path d="M2 1.56042C14.881 1.56042 14.881 10.8475 27.762 10.8475C40.643 10.8475 40.6429 1.56043 53.5239 1.56043C66.4049 1.56043 66.4049 10.8475 79.2859 10.8475C92.1669 10.8475 92.1669 1.56043 105.048 1.56043C118 1.56043 118 10.8475 130.881 10.8475C143.762 10.8475 143.762 1.56043 156.643 1.56043C169.524 1.56043 169.524 10.8475 182.405 10.8475C195.321 10.8475 195.321 1.56043 208.238 1.56043C221.119 1.56043 221.119 10.8476 234 10.8476M-nan -nanC-nan -nan -nan -nan -nan -nanC-nan -nan -nan -nan -nan -nanC-nan -nan -nan -nan -nan -nan" stroke="#066FE0" stroke-width="2.5" stroke-miterlimit="10" stroke-linecap="round"/>
<path d="M2 16.5604C14.881 16.5604 14.881 25.8475 27.762 25.8475C40.643 25.8475 40.6429 16.5604 53.5239 16.5604C66.4049 16.5604 66.4049 25.8475 79.2859 25.8475C92.1669 25.8475 92.1669 16.5604 105.048 16.5604C118 16.5604 118 25.8475 130.881 25.8475C143.762 25.8475 143.762 16.5604 156.643 16.5604C169.524 16.5604 169.524 25.8475 182.405 25.8475C195.321 25.8476 195.321 16.5604 208.238 16.5604C221.119 16.5604 221.119 25.8476 234 25.8476M-nan -nanC-nan -nan -nan -nan -nan -nanC-nan -nan -nan -nan -nan -nanC-nan -nan -nan -nan -nan -nan" stroke="#066FE0" stroke-width="2.5" stroke-miterlimit="10" stroke-linecap="round"/>
</svg>
